<svg xmlns="http://www.w3.org/2000/svg" viewBox="0 0 154.7 15.99"><title>Fichier 2</title><g id="Calque_2" data-name="Calque 2"><g id="Calque_1-2" data-name="Calque 1"><path d="M3.74,10.51a1.76,1.76,0,0,0,.16.55A10,10,0,0,0,7,14.2a1.23,1.23,0,0,1,.55.44,1.14,1.14,0,0,1,.11.83A1,1,0,0,1,7,16a1.34,1.34,0,0,1-1.16-.33c-.65-.53-1.35-1-2-1.52A5.42,5.42,0,0,1,3,13.22Q1.67,11.52.39,9.78A1.68,1.68,0,0,1,0,9,3.36,3.36,0,0,1,.22,8a.24.24,0,0,1,.13-.12C2.49,6.8,3.84,4.8,5.67,3.36a4.54,4.54,0,0,1,1-.73,1,1,0,0,1,.8.22c.14.11.13.43.15.65a.44.44,0,0,1-.13.32c-1,.8-1.51,2-2.58,2.71A2.67,2.67,0,0,0,3.57,8c.21.43.53.37.82.37,3.35.05,6.7.08,10.06.15,1.56,0,3.11.18,4.67.2q3.59,0,7.19,0c2.34,0,4.67-.16,7-.22,1.56,0,3.12,0,4.68-.06l6.47-.11c.24,0,.48,0,.72,0,3.54.16,7.07-.1,10.61-.14,4.44,0,8.87,0,13.31,0,.84,0,1.68,0,2.52,0,2.51.06,5,.17,7.54.19,4.92,0,9.83,0,14.75.06,3.9,0,7.8-.09,11.69.1,2.46.12,4.91,0,7.37.17a90.47,90.47,0,0,0,9.53-.29c2.21-.12,4.42-.33,6.64-.42s4.43-.06,6.65-.17c3-.16,6-.35,9-.65A25.58,25.58,0,0,1,149,7a15.28,15.28,0,0,0,2,0,.52.52,0,0,0,.34-.83,15.06,15.06,0,0,0-1.54-1.5c-.26-.21-.8-.16-.94-.4-.59-1-1.57-1.64-2.21-2.57a1.46,1.46,0,0,1-.11-1,1.17,1.17,0,0,1,1.15-.7,1.84,1.84,0,0,1,1.53.82,9.58,9.58,0,0,0,2.42,2.37,16,16,0,0,1,1.83,2c.19.22.31.51.5.73.92,1.1,1,1.31.25,2.51a15.37,15.37,0,0,1-1.26,1.74c-1,1.21-2,2.37-3,3.61a4,4,0,0,1-1.37,1.12.93.93,0,0,1-1.26-.28c-.3-.41-.37-1.07,0-1.33,1.53-1.19,2.37-3,3.89-4.21a1.62,1.62,0,0,0,.28-.42c-.17-.37-.46-.36-.77-.34l-2.15.16-10.21.65a5.54,5.54,0,0,1-.72.07,58.11,58.11,0,0,0-7,.29c-2.44.12-4.89.21-7.33.46-1.48.15-3-.06-4.49,0a37.73,37.73,0,0,1-5.71-.2,5.28,5.28,0,0,0-1.08,0,58.66,58.66,0,0,1-7.71,0,19.72,19.72,0,0,0-4.66,0,3.12,3.12,0,0,1-.89-.06c-.72-.06-1.43-.17-2.15-.16q-3.22,0-6.45.18a9.33,9.33,0,0,1-2.84-.14,6.61,6.61,0,0,0-2.5,0,22.65,22.65,0,0,1-5.38,0,26.71,26.71,0,0,0-7,0,6.93,6.93,0,0,1-1.06,0l-2.69,0h-2a4.22,4.22,0,0,0-.72,0,38.84,38.84,0,0,1-6.1.16c-2.39,0-4.78.19-7.17.3a6.72,6.72,0,0,1-.72,0c-2.39-.15-4.78-.32-7.17-.46a10.92,10.92,0,0,0-1.79.05,44,44,0,0,1-6.29.23c-1.37-.05-2.75.08-4.13.13l-3,.12c-1.38.06-2.75.16-4.13.2s-2.75,0-4.13,0c-1,0-2,0-3.05,0-1.62,0-3.23.11-4.85.12C10.25,10.52,7,10.51,3.74,10.51Z"/></g></g></svg>