<svg xmlns="http://www.w3.org/2000/svg" viewBox="0 0 506.59 486.83"><title>Fichier 1</title><g id="Calque_2" data-name="Calque 2"><g id="Calque_1-2" data-name="Calque 1"><g id="MUTpvv"><path d="M.51,251.88c0-4.64-.12-9.29,0-13.93.13-3.83.56-7.66.91-11.48A1.55,1.55,0,0,1,2,225.39c3.51-2,2.09-4.59,1.3-7.4a8.75,8.75,0,0,1,.54-4.87C6,207,8.25,201,10.67,195a7.84,7.84,0,0,1,3.08-3.18c3-1.92,6.37-3.33,9.17-5.49a11.4,11.4,0,0,0,3.39-5.39c3.58-11.24,7-22.64,14-32.22,4.78-6.49,8.29-14,15-19.15,2.54-2,3.54-6,5.23-9,2.64-4.79,5.32-9.55,7.87-14.39,1.37-2.61,3.5-4.6,4.1-8,.47-2.62,4-4.58,5.82-7.09,3.12-4.3,5.88-8.85,9-13.17a36.08,36.08,0,0,1,4.82-5.39c2.59-2.41,5.59-4.4,8-7,2.84-3,5-6.65,7.91-9.61a124,124,0,0,1,10.67-9.44c10-8.15,21-14.88,32.32-21.08,1.91-1,4.28-1.27,6.44-1.85,1.66-.45,2.91-.89,3.33-3.11.54-2.84,6-4.35,9.11-4.27s6.24-1.13,9.21-2.23c4.08-1.51,8-3.12,12.56-2.75,1.1.09,2.28-.86,3.43-1.3,2.31-.88,4.57-2.11,7-2.53,4.64-.83,9.39-1.1,14.06-1.81,7.21-1.1,14.35-2.78,21.59-3.49C248.6,1,259.52.34,270.43,0c5-.15,10,.91,15,1.43a6.67,6.67,0,0,0,1.26.12c11.34-1,22.18,1.79,33.09,4.16,6,1.31,12,3.21,18.11,3.58,5.63.34,10.2,1.95,14.25,5.67.57.53,1.58.55,2.35.89,11.77,5.27,23.57,10.48,35.27,15.92,2.37,1.1,4.34,3.07,6.5,4.64C402.06,40.58,408,44.56,413.55,49c5.36,4.23,10.39,8.88,15.53,13.38,3.59,3.14,7.46,6,10.61,9.57,6.31,7.06,13.81,13,18.78,21.34,2.78,4.66,6.62,8.7,10,13,7.34,9.43,13.87,19.37,18.54,30.42,4.19,9.9,9.06,19.55,10.7,30.4.54,3.55,2.26,6.92,3.37,10.39a33.4,33.4,0,0,1,1.37,5.28,458.65,458.65,0,0,1,4.09,50.67c.56,17-2.94,33.35-5.14,49.93-1.31,9.89-3.14,19.72-4.45,29.61-1.56,11.78-5.31,22.93-9.12,34.09-.86,2.51-1.47,5.13-2.48,7.58-2,4.78-4.31,9.41-6.2,14.22a134.79,134.79,0,0,1-19.7,35c-10.74,13.49-21.78,26.82-36.67,36.17-1.31,3.78-5.23,4-8,5.74q-19.21,12.17-38.59,24.07a34.67,34.67,0,0,1-5.8,2.41,3,3,0,0,1-1.15,0c.24-.32.42-.76.74-1,2.65-1.56,5.35-3,8-4.61a7.16,7.16,0,0,0,1.27-1.26,6.19,6.19,0,0,0-1.56.2c-3.51,1.41-7.2,2.52-10.46,4.38a79.71,79.71,0,0,1-22.56,8.81,160.88,160.88,0,0,1-19.4,3.09c-4.13.38-8.36-.41-12.55-.62-1,0-2.33-.24-2.83.28-2.89,3-6.44,2-9.9,2.09-2.31.06-4.6.87-6.91,1.3-2.88.54-5.75,1.12-8.65,1.51a44.16,44.16,0,0,1-5.43.23c-1.76,0-4.15,1.15-4.21-2.23,0-.26-1.07-.76-1.59-.7-2.74.31-5.48.73-8.2,1.18-.68.11-1.33.68-2,.64-4.67-.25-9.36-.38-14-1-4.44-.59-8.85-2.57-13.19-2.33a35.53,35.53,0,0,1-11-.85c-9.31-2.38-18.94-3.79-27.9-7.05-4.44-1.62-9.26-1.89-13.27-3.91-5-2.5-10.32-3.57-15.31-5.75s-10.15-4.54-15.28-6.7c-2.3-1-4.77-1.52-7.08-2.46a43.49,43.49,0,0,1-5.9-2.93c-5-3-10-6.24-15-9.18-8.49-4.92-17.15-9.43-23.87-17-3.37-3.8-8.21-6.25-12-9.71-2.1-1.9-3.47-4.62-5.16-7-.4-.56-.62-1.46-1.14-1.67-5.59-2.31-8.26-7.55-11.61-11.93-4.75-6.21-9.68-12.29-12.87-19.68-1.62-3.74-4.3-7-5.16-11.25-.22-1.09-1.58-1.92-2.26-3-1.26-2-2.5-3.93-3.59-6-2.28-4.33-4.77-8.6-6.62-13.11-3.82-9.32-7.49-18.72-10.82-28.23-2.63-7.53-4.63-15.29-7-22.92-.49-1.59-.74-2.91-3.38-3.06-4.32-.25-6.88-4.23-9.75-7-3.45-3.32-6.22-7.35-9.16-11.17A5,5,0,0,1,0,267.91c-.05-5.34,0-10.69,0-16ZM345.83,469.54c1.66-.67,3.36-1.25,5-2,2.22-1.05,4.29-2.54,6.73-.25.4.38,1.9-.18,2.75-.59.51-.24.75-1,1.11-1.6-.74-.2-1.47-.45-2.22-.6-.4-.08-.85.08-1.25,0s-.92-.31-1-.56a1.33,1.33,0,0,1,.53-1,6,6,0,0,1,8,1.16,9.47,9.47,0,0,0,1.12,1.08c.31-.39.76-.73.89-1.18,1.11-3.55,2.41-6.8,7.15-6.14.47.07,1.38-.27,1.48-.6,1.55-5.12,6.57-5.2,10.29-7.13.45-.24,1.21.11,1.83.19a11.33,11.33,0,0,1-1.19,1.08c-2,1.34-4,2.63-5.91,4a4,4,0,0,0-.78,1.11,4.15,4.15,0,0,0,1.17-.18c4.91-2.31,9.82-4.64,14.7-7,.44-.22.68-.85,1-1.29-.6,0-1.21,0-1.81,0-1.13.11-2.25.28-3.37.42a14.34,14.34,0,0,1,3.09-2.47c1.09-.47,2.47-.22,3.71-.39a8.48,8.48,0,0,0,3.43-.78,75.05,75.05,0,0,0,6.65-5.17c2.45-2.08-1.69-3.11-.88-5-.83-.08-1.88-.53-2.45-.19C400,437.86,394.08,441,389,445c-5.47,4.34-11.7,7-17.64,10.33-4.68,2.63-11.14.64-14.48,6-.05.09-.26.08-.4.12-12.36,3-24.23,7.94-36.95,9.61-10.24,1.35-20.42,3.23-30.7,4.13-8.75.77-17.59.47-26.38.67a7.08,7.08,0,0,0-1.59.41,13.3,13.3,0,0,0,1.36.68c7.56,2.75,15.19,1.59,22.89.64,6.71-.83,13.45-2.84,20.28-.53a2.14,2.14,0,0,0,1.59-.29c4-2.57,8.2-2,12.45-.73,1.33.38,2.52.11,1.25-1.57-1.16-1.53-.6-1.79,1-1.87a27.08,27.08,0,0,0,6.25-.57c5.36-1.56,10.61-3.48,15.94-5.17a44.86,44.86,0,0,1,4.79-1l-2.65,3.67c-2.1,0-4.2,0-6.29.14a7.72,7.72,0,0,0-2.21.9c.17.35.28,1,.53,1a5,5,0,0,0,2.63.29A55,55,0,0,0,345.83,469.54Zm102.5-101.91c.9-.28,2.57-.51,2.59-.83.12-2.41,2.11-2.7,3.51-3.84a5.84,5.84,0,0,0,2.31-5.89c-.48-2.52-1.25-3.78-4.13-3.33-.58.09-2.35-2.76-2.14-3a32.35,32.35,0,0,1,5.19-4.57,7.28,7.28,0,0,1,2.6-.65c-.77-.76-1.43-2-2.32-2.17-1.93-.41-4.07-3.42-6,.1a1.54,1.54,0,0,1-1.38.07c-1.57-2.35-3.46-1.28-5.53-.9a11.51,11.51,0,0,1-6.2-.33c-3.83-1.62-7.4-3.87-11.07-5.86-.55-.29-1.49-.89-1.64-.74-3.85,3.93-2.84-1-3.6-2.1-.93-1.35-1.25-3.21-2.69-.34a2.64,2.64,0,0,1-2.5.51,13.63,13.63,0,0,1-4.66-3.29c-1.23-1.59-1.6-3.82-2.56-5.66-2.37-4.5-4.86-8.94-7.31-13.4-.4-.72-1.37-1.76-1.17-2.07,1.65-2.57-.59-4.34-1.52-6a21.15,21.15,0,0,1-2.73-7.29c-.6-3.82-1.44-7.61-2.31-11.38-.44-1.91-2.24-4.38-1.58-5.49,1.89-3.16-.23-4.89-1.25-7.25-1.52-3.51-3-6.91-3.1-11.09s-2.78-8.1-2.66-12.6c.08-3.12-3.42-6.22,0-9.39a.94.94,0,0,0,.13-.64c-4.15-1.63-.08-3.52-.2-5.25-.08-1.09-.57-2.15-.74-3.24s-.18-2.28-.26-3.43c2.89.6,1.83-.88,1.44-2.42-.58-2.31-.64-4.75-1.15-7.08-.89-4.09-.71-8.22-.93-12.34-.28-5.37-1.6-10.72-2.8-16-1.32-5.8-3.17-11.49-4.47-17.3-.53-2.36.2-5-.39-7.33-1.08-4.23-2.74-8.31-4.14-12.46-1.07-3.16-.8-3.44,2.66-3,.42,0,.89-.27,1.34-.41-.44-.29-.86-.78-1.33-.84-3.52-.47-3.83-2.64-3.25-5.57a9.89,9.89,0,0,0-.33-3.63c-.85-4.38-1.28-8.93-2.78-13.08-1.56-4.31-.58-8.62-1-12.9-1.19-11.4-2.87-22.63-7-33.34-1.7-4.4-4-8.62-8.66-10.83-1.63-.77-3.08-2-4.76-2.55-3.62-1.18-7.35-2.64-11-.08-7.46,5.18-15.54,9.77-17.85,19.65-.7,3-1.6,6-2.58,8.89s-2.61,5.38-.93,8.5c.28.53-.42,1.56-.59,2.37a20.3,20.3,0,0,0-.56,3.28c-.25,5.77-.54,11.55-.61,17.32s-1.25,11.73-1.2,17.65c0,4.48,0,9-2.45,13a5.49,5.49,0,0,0-.41,2c-.9,6.4-1.75,12.81-2.7,19.2-.46,3.11-1.08,6.2-1.68,9.29-.47,2.43-1.33,4.83-1.5,7.28-.57,8.12-.1,16.4-1.59,24.33a177.82,177.82,0,0,0-2.63,19.93c-.66,9-1,18-1.57,27-.62,10-1.37,19.89-2,29.84-.31,5.21-.49,10.43-.62,15.65-.11,4.19.5,8.48-.23,12.55-1.31,7.37.91,15.28-3.37,22.18.71,5-2.35,8.53-4.75,12.22-2.55,3.93-5.67,7.49-8.34,11.35-3.28,4.73-8.12,7.43-12.66,10.64-7.34,5.19-15.31,6-23.73,4.29-3.56-.71-6.85-2.8-10.11-3.91-4.47-1.52-6.86-4.84-9.22-7.64a111.93,111.93,0,0,1-12.33-19,35.31,35.31,0,0,1-3.66-12.38c-.69-5.87.1-11.93-.66-17.79-1.14-8.65-3.05-17.19-4.71-25.77-.71-3.68-1.56-7.34-2.42-11-1.37-5.8-2.66-11.63-4.25-17.37a62.51,62.51,0,0,0-3.64-9.75c-2.15-4.6-3.47-9.67-7.24-13.4a12.88,12.88,0,0,1-1.54-2c-5.29-7.84-16.77-9.58-24.35-3.95-8.25,6.14-14.27,13.76-16.92,23.81-.68,2.57-.86,5.36-4.24,6.07-.31.07-.58,1.08-.6,1.67,0,1.83.34,3.72,0,5.47-.25,1.18.56,3.74-2.39,3.21-.29-.05-1.13,1-1,1.09,2.55,4.34-2,7.47-2,11.57,0,2.95-3.34,5.74-4.37,8.87a67.69,67.69,0,0,1-11.58,20.93,29.26,29.26,0,0,1-4,4.08c-2.3,1.95-5,3.5-7.08,5.63-4.71,4.77-10.41,6.13-16.8,5.61a9.26,9.26,0,0,1-1.69-.46c.1.77.2,1.54.3,2.31.07.49.14,1,.22,1.47-2.59-.47-5.36,1.44-7.91-.93-.75-.69-2.59-.21-3.94-.26a25.83,25.83,0,0,1,.41,2.69,12.66,12.66,0,0,1-.18,2.38c-.08.57-.26,1.13-.4,1.69.66.05,1.53.4,1.93.11,1.78-1.33,3.41-2.86,5.13-4.28a1.79,1.79,0,0,1,1-.26c.08,0,.32.53.24.65-2.32,3.61.58,3,2.54,3.17,2.51.22,4.57,2.29,5.65,5.52.1.29.82.55,1.24.53.69,0,1.35-.4,2-.49,2.13-.27,3.93-.26,2.24,2.73a3.41,3.41,0,0,0,.05,1.94c3.76.19,2.12,2.12,1.45,4-.29.78.12,1.84.25,2.76a32.6,32.6,0,0,1,.82,5.7c-.06,1.86.09,2.43,1.95,1.44.5-.27,1.3,0,2,.08a7.76,7.76,0,0,1-.69,2.14c-.79,1.15-1.89,2.09-2.62,3.27-.32.53-.06,1.42-.06,2.14a8.08,8.08,0,0,0,1.76-.5c.32-.17.44-.7.71-1,1.62-2,2.46-1.73,3.25.78.65,2.07,2,3.92,3,5.89.53,1.07,1.62,2.52,1.28,3.26-1.52,3.27-.09,3.56,2.62,3.25.31,0,.92,1,1.13,1.7,1.87,5.76,4.73,10.7,10.14,14a10.92,10.92,0,0,1,4,4.1c1.46,2.85,4,3.7,6.62,4.66s5.33,1.72,7.45,3.31c6.24,4.71,12.16,9.85,18.31,14.69,1,.79,2.56.9,3.84,1.36,1.51.54,3.29.78,4.45,1.75,4.21,3.52,8.1,7.4,13.83,8.46,1,.19,1.87,1.19,2.85,1.72a42.1,42.1,0,0,0,5.92,3c4.22,1.49,8.53,2.73,12.82,4a55.75,55.75,0,0,0,5.53,1.28c3.47.65,7.29.51,10.34,2a21.45,21.45,0,0,0,9.59,2.4c1.54,0,3.06,1.15,4.62,1.69.68.23,1.72.6,2.12.29,4.59-3.61,9.44.32,14.09-.6,1.79,3.47,4.86,1.93,7.45,1.73s4.48,1.66,6.38,1.75c5.52.25,11.08-.64,16.63-1,2.83-.2,5.82-2,8.26,1.45.49.69,4.26.34,4.5-.29,1-2.72,2.3-2,4.09-1.1a5.08,5.08,0,0,0,2.78.38c3.63-.43,7.29-.78,10.85-1.54,8.69-1.85,17.39-3.45,25.91-6.27,8.34-2.76,17.07-4.29,24.49-9.41a12.66,12.66,0,0,1,2-.66c3.52-1.59,8.16-2.33,10.29-5,3.43-4.35,8.91-3.32,12.59-6.52,1.08-.94,3.67.3,3.14-3a2.48,2.48,0,0,1,4.25-1.81c.28.22,1.27-.09,1.7-.45,4.05-3.39,7.86-7.13,12.15-10.18,2.68-1.91,4-4.08,3.93-7.15-.09-2.76,1.09-3.35,3.29-2.18,1.71.91,2.58.47,3.21-1.2.23-.62.64-1.61,1.06-1.66,4.4-.55,4.25-6.12,8.1-7.31.33-.1.2-1.85.18-2.83A8.69,8.69,0,0,0,424,393c.67,0,1.62-.39,2-.08,1.38,1.28,1.94.49,2.87-.6a35.21,35.21,0,0,1,4.55-4.3c1.69-1.39,1.88-2.89.12-4.05-3.41-2.24,1.91-4.06.15-6.18-.15-.18.19-1.12.51-1.27,2.83-1.3,5.62-3,8.82-.72.46.33,1.42,0,2.15-.07-.32-.55-.52-1.31-1-1.59a10,10,0,0,0-2.45-.71c-1.56-.42-3.13-.81-4.67-1.29-.27-.09-.41-.6-.62-.91.25-.1.6-.37.73-.29,2.83,1.77,5.83.69,8.75.52a27.29,27.29,0,0,0,4.08-.85l-1.56-3ZM159.66,41.9c0-1.14.57.76-1.37,1.38-5.46,1.73-9.58,6.49-15.64,6.83a1.36,1.36,0,0,0-.94.78c-1.64,4.66-6.86,4.86-9.87,8-3.61,3.71-8.26,6.4-12.19,9.84s-7.24,7.06-10.83,10.62c-1.2,1.19-3.86,2.05-.94,4.28a3.48,3.48,0,0,1-1,2.57c-1.28.79-2.18,1.21-.61,2.53,2.21,1.86-1.17,2.83-.72,4.42-.72-.7-1.49-1.35-2.16-2.1s-1.14-1.58-1.78-2.32a18,18,0,0,0-1.6-1.47c-.46.78-1.48,1.74-1.3,2.31.89,2.7.58,4-2.7,3.51-.44-.06-1.19,2.15-1.81,3.3-.25.48-.63,1.38-.78,1.35-3.73-.86-3.49,2.49-4.71,4.32a47.62,47.62,0,0,1-3.62,4.82,20.25,20.25,0,0,1-2.86,2.31A17,17,0,0,0,84.72,112c2.79,2.09,3,2.84,1.12,6.12a11.76,11.76,0,0,0-.7,1.94l.12-.1c-2.67-.45-5.33-.93-8-1.32-.3,0-.72.29-1,.54-4.81,4.41-4.71,5.24,1.06,8.7a.58.58,0,0,1,.27.31c.67,3.52,4.18,3,6.31,4.41l-.14-.14c1.24,1.5,1,3.77,1.57,5,1.46,2.82.24,3.61-1.6,4.81-.38.25-.4,1-.63,1.52-.79,1.79-.69,4.17-3.26,4.81-.29.07-.64.94-.55,1.34.21.91.7,2.52,1,2.51a4.61,4.61,0,0,0,3.06-1.16c1.56-1.79,2.95-.72,3.93.24.4.39-.12,2.27-.76,3s-2.07,1.24-3.17,1.76a12.62,12.62,0,0,1-1.71.55c.41.53.82,1.07,1.23,1.6a26.33,26.33,0,0,1,2.9,3.78c.44.83.16,2,.2,3.06-1.18-.42-2.4-.77-3.54-1.28a29.13,29.13,0,0,1-2.66-1.58c-.77-.45-1.59-.84-2.32-1.35-.4-.28-.84-1.15-.93-1.1a11.6,11.6,0,0,0-3.11,1.9,8.46,8.46,0,0,0-1.22,2.63c1.2.29,2.39.63,3.6.84.3,0,.66-.5,1-.53s1.44.09,1.47.26c.6,3.89,3.11,5.59,6.73,6.14.27,0,.5.42.74.63-.18.2-.33.51-.55.58-.65.19-1.34.24-2,.4-.85.22-1.68.5-2.52.75.44.84.91,1.67,1.31,2.54.27.59.44,1.22.65,1.83-.74,0-1.61.33-2.2,0-2.06-1-3.44-1.2-3.58,1.77,0,.33-1.65.91-2.44.79a17.53,17.53,0,0,1-3.62-1.32c.3,1.38.62,2.76.87,4.15,0,.24-.18.52-.28.79a36.76,36.76,0,0,0-4,.86c-.46.15-.74.86-1.1,1.32.56.32,1.43,1,1.61.88A43.2,43.2,0,0,0,71.34,184c1.19-.15,2.38-.33,3.58-.45,1-.11,2.33.2,3.09-.31,2.08-1.39,3,.14,3.38,1.45a3.18,3.18,0,0,1-1.24,2.87,6.29,6.29,0,0,1-3.86,0c-1.37-.35-2.19-.36-2.08,1.28a18.11,18.11,0,0,0,.51,2.53c-1.13-.3-2.28-.54-3.4-.9-2.23-.71-4.41-1.63-6.68-2.13-.73-.16-1.69.7-2.55,1.1.56.68,1.1,1.93,1.67,1.94,2.89.06,3.9,2.13,5,4.16l.11-.1a44,44,0,0,0-5.11-.72,3.08,3.08,0,0,0-2.38,1c-.42.67-.5,2.21,0,2.63.7.64,2,.64,3,.91.22-2.56.9-1.46,2-.38a5.84,5.84,0,0,0,2.72,1.1c1.87.45,4.45.16,5.5,1.31,1.53,1.68.64,5,3.17,6.51a2.44,2.44,0,0,1-.66,1.42c-3.48,1.89.59,6.52-3.05,8.3,3.06,2.28.78,3.28-1,4.56-.29.21-.12,1.39.16,2,1,2.12,1.44,4.08-.26,6.14a2.87,2.87,0,0,0,0,2.44c1.23,2.84.34,5-1.51,7.25-1.18,1.47-1.62,3.62-2,5.55-.06.33,2,1,3,1.58,1.76.89,1.75,2.46,0,4.08a25.92,25.92,0,0,0-4.34-3.06c-1.09-.49-2.55-.16-3.84-.2,0,.51-.07,1.45.05,1.48,2.72.63,5.45,1.17,8.19,1.72.9,1.8,3.22,3.62-.2,5.35a2.34,2.34,0,0,0,0,2.14c1.71,1.59,2.64,2.78,0,4.55-.51.35.33,2.82.71,4.26.09.34.83.52,1.27.77a7.63,7.63,0,0,1-1.53.38c-2.22.08-4.45.06-6.66.19-.49,0-1,.54-1.44.82.47.14.94.31,1.42.42a19.35,19.35,0,0,1,2.06.44,12.13,12.13,0,0,1,1.72.92,8.89,8.89,0,0,0-1.63,1,16.27,16.27,0,0,0-1.51,1.81c.65,0,1.31.05,2,0a36,36,0,0,1,4.3-.32c.62,0,1.21.76,1.82,1.17-.44.48-.8,1.26-1.32,1.38-1.36.31-2.87.08-4.14.54a3,3,0,0,0-1.68,2.24c0,.63,1.14,1.42,1.93,1.88,1,.58,2.2.77,3.16,1.37.64.4,1.57,1.6,1.43,1.79-.58.82-.84,1.94-2.72,1-2.43-1.24-3.35.13-3.86,3-.43,2.43,1.37,3.22,2.38,4.6a12,12,0,0,0,2,1.75A25.58,25.58,0,0,0,73.11,292a9.28,9.28,0,0,0,.26-1.92c.74.28,1.79.37,2.13.91a3,3,0,0,1,.28,2.54c-.68,1.28-2.06,3.43-2.69,3.28-2.12-.51-3-.36-2.76,2a1.83,1.83,0,0,1-1.38.62c-1.58-.74-3-1.94-4.61-2.44-2.18-.68-5.67-2-6.56-1a16.82,16.82,0,0,1-8.93,5c-.43.09-.76.61-1.13.93.41.34.79.92,1.25,1,2.07.3,2.89.56.6,2.22-.55.4-.32,2.69.3,3.59a3.26,3.26,0,0,0,3.19.59c1.18-.83,2.59-2.4,2.59-3.67,0-4.74,2.87-4.48,6.15-4.21,1.19.1,2.43-.55,3.67-.75.13,0,.3.8.6,1.06.72.63,1.61,1.74,2.29,1.65,3.74-.52,4.94,1.79,6.42,4.59,1.32,2.5.47,3.4-1.62,3.89-2.71.63-5.49,1-8.24,1.44a8.59,8.59,0,0,0-1.42.52c.31.36.57.94,1,1,2.45.68,3.36,1.57.68,3.3-.12.08,0,.95.27,1.15a10.4,10.4,0,0,0,2.47,1.59c3.6,1.5,7.21,4,10.94.23a2.27,2.27,0,0,1,.73-.33c0,.49,0,1,0,1.46-.16,4.06.52,5.1,4.4,4.75a17.72,17.72,0,0,0,7.78-2.46,97.48,97.48,0,0,0,14.06-10.47,71.32,71.32,0,0,0,9.65-12c2.16-3.15,3.64-6.77,5.33-10.22a3.27,3.27,0,0,0,0-2,3.81,3.81,0,0,1,1.38-4.45c.71-.55.87-1.83,1.25-2.79s.73-2,1.13-2.92c.61-1.46,1.34-2.88,1.87-4.36.71-2,1.18-4,1.93-6,.47-1.22,2.1-2.93,1.78-3.35-1.91-2.53-.47-4.84,0-7.21.22-1.06.32-2.24,2.15-1.17.71.42,2.32-.7,3.52-1.11-.87-.37-1.76-.72-2.61-1.14a5.45,5.45,0,0,1-.94-.74c.34-.38.71-1.12,1-1.09,2.43.25,1-1.32,1.3-2.19.74-1.94-1.57-5.38,2.55-5.77a17.34,17.34,0,0,0-.44,2.89c0,.27,1.15.79,1.17.77.83-1.17,1.59-2.39,2.37-3.6l-3.19,0,1-2.12c2.08,1.48,3.39-1,5.15-1,2.38,0,2-1.23,1.47-2.78-1.17-3.77-.64-5.2,2.61-7.32,3.73-2.43,7.46-4.86,11.23-7.21,3-1.9,9.49-1.13,11.56,1.78,1.46,2.05,2.8,2.55,4.88,1.46,1.33-.69,1.92-.59,3.24.65,1.11,1,3.91,4.73,6.09.24.1-.21,1.76,0,2.41.43,3.33,2.18,6.06,4.8,7.59,8.72a29.5,29.5,0,0,0,4.8,8.22c3.45,4.09,5.94,8.44,6.37,13.86a6.72,6.72,0,0,0,.91,2.18c2,4.05,4.67,7.83,2.68,12.88-.5,1.26-2.05,5.16,2.6,4.17.18,0,.76.64.69.79-1.62,3.64,2.38,6.42,1.41,10.08-.86,3.22.56,6.8-1.29,10-.17.29.34,1,.53,1.49,3.68-1.6,2.89.36,2.15,2.57a3.13,3.13,0,0,0,.55,2.22c1.26,2,2.24,4-.14,5.93a1.31,1.31,0,0,0-.21.83c3.37,1.31,1.69,4.81,3,7.11.88,1.59.27,4,.29,6.08,0,2.42-.79,5.2.13,7.19,3.43,7.5,6.85,15.11,11.34,22,4.86,7.42,13.54,9.65,21.33,12.82.56.23,1.36-.15,2-.22.87-.08,1.89-.44,2.57-.11,1.54.73,1.84.13,2.19-1.23.52-2,1.23-3.49,3.79-4.24a5,5,0,0,0,3.87-5.74c-.14-.84.76-2.05,1.49-2.8,2.11-2.16,4.44-4.1,6.54-6.27a6.07,6.07,0,0,0,1.8-3.14c.81-7.26,1.48-14.53,2.06-21.81.2-2.46-.05-5,0-7.43a22.82,22.82,0,0,1,.58-3.62c.21-1.05.47-2.1.75-3.14.56-2.08,2.21-5.46,1.55-6-2.61-2.11-1.38-4.27-1.1-6.49.41-3.33.87-6.65,1.33-10a25.62,25.62,0,0,0,.57-3.64c0-3.81-.22-7.63-.34-11.44,0-.53.26-1.39,0-1.54-2-1.29-1.28-2.81-.49-4.33s2.26-2.93,2.26-4.4c0-2.52-1.65-5.11,1-7.26-.16-6.87-.29-13.75-.48-20.62-.05-1.94-.67-3.95-.31-5.78.48-2.44,1.71-4.73,2.51-7.12a4,4,0,0,0,.16-2.27c-1.58-5.33-1.84-10.5,1.12-15.55.49-.84,0-2.18.19-3.27.34-2.34.8-4.66,1.21-7,.07-.4.18-.8.27-1.2-3.19-.5-1.25-2-.71-3.35,2.05-5.16,4.44-10.26,2.76-16.1a8.24,8.24,0,0,1,.07-3.35c.87-5.82,1.77-11.62.4-17.5-.21-.88-.14-2.33.42-2.81,2.83-2.46,1.66-5.57,1.86-8.52a5.47,5.47,0,0,1,1.64-3.71c1.92-1.41,1.88-2.88.48-4.15-3.29-3-2.06-6.52-1.58-10,.64-4.58,2.85-8.85,1.89-13.8-.32-1.63,2.9-4.24,2.36-5.48-1-2.42-1.4-4.43-.44-6.77.88-2.15,2.37-4.24.22-6.54a1.53,1.53,0,0,1,.26-1.45c2.54-2.09.62-6.71,4.56-8,.09,0,.14-.46.06-.64-1.93-4.57,1.25-5.21,4.47-5.91.28-.06.65-1.1.59-1.14-1.27-.9-3.69-1.24.12-2.51,1.41-.47,2.91-4,2.37-7a6.46,6.46,0,0,1,1.59-4.59,29.86,29.86,0,0,1,5.33-4.36c1.24-.9,2.55-2.17,3.93-2.31,3.61-.36,6-2.69,9-4.29,4.35-2.37,9.13-4.78,13.79-.2a1.29,1.29,0,0,0,1.24.07c2.46-2.73,3.75-1.28,4.92,1.22.12.25,1.08.1,1.65.13-.33-2.85,1.57-1.31,2.35-1a61.66,61.66,0,0,1,6.3,3c2.82,1.47,5.4,3.11,4.72,7-.14.79-.13,2,.35,2.43a15.25,15.25,0,0,0,3.39,1.8,7.28,7.28,0,0,0,.34-1.52,22.26,22.26,0,0,0-.2-2.33,9.34,9.34,0,0,1,1.9,2.08,27.08,27.08,0,0,1,1,3.59c.39,1.26.66,3.42,1.35,3.57,2.74.63,4.07,1.67,3.06,4.61-.06.17.57.79.94.86,3.81.64,3.8,3.69,3.64,6.36-.1,1.69-.79,2.73,1.27,4a8,8,0,0,1,3.35,5.36c.28,3.47-.69,7-.81,10.54a27.64,27.64,0,0,0,.71,7c.51,2.28,1.41,4.39.33,6.81-.4.9.1,2.23.23,3.35.08.68.49,1.41.33,2a5.1,5.1,0,0,0,1.7,5.85,2,2,0,0,1,.6,1.46c-.29,1.88-.3,4-1.22,5.54-1.3,2.16-2,3.49.71,5.11.93.56,1.75,3.37,1.33,3.75-2.24,2.05-.22,4.14-.42,6.14-.09.94.75,1.94.84,2.94.36,4,.5,7.94.9,11.9.22,2.19,1.54,4.53,1.06,6.48-1.22,5,1.13,9.82-.27,14.89-.77,2.76,1,6.16,1.31,9.3.17,2-.27,5.79-.57,5.8-4,.19-1.86,1.8-1.07,3.38a9.28,9.28,0,0,1,.38,3.09c.3,2.93.71,5.85.84,8.78a14.91,14.91,0,0,1-.82,3.57,2.37,2.37,0,0,0,0,1.18,24.3,24.3,0,0,1,1.21,3.39c.37,2.29-.32,5.52,1,6.68,1.57,1.43,1.56,2.66,1.67,4.22.15,2-.45,4.46.51,5.92,2.53,3.88,3.23,8.13,3.63,12.49.45,4.93-.58,10.06,2.2,14.66a4,4,0,0,1,.24,2.05c-.11,3-.27,6-.4,9-.17,3.86,2,9.24,4.59,11.54.26.23.26.75.42,1.12.5,1.16,1,2.31,1.52,3.46.93,2.16,2.46,4.28,2.63,6.5s1.23,3.5,2.56,5.17a14.88,14.88,0,0,1,2.85,7.58c.15,1.56-2.11,3.49,1.58,3.18.12,0,.49.63.41.85-1.05,3,1.29,2.81,3,3.5A21.66,21.66,0,0,1,425,321c.73.5,1.47,1,2.21,1.46.93.6,1.86,1.21,2.8,1.79,3.38,2.09,6.54,4.85,10.2,6,3.15,1,6.91.54,10.34.2a13,13,0,0,0,5.09-2.2c-1.28-3.83,2.13-2.55,3.39-3s3,0,4.54,0a1.87,1.87,0,0,0,1.07-.46c.08-.06-.16-.8-.35-.85-2.78-.72-2.69-3.37-3.66-5.31a22.11,22.11,0,0,0-1.24-2,8,8,0,0,1,2.87-.17c1,.32,1.74,1.3,2.69,1.81a26.07,26.07,0,0,0,4.05,1.79c.38.13,1-.39,1.49-.62a6.62,6.62,0,0,0-1.27-1.24c-1.32-.73-2.73-1.28-4-2a17.22,17.22,0,0,1-2.13-1.66l2.53-2.38c.83,1.05,1.47,2.44,2.55,3.06a4.25,4.25,0,0,0,3.36-.1c.55-.25.6-1.63.88-2.51l-2.57-.44c.54-1.44,1.51-3-1.21-3.29-1.45-.15-2.88-.44-4.32-.67,1.47-.11,3-.15,4.4-.37a5.64,5.64,0,0,0,1.65-.89,9.62,9.62,0,0,0-1.26-.78,5.32,5.32,0,0,0-1.17-.23,4.93,4.93,0,0,0,.49-.59c.63-1,1.27-2.07,1.84-3.14a10.12,10.12,0,0,0,.55-1.65c-.54,0-1.18-.3-1.61-.11-1.39.64-2.68,1.72-3.75-.44-.68-1.37-2.45-3-2.11-3.9.54-1.42,2.43-2.33,3.77-3.44a7.08,7.08,0,0,1,1.1-.62,31,31,0,0,1,3.25.88c2.16.83,4.29,1.68,6.38-.06.15-.13,0-1-.09-1-3-.37-6-.69-9-.94a5.88,5.88,0,0,0-.37,1.26l-5.83-.52c.32-1.82.64-3.64,1-5.46,0-.1.21-.17.32-.26a12.18,12.18,0,0,1,1.46,3.06c.27,1.59.91,1.72,2.29,1.31,2.34-.69,4.74-1.15,7.1-1.79a20.71,20.71,0,0,0,2.6-1.08,8.34,8.34,0,0,0-2.38-.64c-3,.11-4.43-1.2-4.34-4.19a44.68,44.68,0,0,0,4.6-.29,1.69,1.69,0,0,0,1-1.36c-.4-1.81-4.77-4.34-6.9-4.38a15.73,15.73,0,0,1-3.44-.83,35.24,35.24,0,0,1,1.46-3.28c.25-.44.9-.64,1.31-1a14.44,14.44,0,0,0,1.07-1.15A13.72,13.72,0,0,0,468,270c-.55-.08-1.12,0-1.68-.08s-1.08-.14-1.61-.21a7.22,7.22,0,0,0,1.46-.6c1.26-.87,3.28-1.62,3.57-2.77,1-4.13,3.67-6.52,7.53-6.08a12.33,12.33,0,0,0,2.27-.15c-.29-.92-.34-2.13-1-2.67s-1.73-.13-2.54.13c-.54.17-1.28,1.28-1.3,1.27-2.76-2.46-5.37,1.25-8.09.19-.36-.14-1,.33-1.46.52l1.31.75,1.27.77a7.06,7.06,0,0,1-4.35.59c-.83-.3-1.42-1.24-2.12-1.89a17.39,17.39,0,0,1,2-1c1.18-.43,2.42-.7,3.58-1.15a7.48,7.48,0,0,0,1.51-1.07c-.48-.59-.85-1.4-1.47-1.7s-1.69-.07-2.43-.38a7.39,7.39,0,0,1-1.75-1.49,19.34,19.34,0,0,1,1.88-.62,1.83,1.83,0,0,1,1.24,0c3.54,2.34,7.29.56,10.94.54.94,0,1.87-.9,2.81-1.39-.88-.55-1.72-1.48-2.65-1.58-4.56-.52-7.13-3.19-8-7.43-.36-1.76-1-2-2.12-1.1-2.25,1.83-3.2.28-4.21-1.36-.19-.31-.36-.64-.54-1,.39-.14.88-.5,1.15-.38,2.75,1.21,5.14,1.84,6.88-1.73.4-.83,2.49-.83,3.81-1.21-.57-1-1.8-2.12-1.6-2.88,1.08-4-.5-1.8-1.87-1a4.09,4.09,0,0,1-2.48.06,11.81,11.81,0,0,1-2.2-.81c.61-.38,1.2-.78,1.83-1.12s1.45-.73,2.17-1.09a10.37,10.37,0,0,0-2-1.78c-1.69-.84-3.65-1.45-.51-3-2-.58,1-3.14-.65-2.8-2.78.59-2.34-2.41-4-2.77,0,0,0-1.16.24-1.32a3.31,3.31,0,0,1,4.86,1.66c0,.18.29.47.37.45,2.38-.71,4.77-1.4,7.12-2.23.28-.1.51-1,.37-1.42s-1-.78-1.21-.65c-2,1.56-2.91,0-4.12-1.19a3.07,3.07,0,0,0-2.14-.69c-2.25.18-4.49.63-6.74.79-.56,0-1.17-.65-1.76-1,.57-.42,1.09-1.1,1.7-1.2,2.31-.39,4.69-.47,7-.93a2.53,2.53,0,0,0,1.58-1.82c0-.69-.93-2.08-1.29-2-2.43.38-3.43-1.4-4.9-2.66a33.06,33.06,0,0,0-4.61-2.85c2.18-.63,4.36-1.29,6.55-1.88a26.12,26.12,0,0,1,2.63-.44c-.81-.27-1.6-.6-2.42-.8-.54-.13-1.14,0-1.67-.15a5.43,5.43,0,0,1-1.25-.76,4.52,4.52,0,0,1,1.24-.85,36.63,36.63,0,0,1,4.92-1.08c2-.24-.12-3.85,2.76-3.16l0-.85-4.19.5c.92,1.66,0,2.47-1.47,2.54a9.06,9.06,0,0,1-3.67-.68c-.45-.18-1-1.63-.76-1.81a17.63,17.63,0,0,1,4.41-3.57c3.4-1.58,7,2.69,10.5-.09.41.73.8,1.46,1.22,2.18.89,1.52.41,4.56,3.76,3.34a5.87,5.87,0,0,1,1.25,0c.65-.07,1.28-.2,1.93-.31a11.72,11.72,0,0,0-1.9-.74c-.91-.19-1.86-.22-2.79-.32,1.27-2-2-4.25.41-6.39,3-2.71,2.89-2.85-1.2-4.1a26.34,26.34,0,0,0-2.88-.55l1.49-3.06c-1.11.38-2.25.7-3.32,1.17-.28.12-.39.66-.58,1-2.84,1.17-2.83,1.17-3-1.72a2.34,2.34,0,0,0-.18-.81c-.77-1.72-.91-3,.3-4.23.94-.92,1.17-1.19.13-2.17a2.36,2.36,0,0,1-.08-2.34c.69-.76,2-.94,2.8-1.64,2.12-1.81-1.31-1-1-2a1,1,0,0,1,.54-.51c1.65-.7,3.31-1.4,5-2a3.45,3.45,0,0,1,1.35.1,8.11,8.11,0,0,0-1-1.39c-.86-.83-1.81-1.59-2.72-2.38s-1.44-1.63-2.34-1.94a23.74,23.74,0,0,0-4.91-.91,9.79,9.79,0,0,0-2.31.28,5.15,5.15,0,0,1,1,1.6,6.49,6.49,0,0,1-.27,2c-.46-.24-1.21-.37-1.34-.73-1.29-3.5-4-4.53-7.43-4.69a9.38,9.38,0,0,1-2.35-.75,10.5,10.5,0,0,1,2.07-1.94c.66-.35,1.6-.12,2.38-.32a6.46,6.46,0,0,0,1.52-.85,9.48,9.48,0,0,0-1.53-1.43c-.21-.13-.74.33-1.15.41-1.46.31-4.11,2-2.1-1.82.08-.16-.39-.79-.73-1a19.46,19.46,0,0,0-2.29-.87,11.45,11.45,0,0,0,1.62-2c.2-.37-.25-1.48-.21-1.49,1.59-.41,3.34-1.29,4.79-1,3.27.76,6,1.27,7.2-2.91,0-.17.78-.15,1.2-.21-.1.55-.16,1.11-.32,1.65-.69,2.34-3,5.19,1.92,5.74.07,0,2.7,2,.05,3.14-.47.21-.68,1-1,1.49.56.19,1.17.65,1.65.53,1.53-.37,2.71-.79,2.45,1.68,0,.36,2.84,1.76,3.64,1.32,2-1.06,0-1.89-.73-2.75-.35-.42-.84-.92-.84-1.39,0-5.2-4.84-7.42-6.93-11.32.15-1.82.37-3.63.4-5.45a6.54,6.54,0,0,0-.67-2c-3.46,1.32-3.86.08-2.77-3,.26-.73-.65-2.45-1.46-2.86-2.86-1.44-3.15-3.85-3.38-6.59-.1-1.19-.09-4-2.85-1.55-.64.57-3.24.29-3.45-.22-1-2.28-2.76-1.84-4.5-2.13-.9-.15-1.67-1.08-2.49-1.65a11.14,11.14,0,0,1,2.91-1.22c.69-.09,1.49.53,2.19.93s1.3,1.15,2,1.29a10.32,10.32,0,0,0,2.83-.2c-.41-.69-.83-1.36-1.22-2.06q-2.61-4.65-5.21-9.32c-.82-1.48-1.58-3-2.48-4.41-.24-.38-.93-.46-1.42-.68,0,.5.11,1,.13,1.49s0,1-.06,1.54c-.63-.15-1.44-.11-1.84-.49a15.83,15.83,0,0,1-1.66-2.39c-2.41-3.4-4.33-7.36-7.37-10.07-6.12-5.47-13.35-9.83-15.61-18.53-.12-.47-.66-.83-1-1.25-.27.5-.75,1-.77,1.49-.07,1.84-.77,2-1.93.78-1.37-1.4-2.62-2.91-4-4.33a18.3,18.3,0,0,0-3.58-3.45c-11-6.39-21.71-13.18-31.51-21.31a4.53,4.53,0,0,0-1.79-1c-8-1.7-14.34-6.72-21.37-10.33-2.63-1.35-3.81-1.32-5,1.45-1.56,3.59-4.54,4.83-7.52,2.47-1.36-1.07-2.15-3.54-2.24-5.42-.13-2.81-1.16-4-3.86-4.43-5.8-.84-11.62-1.66-17.36-2.82-17.94-3.64-36.09-4-54.31-4.13a194.93,194.93,0,0,0-38.37,3c-13,2.5-25.93,5.57-38.39,10.27-4.68,1.77-9.48,3.26-14.26,4.74-3.35,1-2.26,2.55-3.87,3.39Zm54.65-24,.36.49a70.08,70.08,0,0,0,6.59-3c1.77-1,3.14-1.92,4.48.54.25.45,1.68.56,2.45.36,6.48-1.68,12.91-3.61,19.42-5.17a27.43,27.43,0,0,1,8.34-.8c6.24.47,12.46,2.46,18.67-.28a2.15,2.15,0,0,1,1.64.15c2.91,1.56,5.34,0,8-.86,2-.66,4.59-1.22,6.36-.49,5.86,2.44,11.59,5,18.09,5.34,4.42.24,8.58,3.11,13.29,1.19,1-.41,2.49.13,3.68.49,3.4,1.05,6.73,2.37,10.16,3.31,1.12.31,2.46-.21,3.7-.36-.35-1.49-.37-3.18-1.13-4.42-1.79-2.9-5-2.57-7.9-3-4.23-.66-8.56-2.65-12.6-2.13-4.49.58-8-2.07-12.55-1.66-6.81.61-13.85-1.3-20.79-2.16-5.93-.74-11.85-1.53-17.78-2.29a2.91,2.91,0,0,0-.84,0c-4.77.8-9.51,1.75-14.3,2.39-5.68.75-11.44.93-17.07,1.9-10.5,1.81-21.41.94-31.56,5.34-3.89,1.69-8.42,1.84-12.64,2.82-5.46,1.27-10.92,2.53-16.32,4-3.61,1-6.08,7.39-4.15,10.24a1.65,1.65,0,0,0,1.4.56c2.66-.67,5.34-1.34,7.93-2.25s4.81-2,7.19-3.06a34.09,34.09,0,0,0,5.45-2.66c2.33-1.6,4-5.37,7.5-1.66.21.22,1.11,0,1.59-.26,2.14-1,5.15-.1,6.53-3,.2-.42,1.78-.31,2.7-.24C211.59,17.37,212.95,17.66,214.31,17.87ZM376.64,95.94c-.46-3.27.9-6.73-1.72-9.83a19.32,19.32,0,0,1-3.77-9,12.23,12.23,0,0,0-3.72-6.72c-2.1-2.23-4.36-4.48-5.72-7.14a4.2,4.2,0,0,0-2.64-2.58c-2.17-.77-4.6-1.54-6.18-3.07-2.62-2.54-5.12-3.73-8.39-2.89-2.15.56-4.23.73-5.78-1.51a2.69,2.69,0,0,0-2.26,0c-1.57,3.78-5.12,2.57-7.88,3.38a10.59,10.59,0,0,0-4.06,2.22c-.94.86-3.46,3.39-4.41,4.37s-1.8,2.62-1.44,3.36c1.07,2.2.06,1.83-1.54,2.24-3.21.84-3.27,4.19-4.3,6.7,0,0,1,.62,1.1.51,2.32-2.28,5.91-4.29,6.56-7,1.07-4.47,5.32-4.71,7.64-7.32,2.09-2.36,6.43-3.3,10.4-3.69,5.17-.5,7.55-.37,11.58,3.32.53.48,1.55.4,2.34.62s2.34.3,2.57.85a9.62,9.62,0,0,0,6.39,5.64c.22.07.42.39.52.64,2.33,5.59,4.83,11.13,6.85,16.83.71,2,3,4.56-.24,6.68-.16.1.14,1.36.54,1.79,1.81,2,1.88,3.76-.07,5.71-.25.24.21,1.29.47,1.91.2.46.74.79.89,1.25.26.8.28,1.68.51,2.5a41.6,41.6,0,0,1,1.95,11.67c0,3,1.9,6.2-.82,9.07-.3.32.27,1.58.57,2.35,1,2.58,2.47,5,3,7.71,1.43,7.4,2.46,14.87,3.68,22.31a17.68,17.68,0,0,0,.66,2.22l2.5-2c-2.4-2.38,3.86-6.5-1.66-8.27-.13,0-.26-.52-.18-.7.57-1.32,1.2-2.61,1.79-3.93a7.35,7.35,0,0,0,.3-1.08c-3.6-.7-3.79-2.65-2.16-5.49.33-.58-.09-1.62-.24-2.43-1.1-6.11-3.39-12.13-1.53-18.49a.63.63,0,0,0,0-.39c-1.74-4.11-.51-8.18,0-12.29a12,12,0,0,0-.61-4C377.7,99.87,377.15,97.91,376.64,95.94ZM284.55,335a34.42,34.42,0,0,1-7.11,20.18q-2.43,3.26-5.09,6.35c-3.17,3.69-6,7.91-9.78,10.79-2.9,2.2-7,3.31-10.76,3.7a11.61,11.61,0,0,1-7.94-2.51c-3-2.57-8.15-2.13-9.52-6.88-.12-.41-1.29-.85-1.85-.73-3.24.72-3.41-1.93-4.52-3.75a11.48,11.48,0,0,0-3.63-4.12c-2-1.1-3.62-2-3.72-4.51,0-.61-.8-1.38-1.42-1.76-2.28-1.36-4.61-2.44-2.11-5.74.44-.58-.75-2.46-1.29-3.69-.28-.65-1.16-1.26-1.09-1.8.44-3.16-3.35-1.26-3.77-3.27-.69.94-1.92,1.86-2,2.83a13.32,13.32,0,0,0,1,4.91c.54,1.5,1.67,2.81,2.17,4.32,1.24,3.77,1.66,7.92,5.53,10.29.32.2.45.7.67,1.06,2.69,4.47,6.12,8.37,9.42,12.37a5.94,5.94,0,0,0,1.7,1.69c2.43,1.18,5,2.1,7.41,3.31,5,2.51,10.36,2,15.39,1A27.22,27.22,0,0,0,268.64,369a76,76,0,0,1,8.1-8.37c4.92-4.47,6.49-10.75,9.09-16.44,3.06-6.7.08-14.26,2.46-21.15a5.32,5.32,0,0,0-.19-2.5,6.82,6.82,0,0,0-.63-1.44c-.4.46-1.08.89-1.15,1.39C285.68,325.31,285.13,330.15,284.55,335ZM179.6,459.8c-.58-.53-.78-.73-1-.9-3.23-2.61-6.13-5.72-10.75-6-1.08-.06-2.09-1.2-3.15-1.82-1.86-1.1-3.71-2.2-5.58-3.27-2.78-1.58-5.62-3.08-8.37-4.71-1.07-.64-1.91-1.68-3-2.28a176.75,176.75,0,0,1-15.48-10.28A221.26,221.26,0,0,1,111,413.48q-7.66-6.91-15.3-13.84c-.73-.66-1.26-1.73-2.09-2a15.84,15.84,0,0,0-3.84-.46c.19,1.15,0,2.57.65,3.39A51.61,51.61,0,0,0,96.25,407q6,5.58,12.31,10.83c6.35,5.29,12.41,11.08,19.32,15.51,10.49,6.72,20.88,13.83,32.85,17.93,1.56.54,2.87,1.77,4.38,2.49,4.28,2.06,8.61,4,12.93,6A4.91,4.91,0,0,0,179.6,459.8ZM160.2,31.93c-.07-4.84-1-5.48-5-3.33-3.84,2-7.51,4.34-11.23,6.57-5.85,3.49-12.79,5.41-16.77,11.62-.33.51-1.26,1-1.18,1.37,1.18,5.33,1.21,5.33,6.39,2.82a8.46,8.46,0,0,0,2.15-1.25c6.25-5.85,14.16-8.78,21.65-12.45C158.52,36.12,160.73,34.86,160.2,31.93ZM483,139.07c-.55-2.58-.5-5-1.57-6.83-3.09-5.19-6.5-10.2-10-15.11-4.86-6.79-9.87-13.47-15-20.09-2.43-3.16-5.1-6.15-7.8-9.09a12.73,12.73,0,0,0-3.11-1.86l2.06,3.15c.3.47.8.92.84,1.41.31,3.58,2.92,5.21,5.57,6.87.78.49,2,1.25,2,1.85-.12,2.86,2.1,4.08,3.59,5.85,2.35,2.78,4.64,5.62,6.84,8.51.43.56.36,1.51.51,2.28-.7-.18-1.42-.33-2.1-.56a10.7,10.7,0,0,1-1.37-.7c.11.49.06,1.1.34,1.45a28.27,28.27,0,0,0,4.19,4.63c2.48,1.89,4.32,3.76,5.37,7,1.31,4.06,5.9,6.56,6.52,11.31,0,.35,1.64.57,2.54.68C482.68,139.87,483,139.18,483,139.07ZM360.37,22.19c-1,.79-2.26,1.45-2.81,2.5-.21.41,1.1,2.09,2,2.52q7.2,3.36,14.57,6.33c3.76,1.51,7.62,2.54,9.85,6.57.58,1.05,3,1.1,4.54,1.61-.34-3.65,1.69-1.06,2.73-1a10.5,10.5,0,0,1,1.55.28c0-.67.3-1.48,0-2a5.45,5.45,0,0,0-2.12-2.44,60.17,60.17,0,0,1-13.57-8.23c-.61-.46-1.59-.42-2.38-.69-1.56-.53-3.11-1.1-4.64-1.69C367,24.77,363.91,23.56,360.37,22.19ZM499.46,195l.81-.12c-.74-4.26-1.46-8.52-2.27-12.77-.08-.41-.7-.72-1.07-1.07-.12.4-.26.79-.34,1.2-.61,2.9-1.22,5.79-1.79,8.69-.38,1.94-.78,3.72,1.62,5,1,.56,1.52,2.43,1.84,3.8a50.24,50.24,0,0,1,.66,5.68c.09.81.6,2.17.33,2.34-2.43,1.54-.8,3.54-.48,5.12s.64,2.46-.06,4.21c-.85,2.15-2.83,5.64,1.57,7.26.43.16.42,2,.33,3a44.86,44.86,0,0,1-.81,4.46c-.35,1.84,2.74,4.23-.87,5.59,0,0,.08.86.3,1a18.69,18.69,0,0,0,2.3.93,7.15,7.15,0,0,0,.77-2.25c-.06-3.49-.83-7.08-.3-10.46,1.49-9.39-.23-18.42-2.11-27.49C499.63,197.78,499.6,196.38,499.46,195Zm-374-141.46c-1-1.32-1.78-3.33-2.62-3.35a7,7,0,0,0-4.68,1.8c-2.53,2.51-4.13,6.55-7.06,7.91s-4,3.45-5.57,5.48c-.73,1-.43,2.81-.39,4.26.07,2.94,3.91-1.38,3.86,2l2-2.46c1.17-1.46,2.27-3,3.53-4.35,1.12-1.22,2.46-2.25,3.63-3.43,2.05-2.08,4-4.21,6.06-6.32C124.58,54.57,125,54.09,125.45,53.54ZM306.2,113.69h.5c0-.56.2-1.23,0-1.66a37.91,37.91,0,0,0-2.22-3.18c-.27,1.08-.61,2.16-.79,3.26-.08.5.26,1.05.21,1.56q-.79,9.56-1.64,19.11c-.48,5.45-1,10.91-1.45,16.36a13.44,13.44,0,0,0,.21,2.36c.59-.65,1.49-1.21,1.72-2,.89-2.87.87-5.91,1.26-8.82.53-3.94.43-8,1.88-12C307.42,124.2,306.2,118.73,306.2,113.69ZM57.2,338.28c-2.17-3.89-3.64-6.87-5.43-9.64s-4.39-5.29-5.91-8.28c-1.86-3.63-2.92-7.66-4.46-11.47-.24-.58-1.17-.89-1.77-1.32a7.58,7.58,0,0,0,.13,1.93,101.83,101.83,0,0,0,10.15,22c1.33,2.1,2.21,4.48,3.47,6.63a2.52,2.52,0,0,0,2,.92A4.93,4.93,0,0,0,57.2,338.28Zm146.58-53.11,1-.47-3.53-5.21c-.31.44-.92.9-.89,1.32.19,3.17,2.29,6.31.08,9.53-.08.12.11.57.29.73,3.6,3.16,3.48,7.56,4.06,11.77a5.65,5.65,0,0,0,1.36,2.34c.1.12,1.14-.16,1.19-.38a7.35,7.35,0,0,0,.2-2.87,30.77,30.77,0,0,0-1.44-4.69c-.53-1.4-.56-2.22,1.32-1.78a6.1,6.1,0,0,0,1.36,0c-.24-.46-.36-1.19-.73-1.34C203.71,292.31,206.46,287.6,203.79,285.17ZM56,288h-.2c-3.34,0-3.31,0-2.21-3,.08-.22-.82-1.16-1.23-1.14-2.59.12-5.35-.25-7.17,2.44-.4.6-1.58.67-2.4,1,1,0,2,0,3-.08.55,0,1.18-.3,1.62-.11a30.42,30.42,0,0,1,3,1.71,30.5,30.5,0,0,1-3,1.31c-1.3.43-2.66.7-4,1a20.75,20.75,0,0,1,3.84.22,27.69,27.69,0,0,1,3.84,1.55c.44.18,1.23.52,1.33.39,2.41-3.18,6.12-1.92,9.19-2.83a7.29,7.29,0,0,0,1.95-1.42c-.68-.55-1.34-1.52-2-1.55A42.28,42.28,0,0,0,56,288ZM398.16,46.22c.27.86.31,2.24,1,3a38.37,38.37,0,0,0,5.22,4.66,7.75,7.75,0,0,0,3.27,1.4c.33.06.91-1.21,1.37-1.86a12.69,12.69,0,0,0,2,2.61,8,8,0,0,0,3,1.16,12.46,12.46,0,0,0,2.42.14,9.14,9.14,0,0,0-1.57-2.25c-3.84-3-7.76-5.83-11.67-8.72a20.55,20.55,0,0,0-2.76-1.9,9,9,0,0,0-2.29-.51ZM199.3,265.9l1.28-.63a68.68,68.68,0,0,0-3.37-7.92c-.49-.88-2.26-1-3.45-1.52,0,1.08-.35,2.28,0,3.23,1.32,3.61,2.89,7.12,4.29,10.69a13.43,13.43,0,0,1,.44,2.44c.17.94.37,1.87.56,2.8.89-.5,1.8-1,2.66-1.5,1.76-1.09,2.72-1.82-.15-3.09C200.39,269.87,200,267.46,199.3,265.9ZM485,143.49c-.38.34-.73.52-.73.68.12,2.61-.56,5.71.62,7.71,2.79,4.73,6.2,9.06,7.44,14.58.12.54.83,1,1.27,1.42l0-1.61c-.21-8-5.87-14.14-7.62-21.64C485.81,144.21,485.29,143.88,485,143.49ZM69.11,117.19a22.12,22.12,0,0,0,2.82-2.34c1.93-2.33,3.88-4.67,5.59-7.16a47.9,47.9,0,0,0,3.87-6.85c.29-.62-.37-1.71-.72-2.54a1.93,1.93,0,0,0-1.33.29c-1.51,1.71-3.6,3.29-4.22,5.31-1.35,4.41-3.87,8-6.62,11.47C68.36,115.57,68.76,116.19,69.11,117.19ZM20,212.43l.46,0a8.29,8.29,0,0,0-.16-1.66c-.27-.9-.66-1.76-1-2.64-.68.65-1.71,1.2-2,2-.65,2-.55,4.35-1.47,6.18-1.84,3.65.47,6.33,1.57,9.31.1.28.62.4.95.6a3.78,3.78,0,0,0,.43-1C19.21,221,19.6,216.7,20,212.43ZM424.09,66.85,422.94,68c1.13.72,2.22,1.5,3.4,2.14a24.32,24.32,0,0,0,2.7,1.1,12.39,12.39,0,0,0-1.2-2.86c-1.33-1.76-4.07-3.39-4.06-5.06,0-4.17-2.73-3.19-4.94-3.83s-2,.73-1.42,1.57a23.76,23.76,0,0,0,3.9,3.52C422.23,65.39,423.17,66.11,424.09,66.85ZM207.41,328.54c.2,1.31.4,2.62.6,3.93.34,2.21,2.07,2.25,3.47,1.69.75-.3,1.31-1.74,1.45-2.74s-.57-2.14-.48-3.18a2.38,2.38,0,0,0-1.52-2.59C207.34,323.89,207.37,326,207.41,328.54ZM55.94,196.62c-.27.11.43,0,.57-.29a1.54,1.54,0,0,0-.31-1.44,22.4,22.4,0,0,0-2.28-1c-1.63-.92-3.21-1.91-4.81-2.87L46.7,189.5A28,28,0,0,0,45.1,194c-.08.44,1,1.51,1.7,1.62C49.56,196.06,52.35,196.25,55.94,196.62Zm-6.52-39.88a15,15,0,0,0-1.22,1.95c-2,5.23-3.89,10.47-5.78,15.72a6,6,0,0,0-.05,1.86c.61-.42,1.55-.71,1.76-1.27,2-5.3,3.94-10.65,5.82-16C50.09,158.56,49.71,157.93,49.41,156.74ZM442.7,80a18.11,18.11,0,0,0-2.43-3.35,17.31,17.31,0,0,0-3.92-2.3,8.76,8.76,0,0,0-2.29-.41c.33.58.7,1.14,1,1.74a22.31,22.31,0,0,1,2.13,4.83c.44,2.17,1.5,3.43,3.57,3C441.48,83.36,441.86,81.62,442.7,80ZM85.52,351.49c-.08-.1-.15-.28-.24-.29-1.27-.18-2.71-.8-3.77-.4-2.23.84-3.89,4.62-2.8,6.13a23.4,23.4,0,0,0,3.67,3.38c.1-.33.1-.83.33-1,2.73-1.85-2.19-6.38,2.63-7.46C85.42,351.84,85.46,351.62,85.52,351.49ZM213.3,321c-.5-.81-.74-1.6-1-1.63-3.73-.29-2.71-2.46-2-4.67a9.09,9.09,0,0,0,0-2.69,22.57,22.57,0,0,0-2.26,1.85c-.51.54-.13,8.54.44,8.72a4.66,4.66,0,0,0,2.65,0A9,9,0,0,0,213.3,321ZM53.59,205.43l3-.46c-.37-.82-.52-2-1.15-2.4a15,15,0,0,0-5.24-2.67c-.8-.16-2,1.65-3,2.56.56.52,1,1.25,1.7,1.51C50.54,204.61,52.29,205,53.59,205.43ZM89.69,84.1l.66,3.19c.25-.11.59-.15.75-.33a79.82,79.82,0,0,0,5.37-6.27c.42-.59.07-2.12-.44-2.85a2.53,2.53,0,0,0-2.4-.14C92.13,79.8,90.89,82.09,89.69,84.1Zm-6,14.2A12.57,12.57,0,0,0,85,96.7q1.5-2.92,2.91-5.89a17.69,17.69,0,0,0,.64-1.8c-.77-.12-2-.6-2.23-.3a48.55,48.55,0,0,0-4.4,6.73C81.66,95.88,82.89,97.09,83.67,98.3ZM31.93,186.45A23.74,23.74,0,0,0,33,184.27q2.72-7.62,5.38-15.26a7.93,7.93,0,0,0,.22-1.53,5.55,5.55,0,0,0-1.22.88c-3.9,4.9-4.69,10.9-5.87,16.76C31.45,185.41,31.7,185.76,31.93,186.45Zm37.42,19.14a13.27,13.27,0,0,0-3.18,1c-.39.25-.62,1.64-.4,1.8a62.83,62.83,0,0,0,5.28,3.41c.17.1.86-.2.88-.37.15-1.32.61-2.83.15-3.94C71.71,206.58,70.2,206.14,69.35,205.59ZM309,93.19l-.55-.14c.13-.53.54-1.25.34-1.53a2.67,2.67,0,0,0-1.69-1c-.4,0-1.3.81-1.24.95,1.6,3.71-1,6.84-1.33,10.26a13.39,13.39,0,0,0,0,1.6c.52-.3,1.36-.48,1.5-.91C307.08,99.36,308,96.27,309,93.19ZM51.58,297.76c0-2.38-3.37-4-6.55-3.87-.31,0-.89.79-.84.86,1.09,1.57,2,3.55,3.5,4.44C48.49,299.66,50.42,298.23,51.58,297.76ZM96.35,76.07a7,7,0,0,1,1,.74c2.19,2.11,2.21-1.56,3.08-1.28,2.91.94,2.37-2.19,3.76-3,0,0-.37-1.51-.85-1.73C101.87,70.11,96.25,74.09,96.35,76.07Zm-44.92,148a25.93,25.93,0,0,0-2.77-2.22c-.34-.2-1.39,0-1.44.2a57.39,57.39,0,0,0-1.16,6.28c0,.27,1,1,1.45.95a12.26,12.26,0,0,0,2.73-.9,6.46,6.46,0,0,1-1.78-.73c-.16-.13.05-1.06.35-1.38A29.74,29.74,0,0,1,51.43,224.09ZM328.14,462.64l-.05-.27c-2.87.53-5.75,1-8.6,1.64-.64.14-1.17.77-1.74,1.18.74.24,1.53.79,2.22.67,3.34-.57,6.65-1.31,10-2a.77.77,0,0,0,.36-.2c.26-.25.49-.53.74-.8a3.71,3.71,0,0,0-.79-.21C329.54,462.62,328.84,462.64,328.14,462.64ZM237.77,467l-1.94.71c.64.42,1.24,1.1,1.93,1.21,3.25.51,6.52.88,9.79,1.25a3.21,3.21,0,0,0,1.15-.34c-.3-.35-.56-.93-.91-1C244.55,468.23,241.29,467.67,237.77,467ZM19.31,262.55a21.23,21.23,0,0,0-.51-3.34A3.79,3.79,0,0,0,17.43,257a2.3,2.3,0,0,0-2.15.81,4.65,4.65,0,0,0-.19,3.08c.26.83,1.18,1.48,1.87,2.15a15.3,15.3,0,0,0,1.51,1.16Zm482.57-15.72a28.83,28.83,0,0,0,0-3.58A9.81,9.81,0,0,0,501,241c-.73.92-1.82,1.75-2.07,2.79s.55,2.12.7,3.22c.2,1.54.23,3.1.33,4.65,0,.49.1,1,.15,1.48.47-.38,1.29-.7,1.36-1.14C501.73,250.24,501.77,248.42,501.88,246.82ZM69.58,370.48a3.66,3.66,0,0,0-.25-.55q-3.33-4.49-6.69-9c-.14-.19-.46-.23-.7-.34-.08.23-.3.54-.22.67,2,3.27,4,6.54,6.13,9.77.14.22.8.25,1.16.14S69.43,370.68,69.58,370.48ZM42.25,182.37a3.51,3.51,0,0,0-.67-1.05,1.35,1.35,0,0,0-1.16-.23c-1.33.59-3.17,7.15-2.34,8.42a1.55,1.55,0,0,0,1.24.13C40.31,187.34,41.21,185,42.25,182.37Zm7.23,59.49c1.18-.39,2.12-.65,3-1s2-1,3-1.48a31.54,31.54,0,0,0-3.49-2.5,2.58,2.58,0,0,0-1.86.28c-.07,1.43,1.85,3.58-1.53,3.66Zm1.43,13.63c-1.8-1.32-3-2.45-4.36-3-.45-.19-1.5,1-2.28,1.63a20.44,20.44,0,0,0,3.46,3.17C48.15,257.5,49.38,256.38,50.92,255.5Zm18-136.19a6.29,6.29,0,0,0-1.08-.44.78.78,0,0,0-.68.2q-2.42,4.41-4.75,8.86c-.14.26-.07.9.1,1s1,.16,1.09,0C65.28,125.9,66.94,122.85,68.88,119.31ZM53.46,174.14c-1.65-1.44-2.12.61-2.73,2.19-.4,1.05-.62,2.17-.93,3.26a22,22,0,0,1,2.69-2A25.79,25.79,0,0,1,56.2,176a4.73,4.73,0,0,1,1.38-.07c-.33-.43-.57-1.06-1-1.24A16.79,16.79,0,0,0,53.46,174.14Zm160.8,290.64,1.56-.94c-.23-.32-.42-.87-.7-.93-2-.39-4.11-.74-6.18-1-.35,0-1,.6-1.09,1s.51,1,.89,1.12C210.38,464.39,212.06,464.52,214.26,464.78ZM308.74,88l.89-.09c.25-.59.86-1.5.68-1.71-1.47-1.67.16-2.75.6-4.06a30.05,30.05,0,0,0,.69-3,18.27,18.27,0,0,0-2.72,2.21A4.32,4.32,0,0,0,307.7,84,18.84,18.84,0,0,0,308.74,88ZM249.52,477.28l3.66-1.43c-1.15-.15-2.3-.34-3.46-.45-1-.09-1.94-.07-2.9-.14-1.92-.13-3.83-.3-5.74-.45,2.06.72,4.12,1.47,6.2,2.15A15.44,15.44,0,0,0,249.52,477.28Zm-184.17-304c-1.32-1.23-1.73-1.95-2.25-2-2-.36-4.13-.53-6.2-.74a2.53,2.53,0,0,0-.79.18c.19.32.3.77.58.92A27.25,27.25,0,0,0,61.46,174C62.34,174.28,63.47,173.7,65.35,173.33ZM47.13,266.28v-1.06c-1.06-.39-2.17-1.18-3.17-1s-1.63,1.25-2.44,1.93c.58.64,1.28,1.91,1.71,1.82A19.4,19.4,0,0,0,47.13,266.28Zm-20.06-31.4c0,1-.07,2,0,2.95a7.55,7.55,0,0,0,.57,1.68c.15-.52.33-1,.45-1.56a53.13,53.13,0,0,0,1.38-6.36,14.12,14.12,0,0,0-.69-3.9,15.22,15.22,0,0,0-1.37,3A29.11,29.11,0,0,0,27.07,234.88Zm22.05,26.4.23.73c1.39-.47,2.81-.86,4.15-1.45.38-.16.52-.87.76-1.32a7.77,7.77,0,0,0-1.78,0c-1.34.27-2.65.71-4,1s-3,.45-4.46.77c-.28.06-.44.62-.66,1,.36.15.75.49,1.07.43C46,262,47.56,261.64,49.12,261.28Zm21,97.6c-.86,1.15-1.5,1.73-1.4,1.93a35,35,0,0,0,2.65,4.45,12.5,12.5,0,0,0,2-1Zm57.5,60.61a4.74,4.74,0,0,0-.47.92q3.69,3.24,7.45,6.4c.1.09.58-.07.67-.23a.76.76,0,0,0-.14-.71C132.74,423.79,130.31,421.75,127.65,419.49ZM63,180.82c-1.21,1.14-2.2,2-3,2.9-.34.39-.64,1.39-.47,1.53.48.41,1.61.87,1.78.68a22.66,22.66,0,0,0,2.55-3.59C63.9,182.15,63.39,181.59,63,180.82Zm203.2,290c1.16-.05,1.66.07,2-.12a15.31,15.31,0,0,0,1.8-1.35,12.76,12.76,0,0,0-1.7-.91,2.12,2.12,0,0,0-1.24,0c-1.3.38-2.57.83-3.86,1.26ZM460.51,143.6l-2.36,1.12c1,.15,2,.26,2.95.47.51.11,1,.58,1.49.53a18.49,18.49,0,0,0,2.75-.69A22,22,0,0,0,463,143.8,11.4,11.4,0,0,0,460.51,143.6ZM74.86,376.92l-2,1.93c1,1,2,2.11,3.07,3.09,0,0,1.21-.86,1.15-1C76.47,379.66,75.73,378.46,74.86,376.92Zm365.7,4.69-3.36-2.9a14.77,14.77,0,0,0-1.25,3.4c-.06.51,1.16,1.73,1.37,1.64A20.76,20.76,0,0,0,440.56,381.61ZM70.17,265.78c-1-.86-1.68-1.8-2.51-2a7.88,7.88,0,0,0-3.39.21c-.34.07-.54.84-.81,1.29a8.58,8.58,0,0,1,2.54,0c.86.25,1.56,1.08,2.42,1.33C68.85,266.71,69.49,266.11,70.17,265.78ZM44.1,281l0,.28a5.94,5.94,0,0,0-2.06.05c-.53.21-.88.89-1.31,1.36.65.36,1.28,1,2,1s1.27-.5,1.86-.86,1.22-.88,1.82-1.32ZM482,176l.06-.67a5.8,5.8,0,0,0-2-.65,24.93,24.93,0,0,0-3.52.7c.31.63.72,1.84.92,1.81A43.61,43.61,0,0,0,482,176Zm-66,256.66a36.68,36.68,0,0,0-3.25-3.61c-.16-.14-1.25.77-1.91,1.19,1.08.93,2.11,1.91,3.25,2.75C414.29,433.21,414.91,432.89,415.95,432.69Zm-28-198.88-2.62,1.58,1.69,2a7.23,7.23,0,0,0,1.27-1.76C388.44,235.12,388.09,234.48,387.94,233.81ZM68.76,164.89l-2.64.69c1.59.94,3.16,1.9,4.78,2.78.16.09.56-.27.85-.42ZM208.37,306.8l-3.2,1.73c.71.58,1.68,1.79,2.08,1.62a10.71,10.71,0,0,0,2.66-2.24ZM429.53,75.32a10,10,0,0,0-.47,1.8c0,1.37,2.41,3.12,3.9,2.81a2.13,2.13,0,0,0,.58-.34ZM474.89,202l2.32-1.59c-.65-.38-1.39-1.17-1.93-1.05-.78.18-1.4,1-2.1,1.57ZM112.58,407.21c-.13-.37-.14-.55-.23-.62-1.36-1.12-2.72-2.23-4.12-3.29-.09-.07-.52.32-.79.5,1,.9,2,1.81,3,2.68a3.52,3.52,0,0,0,1.09.56A6.26,6.26,0,0,0,112.58,407.21Zm81,49.91a3.07,3.07,0,0,0-.67-.48c-1.69-.6-3.38-1.21-5.09-1.73-.31-.09-.75.22-1.12.35.11.23.17.63.34.67,2,.54,4,1,6,1.51C193.17,457.49,193.39,457.24,193.59,457.12ZM147,241.57a37.83,37.83,0,0,0,2.68-3.82c.14-.26-.52-.95-.81-1.43-.78,1-1.6,2-2.31,3.11C146.38,239.65,146.65,240.16,147,241.57ZM82.45,388.68l-2.81-3.89-1.29,1,3.18,3.73ZM464.92,148.82l-1.67,1.12c.75.66,1.42,1.65,2.29,1.87.55.14,1.39-.87,2.09-1.36ZM44.31,276.07l-1-1.31L42,272.24a7.51,7.51,0,0,0-.95,2.36,2.32,2.32,0,0,0,1,1.9C42.65,276.72,43.54,276.24,44.31,276.07Zm413.09,102-1.18-1.52c-.39,0-1-.07-1.14.14-1.17,1.39-2.28,2.85-3.35,4.32-.11.15.12.55.19.84ZM57.22,141l-.65-2.32a29.35,29.35,0,0,0-1.94,3.39c-.16.38.37,1.06.58,1.6Zm329.21,23.39c-1.52-.71-2.3-1.34-3.1-1.36s-1.53.61-2.3,1c.4.48.82,1.38,1.19,1.36A27.42,27.42,0,0,0,386.44,164.39ZM58,341.45l-.75.27c0,.42-.25,1-.06,1.23a30.65,30.65,0,0,0,2.38,2.94c.21.23.64.26,1,.39a7.57,7.57,0,0,0-.51-1.94C59.42,343.33,58.66,342.41,58,341.45ZM198.3,458.54l-.29.54c1.64.69,3.27,1.39,4.92,2,.15.06.45-.24.68-.38-.13-.2-.23-.52-.41-.59C201.63,459.61,200.05,459.11,198.3,458.54ZM70.94,138.83a9.55,9.55,0,0,0-2.64-1.1c-.48,0-1,.7-1.5,1.09a27,27,0,0,0,2.85,1.4C69.8,140.29,70.25,139.58,70.94,138.83ZM490,215.47c-.71,1.55-1.32,2.29-1.31,3a7.82,7.82,0,0,0,.94,2.47c.43-1.15.93-2.29,1.26-3.47C491,217.17,490.62,216.71,490,215.47ZM191.8,246.2a33.26,33.26,0,0,0-3.11-1.57c-.07,0-.88,1.09-.74,1.37a11.55,11.55,0,0,0,1.7,2.08Zm102.66-40.34a8.9,8.9,0,0,0,.72-1.24c.46-1.29.94-2.59,1.29-3.92a3.78,3.78,0,0,0-.23-1.45c-.39.31-1,.55-1.14.94a42.57,42.57,0,0,0-1,4.41C294.07,204.92,294.3,205.28,294.46,205.86ZM78,350.27c-1.37-.78-2.05-1.49-2.65-1.42s-1,1-1.46,1.5c.57.5,1.13,1.39,1.71,1.41S76.88,351,78,350.27Zm407.7-111.13,3.1-1.34c-.42-.21-.91-.68-1.26-.59-1.29.3-2.54.79-3.8,1.21Zm-15.89,56.57-1.51.8a7.27,7.27,0,0,0,2.29,1.27c.63.09,1.37-.55,2.06-.86ZM427,421.47l1.13.7a22.31,22.31,0,0,0,1.32-2.58c.06-.15-.83-.92-1-.84a5.47,5.47,0,0,0-1.78,1.42C426.54,420.39,426.9,421,427,421.47Zm36.33-31-.44-1.57c-.36-.08-.92-.35-1.06-.21a22.82,22.82,0,0,0-2.19,2.62c-.08.12.45.86.47.85C461.22,391.63,462.29,391,463.35,390.47ZM53.52,150.08,52,148.78a7,7,0,0,0-1.08,2.14c-.05.42.72.94,1.12,1.42Zm25.73-14.91-1.38,1.46c.84.53,1.65,1.11,2.53,1.56.17.09.59-.31.9-.48ZM197.68,249.44c-.38.61-.78,1-.7,1.17.52,1.09,1.14,2.14,1.72,3.19a5.74,5.74,0,0,0,.81-.52C199,252.09,198.4,250.92,197.68,249.44Zm-33-17.31-2.91-1.89c-.2.44-.67,1.15-.54,1.28a7.53,7.53,0,0,0,2.08,1.51C163.55,233.12,164.08,232.55,164.71,232.12Z"/><path d="M98.14,108c-.26.94-.92,2-.69,2.79.47,1.7,2,3.29,1.92,4.9,0,.81-3.06,1.17-2,3.48-.5.15-1.27.59-1.46.41-1.2-1.13-2-2.05-3.52,0-.82,1.1-3.74-1.37-4.28-3.8a28.24,28.24,0,0,0-.37-2.8c-1.09-3.22-.77-3.86,2.42-4.16,1-.09,2.56.57,1.59-1.52.58-.15,1.21-.53,1.74-.42,1.63.34,3.23.86,4.84,1.31Z"/><path d="M98.28,108.13c-.07-.7-.47-1.62-.16-2,1.94-2.79,2-5.39-.27-8a5.56,5.56,0,0,1,.91-.95c.86.64,1.58,1.48,2.48,2a28,28,0,0,0,4.22,2.14c.89.36,1.94.31,2.86.62.11,0,.07,1.48-.29,1.74a10.1,10.1,0,0,1-3.15,1.49c-.53.15-1.22-.29-1.84-.46.21.63.24,1.47.68,1.84,1.63,1.39.53,2.41-.25,3.57-1.08,1.61-1.5,1.7-2.18-.37-.28-.84-2-1.19-3.14-1.76Z"/><path d="M448.56,108.14c.14.52.11,1.56.6,2a6.46,6.46,0,0,0,2.5.73c-1.07.19-2.15.36-3.22.58-2,.4-4.09,1.49-5.22-1.52-.13-.34-2,.09-3-.06-1.37-.19-2.71-.6-4.06-.91.27-.75.4-2,.83-2.14,1.32-.33,3.24-.81,4.06-.15,2,1.63,3.76,1.1,5.59.14C448,106.08,449.9,103.8,448.56,108.14Z"/><path d="M85.14,120a83.25,83.25,0,0,1,8.65,2.82c.76.33.87,2.13,1.28,3.25-1,.22-2.06.8-2.92.56s-1.66-1.39-2.61-1.88a2.12,2.12,0,0,0-1.64.48c0,3.9-1.58,1.38-2.57.61-.53-.41-.73-1.23-1.23-1.68-1.93-1.72-2.58-2.93.93-2.91a7.53,7.53,0,0,0,.24-1.36Z"/><path d="M73.61,318.6l-4.17-2.3c.1-.18.16-.44.32-.53,2.71-1.57,5.43-3.13,8.18-4.65.27-.15.71,0,1.07,0-2.47,1.47.53,3.48-.28,4.58-1.19,1.6-3.17,2.61-4.82,3.87Z"/><path d="M468.47,161.61a19.19,19.19,0,0,1,2.8.38,8.73,8.73,0,0,1,1.64.93,12.3,12.3,0,0,1-1.2,1,23.07,23.07,0,0,1-2.18,1.22c-1,.49-2,.92-3,1.38-.26-1-1.06-2.39-.67-3C466.45,162.51,467.85,162,468.47,161.61Z"/><path d="M83.91,132.59c-1-1.12-2-2.2-2.85-3.38a1.36,1.36,0,0,1,.24-1.25,1.19,1.19,0,0,1,1.17-.11c1.76,1.41,3.5,2.86,5.15,4.4a6.21,6.21,0,0,1,1.64,2.4c.14.4-.63,1.11-1,1.67-.33-.31-.66-.62-1-.91l-3.5-3Z"/><path d="M457.67,173.13a23.23,23.23,0,0,1-3.35-.4c-.37-.11-.61-.68-.9-1l4.95-2.32c.33.89,1.07,1.88.87,2.63S457.83,173,457.67,173.13Z"/><path d="M466.23,183.08c1.45,0,2.41-.28,2.78.06a8.17,8.17,0,0,1,1.27,2.39c-.64,0-1.29.12-1.93.12a3.8,3.8,0,0,1-1.65-.17,25.73,25.73,0,0,1-2.58-1.68Z"/><path d="M68.79,195.58c3,1,5.91,2,8.84,3a5.49,5.49,0,0,1,1.28.94,4.27,4.27,0,0,1-1.55.18c-2.63-.74-5.27-1.5-7.84-2.42-.38-.14-.42-1.21-.62-1.85Z"/><path d="M450.73,143.94l-2-.94a19.7,19.7,0,0,1,3.6-2c.55-.18,1.43.61,2.16,1Z"/><path d="M113.22,90.09,114.36,88a8.48,8.48,0,0,0,.49,1.79,15.62,15.62,0,0,0,1.33,1.88c.34.47.94.94.94,1.42s-.75,1.1-1.11,1.06a2.23,2.23,0,0,1-1.48-1A24.09,24.09,0,0,1,113.22,90.09Z"/><path d="M468.08,282.65c1.88,3.27,1.71,3.61-1.81,3.65-.84,0-1.68-.1-2.52-.15Z"/><path d="M452.08,139.22l-2.59-1.16a7.19,7.19,0,0,1,2.53-.77,13.71,13.71,0,0,1,3.18,1.06Z"/><path d="M470.61,282.79H468L467,281.22a11.16,11.16,0,0,1,3-.61C470.18,280.62,470.38,282,470.61,282.79Z"/><path d="M458.24,165.8a9.9,9.9,0,0,1,2.38.15,12.59,12.59,0,0,1,1.94,1.18,15.72,15.72,0,0,1-2,.41,3.35,3.35,0,0,1-1.65-.21,11.65,11.65,0,0,1-1.79-1.3Z"/><path d="M461.48,234.84a20.65,20.65,0,0,1-2.13,1.23c-.07,0-.67-.67-.6-.9a10.56,10.56,0,0,1,1-1.85Z"/><path d="M473.92,180.48l2.64.85L474,183.75Z"/><path d="M466.77,251.78l-1.92-.89c.43-.4,1-1.2,1.26-1.12a15.28,15.28,0,0,1,2.72,1.35Z"/><path d="M448.35,367.57a11,11,0,0,1-3.11-.94,19.48,19.48,0,0,1-2.84-2.82c.66-.29,1.6-1,1.94-.79,1.09.71,3.44-1.86,3.5,1.35a24.26,24.26,0,0,0,.5,3.26Z"/><path d="M450.12,362.91c-1-1.36-1.74-2.24-2.33-3.19,0-.06,1-1,1.18-.94a24.17,24.17,0,0,1,2.83,1.84Z"/><path d="M428.18,387.64c-.44.06-.94.29-1.3.16a22.8,22.8,0,0,1-2.46-1.2c.35-.23.78-.73,1-.66a24.5,24.5,0,0,1,2.81,1.08Z"/></g></g></g></svg>