<svg xmlns="http://www.w3.org/2000/svg" viewBox="0 0 635.86 529.11"><title>Fichier 3</title><g id="Calque_2" data-name="Calque 2"><g id="Calque_1-2" data-name="Calque 1"><g id="vL0tM2"><path d="M193.55,334.09c-5.3,1-10.18,2.29-15.14,2.8-3.23.33-6.59-.79-9.86-.62-5,.26-10,1.09-14.95,1.64a13.68,13.68,0,0,1-2.31-.14c-4.8-.31-9.36-1-14.44,0-7.34,1.38-15.16,0-22.76.31-4.24.17-8.4-.68-12.77.24-4.22.89-8.81,0-13.23-.07s-9.15-1.15-13.25,0c-7.16,2-14.39-.08-21.47,1.45-1.41.31-3.13-1-4.74-1.4a26.19,26.19,0,0,0-5.56-1c-8.45-.19-16.9-.31-25.34-.24-2.6,0-3.82-.75-3.91-3.41a34,34,0,0,0-.72-4.5c-6,.81-7.68-.5-9.61-6.46C1.36,316.09-.24,309.46,0,302.48a6.28,6.28,0,0,1,.39-2.26c2.53-5.72.44-11.58.64-17.36.08-2.2.45-4.39.61-6.61.33-4.3.48-8.62,1-12.89.92-7,1.86-14.09,3.3-21a13.2,13.2,0,0,1,4-6.89c4.81-4.13,9.49-9,16.61-8.7,1.34.05,2.63,1.15,3.91,1a59.5,59.5,0,0,0,7.38.39c2.1-.13,4.13-1.08,6.23-1.29,1.16-.11,2.38.73,3.6.84,2.49.22,5,0,7.49.37,3.25.43,6.46,1.2,9.77,1.84,1.12-3.91,2.78-4.6,8.17-2.92,1.21.38,2.71-.25,4,0a14.91,14.91,0,0,1,3.23,1.25c1.46-.72,2.66-1.85,3.75-1.76,4.17.36,8.29,1.45,12.45,1.61,3.16.12,6.36-.74,9.53-1.24,1-.16,1.92-.87,2.86-.84,10.11.35,20.22,1,30.34,1.13,6.43.06,12.86-.74,19.3-1.12a15.32,15.32,0,0,1,3.45.08c3.91.67,7.8,1.45,11.7,2.18.37.07.81.31,1.11.2A12.06,12.06,0,0,1,186,229.52c-1.32-3.32-2.75-6.61-3.92-10a23.44,23.44,0,0,1-1.3-6c-.31-4.31-.47-8.64-.46-13,0-7.84.3-15.67.36-23.51.08-9.94.11-19.88,0-29.81,0-4.11-1.72-5.08-6.15-5.68-6.87-.92-13.66-2.41-20.49-3.66l0-1.05c2.64-.45,5.29-1.29,7.93-1.28a81.4,81.4,0,0,1,14.48,1c4.09.76,4.78-.86,4.46-4.17-.07-.76-.15-1.51-.23-2.29-4.08-1.32-8-2-12-.06-1.13.55-2.76.27-4.12.09-3.93-.5-7.75-3.1-11.82-.09-.76.57-2.46-.17-3.73-.25-6-.35-12.06-.82-18.09-.93-2.1,0-4.21,1.19-6.32,1.2-2.63,0-5.26-.87-7.9-.94-4.33-.11-8.67.31-13,.17-5.06-.16-10.19.46-15.11-1.68-2-.86-3.07-1.59-2.49-3.85.48-1.86.81-3.76,1.2-5.65.12-.6.54-1.54.3-1.76-3.59-3.35-1.51-7.8-2.06-11.64-1-7.17-1.06-14.5-1.19-21.77-.22-11.44-.14-22.88-.27-34.31-.08-6.91-.18-13.83-.56-20.73-.23-4.06.18-4.79,4.39-4.75a3.17,3.17,0,0,0,.39-1c0-1.82-.8-4.38.1-5.33a19.58,19.58,0,0,1,7.4-4.94c4.17-1.47,8.64-2.87,13-2.84,4.17,0,8.49-1.15,12.83,1.42,2.25,1.33,6.14,0,9.28-.33,2.37-.25,4.72-1.15,7.07-1.08,1.48,0,2.93,1.31,4.29,1.47a76.59,76.59,0,0,1,8.2-.41c7.16.37,14.31,1.31,21.47,1.39,5.91.06,11.82-.91,17.75-1.18,1.5-.07,3,.79,5,1.36h10.19l-.27,4.25c.57-.73.87-1,.94-1.24,1-4,3-4.53,6.83-2.9,2.28,1,5.24.23,7.81.69,3.14.57,6.19,1.59,9.43,2.46,2-4.33,2.29-4.38,8.88-2.92a26.52,26.52,0,0,0,7.2.45c2,0,4-.11,5.93,0,4.65.31,9.38.32,13.92,1.24,3.74.76,7.28,2.58,10.87,4,4.43,1.8,4.36,5.64,4.32,9.57-.1,9.53-.29,19.07,0,28.59.21,6.35,1.39,12.67,1.83,19,.16,2.31-.56,4.69-1,7-.1.59-.72,1.13-.72,1.69,0,4,.37,8,.23,11.93-.07,2.07-.95,4.11-1.38,6.18-.28,1.36-.43,2.75-.63,4.13-.46,3.24-.92,6.47-1.44,10.09,3.11,0,6.05,0,9,0,4.7-.09,9.4-.42,14.09-.24,1.33.05,2.59,1.55,3.71,1.63,2.6,0,5.21,0,7.81,0a18,18,0,0,1,3.12-.27c2.7.46,5.65-1.42,8.24,1.27.77.8,3.08.12,4.91.12-2.93-6.87-3.86-7.16-10.61-6.43a45.42,45.42,0,0,1-11.14-.47c-6.3-.9-8.35-6.71-11.71-10.92A18.61,18.61,0,0,1,291.92,95c-.7-2.12-1.39-4.64-.88-6.69A38.6,38.6,0,0,1,296.24,77c0,2.88.47,5.85-.11,8.6-.87,4.14-.55,7.46,2.93,10.33,1.31,1.08,2.1,2.91,2.87,4.51,2.66,5.53,7.09,7.74,13.06,7.25,6.38-.52,11.94,1.17,16.34,6a5,5,0,0,0,1.1,1.07c3.16,1.79,6.78,3.11,6.7,6.87,2.16-1.59,4.18-4.3,6.22-4.31,3.8,0,7.61,1.52,11.61,2.45,2.64-4.66,6.91,1.49,11.14-1-3.56-4.24-6.9-8.17-10.18-12.14-4.09-4.94-8.37-9.75-12-15-.67-1,1.35-3.87,2.26-5.81.21-.46,1-.65,2.06-1.29-2.59-2-4.94-4-3.88-7.49.22-.72.08-1.62.47-2.19,3.41-4.93,6.35-10.35,10.55-14.49,3-3,5.82-6.77,11-7.59,2.46-.39,4.53-3.79,6.61-6,1.82-1.91,3.16-4.35,5.18-6,1.3-1,3.46-1,5.65-1.56.72-3.25,3.53-4.91,6.86-6.3,2.18-.91,4-2.64,6.05-3.87,4.14-2.48,8.32-4.89,12.5-7.29,2-1.13,4-2.13,6-3.24,4.69-2.62,9.63-.63,14.05.2,3.91.73,7.36,4.25,10.78,6.84.6.45.08,2.37.74,3,1.84,2.18,3.55,4.48,5.56,6.48,1.45,1.45,3.45,2.37,4.91,3.82.86.85,1,2.41,1.74,3.42,1.73,2.3,3.84,4.31,5.42,6.69,1.71,2.57,3,5.42,4.54,8.27,4.5-1.32,5.47-.77,8.17,4.72.57,1.15,1.92,1.9,2.64,3s1.12,2.43,2,3.19a33.33,33.33,0,0,1,3.9,3.54c3.23,4,5.94,8.45,9.53,12.06a215.72,215.72,0,0,1,16.63,19c5.59,7.13,12.16,13.5,18.28,20.22a114.46,114.46,0,0,1,8.48,9.68c2.49,3.45,4.21,7.44,6.54,11,.89,1.37,2.89,2,3.76,3.41,2.76,4.35,5.06,9,7.88,13.3,1.62,2.48,1.62,4.76,1.5,7.6-.19,4.58-3.39,7-5.83,9.87-2.15,2.53-5.09,4.4-8,6.8-1.91-1.24-1.08-7.8-6.77-4a19.1,19.1,0,0,0,1.92,2.88c2.9,3,2.78,4.49,0,7.13-3.57,3.4-6.8,7.17-10.35,10.59a3.29,3.29,0,0,1-3.14.39c-1.4-1-2.2-2.86-3.58-4a6.56,6.56,0,0,0-4.16-1.65c-.83.09-1.45,2.1-2.17,3.25,1.2.67,2.41,1.33,3.61,2l4.78,2.73c-1.09,1.41-2.12,2.87-3.29,4.22s-2.8,2.14-3.34,3.54c-1.28,3.31-4.11,4.46-6.89,5.64a3.44,3.44,0,0,1-3-.7c-3.22-3-6.34-3.88-9.93,0l7.78,5.61-4.32.53,1.73,3.39c-4.26,3.05-7.45,8.42-14.33,6.51l-1.47,2.57c-2-.48-4.47-1.89-5,.5a63.83,63.83,0,0,1-7.17-2.84,44,44,0,0,1-6.15-4.31c-2.31-1.82-4.51-3.78-6.72-5.73a18.74,18.74,0,0,1-3.16-3.17,58.5,58.5,0,0,0-8.05-9.5c-4.72-4.48-10.63-8.39-12.82-15.3-.52-1.66-2.71-2.84-4.24-4.11s-3.68-2.28-5-3.85c-3.83-4.43-7.45-9-11-13.66-2.6-3.36-4.88-7-7.58-10.26-1.52-1.84-3.81-3-5.41-4.83-5.72-6.4-11.29-12.93-17.88-20.51a58.34,58.34,0,0,0-.67,6.86c.24,7.35.48,14.7,1,22,.52,6.84,1.44,13.65,2.18,20.48a12.67,12.67,0,0,1,.29,2.65c-.48,4.41-1.13,8.8-1.54,13.21-.09.91.81,1.88.84,2.83.09,2.66-.05,5.32-.06,8,0,2.16,0,4.33.06,6.49,1-.26,2.65-.2,3-.83a31.61,31.61,0,0,0,1.82-5.46c4-12.49,12.35-16.15,24.07-10.2.45.23,1.06.55,1.18.95.72,2.4,1.94,3.57,4.76,3.72,2.1.11,4.08,1.83,6.2,2.62s4.15,1.22,7.13,2.07c-1.43,1.26-3.21,2.13-3.75,3.49-.47,1.18.47,2.92,1,5.46,1.44-1.8,2-2.45,2.53-3.16.91-1.28,1.9-3.74,2.63-3.66,2.07.23,4.05,1.45,6,2.36,1.08.49,2.08,1.15,3.13,1.71,3.41,1.81,6.85,3.57,10.24,5.43,1.95,1.07,1.44,4.67-1.45,6.4-2.48,1.49-2.65,3.12-1.91,5.41,5.22,1.67,5.08,1.67,5-3.36,0-1.47,1-3,1.49-4.44,1.58.68,3.22,1.27,4.72,2.1.56.31.67,1.45,1.23,1.77,3.94,2.26,8,4.4,12,6.6-1.68,4.81-6.75,9.14.93,12.75l3.56-8.53,1.59,3.92,3-2.76,10.36,8.39c1.82,1.47,3.1,10.08,1.78,12-3.33,4.77-7.58,9.17-9.74,14.43-2.24,5.43-7,8.29-9.9,12.81-3.48,5.44-6.61,11.1-9.38,15.79,4.8,3,9.32,5.37,13.4,8.37,4.84,3.56,9.21,7.74,14,11.45a18.14,18.14,0,0,0,6.47,3.59,7,7,0,0,1,5.21,4.93c3.33,1.78,5.86,2.72,7.89,4.3,6.35,5,12.39,10.31,18.8,15.18,2.33,1.77,5.38,2.6,8.86,3.24l-3.89-9.55.54-.7c1.75,1.44,3.58,2.78,5.21,4.34.9.87,1.31,2.9,2.18,3.05,6.41,1.15,8.71,7.63,13.82,10.32a19.65,19.65,0,0,0,5.73,1.75c5.22.91,7.7,3,8.89,8.19.75,3.25,1.22,6.57,2.07,9.79.2.76,1.54,1.16,2.16,1.89,2,2.43,4,4.94,6,7.36,1.21-.17,3.43-1.14,5.1-.55,1.87.65,3.23,2.73,4.83,4.17,2.07,1.86,4.15,3.7,6.53,5.81,1.75-1,3.09.4,5,2.2a114,114,0,0,0,12.51,10.23c3.36,2.42,7.5,3.85,10.62,6.5,5.45,4.63,7.09,16.25,3.41,22.23-3.42,5.56-7.28,10.83-10.8,16.33-1.65,2.57-3,5.34-4.4,8-2,3.81-3.78,7.77-6,11.42-1.21,2-3.29,3.37-4.89,5.11a11.56,11.56,0,0,0-1.29,2.2c-2.64,4.65-4.9,9.58-8.09,13.82-1.39,1.85-3.66,3.15-5.13,5.33a89.93,89.93,0,0,1-7.76,9.53c-5.29,5.93-9.47,6.71-16.31,3.23-2.66-1.35-5.26-2.79-8.72-4.64,1.88-1.13,3.84-1.71,4.66-3,.6-.94-.3-2.84-.65-5-1.58,1.32-2.16,1.82-2.75,2.3-1.44,1.15-1,5-4.42,3.25a58.89,58.89,0,0,1-5-3.49c-3.52-2.31-7.09-4.56-10.64-6.83-1.07-.68-3.12-1.57-3-2,.33-1.63,1-3.74,2.24-4.52,2.37-1.47,3.21-3.07,2.34-5.77-.82-.27-1.78-.56-2.71-.91-2.08-.78-2.91.11-2.85,2.12,0,.63.5,1.31.36,1.87-.4,1.6-1,3.15-1.53,4.73a33.37,33.37,0,0,1-4.77-1.85,59.56,59.56,0,0,1-5.68-3.89c-2.6-1.9-5.16-3.87-7.95-6,1.9-4.45,5.46-9.06-1.65-12.52l-3.32,9.15-1.95-4.43-2.89,2.77c-2.88-2.26-6.12-4.21-8.52-6.9a10.16,10.16,0,0,0-6.25-3.4c-.33-.06-.82-.15-.92-.36-2.2-4.78-7.3-6.61-11.2-8.25-5.91-2.49-9.71-7.28-15-10.23-2.31-1.3-4.79-2.3-8.36-4,.25,5.26.53,9.53.63,13.8.06,2.41-.27,4.83-.25,7.24,0,4.8.52,9.62.2,14.39-.27,4-1.65,8-2.08,12-.23,2.19.58,4.47.74,6.73.08,1.11.16,2.59-.45,3.32-1.32,1.58-.84,3.16-1.05,4.87a38.23,38.23,0,0,1-3.31,12.46c-.83,1.64-4.48,2.25-7,2.59-5.61.76-11.29,1.06-16.94,1.54-.48-7.32-.48-7.32-2.93-7.32v7H407.86c-.26,0-.51.06-.77.07-1.51.06-4.25.4-4.32.11a36.47,36.47,0,0,1-.46-6.17c-.1-1.69-.26-3.39-.4-5.25-1.74.46-2.54.76-3.36.88-2.65.39-2.39,1.79-1.2,3.44.44.61,1.49,1,1.63,1.57.36,1.53.92,3.44.3,4.61-.42.79-2.72.75-4.18.74-1,0-2-.85-3-.83-4.28.07-8.56.31-12.7.49-1.66-5.08.06-11.41-8-10.61l1.71,9.26-3.68-2.42-1,3a20.6,20.6,0,0,1-2.67.25c-2.83-.14-6.1.46-8.33-.79-1.69-.95-2.38-.31-3.7-.25-4.35.17-8.71-.16-13.07-.32-.76,0-1.63-.49-2.24-.25-6.44,2.57-12.73-.43-19-.26-3.79.11-7.76.81-11.67.68-4.89-.16-9.77-.74-14.65-.77-2,0-4,1.32-6,1.41-8.24.38-16.67-.44-24.68,1.08-5.35,1-9.47-.73-14.08-1.81-2-.47-2.78-1.53-2-3.66s1.17-4.14,1.73-6.22c.1-.36.38-.81.26-1.06-3.62-7.65-1.5-15.73-1.8-23.62q-.47-12.26-.67-24.52c0-2.43.37-4.87.46-7.3s0-4.71,0-7.07c-2.57,2.88-5.07,5.37-7.21,8.14-5.33,6.89-10.74,13.74-15.64,20.94-3.8,5.58-6.77,11.72-10.34,17.47-1.16,1.86-3.1,3.24-4.64,4.87a26.65,26.65,0,0,0-2.07,2.47c-2.78,3.76-4.54,8.46-7.62,11.63s-6.31,6.56-9.45,9.87a5.17,5.17,0,0,1-3.15,1.2c-6.78.53-12.46-2.16-17.54-6.35-2.55-2.1-5-4.29-7.9-6.77a20.67,20.67,0,0,0,3-1.72,4.33,4.33,0,0,0,1.64-2.29,2.29,2.29,0,0,0-1.44-1.76,3.7,3.7,0,0,0-2.53,1.17c-2.73,3.13-5.25,3.12-7.83-.15a5.61,5.61,0,0,0-1.67-1.35c-3.59-2-7.3-3.8-10.74-6-.66-.43-.79-2.69-.3-3.66.71-1.4,2.52-2.23,3.29-3.62.64-1.16,1-3.06.48-4.11-.43-.85-2.41-1.24-3.67-1.17-.46,0-.89,2-1.16,3.06-.14.59.27,1.33.1,1.9-.39,1.29-.76,3.34-1.57,3.58-1.17.34-2.86-.42-4.11-1.11a70.11,70.11,0,0,1-7.24-4.59c-2.18-1.58-4.18-3.41-6.23-5.11,2.76-6.63,2.76-6.63-.35-13.15-.79,1.74-1.34,3-2,4.3s-1.37,2.66-2.46,4.76l-1.36-4.11L111.63,483c-2-1.46-4.12-2.79-6-4.37a7.54,7.54,0,0,1-1.59-2.8c-.24-.54-.06-1.67-.31-1.75-5.48-1.6-1.41-4.82-1.26-7.34,0-.6.59-1.21.52-1.76-.51-4,.09-5.49,3.25-7.54a1.62,1.62,0,0,0,.57-.48c2.68-5,5.15-10,8.09-14.85,1.28-2.1,3.73-3.44,5.26-5.43,3-3.92,5.8-8,8.6-12.09s5.22-8,9.33-11.15c2.48-1.87,3-6.1,5.05-8.81,4.75-6.31,10-12.23,14.78-18.53,2.49-3.29,4.25-7.13,6.61-10.53,2.72-3.91,5.75-7.61,8.64-11.41,5.11-6.71,10.34-13.33,15.24-20.19C190.38,341.27,191.57,338,193.55,334.09ZM598.29,475.74c.07-2.54-.59-4.68,2.68-6.32,2-1,6-2.71,4.9-6.62-1-3.58.68-5.33,3.41-7a27,27,0,0,0,5.09-4c.66-.65,1.27-2.38.9-2.87-1.74-2.33-.75-4.41.7-5.93,2.71-2.85,2.79-5.64.87-8.79-6-.37-11.08-4-11.81-8.06L598.44,425l3.61-4.88c-7.82,1.53-11.82-1.33-12.43-9.23l-2.2,2.71c-1.44-.48-2.52-.8-3.56-1.18a21.54,21.54,0,0,1-4.11-1.65c-5-3.16-9.91-6.45-14.86-9.68-.83-.54-2-.86-2.47-1.62-4.74-7.42-13.52-9.63-19.61-15.29-.17-.16-.53-.09-.72-.24-2.87-2.08-7.07-2-9-5.67-.23-.43-1.17-.44-1.73-.74a92.82,92.82,0,0,1-8.43-4.57c-4.65-3.11-9-6.62-13.68-9.76-5.69-3.86-11.54-7.5-17.29-11.28-1.57-1-3-2.24-4.54-3.32-8-5.55-17.25-9.27-23.51-17.16a32.64,32.64,0,0,0-3.41-3.25c-16.68,22.9-32.92,45.46-47.32,70.09,2.29,1.51,4.88,3.26,7.5,5,5.37,3.48,7.67,10.52,14.41,12.41,2.28,5,7.55,4.45,11.36,4.77,5.36.46,7.2,3.43,9.54,7.25,1.55,2.52,4.4,4.3,6.85,6.17,2.18,1.67,4.64,3,6.94,4.5,3.63,2.43,7.23,4.93,10.85,7.39a.58.58,0,0,0,.38,0c3.92-.58,5.09,2.28,6.61,5a7,7,0,0,0,3.11,2.25c3.15,1.5,6.38,2.83,9.55,4.27.3.14.43.62.69.91a17.08,17.08,0,0,1,2.56,2.86c2.29,4.22,9.16,1.89,10.54,7.43.06.23,1.46.13,2.41.19l-2.35,3.44.64.62,5.28-2.88.44,3.49c.62.06,1,.22,1.35.1,4.29-1.75,4.13-1.72,5.05,2.73.18.89,1.9,1.8,3.05,2,.93.19,2.06-.61,3.57-1.14v5.06l4.3-.86c1.22,2,2,3.9,3.32,5.16,1.53,1.42,3.62,2.23,5.7,3.44l3.71-1.4-.5,4.15h4.58c.83,3.65,3.92,5.3,10,5.43l1.17,4.33c4,0,7.91-.38,9.56,4.89,2.83-6.62,6.58-11.91,11.72-15.84,3.15-2.42,4.33-5.74,6.11-8.83a20.34,20.34,0,0,0,1.18-3.93l10.5,5.77.31-.64-9.77-7.67ZM461.72,74.65c-1.43-.79-2.44-1.33-3.43-1.91a14.2,14.2,0,0,1-3.11-1.93c-3.62-3.67-7.15-7.43-10.64-11.22-1.25-1.36-2.25-2.94-3.45-4.34-3-3.55-6.14-7-9.2-10.58a17,17,0,0,1-2.43-3.08A5.27,5.27,0,0,0,422,39.27c-3.16,2-6.32,4-9.29,6.27C406.87,50,401,54.47,395.41,59.18c-3.6,3-6.8,6.49-10.25,9.69-6.63,6.13-13.81,11.45-22.47,14.82a14.69,14.69,0,0,0,.81,1.47c5.95,8.17,11.95,16.29,17.84,24.49,2.94,4.09,5.38,8.58,8.58,12.44,4.76,5.72,10.06,11,15,16.55,4.72,5.27,4.59,5.31-.47,10-.73.68-.53,2.36-.76,3.58,1.12.12,2.53.72,3.31.25,1.56-.94,2.77-2.45,4.41-4,1.8,1.88,3.65,3.79,5.48,5.73a57.89,57.89,0,0,1,5.19,5.7c1.86,2.6,3.32,5.48,5,8.23a6.9,6.9,0,0,0,1.06,1.53c2.43,2.28,4.9,4.52,7.71,7.09l1.57-.29c2.33,2.15,4.14,3.68,5.79,5.38a42.66,42.66,0,0,1,2.76,3.6c2.31,3,4.62,5.92,7,8.84,1.55,1.94,3.1,3.89,4.79,5.7,2.75,2.94,5.62,5.78,8.44,8.66a.54.54,0,0,0,.35.16c3.38-.07,3.29,2.66,4.21,4.82.58,1.38,2.07,2.41,3.24,3.49.67.62,1.61,1,2.28,1.58,2.73,2.51,5.74,2.92,7.34.92,2.56-3.2,5.18-3.73,8.54-1.29l-1.59-6,3.43-.16c-1.61-4.25-1.1-6.39,3.78-4.59.39.14,1.77-1.37,2.09-2.31s-.12-2.12-.24-3.33l4.27.72.29-4.48c5.22,1.11,5.79-4.4,9.14-5.69l-1.07-4,4.11,1.37c.28-2.15-.5-3.78,2.68-4.83,2.39-.79,3.65-5,5.75-8.17H528c.52-4.52,2-7.17,7-7.48,2-6.45,2-6.48-2.41-8.52.1-5.62-4.38-12.91-8.76-14.25l2-3.61-.66-.42-3.36,1.6c.05-1,.15-2.15.11-2.15-4.34-.5-3.86-4.37-5-7.09-.83-2-1.77-3.71-4.42-3.35-2.43.33-3.36-1.31-4-3.26a43.21,43.21,0,0,0-2.36-6.35,3.68,3.68,0,0,0-2.88-1.72c-4.27.59-6-2-7.34-5.27-.72-1.74-1.41-4.11-2.8-4.82-2.88-1.46-2.72-3.18-1.2-5.06a37,37,0,0,1,5-4.35,8.77,8.77,0,0,0-4.9,1.36,42.4,42.4,0,0,0-4.5,4l.33-2.75c-3.15.24-3.15.24-4.54-4.41-4.94-.72-9.18-5.86-8.32-9.77l-5.26-1.5L469,86.45l4.12-2c-6.68-1.6-10.77-4.08-8.41-12.07ZM306.5,136.74c-1.47-.46-2.94-1.39-4.32-1.26-4.06.39-8,1.84-12.19.47-.44-.14-1,.15-1.52.18-6.86.37-13.72,1-20.58,1-8.93,0-17.87-.55-26.8-.56-5.47,0-11,1.24-16.41.71-8.5-.83-16.9-2.68-25.73-4.16-.72,7.59-1.59,15.34-2.13,23.12-.27,3.91-.78,8.13.32,11.75,1.87,6.19,3.24,12.11,1,18.45a10,10,0,0,0-.22,4.21c.38,3.57-1,5.67-5.32,6.06C197,198,196.3,201,196,203.6s-2.46,2.91-4.64,2.86c-.64,0-1.47-.21-1.89.11a26.56,26.56,0,0,0-2.76,2.68c.84.81,1.65,2.26,2.53,2.3a16,16,0,0,0,4.43-.79c1.86,2.64,3.06,5.61,5.26,7.14,2.38,1.65,5.64,2.37,8.61,2.75,3.48.45,7.07.11,11,.11l1.11-1.59c2.76,0,4.93-.06,7.09,0,1.77.07,3.53.27,5.29.49,3.55.45,7.08,1,10.64,1.41,2.35.26,4.72.34,7.08.41,4.13.13,8.26.21,12.38.3,2,0,4.56-.7,6,.25,2.8,1.9,4.66,1.58,6.76-.49a18.51,18.51,0,0,0,4.69-.43,16.66,16.66,0,0,1,3.49,0c3.13.24,6.4,1.28,9.36.69,4.28-.86,6.89-.16,8.23,4.24l2.75-5.6c3.47,4.53,3.62-.32,5-1.51,6.38,2.76,6.38,2.76,8.75-.07l3.26,3.71,2.16-4c4,4.09,10.55,4,13,.33l2.06,2.3c1.36-.87,3.11-2.48,3.55-2.18,4.09,2.8,7.11.25,10.14-1.84l3,3.13c3.75-3.62,6.34-4.54,9.83-1.45l6.14-2.39-1.77-3.85c4.81-5,1.72-11.06,2-17.08l10.55-.7,0-1.24H370.67l-2.11-7.37h7.72l.07-.84-6.42-.9c2.56-4.35.46-6.89-3.09-8.9,1.11-3.35,2.3-6.46,3.09-9.66.24-1-.34-3-1-3.2-3.17-1.16-3.59-3.32-2.87-6.12.54-2.14,1.17-4.26,1.72-6.26l4.86-.38c-.86-.56-1.85-.39-2.58-.75a27.72,27.72,0,0,1-3.47-2.36c1.19-1,2.25-2.42,3.59-2.77,1.87-.48,3.95-.12,6.08-.12-3-3.72-7.11-2.26-11.62-1.93l1.71-1.11-2.15-8.23c-4.53,5-9,4.17-13.33-.53-.8,2.83-4.18,4.81-7.23,4.75-6-.12-12-1.32-17.88.93-.59.23-1.45-.3-2.19-.41-4.65-.69-9.29-1.47-14-2C308.58,135.37,307.44,136.33,306.5,136.74Zm29.78,175.55c1.47-2.55,2.23-4.38,3.43-5.84,4-4.83,9.42-9,11.82-14.46,2-4.59,4.75-8.13,7.64-11.89,2.67-3.48,5.1-7.17,7.45-10.88q6.07-9.58,11.9-19.32c2.35-3.91,4.38-8,6.82-11.86,1-1.52,3-2.38,3.88-3.92,2.33-4.06,4.13-8.41,6.47-12.46.94-1.62,3.49-2.51,4-4.14,1.43-4.74,4-8,8.85-9.24.5-.13.87-.7,1.68-1.39a28.83,28.83,0,0,1-4.82-1.57c-2.95-1.61-5.46-1-6.83,1.79-1.8,3.61-2.84,7.59-4.46,11.3a69.92,69.92,0,0,1-5.57,11.16A100.65,100.65,0,0,1,377.29,244c-4.68,4.77-10.18,8.74-15.32,13.05l-1.32-1.29c2.15-2.66,4-5.69,6.54-7.9,4-3.47,7.16-7.32,8.17-12.56.16-.84-1.06-2.82-1.51-2.77-4.95.47-9.87,1.24-15.28,2,.6-1.87,1.67-3.58,1.47-5.12-.14-1.11-2-2-3.08-3a6.58,6.58,0,0,0-.86,4.1c.38,2.43.59,4.47-3,4a22.32,22.32,0,0,0-5.32,0c-4.07.44-8.12,1.13-12.2,1.47-.65.05-1.84-1.08-2-1.84-.32-1.46,0-3.05-.09-4.58-.11-1.81-.37-3.61-.59-5.68-5.71,2.23-5.63,2.17-2.71,6.47.71,1,1.33,3.37.86,3.76a8.93,8.93,0,0,1-4.52,1.58c-1.18.14-2.46-.68-3.66-.61-3.88.23-7.76.67-11.79,1-.32-5.79-.75-10.48-7.81-10.2l2,8.64-3.43-1.39-.55,2.57c-1.87.42-2.81.54-3.68.85-3.78,1.35-7.28-1.83-11.17-.56-1.56.51-3.55-.44-5.3-.28-5.85.52-11.67,1.29-17.52,1.84-.81.08-1.67-.66-2.54-.81-2.89-.5-6-1.8-8.65-1.16-6.25,1.54-12.31.25-18.44-.06-4-.2-7.8-2.76-12-.23-1.09.66-3,.09-4.52-.08-5.64-.61-11.26-1.29-17.84-2.06,4.86,7,2.53,13.8,3.36,20.82-1.66-.64-2.74-1.48-3.49-1.24A14.34,14.34,0,0,0,196,255.1c1,.56,2,1.6,2.95,1.61,4.84.06,5.25.8,5,5.81-.16,3.85-.11,8,1.21,11.53s-.33,3.54-2.48,3.87c-1.12.17-2.36-.31-3.44,0a9.22,9.22,0,0,0-4.11,1.88c-.4.38.6,2.22,1,3.39,1.26-.45,2.52-.93,3.8-1.36,1.54-.52,3.14-1.42,4.63-1.28.65.06,1.37,2.25,1.58,3.55.42,2.71.35,5.5.79,8.2.53,3.23-1.17,7.17-3.93,7.63-4.09.68-5.95,2.87-5.63,7.48l8.22-1.94-1.37,3.08,3.46,1v5.55c1.74-2.28,3-3.89,4.22-5.52s2.5-3.43,3.76-5.14l-4.08-2.85c4.4-3.73,12-3.2,16,.81l-1.65,1.2a46.42,46.42,0,0,0,15.59,9,30.24,30.24,0,0,1,12.63,8.22c3,3.55,6.84,5.21,10.45,7.34,3.45,2,7.68,2.84,8.26,5.77,11.47,7.48,21.72,14,27.83,25l5.41-1.76c.39-1.66.41-3.36,1.16-4.64,1.46-2.52,3.39-4.76,5-7.22,1-1.47,1.54-4.42,2.42-4.47,2.85-.16,3-2.31,4.13-3.88,2.87-4,5.11-8.72,10.87-9.48-2.47-2.64-2.84-6.1-.75-8.34,1-1,2.56-1.48,3.59-2.49C334.13,315,335.52,313.19,336.28,312.29Zm-156.88,68c-2.58,4.13-4.85,8.47-7.81,12.29-2.58,3.32-6.14,5.87-8.88,9.09-2.45,2.88-4.36,6.22-6.65,9.58,1.29,2.66,1.28,2.66-1.66,4.69-.31.21-.86.43-.88.67-.32,4.75-4.29,6.69-7.1,9.62-2.33,2.43-3.93,5.54-6,8.23-3.25,4.25-6.64,8.41-9.93,12.63-.29.37-.23,1-.48,1.42-1,1.58-1.82,4.24-3.11,4.5-5.56,1.1-3.5,7.14-6.78,9.65-.94.72-.88,2.69-1.42,4-.85,2.12-1.18,3.82,2.21,3.47l-2.11,3,.42.58,5.07-2.34v3.68l4.9-1.74c.39,2.19.12,4.87,1.26,5.78s3.62-.21,5.71-.46v4.45l4.65-1.22c-.53,5.84,5.12,5.57,7.43,8.49l3.52-1.75V493l4.31-.24c.82,3.53,4,5.19,9.82,5.19l.74,4.7.84-1c2.33,1.23,5.86,1.93,6.7,3.82,1.22,2.74,2.54,3.91,5.27,4.23.55.06,1,1,1.48,1.52,5.76-4.33,12.47-7.79,13.76-15.91l4.67,1-1.78-2.8c.48-1.22.77-2.12,1.18-3,.58-1.21.94-2.9,1.93-3.49,6.43-3.79,6.47-3.71,5.19-10.63,2.93-1.85,6-3.61,8.78-5.66.68-.49,1.27-2.4.9-2.85-2.2-2.73-.87-4.74,1-6.66,1.7-1.73,3.53-3.32,5.4-5.07l2.19,1L223.3,454c3.88-4.57,6.2.83,9.53.88a11.69,11.69,0,0,0-3-3.65c-1.26-1-2.72-1.76-4.72-3h3.68c-2.25-4.17,1.1-4.29,3.34-5,.15-6,3.93-10.73,8-10.73L241,426l4.5,3.35-1.09-10a38,38,0,0,1,4.59-1.63c3.14-.7,4.17-2.78,4.49-5.72a7.87,7.87,0,0,1,1.64-3.31q4.54-6.44,9.21-12.78c.94-1.27,2-2.42,3.07-3.63q4.77-5.61,9.53-11.23c.95-1.12,1.73-2.39,2.75-3.44,2.89-3,4.92-6.27,2.36-8.87a65.74,65.74,0,0,0-9.2-8.16c-3.55-2.46-7.71-4-11.38-6.35-8.75-5.5-17.38-11.19-26-16.86a18.14,18.14,0,0,1-2.71-2.58c-3.28-3.31-6.54-6.64-10.24-10.4-4.5,5.94-8.63,11.59-13,17.06-3.14,4-6.85,7.5-9.79,11.59-4.48,6.24-8.43,12.85-12.76,19.2-3.91,5.73-3.95,5.59-9.63,1.83-.83-.55-2.42.06-3.66.14.15,1.14-.1,2.73.55,3.31C175.54,378.67,177.29,379.2,179.4,380.25Zm27.45-264.8c1.48-1.07,2.72-2.72,4-2.76a123.21,123.21,0,0,1,14.61.47c1.88.16,3.68,1.83,5.51,1.83,3.23,0,6.46-1.09,9.7-1.17a108.83,108.83,0,0,1,15.09.46c4.67.54,6.89-.94,6.81-5.58a26.41,26.41,0,0,1,0-4.78,42.56,42.56,0,0,1,1.6-5.36l-1-.37c3.6-4.31,4.74-12.66,1.59-16.47h12.5v-.91l-10.72-1.25c-.09-1.09-.16-2-.23-2.94-.1-1.32-.72-2.92-.19-3.91,2.19-4.12,3.2-7.8-2-10.25,1.22-3.46,2.47-6.54,3.32-9.72.23-.87-.55-2.78-1.21-3-2.68-.74-3-2.7-2.77-4.77.24-2.48.89-4.92,1.4-7.52h7l-7.51-2.36c1.42-2.11,1.42-2.11,9.92-3.7-3-2.89-6.3-2-9.44-1.14-2.41.64-4.55,1.19-5.55-1.75l-5.52,3V26.59c-2.42,1.18-4.67,3.15-6.87,3.09s-4.38-2.14-6.56-3.33a8.49,8.49,0,0,1-7.52,4.45c-5.37.1-10.73.25-16.1.38-.87,0-1.9.4-2.58.05-7.31-3.75-15-.67-22.44-1-6.87-.35-13.82,1.29-20.75,1.66-5.81.31-11.65,0-17.47.07-5.2.09-10.4.4-15.6.55-1.76.05-3.52-.16-5.28-.1-9.08.3-18.19,2.27-27.2-.7-.87-.29-1.92,0-3.61,0-.25,8.73-.47,17.15-.74,25.56-.24,7.46-.57,14.92-.82,22.38-.14,4.06-.38,8.13-.21,12.18.12,2.86,1,5.69,1.25,8.55.22,2.58-1,4.19-3.85,4-.9-.05-2-.3-2.66.09a15.91,15.91,0,0,0-2.8,2.54c.9.73,1.76,2,2.7,2.06,1.69.11,3.42-.52,5.29-.87l1.55,5.38c3.24,1,6.21,2.32,9.3,2.63s6.48-.39,10.32-.69c.58-1.52,1.65-3.84,4.73-1.23.28.23,1.11-.27,1.69-.3a69.22,69.22,0,0,1,7-.3c3.57.15,7.12.55,10.68.87,2.63.23,5.26.7,7.88.7,3.73,0,7.74.44,11.12-.76,2.76-1,4.45-.41,6.68.61a7.09,7.09,0,0,0,4.07.27c2.79-.56,5.51-1.48,8.28-2.14.38-.09.88.57,1.35.64,3,.44,6.86,2.16,8.95.93,4.21-2.48,6.45.86,9.76,1.57l1.92-3.3Zm254.3,130-4.55,1,.62-.92-8.09-7.4-4,1.61.36-3.28a24.18,24.18,0,0,1-4.64-1.22c-1.07-.53-1.72-2-2.8-2.42a46.52,46.52,0,0,0-6.52-1.33L430.22,228l-.49,1.07c-2.36-.58-5.28-.49-7-1.88-4-3.25-5.84-3.8-10.2-.73a7.92,7.92,0,0,1-2.64,3.24c-4.21,3-5.44,8-8.2,11.93-.19.27.48,1.15.76,1.75l-.55.66-11.06-6-.34.6,9,6.89c-.73,1.12-1.7,2-1.57,2.55.52,2.39-.27,3.29-2.54,4.32-2,.89-4.93,3.69-4.61,4.88,1.32,4.9-.73,7.49-4.55,9.64a7.09,7.09,0,0,0-2.24,1.9c-.83,1.14-2.27,3.22-2,3.57,2,2.28.78,4.22-.45,5.89a75.94,75.94,0,0,1-5.63,6.19l-2.6-1.2,1.35,3.61c-4.57,3.58-7-.36-10.13-2.7.07,5.13,4.65,5.6,7.61,8.22l-3,.22c1.06,3.33.92,3.54-3.55,5.52.51,4.91-3.53,10.57-7.6,10.85l-.86,6.17-4.81-3.26c1.31,7.17-.72,11.43-8.94,11.44l2.91,2.38c-.52,1.44-.86,2.39-1.19,3.34a19.71,19.71,0,0,1-1.47,4.17c-2.47,3.9-5.11,7.7-7.76,11.48-1.57,2.24-3.34,4.35-4.93,6.58-2.56,3.58-5.43,7-7.38,10.93a30.1,30.1,0,0,1-2.4,4c-1.27,1.82-4.24,4.09-1.79,6.74a29.44,29.44,0,0,0,7.12,5.33c6.68,3.78,13.5,7.32,20.27,10.94,1.77.94,3.53,1.91,5.36,2.71,4.66,2,9.45,3.79,14,6a63,63,0,0,1,8.25,5.16c3.56,2.46,7,5.08,10.78,7.83,4-6.5,8-13,12.1-19.45,2.93-4.55,6.4-8.76,9.1-13.43,3.33-5.73,6-11.83,9.19-17.67,1.4-2.57,2.77-6,5.07-7.05,3.46-1.6,4-4.3,5.22-7.06a60.37,60.37,0,0,1,4.3-8.12c2.31-3.61,4.87-7.05,7.38-10.53,2.68-3.71,5.45-7.36,8.08-11.1.25-.36-.31-1.21-.23-1.79a12.05,12.05,0,0,1,.86-3.19,22.06,22.06,0,0,1,2-3.29c1.09-1.56,2.19-3.1,3.37-4.59,2.73-3.44,5.55-6.82,8.25-10.28,1.38-1.77,2.54-3.7,3.88-5.5,2.46-3.3,5-6.54,7.44-9.86.25-.34,0-1,.11-1.5a5.05,5.05,0,0,1,1.08-2.17c2.77-2.41,7.4-3.24,6.89-8.38,0-.21.61-.43.86-.72a4.3,4.3,0,0,0-2.34-7.08l1.68-3.07-.51-.5-5.23,2.93-.47-3.94c-4.23,3-6,2-5.95-2.79,0-.46-1.87-1.23-2.93-1.35s-2.06.45-3.35.79Zm-270.83,13c-2.91-3-4.6-5.42-2.15-8.88,1.2-1.69-2.69-6.75-4.38-5.77-3.16,1.83-5.31-.44-7.25-1.51-3.95-2.17-7.47.16-11.69-.46V231.49h-.71L162.52,242c-.76-.43-1.39-1-1.56-.86-3.36,2.39-6.08.35-9-1-.86-.41-2.73-.32-3.16.26-2.42,3.23-5,2.64-7.93,1a9,9,0,0,0-4.09-1.23,9.42,9.42,0,0,0-3.54,1.19c-1.59.68-3.12,2-4.73,2.08-2.24.13-4.53-.6-6.78-1l-.28-5.83-2.07,6.23c-5.65-1.74-3.25-5.93-3.61-9.41-3.91,2.89-1.47,6.62-2,9.2-1.23.26-2.23.53-3.26.66-.83.1-2.07.38-2.46,0-1.58-1.7-2.57-.56-3.92.3-2.49,1.59-8.48.92-10.41-1l-5.12,2.75V240c-4.55,3.72-8.78,6-12.85,0-.9,3-5.05,5-8.36,5-4.4,0-8.8.51-13.19.84-1.26.09-2.61.71-3.76.42-5.64-1.41-11.21-2.48-16.84.06-.52.24-1.41-.31-2.13-.52-3.13-.89-6.2.89-6.43,4.14-.83,12-2,24.11-2,36.17,0,11.24,1.83,22.53-2.61,33.56,1,.17,1.6.32,2.22.37,9.17.78,18.33,1.75,27.52,2.25,11.14.61,22.31,1.2,33.47,1.07,7.64-.09,7.57-.62,9.39,6.81.23,1,1.65,1.62,2.51,2.42.69-.82,1.84-1.56,2-2.46.24-1.56-.15-3.21-.35-5.76a85.46,85.46,0,0,0,9.93-.07c4.59-.55,9.09-1.3,13.47.9a4.54,4.54,0,0,0,2.21.33c3.2-.19,6.4-.46,10-.73l1.29-2.69c1.32.53,2.89,1.73,3.55,1.34,4-2.33,7.9-.37,11.86-.15,5.22.3,10.48.17,15.71,0,2.76-.08,5.38-2.27,8.32-.58.26.15.89-.44,1.38-.55,1.49-.33,3.39-1.31,4.41-.74,2.71,1.51,4.93,2.07,7.61,0,1.9-1.49,5-2,6.08-3.81s.23-4.73.23-7.15l4-.46a16.28,16.28,0,0,0-4.72-2.76c-.09,0-.13-.2-.19-.3l2-2.25L190.45,302c3.67-4.53,3.67-4.53.14-8.14l2.91-2.47-3.38-2.64c3.81-4.3,2.15-8.25-.19-12.23l1.73-1.46c-1-1.43-2.51-2.89-2.24-3.39,2.27-4.27-.13-7.4-2.57-10.69Zm220.61,178c-1.56.49-2.75.87-3.95,1.23a11.19,11.19,0,0,1-3.17.86c-4.51-.08-9-.48-13.53-.45-2,0-4.41,1.72-5.85,1-7.58-3.63-15.48-.67-23.18-1.48-4.25-.45-8.82,1.25-13.39,1.11-3-.1-6.1.81-9.16.88-6.18.14-12.37-.1-18.55,0-4.35.09-8.68.66-13,.77-5.57.14-11.14,0-16.71,0-5.11.05-10.24.54-15.33.21-3.83-.25-7.59-1.49-11.6-2.33a29.18,29.18,0,0,0-.42,3c-.08,4.57.06,9.15-.2,13.71-.33,5.68-1.39,11.34-1.39,17,0,7.79.66,15.57,1.11,23.35.35,6.06,0,6.54-5.83,6.89-.26,0-.61-.09-.76,0-1,.94-1.95,1.93-2.92,2.9,1.09.66,2.15,1.76,3.29,1.85,1.4.11,2.87-.62,4.45-1,.26.48.66.89.71,1.33.21,2.29-.11,4.64,3.5,4.71,2.34,0,4.67,1.6,7,1.54,3.43-.09,6.84-1,10.9-1.67l1.42-2.61,4.44,1.84c2.41-3.14,5.67-1.53,8.73-1.28,3.43.27,6.85.76,10.29.86,2.37.07,4.78-.65,7.14-.52,4.25.23,8.47.86,12.72,1.25.43,0,.89-.58,1.36-.63,1.68-.17,3.83-.93,5-.2,2.65,1.7,4.82,3.53,7.49.22.14-.18.93.26,1.41.23,1.3-.07,2.59-.21,3.88-.38.82-.1,1.89-.7,2.41-.37,4.3,2.68,8.63,2.56,13.15.67.59-.25,1.55.43,2.35.61,1.13.24,2.27.41,3.68.65l-.33,3.8c.43-.09.62-.08.67-.15,1-1.74,2.08-3.49,3.13-5.25l2.48,2.75,2.45-3.73c6.44,3,6.44,3,9.55.58l2.5,3.64,3.56-3.32c2.56,5.18,7.07,2,10.41,3.13l2.59-3.71,1.39,4.08c1.5-.84,3.52-2.51,4-2.14,4.06,3.06,7.2.8,10.86-1.58l2.94,3.21c2.25-2.15,5-4.44,7.86-2.15,3.24,2.59,4.81-.36,6.83-1.35.59-.29.13-2.64.25-4a6.63,6.63,0,0,1,.55-2,12.29,12.29,0,0,1,1.48-2.95c2.93-3.63-.54-7.76.93-11.5.11-.28-.65-.89-1.76-2.31h12.69l-.05-.89-10.21-1.29c-.49-1.66-.82-2.59-1-3.54-.27-1.26-1.07-2.93-.56-3.76,3.92-6.35,4-6.3-1-11.4.65-1.53,1.39-3.18,2-4.87a34.53,34.53,0,0,0,1.71-5.05c.18-.84-.09-2.46-.56-2.64-3.45-1.29-3.74-4-3.11-6.87a71.92,71.92,0,0,1,2.59-7.69c-3.18-2.77-9.07,1.26-12.12-3.26l-5.74,3.12V433.6c-5.18,5.25-9.8,5.1-14.47-1.3ZM271,416.57c5,0,9.33-1.12,12.64.27,4.63,1.94,9.07,1,13.39.73,4-.23,7.91-2,10.44.54a50.26,50.26,0,0,1,5.77-.57c2.13.06,4.25.5,6.38.63,4.3.27,8.6.48,12.91.63,2.62.09,5.25.09,7.87,0s5.32-.42,8-.69c1.55-.16,3.09-.42,4.63-.64-4.72-3-9-5.57-13.66-6.64-3.41-.79-5.11-2.36-5.71-4.07-13.44-5.24-22.6-15.18-33-21.73l-6.27,3.59c-.57,1.45-.86,3.45-2,4.76-4.39,5.2-9,10.22-13.61,15.24C276.45,411.09,274,413.46,271,416.57Zm143.32,3,.6-.89-9.61-8.17-4.08,7.75Zm156.4-39.37c2.63-4.34,2.18-6.15-1.67-7.07a48.73,48.73,0,0,0-7.41-.67l-.59,1.39ZM260.13,523.94c-.63-2.21-.62-4.35-1.49-4.81-1.86-1-4.18-1.07-6.34-1.54C252.2,523.21,255.86,522.77,260.13,523.94ZM437.79,184.33c-1.43,1.3-3,2.5-2.91,2.67a37.41,37.41,0,0,0,3.24,4.13c1-.92,3.06-2.11,2.9-2.7C440.66,187.08,439.22,186,437.79,184.33ZM293.59,521.47c1.12-1.66,2.42-2.76,2.44-3.89,0-.93-1.91-2.82-2.22-2.68a21.62,21.62,0,0,0-4,3ZM274.21,233.2l1.28.07c.65-1.69,1.75-3.38,1.77-5.08,0-1-1.68-2.07-2.6-3.11-.6,1-1.71,1.94-1.68,2.88A25.46,25.46,0,0,0,274.21,233.2Zm-51-5.52c2.29,1.09,3.68,2.35,4.67,2.08,1.23-.33,2.12-1.91,3.16-3-.93-.84-2.07-2.51-2.75-2.34C226.76,224.84,225.48,226.14,223.19,227.68ZM486.25,462.75l1.14.92c1.51-1.26,3.31-2.31,4.39-3.86.51-.73-.37-2.44-.63-3.7-1,.45-2.5.63-3,1.42A27.8,27.8,0,0,0,486.25,462.75ZM130.9,125c1.19-1.52,2.69-2.6,2.64-3.59s-1.62-2-2.52-3l-3.43,3.5Zm336,100.55,1.1,1.23a39.54,39.54,0,0,0,5.18-3.84c.49-.48-.11-2-.21-3.12-1,.22-2.34.11-2.86.72A39.14,39.14,0,0,0,466.93,225.57ZM142.88,325.91a35.8,35.8,0,0,0-3.57,4.54c-.11.19,2,2.22,2.45,2a6.84,6.84,0,0,0,3.22-2.88C145.25,329.1,144,327.74,142.88,325.91ZM488.2,273.52l.82-1.09a29.24,29.24,0,0,0-4-4.58c-.58-.45-2.2.43-3.35.71.38.93.5,2.28,1.18,2.69A37.45,37.45,0,0,0,488.2,273.52ZM145.72,412.39c-1.46,1.78-5,2.77-2.1,5.82.6.64,3.26.55,3.69-.08C148.74,416,148.38,413.88,145.72,412.39Zm42.64-187.12c1.65.75,2.83,1.7,4,1.69a3.6,3.6,0,0,0,2.72-1.88,3.15,3.15,0,0,0-1.13-2.89C190.81,220.6,189.92,223.44,188.36,225.27ZM341.1,522.75h1.7a35.48,35.48,0,0,0,1.1-6.07c0-.69-1.47-1.41-2.27-2.11-.58.82-1.67,1.67-1.63,2.46A36.56,36.56,0,0,0,341.1,522.75ZM176.46,126.12h1c.58-1.74,1.52-3.47,1.59-5.23,0-1-1.39-2-2.16-3-.69,1-2,2-1.93,3C175,122.63,175.92,124.37,176.46,126.12Zm266.61,73.2c2.62,1,5.33,2.74,6,2.14,2.64-2.25.06-4-1.45-6.13ZM97.15,124.88l1.28-.27c0-1.31.54-3.06-.1-3.85-1.73-2.14-4.21-2.06-7.32-1.25Zm46.07-6.39-1,.82v5.56c1.81-1.9,5.64,1.06,5.27-3C147.4,120.65,144.72,119.62,143.22,118.49ZM121,455.44l-8.19-3.84C114.49,457.89,116.93,459.18,121,455.44ZM239.34,230.61c1.9-1.4,6,2.06,5.59-2.1-.13-1.27-2.86-2.27-5.1-3.9ZM187.14,332l1.38-.2c.34-1.57,1.07-3.2.87-4.7-.14-1-1.57-1.92-2.43-2.87-.51,1-1.51,2-1.41,3A22,22,0,0,0,187.14,332Zm-50.82,91.9L135,424l-.7,5.85,6.5-2Zm330-121.18.74-6.87-6.48,2.27ZM305.36,521c1.78-1.8,5.87,1.3,5.4-3-.13-1.18-3.05-2.05-5.4-3.5ZM106.06,334c3.79,0,5.8-.69,5-3.44-.27-.93-2.3-1.33-3.53-2Zm47.32-1.63a31.55,31.55,0,0,0,5-1.1c.34-.13.46-2.18.18-2.32a42.85,42.85,0,0,0-5.23-1.83ZM416.23,159.65l-1.59-.29-4,3.35.13,1.35c1.54.14,3.76,1,4.45.27C416.18,163.37,416,161.27,416.23,159.65ZM546.45,165l-.56,2.42,4.67,1.69c0-1.13.48-3,0-3.25C549.43,165.2,547.85,165.25,546.45,165Zm-350.93,69.2a15.6,15.6,0,0,0-2.26,3.09c-.1.26,1.4,1.68,1.8,1.54a14.48,14.48,0,0,0,3.15-2.08Zm216.12,176.2c2.33,1.87,4.33,2.19,5.56-.41a2.47,2.47,0,0,0-.68-2.32C413.34,406,413.06,409.29,411.64,410.42ZM165.52,383.29l-2.3,1a43.36,43.36,0,0,0,2.06,4.6c.09.16,1.56-.45,2.38-.7ZM450.27,520.91l.19-2.08-4.7-.66,0,2.73ZM196.59,296.76l.23,1.17,5.5-.61C199.88,292.47,198.28,295.41,196.59,296.76ZM537.11,171.17l-1.45,1.39,5.71,4.9.7-.68ZM583.77,512.8l1.16-1.77-4.5-3.16-1.13,1.59Z"/><path d="M131.71,144.6a34.78,34.78,0,0,1-5.44,0c-3.87-.62-7.67-1.81-11.56-2.21-5.82-.59-11.7-.9-17.55-1-10-.13-19.5-2-25.8-10.54-2-2.76-2.67-6.91-2.91-10.5-.38-5.7.06-11.46.26-17.19a31.06,31.06,0,0,1,.74-6.85,33.29,33.29,0,0,0,.25-17.88,13,13,0,0,1,0-3.36l1.8-.1c.47,5.88,2.06,11.94,1.12,17.59-1.27,7.68-.36,15.1.09,22.62a43.07,43.07,0,0,0,2,11.43c1.72,4.94,6.58,6.54,11,8.11,5,1.78,10.36.79,15.47,1.36,7,.78,13.91,3,20.83,4.7,3.3.81,6.54,1.82,9.81,2.73Z"/><path d="M290.33,58.15c.39-2.49.71-5,1.18-7.47.85-4.46,2.55-8.91,2.52-13.36a27.11,27.11,0,0,0-9.51-21c-1.16-1-3-1.31-4.56-1.8-7.29-2.24-14.6-4.41-21.88-6.64a20.57,20.57,0,0,1-4.64-1.74c-4.63-2.8-9.46-4.52-15-3.88-.74.09-1.56-.47-3.22-1,5.59-2,10.69-1.52,14.58.46,6,3.05,12.42,3,18.56,4.57,5.77,1.52,11.85,2.47,17.15,5,3.54,1.69,6.7,5.31,8.67,8.83,2.37,4.21,3.61,9.16,4.75,13.93,1.34,5.58-1.69,10.47-3.52,15.47-1.11,3-2.63,5.91-4,8.86Z"/><path d="M490.12,294.4c-.46,2.56-.95,5.11-1.37,7.67-.22,1.36-.91,3-.4,4.06,2.67,5.5,5.29,11.1,11.35,13.93a130.56,130.56,0,0,1,13.87,7.07,22,22,0,0,1,6.54,6.6c2.21,3.41,3.67,7.31,5.45,11l-1.27.78c-1.83-2.15-3.57-4.4-5.53-6.43-2.51-2.6-4.88-5.54-7.88-7.4-5.07-3.14-10.66-5.41-15.87-8.35a10.86,10.86,0,0,1-4.14-4.38c-3-6.08-8.37-11.77-3.73-19.44.93-1.54,1.08-3.56,1.58-5.36Z"/><path d="M84.92,471.07l-1.33-9.76,1.84-.25c3.7,2.77.19,6.63,1.21,9.8Z"/><path d="M350.6,282.48c-2.25,2-4.31,4.22-6.78,5.85-5.73,3.81-8.66,9.62-11.66,15.42-4.25,8.21-8.23,16.65-15.84,22.43-1.74,1.32-4.12,1.82-6.23,2.61-6.37,2.39-21.29-1.69-25.19-7.16s-8.72-9.27-15.24-11c6.64-.84,11.74,2.51,15.25,7.1,4.38,5.72,9.92,7.07,16.4,7.55,10.05.76,15.73-5.17,20.23-12.84,3.48-5.93,5.79-12.74,10.11-17.91,4.48-5.36,10.74-9.23,16.27-13.67.31-.25,1.16.18,1.75.3Z"/></g></g></g></svg>