<svg xmlns="http://www.w3.org/2000/svg" viewBox="0 0 525.47 282.1"><title>Fichier 4</title><g id="Calque_2" data-name="Calque 2"><g id="Calque_1-2" data-name="Calque 1"><g id="ZsDury"><path d="M525.47,113.71C525,128.21,519.73,141.51,512,154a3.51,3.51,0,0,1-.89,1.19c-8.77,5.41-12.34,15.35-19.42,22.23-1.07,1-1.73,2.63-2.95,3.35-11.8,7-20.43,17.9-32.45,24.81-17.15,9.85-33.19,21.6-50.21,31.69-35.32,20.95-73.4,35.16-113.32,44.53a30.21,30.21,0,0,1-5.17.33c1.51-.55,3-1.13,4.53-1.63,2.85-.92,5.72-1.74,8.56-2.7a8.42,8.42,0,0,0,1.82-1.2,7,7,0,0,0-2.38-.32c-10.52,2.47-21.28,2.43-32,2.93-13.54.63-27.09,1.05-40.64,1.67-2.24.1-4.56,1.35-6.68,1-9.28-1.49-18.95.27-28-3.37-1.35-.54-3.18.23-4.63-.17-3.08-.86-6-2.2-9.08-3.16-12.14-3.8-24-8.52-37.06-8.75a24.38,24.38,0,0,1-9-2.26q-16.43-7.18-32.65-14.86c-2.94-1.39-5.52-3.52-8.34-5.18-22.1-13-44.37-25.82-64.17-42.26A182.72,182.72,0,0,1,8,182.24a37.48,37.48,0,0,1-6.82-12.6c-3.1-9.08,0-17.07,8.34-23,3-2.12,6.42-3.56,9.39-5.68q27-19.29,53.92-38.77c1.69-1.22,3-2-.2-3.48-2.15-1-4.65-3.5-5-5.64-.49-3.11-2.56-4.38-4.14-6.41A73.69,73.69,0,0,1,56.36,76c-1.71-3.24.29-5.58,3.88-5.22A4.45,4.45,0,0,0,62,70.67c1.79-.58,4-2.23,5.24-1.69a82.57,82.57,0,0,1,11.53,6.36,30,30,0,0,1,4.8,4,11.35,11.35,0,0,1,2.23,3c2.8,5.5,5.26,6.2,10.09,2.67,22.34-16.33,45.32-31.65,69.87-44.5,2.72-1.42,4.16-2.87,4.23-6.4.07-3.26,1.74-6.61,3.26-9.65.52-1,3.44-2.15,4-1.7,2.38,2,6.49,1,7.84,5.07.89,2.67,3.44,1.5,5.56.66,11.6-4.57,23.09-9.49,34.91-13.43A287.42,287.42,0,0,1,308.24.13C381.13-2.06,443.72,23.26,497.94,71c5.74,5.05,11,10.7,16.58,15.9C522.25,94,525.25,103.05,525.47,113.71Zm-309.6,88.56,2-1,2.35-1.27a6.5,6.5,0,0,0-.55-.46c-.6.58-1.17,1.19-1.75,1.8l-1.94,1-1.27.32.29.36Zm15.88-9.14L232.8,191l.28-.2-.13.35-1.06,2.07-.81.9.38.27ZM86.6,203.63l0-1.77c-.14.06-.39.16-.39.17.17.49.36,1,.55,1.47a.62.62,0,0,1-.12.55L85.78,206l.79,0-.09-2.11c.63.09,1.42.44,1.84.19.59-.35.91-1.16,1.34-1.77a12,12,0,0,0-1.91.42A5.16,5.16,0,0,0,86.6,203.63Zm172-98.58a13.58,13.58,0,0,0-.83,2.72c0,.47.53,1,.82,1.5a6.24,6.24,0,0,0,.93-1.78,5.47,5.47,0,0,0-.38-1.88l1.1-.75-1-.92ZM239,274.57c1.55.35,3.27,1.27,4.07-1.1.09-.26-.07-.6-.11-.9-1.2.57-2.39,1.14-3.58,1.73-.13.06-.18.27-.27.4a22.23,22.23,0,0,0-2.44-1.5c-.34-.16-.88.09-1.33.16a3.78,3.78,0,0,0,.41,1.26C236.85,276,238,276.52,239,274.57ZM46.44,139.93c-2.24-1.42-3.36-.15-4.09,1.79-.17.45.1,1.06.17,1.6,1.08-.89,2.18-1.76,3.25-2.67a4.69,4.69,0,0,0,.6-.77l.22-2.09-.47,0Zm202.63,42.62c-.38.48-1,.91-1.11,1.43-1.66,9.13-5,17.5-10.93,24.73-.31.38-.28,1.05-.4,1.59a8.05,8.05,0,0,0,1.63-1C245.8,202,249.11,192.9,249,182.46l.59-7.63a13.06,13.06,0,0,1,1,1.64,22.43,22.43,0,0,1,.75,2.23,7.85,7.85,0,0,0,.63-2.09c.09-9.29-3-17.51-8.54-24.89a5.52,5.52,0,0,0-1.1-.87c0,.59-.13,1.31.14,1.76a40.35,40.35,0,0,1,5.65,18.26c.1,1.4,1,2.75,1.53,4.13Zm12.27-31.68.18-1.21c-.08.08-.23.15-.22.23,0,.3.07.6.11.9,8,18.17,7.46,36.41.42,54.71a28,28,0,0,0-.92,4c1.52-.85,3.09-1.61,4.53-2.58.47-.32.59-1.16.85-1.76,7.68-17.72,4.94-35-2.25-52.09C263.64,152.14,262.26,151.6,261.34,150.87ZM85.88,111.39c-1.63-.42-2.85,0-2.34,1.88.63,2.32,2,4.68-2.36,4-.26,0-1.11,1.23-1,1.57a13.35,13.35,0,0,0,2.32,3.57c.13.14,1.58-1.13,2.51-1.46,1.11-.39,3.16-1,3.36-.62a32.19,32.19,0,0,1,2.11,5.47,7.93,7.93,0,0,0-1.85-.57,18.88,18.88,0,0,0-2.65.18,9.87,9.87,0,0,0,.48,2.67c.24.5,1.27.59,1.59,1.09a9.4,9.4,0,0,1,.79,2.36c-.78-.1-1.83.1-2.28-.34-1.86-1.78-3.93-3.53-5.17-5.71-1.58-2.78-2.4-6-3.62-9-.21-.51-.83-.85-1.25-1.27a5.49,5.49,0,0,1-.19,1.53c-.2.47-.63,1.19-1,1.19-2.91,0-1.86,1.61-1.09,2.88,1.56,2.58,3.27,5.08,4.87,7.65a15.57,15.57,0,0,1,1,2.21,24.82,24.82,0,0,0-2.68-.19c-1.56.05-3.91-.35-4.5.46-.83,1.15-.42,3.24-.43,4.94,0,.46.4.9.56,1.37,1.47,4.3,1,4.87-3.42,4.59-.91-.06-2.21-.18-2.67.32a16,16,0,0,0-2.32,4c-.06.13,1,1.12,1.24,1,3.62-1.57,4.72.93,6.36,3.36a10.84,10.84,0,0,0,5.12,4c1,.34,2.72-1.46,4.09-2.33,6.69-4.26,12.27-10.22,20-12.91,2.27-.79,2.57-2.42.67-4.12-3.35-3-6.9-5.84-7.31-10.9a16.18,16.18,0,0,0-1.36-5.56c-1.15-2.42-1.86-5.45-5.54-5.63-.75,0-1.44-1.17-2.16-1.79l.42-.64ZM252.63,79.11c-1.51,1.34-2.66,3.78-5.27,1.6-.26-.22-1.12-.23-1.24,0-2.53,3.94-4,1.17-5.8-.76-3-3.18-3.31-3-5.7.51-.51.75-1.57,1.13-2.38,1.69A15.84,15.84,0,0,1,231,78.68c-.06-.46.94-1,1.45-1.58.67-.72,1.64-1.34,1.92-2.19.84-2.54,1.43-5.17,2.07-7.78a2.45,2.45,0,0,0-.08-1.3c-1.58-.23-3.25-.66-4.73-.33-.54.12-.89,2.15-.88,3.3s1.22,2.53.83,3.12c-1.07,1.65-2.61,3.94-4.14,4.08s-1.58-1.93-.14-3.14l-2.4-2.73c-.26.69-.32,1.6-.81,2-1.19,1.06-2.49,2.52-3.9,2.74-5.89.91-7.41,3.63-4.47,8.7.48.83,1,1.63,1.53,2.45l-3.17-.56a14.3,14.3,0,0,0-2-.27c-2.35-.06-1.88-1.14-.95-2.46.49-.69.89-1.45,1.33-2.18-.94-.1-1.88-.27-2.82-.28-7-.07-13.82-.37-18.21-7.12a13.48,13.48,0,0,0-2.56-2.33,31.78,31.78,0,0,0-.5,3.74c-.13,6.38,1.62,12.6.48,19.18-1.56,9,.54,10.71,9.73,10.45l.5,0c13.93,0,27.92-.95,41.64,2.62a12.29,12.29,0,0,0,3.46.35c.41,0,1.19-.76,1.14-1.05-.91-5.15,4.56-7.5,5.22-12.08.3-2.12,2-4.09,3.25-6a18.39,18.39,0,0,1,2.76-2.73,15.87,15.87,0,0,1-3.12-.67c-.36-.15-.55-1.07-.56-1.65,0-1.16.1-2.33.16-3.49l.63-1.4a3.5,3.5,0,0,0-.64-.18A10.88,10.88,0,0,0,252.63,79.11Zm-125.86-.83c1.28-.33,2.83-.31,3.79-1.05,2.23-1.73,3.66-3.18,2.13,1.29-.18.53,1.9,1.59,2.36,2.66a24.11,24.11,0,0,1,1,4.81c-2.65.43-1.69,6.64-6.36,4-.3-.17-1.51.46-1.65.92-.4,1.33-1,2.92-.57,4.13,1,3,1.22,4.81-2.75,3-1.52-.68-2.17-.38-2.07,1.36a7.18,7.18,0,0,1-.33,1.73A10.32,10.32,0,0,0,121,99.79c-1.13-.8-2.32-1.52-3.49-2.27a25.32,25.32,0,0,0-.86,4.17c-.09,2.12.12,4.25.2,6.37-1.62-1.25-3.33-2.4-4.84-3.78-4-3.6-3.91-3.69.89-6.32a18,18,0,0,0,2.13-1.6c-.84-.76-1.57-1.86-2.56-2.2-1.71-.59-4,1.61-5.37-1.09-.3.29-.71.52-.88.87-2.34,4.66.31,9.14.66,13.7,0,.62,2.58,1.84,3.27,1.47,1.88-1,2.27.38,2.32,1.28a9.34,9.34,0,0,1-.67,4.73c-2.46,4.6-2.57,4.53,1.19,7.63a24.46,24.46,0,0,1,3.31,3c2.14,2.55,4.39,2.94,7.38,1.34,13.06-7,26.52-13.05,40.77-17.17,3.07-.89,2.62-2.64,2.42-4.86a28.37,28.37,0,0,1,.23-5.6,37.09,37.09,0,0,1,.89-4.31c.58-2.51,1.28-5,1.77-7.54a29.79,29.79,0,0,0,.24-4.12c-1.26.65-3.47,1.14-3.6,2-.46,2.94-2.56,2.48-4.41,2.9-2.87.64-5.49,1.64-5.21,5.41a4.78,4.78,0,0,1-.32,1.38,12.21,12.21,0,0,1-1.25-1.34,14.71,14.71,0,0,0-1.62-2.48c-.29-.27-1.8.12-1.81.27-.23,3.81-3.77,4.32-6,6.06s-3.22,1.17-4.17-1.47a9,9,0,0,0-2.46-3.11,7.79,7.79,0,0,0-2.24-1c1.07-.33,2.38-1.21,3.15-.87,2.18,1,1.88-.33,1.69-1.54a6.33,6.33,0,0,0-.79-2.33c-1.08-1.75-.48-2.26,1.17-1.46,2,1,3.81,1.17,4.38-1.23.75-3.18,1.94-3.95,4.69-2,.51.37,1.47.12,2.22.15-.19-.65-.36-1.3-.56-1.94a73.27,73.27,0,0,1-2.24-7.53,3.37,3.37,0,0,1,1.46-2.73c3.23-1.85,10.23-.51,13,2,.87.79,2.49,1.54,3.43,1.24s1.63-2,1.63-3.11a118.86,118.86,0,0,0-.69-13.59c-.51-4.17-2-4.89-5.48-2.8Q147.07,64.56,130.37,75a23.18,23.18,0,0,0-3.5,3.36l-2.45,1.08a28.13,28.13,0,0,0,4,3.08c.39.22,1.49-.85,2.27-1.33a16.17,16.17,0,0,0-1.54-1.46C128.37,79.2,127.55,78.76,126.76,78.28ZM99.41,217.68l.09,0c1.31-3,2.59-6.07,4-9.06.1-.23.91-.13,1.38-.18l-.11-.13L106,211c2.7-1.44,3.45,1.21,4.91,2.34l-.71,1.7,1.68-.75c2.7-3.16,5.36-1,7.81.28,3.41,1.81,6.68,3.91,9.93,6a39.06,39.06,0,0,1,3.89,3.3l-3.4,3.12.77-3.44-.45,0c-.1,1.14-.17,2.29-.25,3.43,2.94,1.25,0,3.14.44,4.67a10.38,10.38,0,0,1-1.17.5c-.41-2.82-1.43-1.45-2.77-.56-2.27,1.51-4.06,1.27-4.5-1.94-.15-1.12.06-3.35-2-1a12.17,12.17,0,0,1-2,1.52,22.44,22.44,0,0,0,.57-2.35c.12-.83.08-1.69.12-2.54-.62.54-1.2,1.12-1.87,1.59s-1.33,1-1.73.84c-4.59-1.85-7.43,1.29-10.26,3.77-3.06,2.68-3,3.57.56,5.35,6.07,3.07,12.27,5.92,18.51,8.64,2.4,1,5.08,1.45,7.62,2.22,3.25,1,7,1.32,9.61,3.21,9.2,6.68,20.31,8.34,30.49,12.4,1,.41,2.31.1,3.47.16,1.49.07,3.28-.32,4.41.36,5.59,3.41,11.71,4.39,18.07,5,7.89.71,15.76,2.56,23.62,2.5,4.63,0,11,1.9,13.66-4.88,0-.11.34-.09.44-.21,2-2.4,4.13-4.71,5.95-7.24s3.38-5.3,5-8,3.88-1.91,5.55-.64,4.25,3.9,1.81,5.15c-4.39,2.24-4.31,7.3-7.8,9.89-.95.7-1.31,2.65-1.25,4,0,.47,2.13,1.2,3.28,1.2q13.83,0,27.65-.33c7.88-.16,15.76-.82,23.62-.51,2.79.11,7.64-.82,7.62,4.82,0,.23,1.32.74,1.93.63a28.21,28.21,0,0,0,3.79-1.23c44-14.78,84.48-36.62,122.78-62.66a8.87,8.87,0,0,0,1.93-1.55c.25-.3,0-1,0-1.49-4.07.27-2.54-2.61-3-4.78-1.15-4.89-3.17-9.56-4.51-14.41-.41-1.47-.34-4,.55-4.69,1.33-1,3.63-1.27,5.44-1.08.67.07,1.19,2.27,1.64,3.55.63,1.79,1,3.68,1.69,5.44,1.22,3.14,3.5,6.18,3.67,9.36.24,4.64,2,3.27,4.14,1.81,14.91-10.37,29.9-20.67,42.46-34,12-12.74,21.79-26.95,26.09-44.24,3.11-12.49,1.89-23.7-8.09-33.52-25.08-24.67-53.11-45-85.38-59-11.56-5-23.64-8.9-35.56-13.09-1.44-.51-5.12-2.92-4.13,2.33.16.86-1.43,2.57-2.56,3-2.17.89-4.87.68-6.84,1.81-5.71,3.26-11.53,6.5-16.57,10.66-2.56,2.11-4.94,3-7.56,2.21-1.45-.42-2.65-2.67-3.32-4.35-.23-.57,1.34-2.26,2.42-2.87,2.42-1.37,5.83-1.75,7.44-3.69,4.46-5.37,11.16-7,16.41-11,.36-.27.73-.51,1.09-.77a5.71,5.71,0,0,0-1.08-.84,8.54,8.54,0,0,0-2.34-.84c-12.85-1.71-25.67-4.21-38.58-4.9-27.62-1.47-54.82,2.24-81.59,9-2.39.61-6.87.13-4.38,5.19.15.3-.15,1-.44,1.32-4.88,5.5-6.94,12.14-8.2,19.21a4.38,4.38,0,0,1-3.43,2.58,11.38,11.38,0,0,1-5.46-2.47c-.38-.29.53-2.54,1.11-3.76.69-1.45,1.88-2.67,2.47-4.15a42.71,42.71,0,0,0,2.14-7,33.77,33.77,0,0,0,.33-5.24c-1.52,0-3.2-.32-4.54.2q-17.69,6.79-35.27,13.87c-4.59,1.85-4.49,2-3.07,6.73a10.72,10.72,0,0,1,.06,2.44c.16,3.21.29,6.43.59,9.63,0,.37,1.17.55,1.62,1,1.6,1.56,4.81.45,5.57,3.67.26,1.11,2.53,2.8,3.17,2.53a8.56,8.56,0,0,0,3.58-3.57c.5-.85-.12-2.3.1-3.42a2.21,2.21,0,0,1,1.47-1.48c.71-.06,2,.48,2.12.92.26,1.55.64,3.48,0,4.7-1,1.85-2.6,3.71-.3,5,1.23.71,3.49-.32,5.28-.58.33,0,.65-.16,1-.19,3.63-.34,3.95-2.94,3.84-5.74,0-1-.52-1.92-.53-2.88,0-.35.84-1.07,1.2-1,2.51.37,5,.91,7.48,1.39a5.71,5.71,0,0,0,.81,1.21,5.15,5.15,0,0,0,1.46.83c.06,0,.55-.57.49-.71-.24-.51-.55-1.19-1-1.34a4.8,4.8,0,0,0-1.89.14c1.48-2.76,3.5-3.29,6.15-1.55,1.94,1.27,3.64,1.55,5.89-.05,1.08-.77,4.2-.34,5.12.69,1.66,1.85,2.26,4.6,3.49,6.88a14.62,14.62,0,0,0,2.27,2.57A15.68,15.68,0,0,0,250.82,63c0-.7-1.25-1.43-1.85-2.21-.93-1.24-1.77-2.53-2.65-3.81a30.89,30.89,0,0,1,5.28.73c.59.18.68,1.67,1.25,2.36s1.53,1.71,2.27,1.67c4.61-.25,9.79.34,10.9-6.27.15-.87,1.61-1.49,2.4-2.29A8.27,8.27,0,0,0,270.31,51c2.41-5.44,4.65-11,7.09-16.39A7.49,7.49,0,0,1,280,31.15a6.5,6.5,0,0,1,4.2-.27c.38.08.47,1.95.55,3,.1,1.31-.49,3.09.17,3.88,6.36,7.56,1.15,15.19.46,22.79-.09,1,.43,2.85,1,3a46.34,46.34,0,0,0,7,1.12c1.06.15,2.79-.09,3.06.44,1,2,2,2.35,3.83,1,.45-.33,1.45,0,2.16.15,3.16.7,6.31,1.45,9.46,2.18,1.09.25,3.08.41,3.13.79.41,3.27,3.48,3,5.23,4.43.8.65,1.06,2.25,1.13,3.44.05.85-.6,2.49-1,2.49-1.17,0-3.38-.63-3.36-.88.24-2.91-1.4-1.58-2.34-1a9,9,0,0,0-1.85,2.05,14.61,14.61,0,0,0,2.89,2.4c1,.5,2.38.35,3.53.67.31.09.43.84.63,1.29-5.15,1.31-.83,4.08-.79,6.07s0,2.22-1.52.86c-.08-.07-1.25.7-1.2.92.49,2.25-1,1.67-2,1.4-3.14-.8-2.07-2.37-1-4.37.67-1.22.4-2.95.55-4.45a18.62,18.62,0,0,1-2.49,1.9c-.8.43-2.21,1-2.58.72-2.39-2.12-3.54-.12-4.92,1.24s-2.64,2.66-4,4c-.39-1.66-.72-3.34-1.18-5a10.4,10.4,0,0,0-1-1.94,7.89,7.89,0,0,0-1.67,1.66c-.95,1.79-1.62,3.73-2.59,5.51-1.2,2.21-3.41,2.22-4.28.34a14,14,0,0,0-6.23-6.67,2.53,2.53,0,0,1-1.07-2c.41-4.19-3.34-2.55-4.94-3.1-1.77-.61-2.77,1.25-1.59,3.27.13.22.09.8-.07.9-3.17,2-3.5,5.78-5.27,8.63s-2.38,6.74-3.29,10.21c-.46,1.73-.36,3.6-.73,5.36-1,4.82-1,5,3.72,5.94,1.79.35,3.62.51,5.44.72a155.33,155.33,0,0,1,33.54,7.37c2.95,1,6.07,4.83,8.83-.32,0-.09.32-.12.48-.1,3.21.44,4.13-2.18,5.57-4.14a7.83,7.83,0,0,1,2.24-2.47c4-2.08,8.16-4,12.26-5.93,1-.48,2.25-.7,3-1.43,3.11-2.87,6.06-5.91,9.11-8.85s3-4,.56-7a5,5,0,0,1-1.24-1.93,23.85,23.85,0,0,1-.19-3.7,12.26,12.26,0,0,0,3.45.92c1.26,0,3.35-.35,3.62-1.09,1.28-3.43,1.72-2.82,3.39-.11,1.14,1.85,3.56,1.82,5.56.11q8.42-7.23,17-14.29a7.66,7.66,0,0,1,3.58-1.59c2.36-.34,4.52,2.17,3.39,3.91A54.33,54.33,0,0,0,383.21,89c-1.12,3.49-4.72,6.19-1.47,10.29.4.5,0,1.62,0,2.45.08,1.72.52,2.14,2.49,1.51a16.09,16.09,0,0,1,6.69-.25c.92.11,1.68,1.48,2.51,2.27-1.17.55-2.5,1.77-3.47,1.53-2.89-.72-4.32.28-5.4,2.85-.4,1-1.62,1.57-2.47,2.34a10.76,10.76,0,0,1-.88-2.9c0-4.18-3.49-5.24-6.32-6.38-.78-.32-2.64,1.85-3.92,3-.74.65-1.17,1.67-2,2.23a59.43,59.43,0,0,1-6.57,4.27c-2.23,1.19-2,4.29-5.35,5.13-3.13.78-5.28,4.85-8.36,6.59a29.43,29.43,0,0,0-10.28,9c-2.42,3.51-2.49,4.26,1.42,5.64,5.94,2.1,12,4,18,5.77a56.24,56.24,0,0,1,18.58,9.16c1.65,1.24,3.18,3.58,4.69-.15a1.78,1.78,0,0,1,1.65-.55c3.47,1.82,5.41-1,8-2.24a47.32,47.32,0,0,1,12-4c2.55-.41,4.75.1,5.63-3.15.35-1.29,2.51-2.29,2.72-.24.51,5,1.64,1.34,2.69.41a4.32,4.32,0,0,1,1.4-.89c6.57-2.23,12.6-5.29,17.58-10.33,1.28-1.3,3.58-2.62,5.17-2.38,4.36.67,7.06-2,10.24-3.89,1.43-.84,3-2.2,4.43-2.17a98.8,98.8,0,0,0,15.49-.38c.69-.09,2,1.22,2.27,2.1a3.27,3.27,0,0,1-1,2.88c-3.88,2.72-7,6.19-10.54,9.27a56.27,56.27,0,0,1-14,8.87,34.68,34.68,0,0,0-11.86,8.39c-5.08,5.88-13.58,4.21-18.62,9.59-.22.23-1,.13-1.44-.08-2.11-1.07-3.63-.77-4.62,1.56a1.83,1.83,0,0,1-1.57.82c-3.23-1.35-5.61.76-7.49,2.44-4.07,3.66-10.11,4.52-13.19,9.59a4.15,4.15,0,0,1-3.55,1.24,25.21,25.21,0,0,1-7.41-2.43c-6.94-3.84-13.27-8.94-21.67-9.54-1.41-.1-2.74-1.13-4.12-1.71-8.29-3.48-16.6-6.71-25.73-7.47A47.61,47.61,0,0,1,311,156.32c-5.4-2-10.51-4.88-15.69-7.46-8.46-4.22-16.94-8.34-26.61-8.9-2.11-.12-4.23-.16-6.35-.24.83,2,1.54,4,2.51,5.85,7.24,14.07,11.26,28.8,9,44.75a113.45,113.45,0,0,1-2.65,12.15c-.6,2.32.06,2.76,2.09,1.94,1.85-.74,3.67-1.58,5.53-2.29,7.45-2.84,14.72-6.59,22.43-8.2A50.55,50.55,0,0,0,323.84,183c8.93-7.54,20.15-8.76,30.4-12.65a4.13,4.13,0,0,1,2,0c5.47.83,10.82,6.21,11.6,11.64.45,3.16-.57,5.6-3.57,7-1.36.62-2.86.92-4.2,1.56-5.2,2.49-11.29,2.93-15.71,7.28-1.84,1.81-4.33,3-6.56,4.39-6,3.82-12.55,7-18,11.54a70.22,70.22,0,0,1-27,13.47c-9.39,2.53-19.41,3.67-28.1,7.69-14.56,6.74-29.88,7-45.18,8.2-21.12,1.66-39.91-7.2-59.2-13.67-6-2-11.72-4.6-17.57-6.94-5.7-2.28-11.55-4.24-17.05-6.92-9.76-4.76-19.31-10-28.95-15-.74-.38-1.47-1.07-2.21-1.08a7.63,7.63,0,0,0-2.54.9,7.66,7.66,0,0,1,1.63,1.29c.72,1,1.72,2.07,1.73,3.13,0,.74-1.31,1.93-2.24,2.17a96.83,96.83,0,0,1-10.28,2.07c-.41.06-1-1.26-1.54-1.95L83.45,206l-2.15,1.22,1.49-7,4.07-.81-.41-1-3.58,1.91c-1.91-1.31-2.18-.42-2.19,1.42,0,.39-1.38.78-2.13,1.16-.08-3.13-3.13-1.87-3.89-2.56-2.62-2.38-2.33,2.11-3,1.06A10.79,10.79,0,0,1,70,196a9.91,9.91,0,0,1,1.57-5.56c2.85-3.93-1.81-3.07-2.56-4.6a14.3,14.3,0,0,1-.81-4.21c-.18-1.25.11-2.77-.49-3.73-3.21-5.1-3.09-8.9.54-13.53.52-.66.66-2.61.33-2.79a46.18,46.18,0,0,0-7.42-3.31,4.81,4.81,0,0,0-3.14.64,2.72,2.72,0,0,0,.32,2.22c.71.49,1.84.36,2.78.54a13.94,13.94,0,0,1,1.47.45c-.46.36-.89,1-1.37,1-3.45.32-6.56-.48-8.9-3.22-2.22-2.59-4.7-2.55-6.86-.09a8.13,8.13,0,0,1-3.16,1.7c-4,1.58-4.88-2.54-7-4.21-1.78-1.43-2.83-3.78-4.2-5.73,1.51-.64,3.22-1,4.45-2,1-.77,1.29-2.3,1.91-3.49-1.16-.17-2.64-.9-3.43-.43-6,3.55-12,7.17-17.77,11.1-3.81,2.59-4.77,6-3,10.05,3.71,8.7,10.67,14.74,17.62,20.73.48.42,1.5.21,2.27.3-.05-.76.17-1.7-.2-2.25-2.44-3.64-4.14-7.87-8.56-10-.9-.42-1.72-3.1-1.23-3.93a16.57,16.57,0,0,1,4.72-4.49c.21-.15,2.18,1.33,2.56,2.34,1,2.61,2.17,4.77,5,5.79.79.29,1.33,1.39,1.88,2.19,1.46,2.15,2.75,4.42,4.32,6.49,2,2.59,1.9,6.67-.34,8.93l-.27.07.37-.08c-.82,3.16,1.47,4.49,3.54,5.83Q67.42,213.47,90,228c2.13,1.38,4.54,3.78,6.18-.68.15-.42,1.14-.57,1.76-.77,6.11-1.9,7.23-3.5,6.81-9.92a25,25,0,0,0-.42-2.54,16.88,16.88,0,0,0-1.92,2.13c-.28.43-.16,1.13-.22,1.7l0,0C101,219.52,100.22,218.67,99.41,217.68ZM155,140.18a13,13,0,0,0-3,.35c-6.94,2.73-14,5.28-20.75,8.37-9,4.09-17.85,8.38-26.54,13-5.69,3-11,6.86-16.43,10.32-.82.52-1.68,1-2.52,1.48a25.38,25.38,0,0,0,2.86,1.42c6.7,2.37,13.54,4.37,20.09,7.09,10.18,4.23,20.08,9.12,30.24,13.38,6.73,2.82,6.84,2.55,6.15-4.41-.1-1,0-2-.14-3-1.48-15.51,2.45-30,8.39-44.09C153.8,143,154.27,142,155,140.18Zm32.44,31.48c-.12,10.19,4,17.34,10.64,20a7.41,7.41,0,0,0,2.27.14c-.46-.47-.92-.95-1.38-1.41-2.21-2.2-5.14-4-6.49-6.65-4-7.77-2.07-15.52,2.78-22,9.9-13.3,25.77-9.19,31.23.76,2.91,5.31,4.69,10.55,4.3,16.56a6.71,6.71,0,0,0,.57,2.07,9.78,9.78,0,0,0,1-1.61,21.79,21.79,0,0,0-6.34-24c-7.57-6.18-16-6.81-24.83-3.09C192,156.23,188.57,164.11,187.48,171.66ZM209,133.49c-5.12.51-11,1.53-16,5.29a13.15,13.15,0,0,0-1.84,2.13,22.1,22.1,0,0,0,2.77-.47c4.43-1.32,8.77-3.35,13.29-3.93,9.78-1.24,18.17,2.66,25.77,8.52,1.25,1,2.6,1.79,3.91,2.68-.82-1.57-1.58-3.17-2.48-4.68a5.11,5.11,0,0,0-1.49-1.3A42.94,42.94,0,0,0,209,133.49ZM203.87,175c-.65.64-2.72,1.77-3.17,3.36-.55,1.93,4.4,5.09,7.32,4.55a4.49,4.49,0,0,0,2.84-3.07C211.25,177,208.52,174.9,203.87,175ZM309.94,79.73c1-1.44,2.59-2.8,3-4.45.46-1.89-3.23-4-6.45-3.92-.38,0-1.16,1.09-1,1.35C306.52,75,305.87,78.4,309.94,79.73ZM220.81,62.59c.06,3.59,1.29,5.24,3.32,4.73a4.4,4.4,0,0,0,2.59-2.78c.46-1.84-2.7-5.18-4.17-4.51C221.54,60.48,221.08,62.15,220.81,62.59Zm-71,125.06c.38,2.59.88,6.35,1.56,10.09.11.61,1,1.07,1.56,1.6.26-.63.82-1.31.72-1.87-.84-4.55-1.79-9.08-2.73-13.6a5.5,5.5,0,0,0-.63-1.26,6.21,6.21,0,0,0-.45,1.37C149.76,184.8,149.81,185.63,149.81,187.65ZM52.94,133.87a23.69,23.69,0,0,0,2.44,3,43,43,0,0,0,4.5-3.29,19.55,19.55,0,0,0-4.22-2.79C55.25,130.59,54.08,132.52,52.94,133.87Zm131.15-30-3.88-4.67c-.8,1.06-2.3,2.15-2.24,3.16a4.87,4.87,0,0,0,2.3,3.51C180.93,106.22,182.5,104.77,184.09,103.88ZM110.33,89.21c1.7.28,3.28.14,3.51.64,1.31,2.77,3.43,1.33,4.4.46,2.29-2.06-1.16-1.73-1.57-2.8a5.19,5.19,0,0,0-1.39-1.79C113.77,86.64,112.36,87.72,110.33,89.21ZM299.6,79.45l-3.51-4.15a37.81,37.81,0,0,0-2.38,4.5c-.14.35,1.07,1.74,1.39,1.65A31.42,31.42,0,0,0,299.6,79.45ZM175.48,181.76c.51,1.92,1.07,4.29,1.81,6.6.13.42,1,.61,1.48.91.21-.52.69-1.1.58-1.54q-.8-3.33-1.88-6.59a20.29,20.29,0,0,0-1.38-2.76Zm31.81-9.37,2,.16,3.23.32c-1-.8-1.83-2-2.93-2.3a9.84,9.84,0,0,0-4.76.23c-.9.26-1.52,1.47-2.26,2.26.92-.15,1.84-.33,2.77-.46C206,172.51,206.63,172.46,207.29,172.39Zm5.67-8c-.58,1-1.12,1.64-1,1.79a29.11,29.11,0,0,0,3.45,4.07c.36.33,1.55,0,2.19-.32a1.78,1.78,0,0,0,.08-1.68C216.31,167,214.8,165.88,213,164.41ZM101.23,102l-1.23.32c-.15.4-.56,1-.42,1.16a47.47,47.47,0,0,0,3.27,4.12c.1.11.91-.43,1.39-.67Zm160-26.33c-1-.07-1.71-.31-1.87-.1-1.18,1.52-2.27,3.11-3.29,4.73-.14.22.2.85.46,1.18s.78.28.85.18C258.57,79.88,259.73,78,261.21,75.7Zm-5.3,1.05a24.11,24.11,0,0,0,1.63-3.35c.07-.22-.82-.74-1.27-1.12a18.38,18.38,0,0,0-1.73,2.66C254.43,75.18,255.17,75.81,255.91,76.75Zm-188,57.69c-2.22-.74-3.48-1.62-4.18-1.29-1,.46-1.58,1.81-2.35,2.78,1.34-.2,2.69-.39,4-.62A25.84,25.84,0,0,0,67.87,134.44Zm54.06-51-.78-1.66-2.84,1.81c.32.46.82,1.35.94,1.31A22.74,22.74,0,0,0,121.93,83.45Zm79,115,2.21-.67c-1-.32-2.08-.7-3.15-.92a4.65,4.65,0,0,0-1.51.2ZM102.73,93.31c-.91,1.54-1.48,2.47-2,3.45,0,0,.81.69.95.6a13.28,13.28,0,0,0,2.17-1.78A12.77,12.77,0,0,0,102.73,93.31ZM91.37,198.7l-1.79-.94c-.23.53-.67,1.08-.63,1.6,0,.34.88,1,1.1.88C90.49,200,90.78,199.43,91.37,198.7ZM192.88,64.26l-1.46-1.39a5,5,0,0,0-.69,1.47c0,.34.38.73.6,1.1Zm-8.09-16C183.9,47.6,183.44,47,183,47a1.55,1.55,0,0,0-1.15,1,1.58,1.58,0,0,0,1,1.24C183.27,49.33,183.82,48.79,184.78,48.25Zm-4.21,146.61a17.53,17.53,0,0,0,1.4,1.63,2.18,2.18,0,0,0,.76-.5,5.68,5.68,0,0,0-.91-1.5C181.73,194.39,181.21,194.67,180.58,194.86ZM182.68,51l-.84.93c.37.22.74.61,1.12.62a3.63,3.63,0,0,0,1.29-.53ZM262,64.34c-.61-.36-1.08-.84-1.32-.74a5.56,5.56,0,0,0-1.35,1.1,5.31,5.31,0,0,0,1.57.58C261.23,65.3,261.55,64.78,262,64.34ZM161.88,85.8c-.51-.45-1-1-1.15-1a4.51,4.51,0,0,0-1.17,1c.38.21.76.55,1.15.57S161.38,86.09,161.88,85.8Zm35.28-15.9a5.16,5.16,0,0,0-1.16-.71c-.1,0-.52.48-.49.71a3.43,3.43,0,0,0,.54,1.05ZM72.4,124.41l-1,.51a8.3,8.3,0,0,0,1.19,1.36c.12.09.65-.36,1-.56Zm7.52-38.72-.28-.79c-.23.13-.59.22-.64.41s.13.52.22.79Zm147.59,115-.17-1a2.78,2.78,0,0,0-.72.46,2,2,0,0,0-.23.73ZM165.73,79.35l-.68-.49c-.1.27-.33.59-.26.81s.43.34.67.51Zm-87,113.59c-.25-.09-.62-.33-.72-.25a2.51,2.51,0,0,0-.45.82c.26.09.64.33.75.24S78.59,193.22,78.72,192.93ZM200.41,76a5.56,5.56,0,0,0,1.1.45c.08,0,.42-.62.35-.69a4.76,4.76,0,0,0-1-.65ZM153.93,74.1l-.48-.78c-.18.23-.56.51-.51.68a3.18,3.18,0,0,0,.65.9Zm123.6,5.07-.26,0,.11.29Zm4-6.26a4.61,4.61,0,0,0,.78.26c.08,0,.19-.2.28-.3-.18-.14-.37-.39-.55-.39S281.67,72.76,281.49,72.92ZM183.93,55l.3-.15-.3-.13Zm36.29,129.13.12.29.13-.28Zm-1.62,3.54-.17-.39c-.1.1-.25.19-.27.3s.1.25.16.37Zm11.11,9.48-.3-.34a4.81,4.81,0,0,0-.37.76c0,.07.18.22.29.33ZM181.54,97.34l-.08-.36c-.1,0-.27.05-.27.1a1.07,1.07,0,0,0,.07.36ZM183,90.89c0-.1,0-.24-.09-.28a1.17,1.17,0,0,0-.38-.08l.11.49Z"/><path d="M456.79,96.48c-1.62-.12-3.24-.22-4.85-.37-2.87-.27-3.52-2.74-3.43-4.69.05-1.18,2-2.87,3.37-3.3,7.73-2.38,14-7,20.2-12,1.9-1.53,9.06-2.12,10.87-.38a5.42,5.42,0,0,1,1.43,3.9A3.74,3.74,0,0,1,482,82.35c-7.65,1-13.33,6.16-19.92,9.34-2.12,1-3.66,3.23-5.46,4.9a1.57,1.57,0,0,0,.06-.44c0-.12-.13-.22-.2-.33Z"/><path d="M292.34,25.54c1.24,1.51,2.65,2.48,3,3.73,1.87,7.58,8.32,11,13.61,15.49,1.6,1.36,3.59,2.56,4.55,4.3.82,1.49.69,3.69.48,5.52-.28,2.35-3.9,3.63-5.44,2-4.53-4.92-8.86-10-13.42-14.92-1.77-1.9-4.08-3.3-5.91-5.16a6.22,6.22,0,0,1-1.09-7.79C288.73,27.47,290.45,26.87,292.34,25.54Z"/><path d="M417.27,69.44a13.08,13.08,0,0,1-2.57,3.43c-1.47,1.13-2.21-.89-3.24-1.36-5.56-2.58-11.47-4.41-17.19-6.68-1.49-.59-3.53-1.64-3.84-2.86-.4-1.57.34-3.72,1.26-5.22.44-.72,3-1.14,3.6-.6,4.75,4.36,11,4.45,16.66,6.19C415.1,63.3,417.2,65.21,417.27,69.44Z"/><path d="M325.12,258.47c-2.16-5.73-4-11.61-6.64-17.11-1-2.05-.93-3,.17-4.76,1.63-2.57,4.08-2.3,6.16-1.67.86.26,1.11,2.63,1.6,4.05a42.82,42.82,0,0,1,1.7,5.35c.94,4.71,4.84,8.51,4.36,13.59a4.88,4.88,0,0,1-7.43,3.65c-.68-.45-.81-1.72-1.19-2.61Z"/><path d="M398.49,219.49c.21,2.7-.35,3.19-3.85,3-5.63-.27-11.42,1.17-17,2.4-2.36.52-4.28.46-4.92-1.66a9.22,9.22,0,0,1,.56-5.84c.31-.71,2.75-.91,4.12-.69a23.56,23.56,0,0,0,13.77-2.13C395,212.86,398.47,215.05,398.49,219.49Z"/><path d="M164.21,245.85c.78,1.34.35,5,3.47,1.43,1.86-2.15,4-4.6,7.22-.81,1.2,1.4,4.36,1.13,6.62,1.6,2.05.42,4.14.93,3.46,3.71-.55,2.29-4.56,4.3-6.54,3.43-2.28-1-4.51-2.08-6.79-3.07a10.35,10.35,0,0,0-2.82-.93c-4.88-.57-4.89-.54-4.6-5.41Z"/><path d="M393.4,126c.44-2.14,1-4.87,1.54-7.62.41-2.16,1.52-2.24,2.35-.49s5,1.71,2.57,5a28.48,28.48,0,0,0,2.8,1.64c2.45,1.1,5.49,1.79,2.3,5.39-.5.57,0,2-.24,2.86a8,8,0,0,1-1.69,3.18c-.56.57-1.74.52-2.64.75.19-1,0-2.57.64-3,2.81-1.88,2.2-4.2,1.17-6.57a2.23,2.23,0,0,0-1.74-1.18,2.5,2.5,0,0,0-1.56,1.59c-.45,1.74-.36,3.64-1,5.29-.37,1-1.72,1.55-2.63,2.3a14.53,14.53,0,0,1-1.07-2.71C393.87,130.44,393.71,128.48,393.4,126Z"/><path d="M349.67,81.9c-.13,1.88-7,7.14-8,6.69-2.45-1.1-4.7-1.17-6.93.46-.12.09-.78-.29-.76-.34a19.82,19.82,0,0,0,.81-2.81c.15-1.52.07-3.07.08-4.6,1.21.8,2.37,1.67,3.63,2.38,1.7,1,2.65.95,2.69-1.58.06-3.66,3.35-2.43,5.2-2.51C347.59,79.53,348.82,81.25,349.67,81.9Z"/><path d="M346.31,97.32a15.63,15.63,0,0,1-3,1.6c-.54.16-1.87-.45-1.87-.69.1-4.48-3.38-3.5-5.9-4a8.82,8.82,0,0,1-1.92-.92c.36-.52.61-1.24,1.11-1.52,3.37-1.85,11-1.05,13.69,1.61a4.55,4.55,0,0,1,1,3.42c-.09.67-1.56,1.16-2.41,1.73Z"/><path d="M99.82,205.32c3.52,1.84,1.69,4.51.83,6.78-1.29,3.42-4.2,2.35-6.71,1.87a11,11,0,0,1-2.72-1.37,22.73,22.73,0,0,1,2.89-3.37c.67-.54,2-.22,2.75-.72a11.3,11.3,0,0,0,2.1-2.44Z"/><path d="M411.25,119.83c-1.94-2.24-2.17-5.28-.2-6.54.83-.54,3-.54,3.31,0a4.38,4.38,0,0,1,.29,3.76c-.69,1.23-2.28,2-3.48,2.9Z"/><path d="M138.95,228.2a7.53,7.53,0,0,1,2.42,0c.83.27,2.2,1.07,2.14,1.44-.18,1.11-.71,2.69-1.55,3a15.93,15.93,0,0,1-5.23.77c-.37,0-1.12-.78-1.11-1.18,0-.6.61-1.7.89-1.68,1.93.14,2.68-.72,2.6-2.54Z"/><path d="M448.73,159.42l5.47,1.73-3.33,4a33.32,33.32,0,0,1-3.68-3.47C447,161.46,448.22,160.14,448.73,159.42Z"/><path d="M451.66,174c-1.14-2.17-2.27-3.46-2.39-4.83-.07-.86,1.38-1.85,2.15-2.78,1,1.38,2.36,2.66,3,4.21C454.61,171.09,453,172.32,451.66,174Z"/><path d="M388.49,119.21,385,122.59c-.42-.94-1.37-2-1.14-2.78.38-1.24,1.52-2.25,2.33-3.35Z"/><path d="M323.62,79.59c.91-2.22,1.83-4.45,2.78-6.65a3.53,3.53,0,0,1,.81.27c-.43,2.31-.82,4.63-1.41,6.9a7.9,7.9,0,0,1-1.33,2.07l-.27-2.34Z"/><path d="M51.41,162.44l2.71,4c-.64.29-1.61,1-1.87.81a29.23,29.23,0,0,1-3.07-3Z"/><path d="M148.4,240.94l2-3.24a17.68,17.68,0,0,1,.94,4c0,.85-.83,1.71-1.3,2.56Z"/><path d="M146.1,234.9a37.93,37.93,0,0,1-.77-4.26c0-.35,1.15-1.18,1.26-1.1a34.83,34.83,0,0,1,2.77,2.49Z"/><path d="M139.11,228l-3,.74c0-.48-.23-1.2,0-1.41a31.18,31.18,0,0,1,2.89-2.11l0,3Z"/><path d="M378.33,115.33c-.39.16-.94.47-1,.4a31.05,31.05,0,0,1-2.15-3c0-.07.57-.56.88-.86Z"/><path d="M215.79,61.48l-1.87,2.1a10.38,10.38,0,0,1-1.16-1.89c-.08-.22.52-1,.74-1A11.84,11.84,0,0,1,215.79,61.48Z"/><path d="M398.21,108.26c-.73.53-1.11,1-1.35.94a6.54,6.54,0,0,1-1.54-.82c.27-.3.56-.86.82-.85A8.66,8.66,0,0,1,398.21,108.26Z"/><path d="M461.63,180.81a7.62,7.62,0,0,1-.83-.33c.15-.6.34-1.19.53-1.78.26.14.75.31.73.42A12.12,12.12,0,0,1,461.63,180.81Z"/><path d="M99.82,205.32l-.85.76-1.28-1.42,1.51-1Z"/><path d="M457.4,174.66c-.2-.53-.55-1-.43-1.27s.67-.63,1-.93c.22.39.67.85.59,1.17S457.93,174.23,457.4,174.66Z"/><path d="M137.22,241.18c-.55-.51-.94-.78-.9-.86a8.8,8.8,0,0,1,.75-1.19c.3.27.87.57.84.79A3.85,3.85,0,0,1,137.22,241.18Z"/><path d="M458.45,163.34c-.2-.31-.52-.64-.45-.77a5.12,5.12,0,0,1,.82-1c.21.26.65.66.59.76A5.18,5.18,0,0,1,458.45,163.34Z"/><path d="M411.17,119.93c.33.33.77.61.95,1a10.55,10.55,0,0,1,.47,1.88c-.46-.39-1.1-.7-1.33-1.2a4.56,4.56,0,0,1,0-1.79Z"/><path d="M87.44,211.08l-.4-.76c.32-.1.65-.32.94-.27s.41.4.61.62Z"/><path d="M412.35,129.33l-.29-.31a6.84,6.84,0,0,1,.81-.34c.07,0,.2.14.3.22Z"/><path d="M389,123.49l-.65-.58a3.12,3.12,0,0,1,1-.29c.15,0,.28.45.41.69Z"/><path d="M467.21,171.71c.17.2.48.41.47.6s-.28.5-.44.75l-.81-.67Z"/><path d="M99.41,217.68l-2.12.91c0-.28,0-.79,0-.79.74-.05,1.48-.06,2.22-.08Z"/><path d="M154.26,232.81a2.78,2.78,0,0,1,.46.55c.05.11,0,.43-.09.43a2.46,2.46,0,0,1-.63-.05Z"/><path d="M102.14,218l.11.68-.16-.72Z"/><path d="M164.24,245.81l.85.22-.88-.18Z"/><path d="M104.85,208.48a7.53,7.53,0,0,1,.58-.76c.05-.05.26,0,.4.08l-1.09.56Z"/><path d="M139.72,75.56c.14-3.08,1.8-4.21,4.36-4.44a7.67,7.67,0,0,0,2.47-.42,8.61,8.61,0,0,0,1.85-1.58A17.57,17.57,0,0,1,148,72c-.46,1.55-1.53,3-1.58,4.56-.07,2,.86,4.4-2.24,1.45-.4-.38-1.35-.81-1.59-.62C138.89,80.27,140.58,76.13,139.72,75.56Z"/><path d="M129.1,104.12,126.36,108l-2.26-3.67a12.8,12.8,0,0,1,2.78-1.49C127.34,102.74,128,103.48,129.1,104.12Z"/><path d="M134.43,100.09l-1.73,2L130.4,100c.55-.49,1.12-1.39,1.65-1.36C132.75,98.67,133.42,99.43,134.43,100.09Z"/><path d="M117,113.24l-.52,1.66a34.67,34.67,0,0,1-1.64-3.13c-.14-.34.21-.88.33-1.33Z"/><path d="M154.77,100.4c-.49.14-.94.35-1,.26a5.38,5.38,0,0,1-.59-1.12c.29-.07.69-.29.84-.17A4.22,4.22,0,0,1,154.77,100.4Z"/><path d="M192.53,86.89c-.56-.86-1.31-1.53-1.38-2.27s.7-1.28,1.1-1.92l2.49,2.67Z"/><path d="M225.56,87.07l2.22,1.4a6.21,6.21,0,0,1-2.13.6,8.56,8.56,0,0,1-2.32-.91Z"/><path d="M78.81,133.12c.49-.2,1.26-.71,1.41-.56a6,6,0,0,1,1.45,2.1c.1.27-.67,1.25-.85,1.2a25.08,25.08,0,0,1-3.06-1.2Z"/></g></g></g></svg>