<svg xmlns="http://www.w3.org/2000/svg" viewBox="0 0 990.36 1034.59"><title>Fichier 5</title><g id="Calque_2" data-name="Calque 2"><g id="Calque_1-2" data-name="Calque 1"><path d="M789.22,363.39c-.36,5.75-.53,11.52-1.1,17.25-1.65,16.57-7.41,32.22-11,48.35-1.21,5.38-2.64,10.7-4,16.31,3.22-.32,6.19-.86,9.15-.85,6.9,0,13.81,0,20.68.58,4.63.37,9.2,1.58,13.77,2.56a63.17,63.17,0,0,1,6.84,2c10.81,3.65,21,8.48,30,15.64,5.72,4.53,11.5,8.89,16.27,14.48,9.55,11.17,16.46,23.58,20,38a142.82,142.82,0,0,1,3.61,27.35,75.7,75.7,0,0,1-.64,10.79A101.49,101.49,0,0,1,885,586.28c-2.05,4.84-3.31,10.06-5.76,14.67-1.2,2.26-2.84,4.32-3.68,6.84a23.87,23.87,0,0,1-2.31,5.71c-2.13,3.18-4.63,6.11-6.82,8.94,3.24,3.83,6.77,7.49,9.69,11.57a57.09,57.09,0,0,1,9.67,23.91,135.24,135.24,0,0,1,2.06,16.69c.49,11.07-2.28,21.63-6.05,31.93-3.07,8.39-6.35,16.73-11.28,24.24-5.42,8.26-11.19,16.27-18.74,22.77a178.56,178.56,0,0,1-14,11.54,124.07,124.07,0,0,1-15.85,9.25c-9.85,4.88-20.37,7.71-31.22,9.45-3.4.55-6.69,2.18-10.08,2.34-5.06.24-9.91,2.29-15.17,1.11-2.52-.57-5.37.57-8.08.62a58.41,58.41,0,0,1-8.52-.43c-4.06-.51-8.08-1.29-12.11-2-3.87-.65-7.75-1.28-11.61-2-12.85-2.35-24.92-7.17-36.83-12.23A114,114,0,0,1,662,755.83a129.82,129.82,0,0,1-19.2-18,189.22,189.22,0,0,1-15.64-21.15c-6-9.57-9.8-20.2-12.65-31.14-.79-3-1.75-6-2.7-9.3-3.38,2.83-6.6,5.74-10,8.36Q588,695.08,574,705.37c-8.57,6.3-16.88,13.05-25.95,18.55-20.16,12.22-40.73,23.76-61.13,35.59-4.46,2.59-8.82,5.38-13.39,7.75-3.05,1.59-6.46,2.49-9.6,3.91-22.41,10.13-44.54,20.92-67.27,30.29-16.2,6.68-33.17,11.47-49.8,17.1a5.88,5.88,0,0,0-1.82.64,6.76,6.76,0,0,0-1.14,1.71,12.59,12.59,0,0,0,1.66,1c.94.39,1.93.67,2.89,1l-.39.89-1.83-1c-.79,4.4,4.53,5.12,5.25,8.56l-2,1.44c1.19,2.84,2.39,5.36,3.29,8,.66,1.89.83,4,1.42,5.87a12.18,12.18,0,0,0,1.58,2.62c0,1,0,2.15,0,3.28.18,5,.75,10.11.48,15.12a112.38,112.38,0,0,1-2.17,16c-2.2,10.9-7.18,20.51-13.49,29.67-4.79,7-11.24,12.1-17,18-1.65,1.69-3.93,2.75-5.94,4.12-.22.37-.49,1.34-.92,1.42-4,.75-6.52,3.55-9.06,6.35a5.32,5.32,0,0,1-1.48,1.15c-3.43,1.75-6.79,3.68-10.34,5.13a105.84,105.84,0,0,1-12.27,4.18,99.7,99.7,0,0,1-13.22,2.79c-7.19.94-14.43,1.73-21.67,2.08a133,133,0,0,1-18.71-.33c-6.68-.63-13.57-.12-19.95-3a5.79,5.79,0,0,0-3-.31c-2.46.31-3.9-1.73-5.93-2.32-.81-.24-1.82.2-3,.38a41.33,41.33,0,0,0-6.42-2.42A57.31,57.31,0,0,1,173,943.29c-2.68-1.68-5.83-2.59-8.6-4.14-2.52-1.41-4.79-3.24-7.21-4.84a10.77,10.77,0,0,0-2.65-1.35,4.88,4.88,0,0,1-3.38-3.61,5.14,5.14,0,0,0-1.82-2.09c-2.28-1.82-4.63-3.54-6.93-5.33-.94-.73-1.76-1.61-2.7-2.32a28.35,28.35,0,0,1-3.57-2.49c-4.43-4.6-9.06-9.07-13-14.05-6.42-8.06-12.09-16.8-15.3-26.59-1.84-5.62-4.85-10.66-6.55-16.24s-2.67-11.49-4.62-17c-1.86-5.26-1.36-10.66-2-16a3.75,3.75,0,0,0-3-3.62c-17.82-5.63-34.81-13-50-24C21,784.7,7.26,765.26,2,740.24c-4.4-21.05-1.91-41.12,10-59.4,7-10.68,16.47-18.2,29.3-20.83a34.31,34.31,0,0,1,15.93.57l3,.8c0-.5.11-.85.11-1.19,0-6.88.35-13.79-.24-20.62-.29-3.38,1-6,1.75-8.9a25.13,25.13,0,0,0,.48-6.75c-.05-2.59.52-4.26,2.46-5.77-.19-2.47-.45-4.83,2.18-6.51.86-.55.89-2.26,1.53-3.3,1.94-3.16,4-6.25,6-9.38,1.69-2.64,4.36-5.14,4.78-8,.54-3.62,3.7-5.13,4.68-8.15.22-.68,1.43-1,1.91-1.36a33.88,33.88,0,0,1,2.79-4.8c1.36-1.65,3.09-3,4.62-4.51.36-.36.87-1.08.74-1.33-1.47-2.87,1.43-3.86,2.62-4.24,1.82-.59,2.28-2,3.4-3a42.63,42.63,0,0,1,6.82-5.05c.7-.41,2.13.43,3.44.19l-1.47-1.15c.4-.18.65-.4.83-.35,2,.54,3-.75,4.26-1.91a31.86,31.86,0,0,1,5.44-3.46c1.51-.87,3.09-1.63,4.64-2.43,4.57-2.36,9.11-4.79,13.73-7s9-4.45,13.68-6.2a110,110,0,0,1,13-3.67c5-1.19,9.93-2.69,15-3a174.79,174.79,0,0,1,24.55-.21A260.43,260.43,0,0,1,230.12,533c3.67.65,7.18,2.2,10.76,3.33,2.81.89,5.92,1.25,8.37,2.72,8.73,5.24,18.7,8.48,26,16.12,3.08,3.23,7,5.71,9.9,9.05,3.87,4.43,7.16,9.36,10.68,14.09.43.58.75,1.25,1.21,2,4.19-3.48,8.13-7.11,12.42-10.24a112.5,112.5,0,0,1,27.48-14.59A95.83,95.83,0,0,1,358.62,550a136.77,136.77,0,0,1,37.56.35,87.28,87.28,0,0,1,24,7.14,137.2,137.2,0,0,1,26.66,16.25c11.6,9.12,20.5,20.36,28.14,32.7a65.53,65.53,0,0,1,8.8,21.7c.58,2.89,1.85,5.67,2.11,8.57.37,4.09,1.12,8.11,1.62,12.17.57,4.62.83,9.29,1.6,13.88.3,1.75,1.7,3.3,2.48,5a4,4,0,0,1,.42,2.33c-.75,3.2-.95,6.63-4,8.94a3.89,3.89,0,0,0-.93,3.12c.45,3.18-1.14,7.09-3.88,8.46,1.5,1.75,1,3.16-.51,4.73a10.71,10.71,0,0,0-1.82,3.78c-1.72,4.76-1.46,9.6-.64,14.5.19,1.16-.36,2.43-.55,3.66s-1.06,2.29.46,3.48c.35.27-.64,2.69-1.44,3.81-.46.65-1.77.71-3.05,1.15l.52,5-1.87.24c9,5.75,18.42,8.72,28.79,3.9,3.91-1.82,6.5-5,8.65-8.71,1.14-2,2.77-3.62,4.06-5.49s2.39-3.67,3.47-5.58c1.93-3.42,3.86-6.85,5.62-10.36.94-1.87,1.52-3.92,2.28-5.89,1.16-3,1.87-6.24,3.59-8.85,4-6.13,4-13.53,6.93-20,.34-.75.73-1.47,1.12-2.27-1.88-3.79-.31-10.71,3.09-13.28,2.62,1.76,2.56,2.56,1.41,5.36-.74,1.79-.38,4-.67,6-.26,1.79-.17,4.08-1.24,5.2a9.33,9.33,0,0,0-2.83,8.34c.2,1.77-1.62,3.77-2.71,6,2.48,4.3-1.79,8-2.54,12.25-.31,1.76-1.62,3.33-2.13,5.08-.82,2.82-1.22,5.76-2,8.59-.75,2.6-1.85,5.1-2.72,7.67a21.37,21.37,0,0,0-.56,2.93c-.35.29-1.52,1-1.43,1.27.78,2.93-2,4.19-2.8,6.35-.21.58-.45,1.14-.81,2,14.48-6.69,59.59-37.57,68.9-47.24l-2.1-1.41.39-.43c2.42,2.15,4.24.66,6.19-.88q7.3-5.78,14.74-11.38a3.06,3.06,0,0,0,1.37-3.5c-2-10.27-.6-20.4,1.64-30.45.59-2.67,1.83-5.19,2.61-7.83a5.61,5.61,0,0,0-.14-2.2c1.37-2.53,2.77-4.93,4-7.42,1.32-2.7,2.15-5.7,3.79-8.17,2.94-4.43,6.31-8.59,9.54-12.82A31.93,31.93,0,0,1,641.82,589c4.71-2.57,9.57-4.69,15.53-3.76l-4.44,3a30.84,30.84,0,0,0-3.58,2.46c-8.36,7.59-15.83,15.9-21.12,26-1.12,2.13-3,3.87-4.11,6a33.76,33.76,0,0,0-2.7,7.11A90.84,90.84,0,0,0,619,641.45a40.38,40.38,0,0,1-1.34,6.52c-.74,2.5,1.79,3.67,2,5.78.06.78.87,1.5,1.57,2.61l-4.32-.6,2.16,3.1c-1.64.79-2.27,1.77,0,3.14.08-2.95,5.56-1.35,4.17-4.83a16.69,16.69,0,0,0,3.18-1.45c3.08-2.37,6-4.94,9.14-7.25,1.08-.79,2.57-1,3.87-1.5l.73.83a32.34,32.34,0,0,1-3.29,5.11c-2.78,3-5.88,5.64-8.78,8.49-1.51,1.49-2.89,3.11-4.58,5l3,1.33-1.42,1.21,1.49,1.33-3.35,3.46c.88,0,1.5,0,2.13,0s1.41.19,2.11.29a21.09,21.09,0,0,1-1.49,1.88c-.15.15-.62,0-1.52-.05,1.83,1.46.52,4.7,3.44,4.31.09.94-.12,2,.29,2.65a112.64,112.64,0,0,0,7.35,11c1.6,2,4.09,3.26,6.14,4.91.79.63,1.38,1.53,2.21,2.09a60.21,60.21,0,0,0,6.24,3.89c1,.5,2.31.24,3.41.57a7.62,7.62,0,0,1,1.93,1.31l-.43.65c1.6,0,3.53-.56,4.71.14,1.4.83,2.14,2.76,3.32,4.42,2.58-3.78,5.14-.32,7.88.62.22.08.32.47.54.57,3.41,1.56,3.8,2.3,3.1,5.61l4.72,2.13-.45-2.34c.56.14,1.09.12,1.33.37,1.9,2,3.72,4.17,5.61,6.22,2.47,2.68,5.05,5.27,7.43,8,.72.84.88,2.14,1.33,3.23.2.49.35,1.22.72,1.38,4,1.68,4,1.65,6.46,6a47.86,47.86,0,0,1,4.66,2.8c5.9,4.49,12,8.76,19.26,10.59,3.7.93,7.66.85,11.49,1.3,1.87.22,3.7.7,5.57.9,1.37.15,2.77,0,4.51,0,1.07-1.36,2.26-3,5.17-2.52,1.55.25,3.32-1.53,5.1-1.87,2.29-.44,5.05-1.18,6.94-.32,3.29,1.5,6.09-.11,8.92-.52,4-.58,7.86-1.68,12-.88,1.93.37,4-.19,6.11-.32,1.19,1.66,2.37,3.59,4.7,1.11.18-.19,1,.2,1.48.34,3.82,1.05,7.6,2.47,11.55.23.47-.27,1.57.59,2.45,1a13,13,0,0,0,3.77-.07c2-.59,3.76-1.69,5.68-2.45,1.49-.59,3.07-1,4.59-1.5a2.83,2.83,0,0,0,1.31-.66c1.27-1.61,2.48-3.12,4.93-2.85.52.06,1.17-1,1.74-1.51,1.89-1.81,4.4-2.35,6.67-3.39.84-.38,1.36-1.48,2-2.26s1.15-1.57,1.83-2.25c2.23-2.2,4.33-4.4,2.45-8.55l5.32.47-2.16-2.4c3.4-2.87,6.46-5.43,8-9.48.35-.95,1.42-1.63,2.21-2.48-.13-.2-.75-.73-.65-1,1-3.11,2-6.21,3.24-9.24.24-.6,1.33-.85,2.25-1.39-.41-.11-1-.26-1-.27.8-3.31-2.86-6.9.61-10.1.29-.26-.28-1.34-.27-2,0-1.46.31-2.93.25-4.38a24.73,24.73,0,0,0-.67-5.05c-.46-1.79-.57-3.23,1.4-4.17.28-.13.27-.89.39-1.35l-2.65.5c2.41-2.92.72-5.23-.45-7.71-.29-.61.23-1.62.42-2.65-3.4-1.07-1.93-4.2-2.4-6.63a23.28,23.28,0,0,0-.57-2.55c-.43-1.38-2.14-2.19-1.26-4.26.35-.84-.85-3.28-1.77-3.54-3.3-.95-2-3-1.44-5.2-4.17.66-2.77-3.81-5.06-5.12-1-.58-1.48-2.14-2.22-3.25-1-1.53-2.42-.56-3.47-.25-5,1.45-9.74,3.75-14.78,4.55-13.31,2.11-20.54-8.85-20-19,.29-5.74,4.42-9,9.31-11,6-2.5,12.28-2.26,18.53-1.14a71.79,71.79,0,0,1,10,2.4c3.22,1.07,6.27,2.67,9.71,4.17,4.25-4,7.44-9,10.46-14.24,1.85-3.19.52-6.9,2.38-10a25.11,25.11,0,0,0,2.22-5.21c.4-1.22.14-2.68.63-3.85.88-2.08,2.09-4,3.18-6,.13-.24.29-.6.48-.63,7.5-1.16,7.11-7.49,8-12.66a123.26,123.26,0,0,0,2-19.38c0-6.15-1.17-12.3-1.87-18.45a50.5,50.5,0,0,0-.84-5.4c-2.2-9.74-6.48-18.55-11.79-27-3.25-5.15-6.61-10.16-11-14.44-.33-.32-.69-.61-1-.9-3.52-3-7-6-10.57-8.88a24,24,0,0,0-4.33-2.68c-5.83-2.93-11.58-6.07-17.6-8.56a90.15,90.15,0,0,0-17-5.51,122.49,122.49,0,0,0-24.35-2.14,66.23,66.23,0,0,0-13.51,1.32,5.5,5.5,0,0,0-3.07,2.18c-1.38,2.06-2.33,4.41-3.61,6.54a12.68,12.68,0,0,1-2.16,2.19l-.91-.45c.33-1.33.61-2.68,1-4s.86-2.62,1.46-4.42a38.35,38.35,0,0,0-14.66,6.53,2.18,2.18,0,0,0-.74,1.41c-.59,6.31-.61,12.72-1.8,18.9-1.65,8.61-4.13,17-9.45,24.35-2.7,3.71-5.47,6.8-10,8.36-5.48,1.87-14.19-2.94-16.54-6.52-2.67-4.08-3.19-8.37-2.44-13.17,1.1-7,4.87-12.38,9.57-17.28,2.72-2.83,5.39-5.74,8.33-8.32a94.94,94.94,0,0,1,8.21-6.11c2.36-1.66,4.86-3.13,7.18-4.84a2.88,2.88,0,0,0,.89-2.21A43.71,43.71,0,0,0,736.93,435c-11.62-18.22-28.19-30.09-48.6-36.54-10.66-3.37-21.62-4.57-32.83-2.48a93.5,93.5,0,0,0-40.67,17.78c-5.67,4.38-10.79,9.46-16.15,14.23-5.84,5.19-9.38,12-13.35,18.58-4.75,7.82-9.16,15.89-11.42,24.78-2.82,11.13-6.09,22.24-5.35,34,.46,7.33.19,14.76,1.3,22,2.09,13.63,5.38,27.06,11.63,39.47,5.24,10.4,11.52,20.16,19.76,28.53a9.53,9.53,0,0,1,2.27,3.36,19.28,19.28,0,0,1-2.74-1.91,125.68,125.68,0,0,1-17.31-21.09,107.68,107.68,0,0,1-13.3-30,157.23,157.23,0,0,1-5.86-38.51c-.32-12.21,2.11-23.86,5.14-35.52a101.59,101.59,0,0,1,15.38-32.51A226.21,226.21,0,0,1,600,419.65c2.85-3.27,6.59-5.84,10.16-8.4,5.11-3.66,10.21-7.47,15.75-10.38,5.26-2.76,11.12-4.36,16.64-6.62,6.56-2.69,13.48-3.59,20.44-4.17,10.9-.9,21.47,1.19,31.57,5,6.19,2.35,12,5.72,17.86,8.93,10.78,5.92,19.32,14.42,26.41,24.33a71.88,71.88,0,0,1,6.75,12.23c1.76,3.89,2.89,8.07,4.32,12.2,3.07-1.19,6.22-2.46,9.4-3.64a62.94,62.94,0,0,1,7.17-2.43c1.81-.44,2.29-1.65,2.67-3.1,3.7-14.21,7.6-28.37,11-42.65,2.88-12,5.19-24.21,7.77-36.32a8.33,8.33,0,0,1,.57-1.39ZM332.79,564.3c1.51-.61,3-1.7,4.53-1.71,2.43,0,4.29-3.34,6.9-1.18l1.84-3-9,2.84a2.46,2.46,0,0,0-.75.35c-1.17.89-2.31,1.8-3.47,2.7l-5.4,1.74c-2.14,1.21-4.23,2.51-6.42,3.63-7.47,3.82-13.32,9.71-19.74,15l1.75,2.62c4.35-4.5,9.65-7.76,13.51-12.62,1.71-2.16,4.37-3.07,5.65-2.46,1.19-1.43,2.2-2.67,3.22-3.9.65-.78,1.33-1.55,2-2.31l2.47,3.07,2.05-2.18-1.28-1.68ZM690.14,760.75c-1,1.76-.22,2.64,1.68,3l1.75-2.7-3.53-.24c-.25-3-2.41-3.39-5.23-3.1.42-1.16.69-1.89,1-2.63,0-.06,0-.13.1.46l-4.36-2.6-.27.38,3,3.4L681.33,759l6.88,2.22ZM119.7,746.06a7.07,7.07,0,0,0-.5.67c-8.39,13.51-15.24,27.58-17.11,43.7-1,8.23-2.38,16.37-1.66,24.74.18,2.08,1,2.53,2.48,2.88,13.28,3.21,26.47,7,39.89,9.42A328.63,328.63,0,0,0,215,832.68c14.68-.56,29.39-1.64,44-3.42,13.66-1.67,27.17-4.53,40.73-7,7.86-1.41,15.69-3,23.54-4.52l0-1.05c-3.17-.7-6.34-1.95-9.52-2s-6.17,1.25-9.35,2c-.09-.47-.9-2.17-.44-2.62,2.31-2.35,4.65-5,7.55-6.32,2.63-1.17,6.06-1.19,9-.84a26.7,26.7,0,0,1,13.86,5.48,3.74,3.74,0,0,0,4.22.78c5.18-2,10.36-4,15.65-5.63,24.51-7.77,48.73-16.31,72-27.3,12.62-6,25.21-12,37.73-18.11,11.45-5.63,22.78-11.48,34.16-17.25a28.79,28.79,0,0,0,2.69-1.84c-2.59,0-4.34,0-6.09,0-3.15-.05-6.45.44-9.41-.36-3.58-1-7.07-2.42-9.43-6-2.1-3.18-5.48-5.49-5.38-9.92,0-1.82.28-3,2.32-3.39.8-.16,1.43-1.14,2.47-2-3.39-1.26-4.62.36-5.68,2.34a126.31,126.31,0,0,1-26.77,34.75,88.4,88.4,0,0,1-25.7,15.72c-9.18,3.81-18.62,7-28.67,7.92a51.7,51.7,0,0,1-18.83-1.29c-4.44-1.26-6.7-3.08-8.16-6.07.48.22.8.34,1.08.51,4.07,2.43,8.23,4.42,13.15,4.61a71.32,71.32,0,0,0,24.18-3,128,128,0,0,0,29.42-13.21c13-8,22.31-19.52,30.33-32.18,3.26-5.15,6-10.62,8.9-16,1.23-2.28,3.14-4.47,1.77-7.43a1.16,1.16,0,0,1,.17-1c2-2,1.7-4.49,1.73-7,0-1.62.26-3.6,1.2-4.77,1.28-1.57.47-2.76.25-4.15-.09-.57-.37-1.43-.1-1.68,2.48-2.3,2.81-5.91,4.71-8.3,4.25-5.34,3.33-11.61,4.22-17.54a8.84,8.84,0,0,0-1.3-5.61c-3.2-4.95-6.95-9.54-10.14-14.49a40.28,40.28,0,0,1-5.77-14.11c-.53-2.71-.7-5.77-2.14-7.93s-4-3.46-6.37-4.46c-4.79-2-9.84-3.44-14.65-5.41a10.79,10.79,0,0,1-4.93-3.59A55.94,55.94,0,0,1,433,599c-2.59-6.32-4.31-13-8.6-18.59s-9.07-9.67-16.41-10.48a39.37,39.37,0,0,1-10.88-3.18c-4-1.71-8.13-3.13-12.3-2-7.4,2.07-14.81.86-22.17.63a24.63,24.63,0,0,0-10.25,1.74c-5.21,2.07-10.51,3.9-15.8,5.75-3.51,1.23-7.15,2.15-10.59,3.55a24.84,24.84,0,0,0-9.73,6.75c-2.19,2.56-4.64,4.9-6.85,7.45a21.16,21.16,0,0,0-2.66,4.07,4.12,4.12,0,0,0-.57,2.71c1.16,3.86,3,7.56,3.76,11.48,1.91,9.36,3.4,18.72-3.1,27.28-2.7,3.55-11,6.79-15.64,5.62-6.2-1.58-9.16-5.92-10.38-11.73-2-9.35.83-18.27,2.72-27.26a27.62,27.62,0,0,1,1.89-4.53l-2.55.63c1.49-2.17,1-5.92-.85-8-2.3,3.88-2.3,3.88-3.53,3.41l2-3.65-3.64.45-.4-2.9,1.62-.3-.18,1.56.57.38,3.49-3.77-.39-.58c-3,1.14-5.64.66-7.75-1.84l-.83,1.89-2.15-1.2c.15-.26.17-.38.24-.42.31-.17.64-.32,1-.46,2.19-.95,2.56-2.75.81-4.21a15.27,15.27,0,0,0-2-1.29c-.61.62-1.29,1.33-2,2,0,0-.3-.15-.54-.28l.41-1.58-7.93-3.38a16.82,16.82,0,0,0,2.82-1.84,9.09,9.09,0,0,0,1.24-2.25l-.77-.43-5.66,3.85-.32-.63,1.83-4.24-7.36.34,1.32-3.5-1.76.74-.48-4.83-2.34,1.77-.86-.62,1.65-2.92-2.44-3.75L246,558.27l-3.68-.93c-1.29-4.43-6.58-4.18-8.89-7.54.92,3.55-2.65,3-3.72,4.69-1.78-2.47-4.27-3-6.44-1.32-.63-.79-1.79-1.59-1.8-2.4,0-2.57-1.85-2.9-3.61-3.49-1.07-.36-2.12-.78-3.3-1.22-.45.76-4.68.15-6.22-1.45l-5.05,3-.61-.59L205.9,543c-1.88-.45-4.08-1.45-4.46-1-2.08,2.58-2.89.26-3.88-.8a1.81,1.81,0,0,0-3.17.41c-.45,2.43-1.83,1.82-3.06,1.66l-.71-3L190,541a12.74,12.74,0,0,0-1.61-.7c-.85-.24-1.94-.81-2.54-.5-2,1-3.85,2.5-5.84,3.63-1.1.62-2.41,1.55-3.38-.52-.21-.44-1.67-.43-2.55-.39-.55,0-1.06.71-1.61.75-2.85.22-5.79-1.16-8.57.51-.22.13-.55.05-.82.1-2.25.41-4.77.32-6.68,1.36a47.06,47.06,0,0,0-10.2,7c-4.38,4.19-9.62,6.75-14.92,9.32-4.46,2.16-8.9,4.4-13.53,6.13-2,.76-3.25,1.33-2.43,4.16l-4.21-1.14,1.11,2.54-.14.73c-3.42-1.88-5.37.17-7.49,2-1.28,1.12-3.22,1.62-4.19,2.9A108,108,0,0,0,94,588.72c-2,3.33-3.83,6.76-5.62,10.2-.23.44.1,1.27.34,1.85.86,2.06,0,3.16-2.35,3v-3A12,12,0,0,0,85,602.35c-1.16,2.16-2.1,4.46-3.46,6.48s-3.35,3.69-4.69,5.75c-1.71,2.64-3.75,5.37-4.4,8.34a97.26,97.26,0,0,0-2.33,17.72c-.17,5.28.74,10.6,1.31,15.89.5,4.59,2.36,9,1.42,13.79a18.82,18.82,0,0,0,1.65,11.84,249,249,0,0,1,9.92,23.43c2.41,6.42,5.47,12.46,11.75,16.07,1.58.91,3.35,1.48,5,2.33,6.48,3.42,12.93,6.89,19.38,10.32,3.19-3.87,5.95-7.54,9.06-10.88,2.56-2.76,5.59-5.09,8.32-7.7,6-5.73,13.35-7.63,21.38-7.91,8.36-.29,14.65,3.3,17.93,10.86,2.34,5.39,1.36,10.87-.63,16.12a21.47,21.47,0,0,1-12.32,12.68c-2.27.93-4.62,1.67-6.94,2.49a8,8,0,0,1-2.39.83c-4,0-8-.15-12-.22-1.74,0-3.54.28-5.2-.1C131.72,749.15,125.81,747.58,119.7,746.06Zm220.58,91.19c-2.5-5.05-4.48-9.2-6.66-13.24-.32-.59-1.64-.79-2.52-.87-2.06-.21-3.38,2.06-5.65,1.7-1.16-.18-2.46.45-3.69.77a459.62,459.62,0,0,1-78.37,13.5,419.16,419.16,0,0,1-62.14.75,401.13,401.13,0,0,1-63.91-9.25c-5.34-1.22-10.64-2.61-16.13-4,.48,3.25.6,6.24,1.38,9,2.88,10.26,5.52,20.62,9.15,30.62a142.85,142.85,0,0,0,10.51,22.08c5.82,10.16,13.51,18.87,22.17,26.86a128.6,128.6,0,0,0,29.64,20.54c6.33,3.17,13.24,5.23,19.93,7.66,4.12,1.49,8.25,3.22,12.53,4,7.59,1.36,15.27,2.31,23,2.94,4.68.38,9.43-.19,14.15-.26,1.9,0,3.8.32,5.69.19.87-.06,1.68-.85,2.52-1.31-.66-.63-1.33-1.25-2-1.9-.39-.39-.74-.81-1.11-1.22.51-.26,1.06-.81,1.52-.74a33.43,33.43,0,0,1,3.68.93,37.52,37.52,0,0,1,3.48-2.81c.24-.15,1.48.54,1.53.94a12.62,12.62,0,0,1-.28,3.06c-1.34.73-3.88-.52-4.76,2.87l17.15-2.06-.68-2.82c-2.19,2.7-3.29,2.94-6.58,1.62l-1,1.3-2.38-1.68,2.84-4.58,2.45,1.67,1.55-3.37,1.78,3.06c1.55-1.06,3-1.69,2.45,1.42l2.54-.59-2.17-4c.64-.29,1.37-.93,1.9-.79a14.83,14.83,0,0,1,3.08,1.72l1.9-1.52.53,3.84.38-.06.91-5.24,2.32,3.65.36-.12L282,936.27l.68-.22,2.37,4.38.55-.25-1-3.61c1.9-1.23,3.4-2.31,5-3.19s3.44-1.63,5.41-2.54c-.06-2.46,2.57-.94,4-1.78-.12-2.49,2.05-2.77,3.77-3.65.62-.32.91-1.27,1.23-1.76l2.62.31.14-.78L303,921.34l.5-1,3.68,1.29-1.74-3.76,4.68,1.09L311,916l-1.3-2.93c2.54,1.79,2.54,1.79,4-2.57H315l1-6.57,3.81,3.12.72-.87-4.47-4.26.22-.38,4.73,1.2-2.2-5.21c1.18-.67,2.17-1.73,2.93-1.59,3,.56,3.05-.5,1.48-2.85l.57-.4,5.59,2.71-.12-1.33,2.37.65c-.35-2.82-3-3-4.09-4.08v-2.76c.92-1,1.75-1.79,2.56-2.66s1.62-1.77,2.54-2.77l-2.39-1.82,3-.23-1.44-2.13,2.36.33.5-.71-3.51-3.53-.68.52,1.39,2.48-2.91-.79c1.66-2.28.33-3.51-1.77-4.8,1.22-.62,2.24-1.55,2.81-1.33,1.16.45,2.07,1.54,3.11,2.33.68.51,1.4,1,2.12,1.42.07,0,.25-.11.33-.14l-1.11-.87c0-1.71,5.93-.4,1.54-4.62l5.28.28v2.29c0-1.76,1-2.12,2.48-2.22l-1.74-.57,1.51-2.14-4.5-2.11-.68-3c3.1-2.61,3.87-9.34,1.07-11.83,2.76-1.07,3.64-6,1.27-7.9-1.42-1.15-1.06-2-.21-3.15a19.1,19.1,0,0,0,1.32-2.45l-.94-.67ZM96.44,733.61c-1.1-.7-2.57-1.14-3.13-2.1-1.19-2-3-3.09-4.82-4.39a64.8,64.8,0,0,1-7.55-6.42c-1-1-1.1-2.75-2.05-3.75-5.22-5.51-7-12.84-10.46-19.28-1-1.86-1.24-4.14-1.74-6.24-.61-2.54-1-5.13-1.72-7.65-1.4-5.16-3.06-10.26-4.32-15.46-.34-1.42-.64-2-2.1-2.24-13.1-2.07-24.32,1.68-33.07,11.53-13.42,15.11-18.94,33-16,53,3.68,24.67,15.87,44.8,35.15,60.43,14.39,11.66,31.61,17.84,49.42,23.68-.21-3.18-.73-6.18-.55-9.15.38-6.41.61-12.9,1.84-19.17a115.64,115.64,0,0,1,5.88-20.44c2.61-6.56,6.38-12.66,9.68-18.93.77-1.46,1.71-2.82,2.71-4.45l-5.85-3.08c-2.7-1.42-5.4-2.82-8.08-4.27-.37-.2-.86-.61-.89-.95C98.6,731.41,97.46,732.7,96.44,733.61ZM745.13,464.17l-1-.33L742.39,465l-1.84,1.23c-9.35,6.34-17.71,13.72-23.33,23.65-2.42,4.29-3.83,9.15.19,13.42s8.19,6.33,12.5,2.77a29.08,29.08,0,0,0,7.44-8.68,57.56,57.56,0,0,0,4.76-13.93C743.51,477.13,744.16,470.62,745.13,464.17ZM126.61,736.11c2.49.53,4.35.87,6.18,1.32s4-.6,6.06.91c.89.66,2.94-.34,4.48-.43a47.69,47.69,0,0,0,22.62-6.81c5.87-3.61,6-9.76,1.44-14.08-3-2.87-6.72-2.83-10.32-2.42-10.13,1.16-17.49,7.29-24.25,14.28C130.74,731,128.92,733.4,126.61,736.11Zm343.2-125.58.48-.7c-4.7-13.19-34.71-41.11-47.11-43.82,0,.18-.07.43,0,.52a2.35,2.35,0,0,0,.86.62,11.54,11.54,0,0,1,7.71,7.58c.89,2.8,2.85,4.23,4.42,6.23s2.21,4.2,3.38,6.26,1.13,5.05,1.64,7.62c0,.25.18.64.36.69,3.14.95,2.5,6.11,6.62,6,.15,0,.28.47.49.62a23.85,23.85,0,0,0,3.77,2.54c1.68.76,4.07.64,5.18,1.82,1.87,2,3,1.42,4.29,0ZM657,720l-2.74,4.36c3.24-.66,5.7-1.2,8.41,1.35l-4.37,1.5a23.79,23.79,0,0,1,3.88,1.29c.55.3,1.24,1.42,1.06,1.78-.95,1.93.35,2.34,1.57,3l1.33-2.51.59.25-.25,3.72,3.19-2.5.5.46-1.6,2.77,1.87-.46.85,4.46a12.13,12.13,0,0,0,2.16-.67c3-1.6,4.12-1.38,6.49,1.09.43.45,1.36.42,2.09.63v7.62l4.3-5.5.55,2.85-2.7,1.41.25.46,2.23-.14-.65,2.52a38.72,38.72,0,0,0,3.38,2.85,2.85,2.85,0,0,0,1.84,0c.19,0,.28-.59.46-1l-2.59-.3,3.48-3c-2-2.53-3.73-4.76-5.52-6.94-3.92-4.76-7.7-9.64-11.87-14.17-3.16-3.43-6.48-7-10.39-9.4-4.54-2.81-9.8-4.45-14.73-6.62-.56-.25-1.48-.64-1.49-1-.13-2.44-2.28-2.05-3.42-2-2.17,0-2.48-.79-2-2.55l-3,.31,3.07,3.35-2.94,2.5c.66.52,1.24,1.32,1.94,1.45,2.44.43,2.88,1.65,2.31,3.93s.67,3.64,2.63,3.79l1.73-2.53,1.91,5.22C653.08,722.47,654.13,718.77,657,720ZM776,771.86l3,2.44c3.75-1,7.22-4.09,10.59-1l4.7-3c.38,6.79,4.34.07,5.36,2.07v-8.17a25.88,25.88,0,0,1-3.66-.37,46.61,46.61,0,0,0-15.45-.78c-3.33.36-6.6,1.29-9.93,1.54-4.94.37-9.94-.08-14.8,1.29-.09,0-.19,0-.28,0-3.16,1-6.91.48-9.55,3.71,3.05,1.45,4.95-.95,7.06-1.87,1.7-.74,2.52-1.07,2.64,1.18a12.08,12.08,0,0,0,.58,2.25l1.48-1.89,4.12,4.34a21,21,0,0,1,1.68-2.69c.08-.1,1.41.46,1.44.79a13.56,13.56,0,0,1-.25,2.89l2.89,5,3.49-1-2.05-.83C768.89,773.31,773.33,773.81,776,771.86Zm106.24-99,.81-.38c-1.16-6-2.1-12-3.59-17.92-.75-2.95-2.73-5.56-3.76-8.46a41.21,41.21,0,0,0-11.12-16.29c-2.77-2.61-3.46-2.84-7.13-1.19a8.69,8.69,0,0,0,.8,1.71c2.55,3.35,5.5,6.46,7.63,10.06,2.37,4,3.94,8.49,6,12.71a45.18,45.18,0,0,1,4.48,19.81c0,6.3-.18,12.6,0,18.89a32,32,0,0,1-2.52,12.93,11.16,11.16,0,0,0-.35,2.82c4.82-11.39,9.84-22.67,7-36Zm-27.66-40.17-.81.05-.24,3.23c2.62-.59,1.5,3.41,3.85,3.15.74,4,4.65,6.45,5.09,10.93s2.42,8.51,3.72,12.76c.11.36.06.8.25,1.08,2.71,3.9,2.31,8.6,3.28,12.94.16.71-.21,1.51-.14,2.25.28,2.95.72,5.88.9,8.83,0,.59-.85,1.23-.94,1.35l.83,4.15,1.84-.29V675.91l-1.82-15.78c-1.44-.62-1-2.18.19-4l-2,.33c.2-.51.6-1,.47-1.28-.87-1.51-2-2.91-2.78-4.44s-2.21-3.31-1.86-4.58c.6-2.2-1-2.95-1.76-4.14-.66-1-2-1.51-2.73-2.44C858.09,637.37,856.35,635,854.56,632.73ZM836.4,621.43l.49-.28c-.75-.43-1.47-.91-2.25-1.3-1.76-.88-3.62-1.58-5.28-2.61-2.65-1.65-4.17.88-6.1,1.43a15.31,15.31,0,0,1-.3,2.66c-1.16,3.93,1.62,6.21,3.76,8.62a3.61,3.61,0,0,0,3.1.62c3.55-1.05,7-2.39,11.3-3.9a19.16,19.16,0,0,1-3.34-2.38A12.16,12.16,0,0,1,836.4,621.43Zm-543.53-15c-2.3.33-4.36.23-4.9,2.62-1.69,7.42-3.05,14.91.11,22.26.6,1.38,2.32,2.29,3.55,3.37.11.1.48-.11.91-.22l-1.69-1.28,3.33-.86-3.83-3.51.29-.89,3.79.63-1.84-3.17,3.31-1.48-.23-1-3.78.33-1-1.1,2.48.16a13.81,13.81,0,0,0-1.44-1.18,11.17,11.17,0,0,0-1.4-.51,10.73,10.73,0,0,0,1-.91c1.76-2.13,1.75-2.12,3.79-.33a1,1,0,0,0,.95.08c.24-.23.26-.69.4-1s.4-.94.65-1.54c-.75-.24-1.57-.58-2.43-.77-2.81-.62-6.4-.21-6.16-4.78,0-.07-.43-.17-.8-.3ZM409.59,566.1c-.52-.31-1-.83-1.56-.89A31.49,31.49,0,0,1,396.3,561a14.91,14.91,0,0,0-5.22-1.34c-1.49-.21-3.07.15-4.56-.06-2.64-.36-5.24-1-7.87-1.44-1.5-.24-3.13-.66-4.5-.27a5.94,5.94,0,0,1-2.57.41c-2.22-.23-4.56,0-6.15,2.07l-1.49-1.78a5.66,5.66,0,0,0-1.73.87c-.53.59-1.28,1.55-1.11,2.06a2.57,2.57,0,0,0,2,1.31c3.2,0,6.4-.36,9.6-.45,1.55,0,3.15.46,4.67.27,2.87-.35,5.68-1.28,8.56-1.5,3.35-.26,6.91-.95,9.94,1.24C399.94,565.32,404.65,565.94,409.59,566.1ZM780.16,759.75l-.07-1.25a15.2,15.2,0,0,0-2.64-.21c-4.74.43-9.49.83-14.21,1.44-3.82.49-7.74.82-11.37,2-5.26,1.71-10.39,2.53-15.81,1.13a61.56,61.56,0,0,0-6.19-1.22c-.49-.07-1,.4-1.6.55a1.57,1.57,0,0,1-.87-.05,7.08,7.08,0,0,1-2.63-1c-1.74-1.69-2,.71-3.08.91.48.82.77,2,1.49,2.37a21,21,0,0,0,4.17,1.26l1.76-2.35,1.73,2.47,2.58-1.28,3,1.7a17.14,17.14,0,0,1,2.55-.5c1.16,0,2.37.36,3.46.11a41,41,0,0,0,8.54-2.4c6.18-2.91,12.83-1.24,19.17-2.46C773.4,760.29,776.81,760.13,780.16,759.75ZM480.41,645.57c-.58-.57-1-.9-1.29-1.28-3.36-4.11-3.41-9.39-5-14.12-.47-1.4-1.69-2.58-2-4-1.37-6.06-1.29-6.08-5.44-10l-2.79-2.66-3.27-.34a3.16,3.16,0,0,0,1.74,2.21,10.62,10.62,0,0,1,6.85,9.46,38.68,38.68,0,0,0,.41,6.44c.69,3.36,4.35,5.62,3.71,9.58,0,.25.61.59.92.92,1,1.07,2.12,2.09,3,3.25a35.56,35.56,0,0,1,2.16,3.54ZM120.75,561.19c1.08,0,2.52.45,3.18-.08,3.62-2.91,8.17-4.14,11.88-6.87,2.53-1.85,5.31-3.36,8.15-5.12-1.63-1.42-2.47-1.22-3.87.35-1.25,1.4-3.42,2-5.19,2.9a11.25,11.25,0,0,1-2.11,1.06c-2.76.77-5.56,1.37-6.74,4.54a3.35,3.35,0,0,1-1.5,1.34C122.31,557.44,122,560.49,120.75,561.19ZM813.22,769.55l.49-4.87-8.64.71c1.36,2.68-.89,2.69-2.44,3.7l1.94.48-1,2.79.53.39,3.2-3.49.46.31-.41,1.88ZM712.52,756l-1.28,3.18c1.24.4,2.46.89,3.73,1.18,1.83.42,3.69.68,5.52,1-.24-2.93-1.9-2.13-3.33-1.24-.39-1.09-.48-2.27-1.11-2.85S714.16,756.57,712.52,756Zm-2.18,13c-.77-1.3-1.77-2.34-2-3.53-.53-2.72-2.42-.42-3.51-1l1.83,1.11c-.81,1.22-2.26,2.9-2,3.16C706.36,770.76,708.47,769.91,710.34,769ZM67.57,656.29l-.68.08,1.86,16.38C70.57,667,69,661.66,67.57,656.29ZM157,743.49h-18.3C144.69,745,150.66,745.47,157,743.49Zm533.21-6.19a18.62,18.62,0,0,1-2.49-3.23c-1.07-2.36-2.41-3.1-4.8-1.94l6.09,7Zm173-17L858,731.08C862.2,728.72,865,722.35,863.18,720.29ZM691,740.38c1.22,4.4,4.79,6,8.12,8a10.15,10.15,0,0,0-2.34-3.77C695,743.05,693,741.78,691,740.38Zm27.35,30.08-.18-3.72c-.14,2.78-2.58,4.1-4,6.08,2.7,1.17,5,.22,6.78-2.75.14-.23.06-.59.11-1.22ZM843.9,617.63c3.12,4.39,6.11,5.54,8.38,3.67Zm-395.1-8.57-8.41-5.18C441.43,607.69,446.86,611,448.79,609.06ZM707.09,752.6l.12-.75,1,4.44,2.73-1.51-1.11.13ZM338.46,568.42l.84.91,4.57-1.85v-.86a12.1,12.1,0,0,0-3.59-.17C339.56,566.64,339.06,567.74,338.46,568.42Zm13.45-4.25-.64-1-6.18,3.1.6,1.14ZM735.14,774.42l-.57.81c1.25,2.3,4.11,1.54,5.77,3.07l.46-.86Zm133.94-75.13c4.24.14,1.69-3.4,2.63-5a4.88,4.88,0,0,0-1.64,2.16C869.7,697.29,869.46,698.16,869.07,699.29Zm-468-142.07-.27,1,6.19,1.47.25-1Zm304.8,203.26-.89-3.09-.79-.11-1.83,4.19ZM346.24,877.88c-3.59.79-2.19,2.82-2,4.48l.86.22Zm524.1-178a8.45,8.45,0,0,0-1.16,2,24.51,24.51,0,0,0-.36,3.49C871.92,701.38,872,701,870.35,699.83ZM356.22,562.58c3.65.27,4-.82,2.54-3.72Z"/><path d="M511.87,792.23c1.47-.25,2.93-.71,3.13,1.68,0,.52,1.32.89,2,1.41a11.23,11.23,0,0,1,1.22,1.37l1.06-1.25a45.69,45.69,0,0,0,3,3.61,7.65,7.65,0,0,0,2.38,1.31c.08,0,.39-.66.69-.89,1.15-.89,2.33-1.72,3.51-2.58-.93-1.46.55-4,1.93-5.52,1.93-2.16,3.12-5,4.6-7.53a6,6,0,0,0-.69-.55l2.36-.37c-.35,1.81-.72,3.56-1,5.31a31.4,31.4,0,0,0-.51,3.67,9.83,9.83,0,0,0,.43,2.22c3.06,2.06.88,6.2,2.93,9.6a22.24,22.24,0,0,0,.93-3.92c.08-1.74-.57-3.62-.12-5.21.29-1,2-1.64,3.09-2.45l.76.58v6.9c2.16-1.24.85-5.38,5-4.25-3.18-1.54-.69-2.74-.37-3.78L546.48,788l.53-.35,3.64,4-1.06,2.24,3.11.34c-.32-.71-.88-1.45-.72-1.68,1.75-2.49,2.2-5.26,2.46-8.22.08-1,1.63-1.81,2.69-2.89-1.52-2.21,1.15-4.1,1.59-6.63l-1.37.3-.92-3.22,3.16,1.79c1.46-3.41,2.87-6.81,4.38-10.16a44,44,0,0,1,3-5.85c.37-.58,1.61-.61,2.54-.92v-3.19l1.64,1.54,2.7-5.44-2.48-1.57a15.1,15.1,0,0,0,2.26-2,40.9,40.9,0,0,0,2.33-4c.49.15,1.93.15,2.4.83a4.18,4.18,0,0,1,.07,3.19c-.46,1.4-.89,2.69-3,3.22-1.05.27-1.39,3.3-2.07,5.08-1.79,4.73-3.59,9.45-5.44,14.31,5.22.55,10.35.91,15.42,1.65,10.48,1.52,20.06,5.63,29.16,10.9A72.69,72.69,0,0,1,635.94,803c6.88,9.9,11,20.9,13.57,32.76,3.35,15.74,1.46,31-3.17,45.94-2.25,7.26-5.92,14.08-9,21.08-1.19,2.7-2.61,5.3-3.82,8-5.07,11.38-12.57,21.1-20.7,30.4-.28.33-.53.69-1.19,1.54,3.94,0,7.37-.08,10.8,0,3.86.12,7.72.66,11.56.55a62.72,62.72,0,0,0,9.26-1.37c5.08-.92,10.18-1.83,15.21-3,1.44-.33,2.64-1.6,4.06-2.18,4.05-1.65,8.15-3.2,12.25-4.74,9.43-3.53,18.76-2,28.1.54,15.35,4.17,29.94,11,45.84,13.26a70.35,70.35,0,0,0,24.8-.56c5.32-1.12,10.75-1.76,16.13-2.56a8.54,8.54,0,0,1,2.06.19l.22.81a50.73,50.73,0,0,1-6.37,2.19c-9.76,2-19.57,4.38-29.57,3.77a104.81,104.81,0,0,1-20.37-3.57c-9.6-2.55-19-5.92-28.5-8.79-8.23-2.48-16.64-5.26-25.26-3.41-6.53,1.4-12.69,4.43-19.1,6.45-6,1.88-12,3.58-18.07,5a50.63,50.63,0,0,1-11.25,1.4c-8,0-16-.41-24-.62a3.77,3.77,0,0,0-2.11.31c-5.65,4-11.24,8.08-16.23,11.69,3.6,2.32,7.68,4.47,11.19,7.33,6,4.89,6.9,11.65,5.84,18.9a10.09,10.09,0,0,0,.4,2.84c.08.49.35,1,.22,1.45-1.2,3.77-2.47,7.51-4,12l5.55-5.84a11.93,11.93,0,0,1-5,8.29,123.85,123.85,0,0,1-12.08,7.76,100.27,100.27,0,0,1-11.88,5.8c-4.74,1.91-9.63,3.47-14.52,5a6.75,6.75,0,0,1-7.35-1.62c12.32-2.28,22.87-7.39,33.39-12.56l-.32-.89c-3.59,1.16-7.19,2.28-10.77,3.49-8.58,2.9-17.14,5.78-26.35,5.95-8.32.15-16.33,2.37-24.42,4a52,52,0,0,1-9.11.85c-.79,0-1.62-1-2.43-1.55.68-.56,1.29-1.44,2.06-1.62,7.89-1.87,15.8-3.61,23.71-5.42.88-.2,1.73-.55,2.49-.79-.32-1.91-.51-3.64-1-5.3a2.2,2.2,0,0,0-1.49-1.19c-1.75-.36-3.55-.52-5.74-.82.73-.41,1.12-.81,1.55-.84a61.24,61.24,0,0,0,20.56-5.13c6.66-3.08,13.9-4.89,20.59-7.91,4.57-2.07,8.7-5.17,12.89-8,2.24-1.52,2.28-3.63.54-5.72a9.93,9.93,0,0,0-.66-.89c-3.77-3.58-8.17-6.64-9.79-12.16-3.87,11.21-12.78,15.64-23,18.25-8.1,2.07-16.24,4-24.44,5.68-6.8,1.36-13.71.33-20.57,0-5.78-.3-11.62-.09-17.33-.85-3.82-.51-7.48-2.26-11.16-3.62a2.2,2.2,0,0,1-.62-2.07,2.67,2.67,0,0,1,2-1.36c3.19.29,6.34,1,9.53,1.26,5,.43,10.05.62,14.5.88l2.86-4.51c-8.35,0-16.48.4-24.56-.11s-15.59-3.32-23-6.55c1.31,2,5.4,1.4,4.56,5.7-1.1-.35-2.53-.38-3.29-1.11-2.43-2.34-4.62-4.93-6.88-7.44-.24-.26-.27-.69-.5-1-2.23-2.79-3.74-3-6.69-.85a21.72,21.72,0,0,0-7.54,8.7c-1.68,3.73-1,7.84,2.39,10.32,9.69,7.18,20.18,12.57,32.34,14.2,4.18.56,8.29,1.61,12.45,2.34a14.43,14.43,0,0,0,3-.09c1.7-.07,3.57-.61,5.08-.1,3,1,5.63,2.71,9.14,1.66,1.52-.45,2.72,1.1,2.53,3a2.49,2.49,0,0,0,.4,1.26c1.53,2.89.2,6-1.18,7.83-1.15,1.52-4.66,1.73-7.11,1.69-5.22-.08-10.44-.7-15.81-.44,2.59.7,5.21,1.3,7.76,2.13a23.77,23.77,0,0,1,3.66,1.92c-1.45.49-3,1.48-4.35,1.34a25.12,25.12,0,0,1-6.6-1.84,45.29,45.29,0,0,0-15.79-3.45,25.5,25.5,0,0,1-4.92-.59,6.94,6.94,0,0,1-2-1.3c.74-.41,1.46-1.14,2.22-1.18,2-.11,4.06.1,6.09.14a2.89,2.89,0,0,0,2.06-.75l-17.2-5.63-.54,2.5a14.81,14.81,0,0,1-2.85-1.45c-3.15-2.65-6.06-5.6-9.34-8.07-4.14-3.12-5.83-7.23-6.12-12.19-.14-2.49-.44-5-.72-7.45-.45-4,.26-7.82,3-10.91s5.91-6.27,9.07-9.6c-.54-.76-1.44-1.91-2.22-3.13-4.52-7-3.22-15,3.17-20.42a2.52,2.52,0,0,0,.5-2.37,9,9,0,0,1-.54-9.12c.41-.87.23-2,.61-2.89a15.45,15.45,0,0,1,1.76-2.58c.59.95,1.59,1.87,1.66,2.86.08,1.2-.88,2.44-.95,3.69a28.78,28.78,0,0,0,.19,7.22c.34,1.7,1.73,1.88,2.61.05,1-2.12,3.75-3.6,2.53-6.57a11.61,11.61,0,0,0-1.4-3.09,21.86,21.86,0,0,1-5.15-12.93c-.22-3.73,2-6.41,5-8.47l1.14-.8c-1.53-3.91-1-7.57.32-11.39.7-2.08.28-4.53.46-6.81s.51-4.62.7-6.93a17,17,0,0,0-.07-2.87c-.17-1.92-.76-3.89-.49-5.73.23-1.59,1.42-3,2.52-4.43a9.89,9.89,0,0,0-2.95-7.58c-3.59-3.85-5.57-11-1-16.75,1-1.22.4-3.69.54-5.59l-1.09-.18-1.8,8.59c-3.16-3-2.08-8.55,1.18-11.92-4.07-4.09-8.76-7.73-12-12.37-3.46-4.94-2.16-11.17-2.16-16.92l1-.26q.53,2.57,1.06,5.15a54.19,54.19,0,0,0,1.29,5.94,45.65,45.65,0,0,0,2.39,5.17l.78-.15c0-.92,0-1.84,0-2.75-.15-2.83,1.21-3.85,3.95-2.9.85.3,1.68.65,2.9,1.12-1.5-5,3.34-4.11,5.29-6.38H452.07c-2-3.23-.7-5.29,2.76-6,5-1,10-1.78,15-2.6,3.34-.55,6.73-.88,10-1.58a11.73,11.73,0,0,0,3.89-2c2.38-1.6,4-1.15,4,1.55-.16,7.77,6,9.69,10.79,12.88l.89-.48c-1.74-5.53-3.05-11.25-5.35-16.55s-5.51-10-8.07-14.5c-1.15-1.06-1.85-2.05-2.8-2.49a17.23,17.23,0,0,0-3.89-.77l-3.82-3c.56-.68,1.33-2.43,2.28-2.53s3.19-.29,3.44,2.06c.05.48,1.45.76,2.14,1.25,2.72,2,5.36,4,8.11,5.92a16.72,16.72,0,0,0,3.24,1.34c0,.41-2.19,1.8.84,1.54,1.11-.09,2.61,2,3.53,3.31.32.47-.55,1.76-.95,2.86l2-1.19a11.07,11.07,0,0,1,1.52,1.74c1.49,2.62,2.88,5.3,4.37,7.93.16.29.72.43,1.11.49,2.63.39,3.91,2,4.5,4.49.34,1.42.88,2.78,1.44,4.5l3.07-1.37a70,70,0,0,1-4.81-6.8c-.43-.77.38-2.24.63-3.39Zm77.33,147c5.3-3.35,10.77-6.47,15.86-10.11a126.9,126.9,0,0,0,14.23-11.53c3.77-3.62,7.55-7.61,10-12.15,3.27-6,5.43-12.72,7.75-19.24,5.94-16.68,7.76-33.64,4.21-51.22-5.62-27.78-23.09-44.46-48.94-53.42-7.4-2.56-15.12-4.21-22.71-6.19-1-.25-2.6-.43-3,.08a4.15,4.15,0,0,0-.58,3.38c.19.58,1.83.9,2.84,1,9.84.73,19.43,2.6,28.46,6.67,8.08,3.64,12.1,10.34,11.44,18.8-.16,2.07-1.59,4.12-1.46,6.11.48,7.6-3.49,12.59-9,17-2.47,2-5.77,3.08-6.6,6.95-.8,3.68-1.48,6.7,1.62,10,3.36,3.55,3.85,8.32,3.05,13.21A21.59,21.59,0,0,1,590,870.65c3.64,5.5,3.53,10.93-.22,16.31a3.2,3.2,0,0,0-.64,1.7,53.12,53.12,0,0,0,.29,5.52,5.19,5.19,0,0,1-2.17,5.29c-.93.69-2.62,1.49-1.64,3.76.65,1.5-.22,3.62-.25,5.47,0,2.12-.75,5.06.34,6.19,1.92,2,1.36,3.41.45,5.12-2.17,4.08-.74,8.26-.18,12.29C586.27,934.69,588.06,936.88,589.2,939.19ZM469.05,832.07c.62,6.32,1.17,12.57,1.92,18.79.15,1.22.83,2.9,1.78,3.41,2.9,1.56,5.94,3.26,9.11,3.82,7.72,1.36,15.54,2.13,23.32,3.1,10,1.23,20,1.75,30-.1,2.72-.5,5.72,0,8.27-.85,6.38-2.17,12.41-5.47,18.88-7.2a40,40,0,0,0,16.82-9.51c2.28-2.08,3.89-4.89,5.81-7.37l-.58-1.13C545.46,849.16,507.15,846,469.05,832.07ZM594,795.84c-8.63-6.24-19.12-5.65-28.31-9.82-.42,2-.83,3.5-1,5a2,2,0,0,0,.94,1.48c4.46,2.29,6.69,8.47,4.28,12.86a19.74,19.74,0,0,1-12.4,9.91c-3.28.9-6.8,1.07-10,2.2-8.49,3-17.12,3.18-26,2.46a77.58,77.58,0,0,1-31.24-9.24c-3.68,4.18-9.16,4.46-14.21,6.32,3.51,1.56,7,3.23,10.72,4,7.42,1.47,15,2.31,22.43,3.63,11.27,2,22.64,1.37,34,1.21,6.29-.08,12.63-1.53,18.8-3,9.07-2.13,18-4.72,27-7.35,2.18-.64,4.09-2.21,6.12-3.35a4.33,4.33,0,0,0-2.62-1.24,37.45,37.45,0,0,1-5.07-.35c-3.58-.83-7.13-1.86-10.64-3-.82-.25-2.11-1.18-2-1.64a8.72,8.72,0,0,1,1.55-3.56c.32-.46,1.28-.49,2-.72-.28-2-.46-4.4,2-4.48,3.84-.11,7.57-2.86,11.55-.54C592.16,796.91,593.06,796.21,594,795.84ZM478.63,881.51c-.87.65-1.46,1.09-2,1.57a1.82,1.82,0,0,0,.59.77,26.71,26.71,0,0,0,3.54,1.43c10.24,3,20.66,4.95,31.37,4.74,7.73-.15,15.52,0,23.18-1a78.48,78.48,0,0,0,25.2-7.28c4.52-2.21,8.61-5.28,12.91-7.93,1.39-.86,2.83-1.65,4.27-2.44s2.73-1.42,3.68-1.92L579.29,866l3.69-6.84.48.23-.31-2.79-.72-.39c-1,1.4-1.65,3.14-2.92,4.12-2,1.54-4.44,2.44-6.56,3.82-14.79,9.61-30.31,17.08-48.23,19-10.24,1.09-20.37,3.05-30.73,2.25a32.06,32.06,0,0,1-5.73-.92c-.68-.18-1.68-1.3-1.57-1.77a2.91,2.91,0,0,1,1.79-2c3.11-.44,6.26-.65,9.4-.8,6-.29,11.94-.49,17.91-.73l0-.82a106,106,0,0,1-43-16.73V873l5-1.83-1.43,2.8,2.77,3.14-3.67-.52-.39.79,3.61,2.14C477.95,880,476.15,880.55,478.63,881.51Zm95.15,2.57.1-.7c1.05-.12,2.12-.2,3.16-.39.37-.07.68-.43,1-.66-.29-.39-.55-1.06-.88-1.1a4.3,4.3,0,0,0-2.3.25c-2.32,1.12-4.59,2.34-6.83,3.61-7.86,4.46-16.41,7.11-25.17,8.9-9.23,1.89-18.66,2-28.08,2.22a105.51,105.51,0,0,1-32.27-4.17c-2.87-.84-5.81-1.43-8.72-2.13.47.66,1.24,1.46,2,1.45,1.53,0,2.79.3,3.1,1.84.58,2.85,2.94,3.45,5.07,4.38,1.85.81,3.73,1.53,5.58,2.34,9.59,4.22,19.86,4.42,30.05,5,3.68.21,7.39-.09,11.09-.14,7.87-.11,15.83-.19,23.29-2.78,6.85-2.38,13.37-5.72,20-8.7,1.15-.51,2.44-1,1.67-2.89a20.16,20.16,0,0,1-.8-4.11c1.6-1.73,3.51,2.65,5.29-.55Zm-95,41-.18.77c2.74,1,5.4,2.36,8.23,2.91,7.88,1.51,15.81,2.84,23.77,3.93,7,1,14.09,1.72,21.16,2.16a57.81,57.81,0,0,0,12.72-.56c3.61-.58,7.47-.23,10.76-2.73s7-4.44,10.44-6.64a6.29,6.29,0,0,0,1.26-1.08q4.31-4.73,8.6-9.49l-.47-.72a22.27,22.27,0,0,0-2.4.59c-4.09,1.48-7.5,4.65-12.19,4.72a13.85,13.85,0,0,0-4.56,1.07c-9.65,3.68-19.85,4.19-29.94,4.85-6.55.43-13.19-.2-19.77-.64a69.23,69.23,0,0,1-24.09-5.67c-2.62-1.18-4.78-.36-5.41,2.32l4.49-.57.07.73-3.48,1.29,3.4,1.84-.21.62ZM572.95,933l3.51-2.22-4-2.47c-2.19,1.4-4.25,2.66-6.22,4-.51.35-1.18,1.12-1.1,1.58.33,1.93-.81,2.4-2.27,2.81-3.2.89-6.66,1.34-9.53,2.86-11.22,6-22.89,10.09-35.64,11.22-8.13.72-16.14,2.84-24.41,2a64.65,64.65,0,0,0-6.69,0,12.19,12.19,0,0,0,4.81,2.21c6.79,1.25,13.61,2.33,20.41,3.5a70,70,0,0,0,34.75-2.49c3.6-1.22,6.76-3.73,10.12-5.63,1.19-.67,2.37-1.37,3.61-2,6-2.84,10.57-7.11,13.15-13.31C573.6,934.62,573.2,934,572.95,933Zm-93.28-29.64c0,1,.35,2.12-.06,2.7-1.35,1.85-.21,2.77,1.14,3.46,4.84,2.44,9.51,5.61,14.65,7,14.23,3.81,28.85,2.71,43.3,1.46a119,119,0,0,0,30.56-7.17c2.68-1,4.28-.91,4.69,3.35l3.94-6.13c-2.12-.82-3.6,3.12-5.71,0l4.1-1.2-3-1.73c1.22-1.75,1.19-1.73,2.17-.32a1.31,1.31,0,0,0,1,.4c1.47-.06,2.93-.2,3.92-.27L575.42,900c-4,1.88-8.25,4.22-12.74,5.86a86,86,0,0,1-25.67,4.7,233.46,233.46,0,0,1-27.73,0c-4.79-.33-9.73-.15-14.32-1.31C489.69,907.9,484.73,905.34,479.67,903.33ZM534,941.38a335.39,335.39,0,0,1-53.19-7.8,13.43,13.43,0,0,1,.81,2.92c.08,2.32-1.79,2.56-3.51.48l2-1-.48-.81-4.09,2.56v1l6.13,1.46c-.28,1.14-.68,2.69-1,4.25a12.39,12.39,0,0,0-.16,1.45l.9-1.36-.14,1c.93.76,1.85,2.19,2.78,2.18a163.43,163.43,0,0,0,18.11-.67c9.23-1.06,18.39-2.66,27.57-4.13A24.84,24.84,0,0,0,534,941.38Zm26.33-79.18-.2-.76c-20.26,8-41.26,7.71-62.48,5.91,5,1.87,10.1,3.3,15.18,4.69a4.76,4.76,0,0,0,1.1,0l5.75.15a27.12,27.12,0,0,0,4.95.11c7.44-1.19,14.85-2.53,22.27-3.84a6.72,6.72,0,0,0,1.58-.5c2.94-1.32,5.87-2.65,8.78-4C558.28,863.44,559.27,862.78,560.29,862.2Zm-59-28.78c-1.17-.9-2.21-2.11-3.53-2.62a40.87,40.87,0,0,0-5.69-1.23c-3.29-.75-6.72-1.16-9.81-2.41-7.2-2.91-14.23-6.25-21.35-9.38a29,29,0,0,0-3.3-1C461.23,824.18,490.07,833.38,501.3,833.42ZM541.87,963.8c-15.42,3.48-30.37.9-45.35-.86C511.4,969,526.36,971,541.87,963.8ZM534,975.46l-4.63,3.12c-1.06-1.16-6.13-2.81-7-1.72-1.27,1.63-2.14.18-3.16.27a5.64,5.64,0,0,0-1,.25v3.83l1.8-2.47.5,3.28c3.2,0,6.31.13,9.4,0,3.35-.17,6.68-.61,10-.93l.36-.83c-.7-.4-1.81-.65-2-1.24-1.28-3.23-2-1.49-2.87,1.07ZM519.25,835.61l-.67.57c-.81-.85-1.47-2-2.46-2.45a11.93,11.93,0,0,0-3.91-.56c-1.33-.1-2.68,0-4-.15a17.69,17.69,0,0,1-3.45-.64c-1.21-.37-2.52-1.83-3.44,1.16,2.61-1.32,3.56,3.95,6.4.83,3,2.85,23.25,4,30.49,1.58-3.44.74-6-2.68-9.59-1.75a14.62,14.62,0,0,1-4.16.07l-3,1.9-.4-.61.88-1.8h-3.43ZM456.78,942c2.33-.14,2.93.38,2,2.42a49.18,49.18,0,0,0-2.21,6.74,1.38,1.38,0,0,0,.29,1c1.48,2,3,4,4.51,6l.79-.41c-.67-6.67,1.52-13.39-.41-20.11C458.35,937.35,458.32,940.22,456.78,942Zm20.85,60.44-8.71-2.59c.33,3.94,2.89,4.54,5.71,4.81a7.94,7.94,0,0,1,1,.27l8.75,2c-1.11-1.76-4.4-.63-3.42-4.29l-3.94,1.87ZM585.25,859.75c1.52,1.52,2.76,2.15,3.86.46,1.78-2.75.87-8.38-2.1-11.2l-1.29,7.38,2.44,2.23ZM450.92,992.42a29.78,29.78,0,0,0,3.83,3.37c3.39,2,6.88,3.89,10.36,5.76,2.21,1.19,2.64.84,2.63-1.37Zm33.64-27.61-.74.54c.55,1.21.89,3.29,1.7,3.49,3.69.92,7.51,1.31,11.28,1.88l.06-.58Zm96.92,34.65-9.66,4c2-.4,4.29,1.3,5.89-1.08.26-.39,1.47,0,2.13-.29C580.88,1001.68,583,1001.85,581.48,999.46Zm-29-164.61c-3.81-.19-6.92.6-9.74-1.13-.61-.37-1.72.07-2.41.12l.56,2.06a42.44,42.44,0,0,0,5.52.24A50.37,50.37,0,0,0,552.45,834.85Zm-86.13,79.53,1.39-8.14C464.54,908.87,464.31,911,466.32,914.38Zm6,25.46,1.24,5.23.87-.31-.25-.4,2.66-4.51-.79-.68-1.86,1.64ZM469.22,916c.77,1.29,1.68,3.57,2.14,3.48,3.36-.63.27-3.27,1.3-4.62Zm97.89,36.73-10.52,6C560.56,958,565.24,955.44,567.11,952.72Zm-20.55,26,.2.91,6.06-1.34C550,976,548.29,977.41,546.56,978.73ZM466.66,813v.54l5.25,1.74-.18-3ZM544.45,976.3l-1.07-.41-1.88,4.69,1.43.48ZM475,877.55l-1.83-3.78-.79.32v4.52Z"/><path d="M596.94,252.83q7.37-10.59,14.73-21.17c2.64-3.79,5.26-7.6,7.66-11.78l-5.3,3.6-.5-.5a7.15,7.15,0,0,1,.8-1.41,75.14,75.14,0,0,0,11.82-17.9,97.91,97.91,0,0,1,5.08-9.34c.8-1.26,2.4-2,3.64-3l.92.81L627,209.34l.6.35,14.85-20.45,15.09-20.77-1.8-1.68c.58-.47,1.31-1.4,1.62-1.27,2.56,1,3.09-1.2,4.07-2.49q19.19-25.19,38.26-50.48a3.81,3.81,0,0,0,.39-2.65c-.44-2.54-1.27-5-1.54-7.56-.12-1.15.74-2.39,1.16-3.6l1.11,0a25.28,25.28,0,0,1,2,4.58,22.69,22.69,0,0,1,.07,4.78c3.13-2.82,5.94-5.8,9.2-8.17,6.48-4.71,13.64-6.87,21.35-3.23,8.11,3.82,11.59,10.9,12.22,19.44S743.28,132.26,738,139l-1.6,2.07c3.73,1.65,7.18,3.36,10.76,4.74,17.84,6.88,36.17,12,55.16,14.31a110.92,110.92,0,0,0,42.45-2.55c.61-.16,1.21-.39,1.95-.63-2.92-3.85-5.85-7.5-8.56-11.3-6-8.45-10.81-17.45-12.16-28-2.9-22.65,7.6-44.32,28.13-51.57,15.34-5.42,30-4,42.87,6.56,8,6.6,12.15,15.57,13.13,25.81,1.91,20-5.55,36.15-20.74,49-.7.59-1.36,1.22-2,1.83l2,4.68c4.71-1,9.26-2.27,13.89-3,7.67-1.29,15,.15,22.31,2.77,12.56,4.5,23.71,10.86,31.71,21.89,17.6,24.28,8.89,54.15-19.17,65.81-27.36,11.36-58.73-.57-72.81-27.88a98.37,98.37,0,0,1-6.07-14.86c-1.64-5.07-2.57-10.38-3.94-16.14-5.07,4.54-10.2,8.88-15.06,13.52a125.75,125.75,0,0,0-26.07,35,40.42,40.42,0,0,1-3.52,4.89,11.26,11.26,0,0,1,.41-8.87c3.82-9.44,9.39-17.83,15.72-25.74a154.26,154.26,0,0,1,26.47-26.07,4.32,4.32,0,0,0,2.06-4.15c-.18-2,0-4.05,0-6.34-3.84.89-7.64,1.84-11.47,2.64-13.09,2.75-26.31,2.91-39.54,1.55a186.68,186.68,0,0,1-60.47-16.44c-3.43-1.6-6.83-3.31-10.1-5.22-1.64-1-2.63-1-4,.46-7.39,8.17-14.89,16.24-22.33,24.36q-10.79,11.79-21.52,23.62c-.31.34-.57.71-.62.77,2.84,6.24,5.86,12.14,8.21,18.3,2,5.17,2.74,10.83,4.88,15.91,2,4.7,2.24,9.58,2.85,14.4.7,5.5,2.24,10.9,1.21,16.67-.79,4.44-.11,9.12-.46,13.66-.45,5.73-1.26,11.44-2,17.15a51.19,51.19,0,0,1-1,6.48,88,88,0,0,1-6,17.44,106.12,106.12,0,0,1-9.1,15.74c-4.43,6.1-8.07,12.78-12.24,19.09a48.81,48.81,0,0,1-5,5.77c-3.31,3.61-6.46,7.4-10,10.73-5,4.63-10.26,8.93-15.44,13.33-3.28,2.79-6.34,6-10,8.14-4.5,2.69-9.53,4.46-14.27,6.76-2.06,1-3.93,2.41-5.95,3.52a26.75,26.75,0,0,1-4.25,2q-13.71,4.68-27.46,9.24c-4.23,1.39-8.45,3-12.8,3.77-5.47,1-11,1.9-16.68.84-5.06-.94-10.33-.7-15.49-1.16-6.28-.56-12.63-.87-18.79-2.09a154.56,154.56,0,0,1-18.4-5.3,14.35,14.35,0,0,1-8.57-6.72l4.36-4.93,5.19.31-1.17,2.6a7.8,7.8,0,0,0,2.61-.05c.9-.38,2.4-1.42,2.3-1.71-.4-1.16-1.32-2.14-2.61-4l5.55,2.39c2.25-2.07,5.94-1.6,9.48-1.42,5.46.28,10.94.57,16.36,1.31,3.52.48,6.46-1.16,10.05-1.42l1.29,2.72c.52-4,3.61-3.1,5.87-4l.84,3c.81-1,3.39-.36,1.37-3.5,4.36,1,8.05-1.44,12.08-.09.6-1,1.29-2.75,3.42-1.09.23.18.86-.06,1.28-.21,2.29-.79,4.25-2,7.11-1.49,2.4.47,5.14-.77,7.72-1.35a25.14,25.14,0,0,0,6.11-1.72c1.73-.9,3.07-2.57,4.58-3.91.38-.34.81-1,1.1-1,4.16.8,4.47-2.86,5.91-5.11.56-.87.29-2.43,2.08-1.86a6.28,6.28,0,0,1,.64-2.14c1.4-1.78,2.86-3.37,2.72-6,0-.77,1.69-1.56,2.43-2.49a10.06,10.06,0,0,0,2.22-3.55c.34-1.42.32-2.74,2.13-3a1.44,1.44,0,0,0,.48-.21c-1-2.49,1.3-3.3,2.43-4.63.88-1,2.22-1.69,3-2.76,1.55-2,2.93-4.14,4.3-6.27,1.22-1.92,2.7-3.34,5.36-3.43-1.83-2.07-.53-2.92,1.26-4.11,2.93-1.94,5.52-4.4,8.36-6.49s2.82-1.95,2.81-3.45L650.24,319l2.11,1.7.31-.22-.65-1.11,7-3.78a6.42,6.42,0,0,0,6.21-3.26c.21-.36,1.42-.14,1.78-.16.72-.77,1.33-1.45,2-2.1,2.5-2.54,4.73-5.48,7.63-7.44,1.72-1.16,3.3-2,3.93-4,.49-1.58,1.62-3.36,1.26-4.73-.86-3.2,1-5.42,2.11-7.87.64-1.43,1.68-2.22.18-4s-.78-5.76,1.1-7.7c-1.71-1.25-1.47-2.61-.51-4.33a19.16,19.16,0,0,0,1.44-4.73,34.76,34.76,0,0,0,.76-4c.28-2.22.3-4.49.75-6.67a34.84,34.84,0,0,1,1.78-4.9c.22-.59.69-1.29.54-1.79-.74-2.45.93-3.86,2.1-5.54a3,3,0,0,0,.54-1.93,95.78,95.78,0,0,0-2-10.85c-2.75-9.66-5.76-19.25-8.87-29.57l-72.42,78.5c.4.4,1.77,1.16,1.85,2s-1.44,1.54-2.18,2.38c-1.17,1.31-3.69.93-4.1,3.44-.06.4-2.55.73-3.82.53-3.41-.54-6.77-1.39-10.15-2.14a2.16,2.16,0,0,1-.89-.54c-1.19-1.07-2.35-2.17-3.41-3.15.07-.79.59-2.15.17-3.1-.53-1.2-1.82-2.06-2.77-3l2-.25c-2.6-6.28,2.05-10.57,3.75-15.88l3,1.28,4.27-7.26Zm362.12-53.22c-.68-2.49-1.5-7.15-3.21-11.46-6.3-15.84-31.1-33.92-52.44-30-6.52,1.19-13.23,1.62-17.74,8.31-3.45,5.11-9.49,7.12-15.89,7.14-2.56,0-6.36,3-6.16,4.8,1.52,13,4.62,25.46,11.84,36.6,13.95,21.51,39.68,29.14,62.17,18.16C950.56,226.81,958.32,216.71,959.06,199.61ZM833.25,112.06A91.91,91.91,0,0,0,835,122.17c3.2,11.64,10.45,20.9,18.25,29.76,3,3.36,3,3.22,5.54-.36,4.18-6,9.94-9.28,17.22-8.73a9.06,9.06,0,0,0,7.28-2.16c.84-.73,1.75-1.37,2.6-2.09,12.46-10.67,17.93-24.3,15.11-40.36-4.3-24.52-30.1-34-50.46-21.42C838.16,84.45,833.93,96.74,833.25,112.06ZM728.86,136.83c2.37-4.19,4.77-7.94,6.67-11.92,2.51-5.23,1.72-10.49-1-15.45-2.52-4.61-6.58-6.31-11.7-5.2s-8.54,4.27-11.6,8.09c-10.42,13-21,25.88-31.16,39.11q-27.7,36.15-54.9,72.67c-11.18,15-22,30.25-32.88,45.44a3.43,3.43,0,0,0-.25,2.71c1.22,3.52,4.28,5.33,6.77,7.32,2.45-2.64,4.7-5,6.92-7.48,15.81-17.41,31.66-34.77,47.39-52.26,7.48-8.32,14.68-16.88,22-25.31,1.89-2.16,3.86-4.25,5.84-6.33,9.51-10,19.1-19.9,28.54-30,5.1-5.43,9.94-11.1,15-16.8l-4-3.14a39.83,39.83,0,0,0-2.51,3.28c-2.6,4.26-5,8.6-9.29,11.55-3.65,2.52-7,5.43-10.78,7.78-4.82,3-10.85.38-11.12-4.88-.12-2.39.15-5.24,1.38-7.17a156.44,156.44,0,0,1,12.06-16.78c4-4.77,8.79-8.88,13.2-13.31,4.1-4.11,10.21-.41,11.54,3.72a13.68,13.68,0,0,1-1,11.18ZM637.68,368.47c-.11-1.31.67-2.1,2.44-2.56,1.29-.34,2.31-1.64,3.91-1a.81.81,0,0,0,.74-.27c.8-1.71,1.55-3.44,2.44-5.46-.13,0,.51-.07.62.15,1.11,2.18,2.6,1.19,3.55.17,2.06-2.22,3.84-4.69,6-7.33-.25,0,.48.29.67.1,1.79-1.84,3.49-3.77,5.2-5.69.83-.94,1.65-1.9,2.44-2.87a62.59,62.59,0,0,0,5-6.24c2.34-3.78,4.29-7.8,6.55-11.62,1.57-2.65,3.45-5.1,5.06-7.72a25.1,25.1,0,0,0,1.21-3.27c2.37-5.5,4.78-11,7.17-16.48l-.8-.54-3.48,2.44a15.65,15.65,0,0,1-.69,2.89c-1.22,2.87-2.66,5.65-3.86,8.53-2.41,5.77-5.71,10.64-11.55,13.58-1.24.62-4.25.71-2.91,3.88l-2-1,1.84,5.59-2.29,1.11L663.76,329c-3.1.8-5.88,1.34-8.52,2.26a42.94,42.94,0,0,0-6.62,3.12c-2.71,1.51-5.29,3.23-7.95,4.83-4.13,2.48-6,7.06-9.92,10-4.63,3.54-8.34,8.46-11.86,13.22-3.27,4.42-5.78,9.39-8.6,14.14-.61,1,.83,5.07,2,5.29.35.07,1.06-.57,1.26-1,.75-1.77,1.35-3.61,2.11-5.7l3.3,2.54v-3.27c1.82,2,3.47,3,5.23,1.36l-.48-2.14,2.05-.34,3.23,5.6.54-.24-.33-2.46,2.13,1.63c2.46-2.54.36-4.54-.28-6.25l3.13-3.61Zm73.19-240.35c-4.56,8.15-12.06,14.1-15,23.2a4.72,4.72,0,0,0,2.14-.91,29.2,29.2,0,0,0,4.51-3.65c3.11-3.55,7.87-5.37,9.86-10.17C714.19,132.25,714.49,132.37,710.87,128.12ZM676.32,312.69c-1.59-.61-1.54-.58-2.57,1a11.91,11.91,0,0,1-1.68,1.7c-2.32,2.29-5.72,2.59-8.18,4.05-5,3-10.56,4.83-15.52,7.85-.81.49-2.13.29-2.78.89a37.8,37.8,0,0,0-3.56,4.56c1.48-.7,2.35-1,3.14-1.51,3.85-2.33,7.79-4.52,12.29-5.15,5.28-.73,9.32-4.29,14.22-5.82.07,0,.12-.14.17-.21ZM865.11,161.61c2.79,1.9,5.36,2.67,8.34.46a34,34,0,0,1,5.63-2.89c2.91-1.41,3.08-2.23,1-4.82ZM634.87,336.78l-7.45,8.66C631.25,344.35,635.53,339.57,634.87,336.78Zm81.87-208.26,1.53-4.07-.57-.33L714,126.29Z"/><path d="M569.89,137.33l.39,5.79a97.48,97.48,0,0,1,45.11-.43c14.92,3.28,28.53,9.57,40.14,19.87-2.13,2.51-4.16,2.15-6.78.83-5.25-2.63-10.76-4.77-16.12-7.2-1.8-.81-3.41-2-5.22-2.8a26.91,26.91,0,0,0-6-1.94c-5.62-.93-11.25-1.9-16.92-2.34a118.68,118.68,0,0,0-15.94-.15c-5,.28-9.85,1.32-14.8,1.82-2.24.23-3.08,1.3-3.11,3.36q-.05,3.72-.15,7.45a54.49,54.49,0,0,1-6,23.94c-4.29,8.17-10.22,15-20.21,16.66-3.93.65-7.48-.59-10.84-2.17-3.65-1.71-7.19-3.7-9.52-7.31A16,16,0,0,1,522.36,178c3.6-10,11.17-16.68,19.59-22.54,2.32-1.62,4.86-2.92,7.15-4.58.72-.52,1.56-2.07,1.29-2.58-1.41-2.63-.36-5.18-.14-7.74l3.14,2a28.8,28.8,0,0,0,2.74-1.71c1.65-1.27.37-5.29-1.56-5.27l.73,4.05c-1.91.53-3.86-1.37-5,1l-1.77,1.09-.47-.43,5.18-7.23c-1.62.17-3.21-1.7-4.41.33-.11.18-1.24,0-1.7-.34a1.57,1.57,0,0,1-.25-1.41,5.71,5.71,0,0,1,1-1.43l2.94,1.47.4-.69-1.91-1.8c.64-1.28,1.63-2.42,1.68-3.6.06-1.39-.79-2.8-1.06-4.23a2.93,2.93,0,0,1,.44-2c.87-1.24,2.8-2.43-.36-3.18-.19,0-.26-.45-.44-.63-.49-.5-1-1.26-1.54-1.36-.39-.07-1.38.86-1.33,1.24a4.85,4.85,0,0,0,1.16,2.14c.29.37.83.53,1.57,1l-2.59,1.11,2,3.57c-1.77-.51-2.54-3.14-3.88-.74-.59-.49-1.53-.88-1.72-1.49-.58-1.85-.87-3.8-1.36-6.09l-2.65.37c1.94-2.53.47-4.28-.76-6.36-1-1.65-1.12-3.8-1.62-5.67l3.67-2.86-4.09-2.07-3.28,6.32,2.55.52-1.05,2.31c-3-1-3.27-2.78-2.06-5.25.63-1.28-.68-2.65-2.38-2.59-.88,0-1.76.15-2.79.25V98.6c3.61,1.34,3.65-2.83,6.45-3.92-1.15-.59-2.08-1.5-2.75-1.34-5,1.24-8.07-2-11.38-4.69a7,7,0,0,0-.83-.49l.39,2.77-5-2.84L518.85,87c-1.14-1.43-2-2.44-2.78-3.51s-1.44-2.12-2.2-3.25l-1.1,1.56-1.68-1.57c-.42.46-.84.93-1.28,1.38-1.24,1.24-2.21.68-2.16-.75.07-2.14-1.21-2.2-2.62-2.16a7.25,7.25,0,0,1-6.55-4.18l-.73,2.21c-1.09-.38-2-.67-3-1-.71-.29-1.36-.69-2-1a25.47,25.47,0,0,1,2-1.71c.24-.17.7,0,1.06,0-.24-2.71-.76-3-3.25-2.26a15.83,15.83,0,0,1-3.72,0l1.65,1.58c-1.24.67-1.91,3.24-4.17,1.32,1-3.64-.27-5.83-3.45-5.53a23.62,23.62,0,0,0-5.19,1.43c-3.93,1.32-4.56.86-4.5-3.38a3.58,3.58,0,0,0-.29-.92c-.33.31-.58.56-.85.78-.64.53-1.29,1.05-1.94,1.57a9.56,9.56,0,0,1-1.28-2c-.43-1.21-.71-2.18-2.44-1.81-.56.12-1.36-.83-2-1.26-1.24,3.26-1.24,3.26-4.9.54l2.68-2.41-2-.36,0-.54h5.13l-.07-.52L460,58.05c-1.81,2.67-4.5,1.3-7.1-.1-1,1.43.1,4.61-3.26,3.54l-.78,3.2c-.82-.14-1.55-.21-2.25-.4-1.46-.4-2.88-.91-4.34-1.3-.83-.22-1.7-.29-2.55-.43s-1.59-.33-2.39-.4a18.07,18.07,0,0,0-3.52-.12c-1.65.19-3.27.61-4.91.93l-.32-.88-1.79,2.64c-2.41-.44-4.64.82-6.84,1.08-4.52.55-6.87,3.63-9.67,6.15-1.87,1.68-3.7,1.43-5.72,1.38a2.34,2.34,0,0,0-1.18.21c-4.43,2.59-7.44,6.56-10.6,10.47a22.32,22.32,0,0,1-6,5.09c-4.21,2.48-8,5.76-13.28,6.32-2.42.26-4.7,2-7,3a12.37,12.37,0,0,1-2.27,1,20.78,20.78,0,0,0-13.85,10.25c-.7,1.17-2,2-3,3-2.8,3-3.85,6.93-5.35,10.67-3.2,8-2.89,16.52-4.64,24.72a17.15,17.15,0,0,1-3.95,8.17c-1.9,2.15-3.85,4.91-4.22,7.62-1,7-4.47,12.85-6.91,19.18-1.24,3.23-.45,6.25.7,9.25,1.63,4.23,3.48,8.38,4.88,12.69.8,2.47,1.56,4.67,4.09,5.9a9,9,0,0,1,3.42,2.65c.69.91,2.2,1.19,3.33,1.78.69.37,1.35.82,2.19,1.33l2.24-.89c2.26,3.37,4,7.24,6.81,9.85a25.75,25.75,0,0,1,8.14,15.75,12.3,12.3,0,0,1-.71,4.6c-1.47,5.87-7.88,10.23-13,8.68a20.2,20.2,0,0,1-11.35-8.32c-3.09-4.77-5.62-9.9-8.63-14.74-1.92-3.09-3.7-6.74-6.54-8.63s-4.63-5.51-8.7-5.31a2.2,2.2,0,0,1-1.6-.9c-1.35-2-2.56-1.67-3.89.16-1.87-2.28-4.65-2.32-7.15-3.23-4-1.45-7.32-.32-11,.73a6.81,6.81,0,0,1-6.87-1.58c-1.89.36-3.67.35-5.12,1-2.92,1.4-5.66,3.19-8.48,4.8a107.82,107.82,0,0,0-9.52,5.5c-5.22,3.75-11.59,5.09-16.66,9.59a48.69,48.69,0,0,0-12.61,16.45c-.41.9-1.85,1.31-2.36,2.2-2,3.53-3.78,7.19-5.72,10.75-4,7.36-4.22,15.37-3.63,23.37.29,3.93,1.82,7.77,2.69,11.67a16.18,16.18,0,0,1,.28,3.64c0,5.41,3.17,9.07,6.6,12.69,4.17,4.39,4.82,9.7,3.81,15.44a11.13,11.13,0,0,0,0,4.34c2.56,11,7,21.17,14.78,29.44,1.44,1.53,1.26,4.55,4.12,4.75-.23,2.43,2.11,3.3,3.13,5,1.16,1.9,3.14,3.27,4.51,5.06s1.48,4.64,4.08,5.91c1.87.91,3.43,2.45,5.51,4-.45,3,3.27,3.23,5.22,4.37a150.43,150.43,0,0,0,15.79,7.76c9.83,4.34,19.92,7.89,30.81,8.28,8,.29,16.14,1.17,24.07.34,8.15-.85,16.13-3.39,24.15-5.32,3.08-.74,6.07-1.87,9.1-2.81l.32.61a14.4,14.4,0,0,1-3,2.16c-6.36,2.4-12.71,4.84-19.18,6.91a77.75,77.75,0,0,1-25.89,3.47,123.26,123.26,0,0,1-33-5c-11.73-3.55-21.91-10.06-32.7-15.41-6.37-3.16-11-8.45-16.17-13.13-4.49-4.09-8.91-8.31-13-12.79-2.41-2.64-4.16-5.89-6.17-8.89-2.3-3.42-4.75-6.75-6.78-10.32a153.56,153.56,0,0,1-7-13.72,114.81,114.81,0,0,1-5.5-14.55,102.39,102.39,0,0,1-2.88-14.6,98.39,98.39,0,0,1-.87-13.26c0-4.14.51-8.29.86-12.43.27-3.16.57-6.33,1-9.47,1.3-9,3.47-17.85,7.63-26.06,2.46-4.85,5-9.67,7.5-14.54-1.52-.25-2.58-1-1.08-3.32l3,2.49a54.71,54.71,0,0,1,3.45-7.25c.71-1.09,2.46-1.49,3.4-2l2-4.11,1.42,2.08c2.45-2.58,2.45-2.58,1.27-4.87.54.08,1,.11,1.39.21s.79.28,1.32.48l.65-2,4.49-.55c-.29-1-.8-2.05-.58-2.26a4.71,4.71,0,0,1,2.14-.81,27.14,27.14,0,0,0,4.53-.95c.78-.32,1.21-1.49,2-2.54l1,.82c2.58-2.73,6.06-3.42,9.52-4.57a85.46,85.46,0,0,1,19.74-4.13,28.39,28.39,0,0,1,9.42.57c1.58.39,3.45,0,5.16,0a10.15,10.15,0,0,1,4,.79c1.86.76,4.26-.29,5.79,1.67,2.89-2.14,4.59.37,6.71,1.59,1.14.65,2.59.76,4.28,1.22-.09-1.07-.13-2-.25-3-.57-4.52-1.61-9-1.61-13.57s.94-9,1.65-13.52c1.12-7.09,2.75-14.12,3.51-21.25s3.56-13.29,6.26-19.58a126.4,126.4,0,0,1,17.69-29c10.68-13.38,23.84-24,38.25-33.12,8.71-5.54,18.2-8.92,28-11.82a122,122,0,0,1,24-5c19.87-1.7,39.85-3.5,59.34,2.55a253.91,253.91,0,0,1,29.47,11c5.76,2.61,10.82,6.87,15.95,10.73,6.29,4.74,11.16,10.89,15.71,17.27.53.74.41,2.17,1.93,1.09.06,0,1,.79,1,1.06-.83,3.28,1.93,5.08,3.15,7.43,1.48,2.85,2.84,5.71,4.18,8.63,2.86,6.21,4.36,12.82,6.55,19.22a15.83,15.83,0,0,0,1.91,3.07Zm-22.6,48.25,4.18-1.76c-2.49-2-3.78-7.89-2.23-8.94l2.31.15v2.61h.72c0-1.51.49-3.26-.11-4.47-1-2-.43-2.83,1.31-3.64,2.51-1.16,2.66-2.11,1.08-3.88l-3.12.29-.22-1.27,8.28-2,.12-.86a13.17,13.17,0,0,0-2.11-.38c-2.21-.05-4.41,0-6.62,0l-.09-1L554,159l-.38-.77c-1.56.38-3.47.31-4.62,1.21a63.5,63.5,0,0,0-7.79,7.29c-3.44,3.78-6.78,7.67-9.88,11.73-2.54,3.33-2.11,7,.22,10.36,2.6,3.75,6.53,4.45,10.51,5.4,1.47.35,1.77-.1,2-1.24,0-.05.3,0,.5-.08v1.53c1.9-1.1,3.65-2,5.33-3.1,1.16-.73,2.24-1.59,3.36-2.39l-2.63-2.15c-.9.48-1.87,1.33-2.19,1.12-1.48-.92-2.95-2.05-2.22-4.21,0-.11.3-.15.65-.31ZM212.65,294.64l-.83.27a3.12,3.12,0,0,0-.21,1c.42,3,.79,6,1.35,8.89a27.29,27.29,0,0,0,1.59,5.38c.5,1.2,1.68,2.12,2.19,3.33,1.11,2.63,2,5.36,3,8,.3.79.77,1.52,1.15,2.29.62,1.25,1.22,2.51,1.88,3.85l-.4,1.51,3.57.42a30.18,30.18,0,0,0-.62-3c-1-2.88-.21-6.25-2.38-8.77-1.15-1.34-2.38-2.62-3.66-3.85-3.07-3-5.18-6.27-4.84-10.79a17.4,17.4,0,0,0-.33-4.68A26.29,26.29,0,0,0,212.65,294.64ZM368.58,90.77l.36.88c6.18.25,11.1-3.71,16.37-6.11,2.29-1,3.66-4.1,5.83-6.71-1.18.07-2.12-.14-2.72.22-2.53,1.51-4.92,3.27-7.46,4.77-1.64,1-3.47,1.61-5.18,2.45a34.46,34.46,0,0,0-3.19,1.79C371.22,88.93,369.91,89.86,368.58,90.77ZM329.24,224.41c.95,2.63,1.33,5.13,2.63,7a163.87,163.87,0,0,0,10.74,13.91c2.19,2.53,5.7,2.25,6.91.09l-2.7-.41,1.53-1.92-6.87.35c-2.16-4.37-4.39-9.22-7-13.9C333.41,227.53,332.65,224.89,329.24,224.41Zm-75.18-6.34c-.52-.27-1.31-1-1.71-.82a55.44,55.44,0,0,0-6,3.11c-1.63,1-3.14,2.13-4.71,3.21l-3.5,2.42.38.71a38.45,38.45,0,0,0,4.33-.8c.8-.24,1.42-1,2.21-1.39,2.32-1.08,4.73-2,7-3.13,1.81-.9,3-2.93,5.64-2.29.51.12,1.63-1.92,2.29-3.06.13-.22-.61-.93-1.09-1.63Zm66.36-40.16.54.19c.66-1.76.94-3.82,2.06-5.21,1.71-2.14,1.8-4.55,2.27-7,.87-4.52,1.12-9.31,5.64-12.23a7.7,7.7,0,0,0,2.29-3.09,6.91,6.91,0,0,0,.2-2.52c-1.15,1.11-1.3,2.59-2.11,3.18-3.34,2.46-5.18,5.81-6.63,9.57-.9,2.34-2.68,4.43-3.22,6.82C320.69,171,320.72,174.47,320.41,177.9ZM212.77,314.32a10.32,10.32,0,0,0-1.25-.49,21.48,21.48,0,0,0-2.24-.23l8.68,22.63C219.82,327.6,213.32,321.89,212.77,314.32Zm154-223c-1,.55-2.18,1.71-2.95,1.48-1.7-.49-2,.76-2.71,1.49a7.66,7.66,0,0,1-.74.57c.29.25.68.76.85.7,2.19-.82,4.35-1.72,6.66-2.66Zm-42.33,58.46c2.87-.2,3.75-2.81,2.27-7Zm-104,99.13.83.59,4.59-7.45-.53-.21,1.3-.65-.62-.61C222.87,242.41,222.45,246.24,220.5,248.95ZM401.81,68.14,401.38,67l-6.85,2.56.43,1.16Zm159.65,72.34c0,.33-.06.8.13,1a14.23,14.23,0,0,0,1.57,1.41c.07-.73.45-1.92.16-2.11a31.26,31.26,0,0,0-4.36-2.18c-.1,0-.56.34-.54.48.06.41.2,1.06.45,1.13A14.5,14.5,0,0,0,561.45,140.48ZM228,345.36l-1.78.7a7.91,7.91,0,0,1,.94,2.18c.18,2.07.71,2.44,3.06,1.56Zm-2.38-8.06-1,.48c1.07,2,.25,4.92,3.83,6.61ZM534.41,93.23l3.7-3.8-6,1Zm9.32,20c1.74.27,3.06.87,4,.49.66-.27.78-1.85,1.4-3.59ZM466.88,57.87,466.51,59c.83.52,1.66,1.4,2.51,1.43.57,0,1.18-1.17,2.25-2.34ZM322.23,198.63l-.84.14a26.47,26.47,0,0,0,.65,3.85c.09.28,1.18.26,2.45.5ZM527.91,86.4a24.34,24.34,0,0,0,3-.87c.49-.21.82-.78,1.22-1.19-.46-.34-.89-.89-1.39-1C529.64,83.16,527.85,85.43,527.91,86.4Z"/><path d="M837.83,964.46c1.25-2.7.45-7.68-1-9.21-1.07-1.12-1.91-2.45-3-3.53-2.77-2.72-5.55-5.45-8.5-8-1.27-1.09-3-1.64-4.48-2.51-.54-.31-1.29-.75-1.39-1.25-1.11-5.2-5.77-9.24-4.83-15.12,1.16-7.28,3.22-14.1,10.61-17.35a7.21,7.21,0,0,1,6.14.69c1.32,1,1.74,3.65,1.86,5.62.14,2.23-1.11,4.64-.67,6.74.8,3.83,2.37,7.51,3.69,11.23,1.69,4.76,1.49,9.17-1.93,12.68l9.27,11c.33-.88.81-1.93,1.13-3,2-6.73,6.76-11.06,12.58-14.26,1.78-1,4.29-1,6.44-.89,5.38.24,10.84.44,15.81,2.87,1,.47,1.52,1.8,2.26,2.73-1,.69-1.82,1.77-2.87,2-5.3,1.14-9.34,3.78-11.46,8.91-.88,2.12-1.66,4.28-2.42,6.45-1.46,4.19-6.18,7.37-11,7.31-4.12,0-8.07-2.07-9-7.29a8.2,8.2,0,0,0-.65-1.36c-.89,6.57-1.64,12.56-2.53,18.51-.3,2-1,3.92-1.45,5.9s-.3,3.78,1.6,5.39c6,5.08,3.63,9.62-.59,13.85-.56.56-1.72.51-3.27.93.75-2.14,1-3.75,1.79-5,2.64-3.94,1.46-7.38-3.23-8.86-3.39-1.07-4-.64-5.14,2.66a5.23,5.23,0,0,1-2.3,2.72,2.73,2.73,0,0,1-2.5-1,8.2,8.2,0,0,1,.12-3.86,6.81,6.81,0,0,1,1.29-2c-5-5.81-11.19-3.45-14.66,3.13,1,.46,2.2.68,2.81,1.42a16.84,16.84,0,0,1,1.81,3.7c-1.25.55-2.49,1.51-3.75,1.54a5.11,5.11,0,0,1-3.4-1.57c-1.65-1.77-2.67-.82-3.43.58a5.83,5.83,0,0,0,.38,6.51c.47.66.88,1.36,1.67,2.6-3.71-.61-4.78-2.75-5.35-5.21a7.85,7.85,0,0,1,3.24-7.72,9.52,9.52,0,0,0,2.91-3.3c4-7.53,12.3-12,19.87-4.56,1.65,1.63,3.4,1.28,3.94-.35,1.4-4.23,2.23-8.65,3.34-13.19-1.95,1.15-3.59,2.24-5.34,3.11-.67.33-1.86.58-2.32.22-3.06-2.36-6.7-1.24-10-1.75a27.65,27.65,0,0,0-7.84,0c-1.61.22-3.15,1.26-4.62,2.1-1.26.72-2.34,1.77-3.6,2.49-2,1.17-4,1.41-6-.44s-1.81-4.16-.91-6.1c2.87-6.2,6.63-12,12.71-15.33a22.38,22.38,0,0,1,17.92-1.86c2.19.69,4,2.93,5.72,4.67C834.82,960.53,836.14,962.41,837.83,964.46Zm16.87-17.15a39.81,39.81,0,0,1,4.67-1.39,7.49,7.49,0,0,1,2.58.49c-.57.69-1,1.62-1.73,2-4.38,2.55-8.59,5.18-10.61,10.22-.85,2.12.15,3.29,1.73,4,3.8,1.61,7.91-.83,9.44-4.67,2.14-5.39,3.21-11.58,9.48-14.51C861.87,942.26,858.69,940.9,854.71,947.31ZM832,940.59a10,10,0,0,0-.8-9.36c-2.91-5-4.26-10.29-2.83-16.11.28-1.12-.09-2.4-.18-4l-2,1.15c.43,1.24,1.07,2.12.93,2.86a37.47,37.47,0,0,1-1.51,5C823.15,927.65,825.19,936.1,832,940.59Zm-20.61,26.76.2.65a50.26,50.26,0,0,1,6,0c4.35.53,8.66,1.38,13,1.83.8.08,2-.94,2.46-1.76.22-.43-.77-2.13-1.41-2.25a39.66,39.66,0,0,0-7.06-.59,39.14,39.14,0,0,0-6.51.46C815.8,966.1,813.6,966.8,811.37,967.35Zm-2.76-4.59a26.61,26.61,0,0,1,5.07-1.63c4.69-.61,9.42-.92,14.67-1.4C823.44,955.43,811.88,957.77,808.61,962.76Zm15.17-48.15c-3.79,3.2-5.5,10.89-3.55,14.75Z"/><path d="M564.68,320.91c-2.62,3.07-4.78,5.78-7.11,8.32q-13.7,14.91-27.49,29.73-10.1,10.88-20.29,21.68a14.48,14.48,0,0,1-1.63,1.5c-1.9,1.49-3.9,1.67-5.84.15a4.37,4.37,0,0,1-.64-6,73,73,0,0,1,7.09-9.24c9.77-9.91,17.1-21.77,26.12-32.27,4.68-5.45,8.7-11.47,13.1-17.16,1.63-2.11,3.52-4,5.26-6.05,1.06-1.23,2.07-2.51,3.57-4.34-2.8.34-3.93-.42-3.55-2.63,2-.16,4.05,2.51,5.95-.21.15-.21,1.25.08,1.8.36a25.8,25.8,0,0,1,3.31,2c1.7,1.22,2.76,3,5.06,3.82,1.16.39,1.88,3.22,2.07,5,.23,2.29-.54,4.68-.41,7,.17,3.06-1.93,5.07-3,7.53-.3.68-1.83,1.19-2.72,1.09-.52-.06-1.24-1.5-1.23-2.31C564.08,326.41,564.41,324,564.68,320.91Zm-13.94,5.88c2.93-2.78,6-5.47,8.8-8.46,1.51-1.63,2.47-3.76,3.88-6C560.46,312.1,553.44,320.68,550.74,326.78Z"/><path d="M824,3.1c-1,3.62-2.47,7.48-5.83,10.29-2.48,2.07-4.87,4.28-7.5,6.14-5.32,3.76-10.51,7.84-16.25,10.85-7.42,3.88-15.34,6.81-23,10.21-1.59.71-3,1.74-4.62,2.49-2,.95-4.06,1.67-6,2.66s-4,2.2-5.92,3.39c-.94.57-1.73,1.4-2.66,2-7.63,4.66-15.31,9.23-22.9,14a67.08,67.08,0,0,0-8.25,5.9c-3.2,2.74-6.13,5.78-9.11,8.77-1.28,1.28-2.55,1.88-4.12.66s-1.18-2.62-.13-3.88c3.88-4.67,7.31-9.89,11.87-13.77,5.41-4.6,12-7.76,17.76-12,13.5-10,29.15-15.79,43.84-23.46a175.89,175.89,0,0,0,36-24.79A11.68,11.68,0,0,1,820.62.22C822.51-.51,823.92.62,824,3.1Z"/><path d="M718.54,1026.69c3,0,6,0,8.94,0,10,.17,20,.72,30,.49,13.46-.3,26.67-2.46,39-8.27,10.71-5.06,21.38-5.61,32.38-1.11,5.81,2.38,11.66,4.73,17.63,6.65,10.18,3.26,20.68,4.41,31.37,4.57,9.23.13,18.45,1.15,27.69,1.31,7.65.14,15.3-.55,23-.6,9.24-.05,18.48.16,27.72.31s18.31.36,27.47.52a37.77,37.77,0,0,1,6.74.46,6.38,6.38,0,0,1-6.32,3.55c-6.92-.29-13.83-.71-20.75-.91-5.68-.16-11.37,0-17.06-.12-5.18-.1-10.35-.52-15.52-.52-5.76,0-11.52.38-17.29.47-4.21.07-8.41-.13-12.62-.1s-8.8,1-12.9.09c-8.1-1.76-16.33-.37-24.37-1.83-8.76-1.59-17.42-3.19-25.76-6.77-7.58-3.25-15.29-6.8-23.9-6.91-6-.07-11.54,1.76-16.84,4.06a85.76,85.76,0,0,1-29.66,7.32c-7.27.4-14.57.74-21.84.58-8.2-.19-16.38-.95-24.56-1.52a11.12,11.12,0,0,1-2.57-.83Z"/><path d="M564,620.42c-2.31-1-2.82-2.24-2.52-4.51.22-1.69-1-3.53-1.28-5.34s-.87-3.73-.36-5.29a7.1,7.1,0,0,0-.65-6.38c-1.45-1.93-1.24-3.71-1.24-5.68,0-.52.23-1.3,0-1.53-4-3.45-3.54-8.58-4.92-13-2.34-7.47-4.18-15.09-6.33-22.62-1.06-3.71-2.14-7.43-3.56-11-1.86-4.69-4.21-9.2-6.08-13.88-3-7.46-6-14.92-8.47-22.55-1-3.22-.69-6.89-1-10.36-.08-.91-.26-1.83-.25-2.74a29.43,29.43,0,0,1,.26-3.55,13.46,13.46,0,0,1,.53-1.56c.89-3.4,1.18-7.12,2.79-10.14,2.2-4.14,5.32-7.8,8.22-11.54a19.67,19.67,0,0,0,2.35-3.63c.88-1.82,3.07-3.08,4.87-4.33.33-.23,1.94.61,2.17,1.24s-.55,1.62-1,2.34a36.15,36.15,0,0,1-2.81,3.61c-.83.93-1.69,2.08-2.77,2.47-2,.73-3.23,1.65-3.61,4-.2,1.25-1.72,2.29-2.13,3.43a71.18,71.18,0,0,1-2.19,8.44c-2.74,7-1.38,13.73,1.1,20.44,3.83,10.37,7.65,20.73,11.35,31.15,1.44,4.07,2.64,8.25,3.73,12.43,1,3.86,1.66,7.81,2.59,11.69a44,44,0,0,0,1.74,4.92,11.77,11.77,0,0,1,.61,1.24c1.43,6,3,12.07,4.19,18.16,1.31,6.82,2.24,13.72,3.36,20.57a2.45,2.45,0,0,0,.46,1.21c2.73,3,1.71,6.79,2.08,10.27C565.23,619,564.46,619.66,564,620.42Z"/><path d="M380.65,1032.09c-3.42.34-6.83.86-10.25,1q-15,.54-29.94.8-11.32.2-22.65.1c-10.81-.09-20.71-3.77-30.68-7.54a160.54,160.54,0,0,0-24.62-7.17c-7-1.42-13.89-.06-20.36,3.46a70.76,70.76,0,0,1-32.53,9c-8.13.19-16.24.94-24.37,1.06-12.19.18-24.38,0-36.58,0-2.08,0-4.16.2-6.64.33,1.65-3.52,4.54-4.62,8.18-4.54,6.78.15,13.57-.13,20.36-.08,4,0,7.92.47,11.88.48,5.07,0,10.14-.19,15.2-.35q4.93-.16,9.86-.46a123.48,123.48,0,0,0,12.84-1,50.29,50.29,0,0,0,9.33-3c6.92-2.63,13.61-6.2,20.75-7.8a38.3,38.3,0,0,1,17.14.36c9.66,2.43,19.06,6,28.4,9.53a72.6,72.6,0,0,0,25.72,4.83c12.38,0,24.75-.3,37.13-.42,6.57-.07,13.15,0,19.72,0a10.2,10.2,0,0,1,2.07.44Z"/><path d="M226.16,1006.9c-1.53,2.69-3.24,4-5.73,4.09-4.8.09-9.61,0-14.42.11-5.16.11-10.33.42-15.49.5-4.18.06-8.36-.21-12.54-.13-4.38.08-8.75.55-13.12.6-6.68.07-13.37.08-20-.2-3.73-.16-7.44-1-11.16-1.44-10.93-1.35-21.81-.48-32.6,1.3-8.72,1.43-17.31,3.64-26,5.06-8.93,1.46-17.82.53-26.71-1.15-10.62-2-21.34-3.63-32.18-1.73-2,.35-3.89,1.11-5.85,1.65-.84.24-1.71.41-2.56.61l-.36-.66a16.87,16.87,0,0,1,2.33-1.75c4.7-2.43,9.75-3.13,15-3.32,9.21-.33,18.17,1.25,27.16,2.84,12.33,2.17,24.38.35,36.48-2.23a220.48,220.48,0,0,1,29.24-4.53c7.57-.57,15.28.68,22.93,1.06,8.48.42,17,1.06,25.44,1.09,9.88,0,19.77-.43,29.64-.85,9-.38,18.06-1,27.1-1.48A18.44,18.44,0,0,1,226.16,1006.9Z"/><path d="M309.79,456.17c.9-4,1.29-8.69,4.32-12.81,1.84-2.51,2.52-5.93,3.4-9,.26-.91-.7-2.12-.92-3.23a3.24,3.24,0,0,1,.16-2.2,2,2,0,0,1,1.9-.49c2.79,1.69,6.05,1.88,8.37,5.39,2.07,3.13,2.68,6.08,3.43,9.36.21.92,1.69,1.58,1.84,2.48.41,2.52,2,5,.3,7.7a2.24,2.24,0,0,0,0,1.59c.46,1.57,1.28,3.08-.9,4.18-.52.26-.76,1.36-.88,2.12-1.08,7.13-9.71,10.44-15.52,5.93C310.53,463.43,309.7,461.88,309.79,456.17Zm12.23-17c-1,2.62-1.47,5.11-2.84,6.89-2.86,3.73-2.89,8-2.93,12.21a5,5,0,0,0,4.48,4.45c2.17,0,3.83-1.74,4.14-4.23a2.32,2.32,0,0,1,.36-1.26c2.06-2.1,1.41-5,1-7C325.56,446.49,323.62,443.08,322,439.13Z"/><path d="M822.11,813.38a43.08,43.08,0,0,1,2.63,5c.93,2.47,2.62,4.74,1.72,7.76-.43,1.43.16,3.14.07,4.71a4.65,4.65,0,0,1-.9,2.36c-.92,1.25-2.26,2.23-3,3.55-1.27,2.2-2.82,3.54-5.5,3.19-.41-.05-.88.33-1.31.31-2-.1-4.34.33-6-.52-6.69-3.51-8.32-8.07-6.47-16a46.62,46.62,0,0,1,6-14.88c1.56-2.42,2.39-5.3,3.64-7.93.23-.48,1-1.16,1.29-1.06,1.82.77,4.4,1.27,5.15,2.69,1.69,3.21,2.46,6.9,3.61,10.39Zm-7.19-3.14c-4.38,6.42-5.65,12.82-6.06,19.45a4.74,4.74,0,0,0,1.3,2.66c1.61,2.06,4.17,2.86,6.12,1.62a10.25,10.25,0,0,0,3.92-5.56c.78-2.84-.4-5.68-2-8.28a23.9,23.9,0,0,1-1.92-4.86C815.83,813.87,815.5,812.41,814.92,810.24Z"/><path d="M850.41,792.57a45.82,45.82,0,0,1,3.76-13.35c1.16-2.43,1.24-5.36,2.29-7.87.82-2,2-4.32,3.72-5.25,2-1.06,4.6,1.45,6,4,1.83,3.28,3.29,6.51,3.2,10.39,0,.83,1.7,1.59,2,2.57.72,2.34,2.11,4.7.74,7.3a1.47,1.47,0,0,0-.13,1.15c1,1.87,1.67,3.6-1,4.75-.24.11-.37.61-.43.95-.56,3.56-2.25,5.64-6,6.79-2.79.85-5,1.41-7.72,0C852.8,802,850.44,798.6,850.41,792.57Zm10.66-15.43c-2.78,5.16-3.94,11.17-4.45,17.22-.1,1.22,2.16,3.13,3.73,3.83.91.41,2.75-.78,3.9-1.62.54-.4.23-1.81.68-2.52,1.91-3,1.34-5.95,0-8.89C863.69,782.48,862.37,779.83,861.07,777.14Z"/><path d="M352.93,486.51c1.42-.42,2.6-.85,3.83-1.1,1.65-.33,5,2.74,5,4.64,0,3.89,2.51,7.09,2.8,10.88,2.79.86,3,3.59,4.05,5.68a3.41,3.41,0,0,1,.33,2.23c-.37,1.3-.7,2.25.26,3.66.82,1.21,1.14,3.19-1.05,4.19a2.45,2.45,0,0,0-1.11,1.65,6.39,6.39,0,0,1-4.81,5.6c-4,.81-7.95,1.24-11.61-2.12-4.33-4-5-8.53-3.49-13.57a93.22,93.22,0,0,1,5.22-13.11C353.88,491.88,354.34,490.07,352.93,486.51ZM356.37,500a17.79,17.79,0,0,0-1.84,3.52c-.71,2.56-1.19,5.2-1.65,7.82-.52,2.93.47,5.35,3.14,6.21,1.39.45,4.06.19,4.66-.72,2.61-4,2.66-8.06-.93-12.18C358.63,503.34,357.74,501.87,356.37,500Z"/><path d="M840.27,877.17c0-4.45,1.63-8.34,3.83-12.1a52.89,52.89,0,0,0,3.51-7.05c.34-.85-.21-2-.33-3.08-.07-.57-.33-1.38-.06-1.66a2,2,0,0,1,1.72-.39c2,.65,4,1.44,5.93,2.26a1.79,1.79,0,0,1,.77,1c1,3,1.94,6,2.93,9a2.49,2.49,0,0,0,.75,1.24c2.93,2,4,4.77,3,7.78-.07.22-.51.51-.49.53,1.54,1.8,2.88,3.26-.1,5.33-1.45,1-1.51,3.86-2.87,5.19-4.32,4.22-10.82,4.54-15.11.34-2.06-2-2.84-5.34-4.2-8.07Zm10-12.21c-.22.53-.54,1.37-.93,2.18-1.58,3.27-3.22,6.48-2.81,10.34.28,2.62,2.92,5,5.17,4.41,4.17-1.18,5.59-7.22,3.62-10.34C853.89,869.22,852,867.15,850.31,865Z"/><path d="M506.21,456a43.26,43.26,0,0,1,6.7.56c.57.14,1.19,1.8,1.07,2.67-.17,1.3-1.07,1.47-2.48.91-1.15-.45-2.67-.08-4,.08-1.88.23-3.22,0-3.89-2.18a10.17,10.17,0,0,0-2.59-3.51,41.48,41.48,0,0,0-3.24-2.86l.49-.77-2.61.16c-6.41-7.59-12-15.74-20.19-21.76-4.6-3.39-8.49-7.88-12.18-12.3-1.65-2-2.15-5-3-7.56-.51-1.65-.59-3.39,1.72-3.93s3.32.65,4.32,2.49c1.55,2.85,3.07,5.85,5.23,8.21,3.13,3.42,7,6.19,10.22,9.5a95.85,95.85,0,0,1,6.76,8.16c3.15,4,6.75,7.77,9.2,12.17C500.12,450.31,503.92,453,506.21,456Z"/><path d="M759.93,476.06a14.48,14.48,0,0,1-.56,3.29c-4.13,9.88-7.77,20-12.65,29.51-6.84,13.31-14.49,26.21-22.08,39.12-2.22,3.78-5.43,7-8.19,10.43l-.72-.44c1.22-2.68,2.25-5.47,3.69-8,4.62-8.11,9-16.36,14.18-24.15,7.91-12,13.38-25.09,18.71-38.3,1.28-3.16,2.89-6.19,4.47-9.22a17.42,17.42,0,0,1,2.15-2.7Z"/><path d="M521.63,62.86a147.45,147.45,0,0,0-46.38-19.32l.21-1a66.6,66.6,0,0,1,7.36.56A103.33,103.33,0,0,1,495.52,46a78.2,78.2,0,0,1,10.84,4.67c4,2,7.88,4.18,11.76,6.39C520,58.11,521.81,59.41,521.63,62.86Z"/><path d="M528.7,679.81c.72-3.24,1.67-6.1,2-9,.69-7.15.91-14.35,1.64-21.49.42-4.12,1.43-8.19,2.25-12.27.34-1.69.89-3.34,1.34-5l.91.15c0,2.22.1,4.45,0,6.67-.24,4.35-.57,8.69-.95,13q-.53,6.16-1.24,12.31c-.43,3.7-.85,7.42-1.56,11.08C532.63,677.26,531.84,679.31,528.7,679.81Z"/><path d="M875.18,989.25a7.1,7.1,0,0,1-5,6.53c-.39.1-1.53-.89-1.46-1.08a11.11,11.11,0,0,1,1.74-3.59c1.86-2.19,1.19-4.87-1.55-5.65-2.42-.69-4.53-.7-6,1.83a2,2,0,0,1-1.84.68,2.43,2.43,0,0,1-.92-1.79c-.39-4.06-1.33-5.51-3.83-5.65a6.49,6.49,0,0,0-6.78,5.26,6.6,6.6,0,0,1-1,1.65c-.41-.64-1.11-1.24-1.19-1.91-.35-2.65,2.2-6.34,4.91-7.37,4-1.52,7.56-.89,9.46,2,1,1.52,1.68,2.18,3.85,1.65C871,980.46,875.28,984,875.18,989.25Z"/><path d="M274.91,192.19c-5.35,1.17-10.45,1.82-15.22,3.47a90.51,90.51,0,0,0-13.86,6.62c-2.7,1.49-5,3.68-7.53,5.49-1.63,1.17-3.39,1.75-6.19.49a78.45,78.45,0,0,0,6.55-4.55c5.68-4.89,12.36-8.11,19.12-11a26.89,26.89,0,0,1,15.86-1.26A5.37,5.37,0,0,1,274.91,192.19Z"/><path d="M362.57,848.48c.09.83.21,1.66.26,2.49.24,3.85.47,7.7.67,11.55.22,4.1.64,8.2.52,12.29a113,113,0,0,1-1.28,13.32,4.46,4.46,0,0,1-4.21,4.13c.63-2.71,1.56-5.09,1.66-7.5.29-6.65.17-13.32.32-20,.09-4,.35-8,.58-12,.08-1.45.28-2.9.43-4.35Z"/><path d="M900.51,548.32c.31-2.15.86-3.95.76-5.71-.42-7.3-1.46-14.34-5.54-20.84-2.47-3.94-3.5-8.79-5.15-13.25-.1-.27.11-.65.3-1.67,1.11,1.76,1.94,3,2.68,4.27,3.69,6.44,7.9,12.71,9.62,20,1,4.22.93,8.72,1,13.09C904.23,546,903.54,547.87,900.51,548.32Z"/><path d="M923.58,248.23c4.18-.64,8.39-1.12,12.54-2,4.72-.95,9.76-1.13,13.87-3.92,1.9-1.29,3-3.69,4.77-5.27a23.28,23.28,0,0,1,4.43-2.56,22.55,22.55,0,0,1-1.87,4.12c-2.43,3.4-4.72,7.15-9.14,8.2a125.06,125.06,0,0,1-13,2.34,93.62,93.62,0,0,1-9.62.39,10.68,10.68,0,0,1-2-.32Z"/><path d="M562.05,91.31c1.12,1.36,2.64,2.55,3.28,4.11,1.78,4.32,3,8.86,4.81,13.17,1.16,2.75,3.05,5.19,4.45,7.85a7.09,7.09,0,0,1,.21,2.68c-.82-.46-1.93-.71-2.42-1.41-4-5.65-8.27-11.11-8.82-18.49-.13-1.8-1.94-3.44-2.75-5.26-.29-.64.11-1.59.2-2.4Z"/><path d="M460.49,893.72c0-3.72.14-6.86,0-10-.38-6.85-3.15-13.58-.94-20.54.16-.49.36-1,.81-2.16a15.51,15.51,0,0,1,.74,2.16c1,7.07,2,14.14,2.92,21.22.38,2.89.29,5.74-1.94,8A18.69,18.69,0,0,1,460.49,893.72Z"/><path d="M482.88,734.48c.77-1.11,1-1.85,1.45-2a78.1,78.1,0,0,1,9-3.26c3.25-.84,6.71-.91,9.92-1.86,1.38-.4,2.29-2.24,3.55-3.25a9.86,9.86,0,0,1,2.53-1.06c.1.87.62,2.12.23,2.56-1.59,1.79-3.19,4.18-5.26,4.8-5.86,1.77-11.95,2.81-18,4.07A21,21,0,0,1,482.88,734.48Z"/><path d="M196.28,259.69c-1.3-6,2.92-10.48,4-15.66.17-.78,1.19-1.37,1.82-2.05.39.91,1.2,1.88,1.09,2.72a18.5,18.5,0,0,1-1.54,5.5,16.57,16.57,0,0,0-.47,14.35,9.68,9.68,0,0,1,.7,2.38,16.92,16.92,0,0,1,0,2.48c-.78-.48-1.95-.77-2.27-1.46C198.4,265.27,197.39,262.46,196.28,259.69Z"/><path d="M459.59,425.25a7.93,7.93,0,0,1-1.65-1.09,51.41,51.41,0,0,0-3.54-4.08c-1-.85-2.54-1-3.5-1.87a13.6,13.6,0,0,1-4.74-9.62c-.16-2.58,1.87-2.3,3.47-2.41s2.42.12,2.51,2.24a16.57,16.57,0,0,0,2,6.87c1.36,2.52,3.39,4.67,5.06,7a11.12,11.12,0,0,1,.94,2.22Z"/><path d="M313.61,943.16c.56-1.14.8-2.36,1.54-3,4.16-3.59,8.62-6.68,14-8.25,1.66-.48,3-1.9,4.6-2.76a8.26,8.26,0,0,1,2.2-.51c0,.8.38,1.9,0,2.35a14.34,14.34,0,0,1-4,3.51C326.17,937.4,320.26,940.05,313.61,943.16Z"/><path d="M462,787.45c2-1.29,3.25-2.73,4.77-3,5-1,10-1.7,15-2.29,1.76-.21,4.43-.19,4.34,2.14s-2.64,2-4.45,1.67a15.21,15.21,0,0,0-10.18,1.45C468.8,788.81,465.85,789,462,787.45Z"/><path d="M961.29,171.89c1,.42,2.24.58,2.81,1.31,3.23,4.16,5.71,8.66,6.08,14.11.14,2.08.82,4.12,1.09,6.2.07.59-.45,1.25-.7,1.88-.66-.32-1.58-.48-1.92-1a7.85,7.85,0,0,1-1.28-3.24c-.69-6.27-2.28-12.21-6-17.43a9.17,9.17,0,0,1-.52-.93Z"/><path d="M879.34,612c-2-1.07-.87-2.47-.21-3.48,2.73-4.18,5.69-8.21,8.39-12.41A55.93,55.93,0,0,0,890,590.8c.26-.52.9-.86,1.36-1.28.39.45,1.16,1,1.09,1.35-.35,2.1-.36,4.53-1.47,6.18-3.39,5-7.23,9.7-10.91,14.51A2.85,2.85,0,0,1,879.34,612Z"/><path d="M668.21,140.07c.34.84,1.05,1.72,1,2.51-.59,5.43-1.53,10.68-6.67,14.05-1.21.79-1.75,2.55-2.78,3.69-.43.47-1.35.5-2,.73-.19-.63-.73-1.44-.51-1.87.84-1.67,1.6-3.59,3-4.75a16.71,16.71,0,0,0,6.08-10.33c.21-1.25.62-2.46.94-3.69Z"/><path d="M569.89,137.33l.28-2.5,3.71-7.94,1.07.22a23.63,23.63,0,0,1,0,3.7c-.21,1.34-.87,2.6-1.11,3.94C573.24,137.93,573,138.11,569.89,137.33Z"/><path d="M197,286.8c-.39-4,1-7.24,3.08-10.31l1,.08a26.12,26.12,0,0,1,0,3.4c-.2,1.52-.82,3-.87,4.53C200.06,286.68,199,287.07,197,286.8Z"/><path d="M672.87,137c1.44-3.77,6.44-6,8.82-4.09C679.48,135.61,676.51,136.4,672.87,137Z"/><path d="M958.15,168.84c-2.05-.77-4.12-1.49-6.14-2.34a1.45,1.45,0,0,1-.47-1.35c.34-.57,1.27-1.43,1.49-1.31,2,1.1,4,2.38,5.92,3.61Z"/><path d="M544.67,643.93l-4,6.3c-1.33-3.78.27-6.48,3.19-6.94Z"/><path d="M416.1,431.39l.58,1.5a19.66,19.66,0,0,1,3.64-.11,10.59,10.59,0,0,1,.21,2.44,22.87,22.87,0,0,1-4.43-1.16c-.51-.24-.5-1.57-.72-2.4Z"/><path d="M430.71,435.84,429,439.45l-1.15-2.17a19.85,19.85,0,0,1-3.1.48c-.27,0-.55-.8-.83-1.23.35,0,.83.08,1-.11a10.51,10.51,0,0,0,1.14-1.57Z"/><path d="M791.65,332.08l1.44-8.72,1.12.17c.66,3.1-.2,6-1.27,8.84Z"/><path d="M564.09,630.59l2-7.13c1.78,3.56,1.48,5-1,7.44Z"/><path d="M694.28,587l5.08-6.15.86.69a10.6,10.6,0,0,1-5,6.25Z"/><path d="M554.24,455.86c-1.61,2.34-3.61,1.57-5.91,1.24C550.16,454.92,551.89,454.32,554.24,455.86Z"/><path d="M511.93,792.16l-2.68-2.63.46-.45-3.68-1.2.21-.87,2.22.51v.76l1.29-1.13c1.12,1.53,3.52,2.47,2.13,5.06Z"/><path d="M544.21,632.17l-3.89-2.81,1.79-2.55,2.72,4.92Z"/><path d="M536.46,1004.69l-9.63.85-.11-1,9.62-.94Z"/><path d="M520.74,457.94,516,455.62c2.67-1.36,3.55-1,5.18,1.41Z"/><path d="M477.7,384.39v2.56c-1.31-.07-2.31-.09-3.3-.2a5.21,5.21,0,0,1-1.67-.44,1.11,1.11,0,0,1,0-1,4.26,4.26,0,0,1,1.56-.57C475.31,384.62,476.34,384.54,477.7,384.39Z"/><path d="M581.54,736.23l1.38,5.37C580.22,740.66,579.77,738.9,581.54,736.23Z"/><path d="M435,65.71l5.87-.62C439.43,68.33,439.43,68.33,435,65.71Z"/><path d="M569.85,643.59a18.57,18.57,0,0,1-1.64,1.24c-1-1-1.84-2.14-2.72-3.24l.64-.58Z"/><path d="M543.57,792.59c-1-.79-2.12-1.36-2.05-1.6a33.93,33.93,0,0,1,1.67-4l.87.29Z"/><path d="M597,252.77c-.46.25-.9.53-1.38.76-.67.31-1.35.58-2,.87l-.62-1,3.36-2.43.62,1.91Z"/><path d="M559.64,450.46l-.77-4c.95.66,1.88,1,1.94,1.43a9.75,9.75,0,0,1-.37,2.79Z"/><path d="M493.56,392l2.75-2.94,1,1.09-3.2,2.69Z"/><path d="M336.48,847.7l-3.23-3.77c-.92-3.75,2.2-2.05,4-2.36l3,3.9h-4.55l3,2.66-2.57.55Z"/><path d="M335,860.11l-5.76-3.64,1.89-2.36c.68,1.77.53,5,3.87,2Z"/><path d="M236.3,948.78l.7-.42c.16-1.31,0-2.3.45-2.93.23-.34,1.38-.06,2.11-.05a8.47,8.47,0,0,1-.75,2.84c-.41.6-1.47.74-2.25,1.09Z"/><path d="M326.24,826.52h5.23l-.87,2.27-4.25-1.52Z"/><path d="M782.2,767.86l-4,1,1-2.89,2.89,1.08Z"/><path d="M652.5,351.63l-2.36-3.6.29-.51c.76.48,2,.83,2.18,1.45.27,1.13,2.48,2,.4,3.69-.9.72-1,2.49-1.45,3.87-2.54-2-3.16-4.55-3-8.28l3.26,3.61Z"/></g></g></svg>