<svg id="Calque_1" data-name="Calque 1" xmlns="http://www.w3.org/2000/svg" viewBox="0 0 244.66 164.7"><defs><style>.cls-1,.cls-2{stroke:#000;}.cls-1{stroke-linejoin:round;stroke-width:0.75px;}.cls-2{fill:none;stroke-miterlimit:10;}.cls-3,.cls-4{font-size:4.8px;}.cls-10,.cls-16,.cls-3{fill:#1d1d1b;}.cls-16,.cls-3,.cls-4{font-family:Roboto-Bold, Roboto;font-weight:700;}.cls-4{fill:#e9484e;}.cls-5{letter-spacing:-0.01em;}.cls-6{letter-spacing:0em;}.cls-7{letter-spacing:0.01em;}.cls-8{letter-spacing:0.02em;}.cls-9{letter-spacing:-0.07em;}.cls-10{font-size:4px;font-family:Roboto-Italic, Roboto;font-style:italic;}.cls-11{letter-spacing:-0.02em;}.cls-12{letter-spacing:-0.01em;}.cls-13{letter-spacing:0.02em;}.cls-14{letter-spacing:-0.02em;}.cls-15{letter-spacing:-0.06em;}.cls-16{font-size:6px;}</style></defs><path d="M1965.52,350.94c0-.42.1-.76.13-1.1.13-1.33.7-1.64,2-1.06.21.09.4.22.62.29l3.61,1.21a6.87,6.87,0,0,1,.9.48c-.55.43-1,.81-1.43,1.12-1.19.79-2.39,1.57-3.63,2.3a1.67,1.67,0,0,1-1.16.28,1.17,1.17,0,0,1-.8-1.27c0-.42,0-.84,0-1.31" transform="translate(-1728.13 -198.16)"/><path class="cls-1" d="M1964.14,351.88" transform="translate(-1728.13 -198.16)"/><polygon points="33.15 162.65 33.12 164.65 32.99 164.65 32.97 162.65 33.15 162.65 33.12 164.65 32.99 164.65 32.97 162.65 33.15 162.65"/><polygon points="32.91 158.71 32.85 154.78 33.27 154.78 33.21 158.71 32.91 158.71"/><polygon points="32.79 150.84 32.75 146.91 33.37 146.91 33.33 150.84 32.79 150.84"/><polygon points="32.72 142.97 32.69 139.04 33.44 139.04 33.4 142.97 32.72 142.97"/><polygon points="32.66 135.1 32.62 131.17 33.49 131.17 33.46 135.1 32.66 135.1"/><polygon points="32.59 127.23 32.55 123.3 33.55 123.3 33.52 127.23 32.59 127.23"/><polygon points="32.52 119.36 32.48 115.43 33.61 115.43 33.58 119.36 32.52 119.36"/><polygon points="32.45 111.5 32.41 107.56 33.66 107.56 33.64 111.49 32.45 111.5"/><polygon points="32.4 103.63 32.39 99.69 33.67 99.69 33.66 103.63 32.4 103.63"/><path d="M1760.52,293.92c0-1.32,0-2.64,0-3.95l1.3,0c0,1.3-.06,2.61,0,3.92Z" transform="translate(-1728.13 -198.16)"/><polygon points="32.5 87.87 32.58 83.94 33.89 83.97 33.8 87.9 32.5 87.87"/><polygon points="32.66 80.01 32.75 76.07 34.05 76.1 33.98 80.03 32.66 80.01"/><polygon points="32.85 72.14 32.9 70.18 32.89 68.22 34.13 68.21 34.16 70.19 34.13 72.17 32.85 72.14"/><polygon points="32.86 64.29 32.83 60.36 34.02 60.34 34.08 64.28 32.86 64.29"/><polygon points="32.8 56.42 32.77 52.49 33.9 52.47 33.96 56.41 32.8 56.42"/><path d="M1760.89,246.71c0-1.31,0-2.63,0-3.94h1c0,1.31,0,2.61,0,3.92Z" transform="translate(-1728.13 -198.16)"/><polygon points="32.85 40.67 32.93 36.74 33.83 36.75 33.81 40.68 32.85 40.67"/><polygon points="33 32.8 33.08 28.87 33.85 28.88 33.84 32.81 33 32.8"/><polygon points="33.15 24.93 33.19 22.94 33.87 22.95 33.82 24.95 33.17 24.93 33.19 22.93 33.87 22.94 33.87 24.94 33.15 24.93"/><polygon points="33.72 28.88 33.61 32.81 33.09 32.8 33.13 28.87 33.72 28.88"/><polygon points="33.51 36.74 33.43 40.68 32.99 40.67 33.05 36.74 33.51 36.74"/><path d="M1761.48,242.77q-.06,2,0,3.93h-.39c0-1.32,0-2.63,0-3.94Z" transform="translate(-1728.13 -198.16)"/><polygon points="33.37 52.48 33.43 56.41 33.01 56.41 32.98 52.48 33.37 52.48"/><polygon points="33.49 60.34 33.56 64.28 33.08 64.28 33.05 60.35 33.49 60.34"/><path d="M1761.77,266.37c0,1.32.06,2.63.06,3.94h-.61c0-1.31,0-2.62,0-3.93Z" transform="translate(-1728.13 -198.16)"/><polygon points="33.74 76.08 33.77 80.02 33 80.02 33.04 76.08 33.74 76.08"/><polygon points="33.81 83.95 33.84 87.89 32.91 87.89 32.95 83.95 33.81 83.95"/><path d="M1762,290c0,1.31,0,2.62,0,3.94l-1,0c0-1.31,0-2.62,0-3.93Z" transform="translate(-1728.13 -198.16)"/><polygon points="33.83 99.7 33.78 103.64 32.68 103.62 32.75 99.69 33.83 99.7"/><polygon points="33.73 107.57 33.66 111.5 32.57 111.49 32.61 107.55 33.73 107.57"/><path d="M1761.72,313.6c0,1.31,0,2.62,0,3.92h-1c0-1.32,0-2.63,0-3.95Z" transform="translate(-1728.13 -198.16)"/><polygon points="33.55 123.3 33.54 127.23 32.56 127.23 32.54 123.3 33.55 123.3"/><polygon points="33.53 131.17 33.51 135.1 32.63 135.1 32.59 131.17 33.53 131.17"/><polygon points="33.48 139.04 33.45 142.97 32.72 142.97 32.68 139.04 33.48 139.04"/><polygon points="33.41 146.91 33.36 150.84 32.79 150.84 32.75 146.91 33.41 146.91"/><polygon points="33.29 154.78 33.22 158.71 32.91 158.71 32.85 154.78 33.29 154.78"/><polygon points="69.58 162.65 69.52 164.65 69.39 164.65 69.34 162.65 69.56 162.65 69.52 164.65 69.39 164.65 69.33 162.65 69.58 162.65"/><polygon points="69.25 158.66 69.16 154.68 69.75 154.68 69.66 158.66 69.25 158.66"/><polygon points="69.09 150.7 69.02 146.72 69.89 146.72 69.82 150.7 69.09 150.7"/><polygon points="68.97 142.74 68.93 138.76 69.99 138.76 69.95 142.74 68.97 142.74"/><polygon points="68.88 134.78 68.84 130.79 70.06 130.79 70.03 134.78 68.88 134.78"/><polygon points="68.82 126.81 68.81 122.83 70.09 122.83 70.08 126.81 68.82 126.81"/><polygon points="68.8 118.85 68.79 114.87 70.1 114.87 70.09 118.85 68.8 118.85"/><polygon points="68.78 110.89 68.8 106.91 70.07 106.91 70.1 110.89 68.78 110.89"/><polygon points="68.83 102.92 68.84 98.94 70.02 98.94 70.05 102.92 68.83 102.92"/><polygon points="68.92 94.95 69.03 90.97 70.06 90.99 70.06 94.97 68.92 94.95"/><polygon points="69.14 86.99 69.24 83.01 70.08 83.02 70.07 87.01 69.14 86.99"/><polygon points="69.35 79.03 69.4 77.03 70.09 77.04 70.05 79.04 69.42 79.04 69.4 77.04 70.09 77.04 70.08 79.04 69.35 79.03"/><polygon points="69.97 83.02 69.91 87 69.46 87 69.45 83.02 69.97 83.02"/><polygon points="69.86 90.98 69.82 94.97 69.44 94.96 69.45 90.98 69.86 90.98"/><polygon points="69.82 98.95 69.82 102.93 69.33 102.92 69.39 98.94 69.82 98.95"/><polygon points="69.85 106.91 69.88 110.89 69.16 110.89 69.25 106.91 69.85 106.91"/><polygon points="69.92 114.87 69.95 118.86 68.97 118.85 69.06 114.87 69.92 114.87"/><polygon points="69.98 122.83 70 126.81 68.91 126.81 68.92 122.83 69.98 122.83"/><polygon points="70.02 130.79 70 134.78 68.94 134.78 68.91 130.8 70.02 130.79"/><polygon points="69.98 138.76 69.96 142.74 69 142.74 68.97 138.76 69.98 138.76"/><polygon points="69.91 146.72 69.84 150.71 69.1 150.7 69.04 146.72 69.91 146.72"/><polygon points="69.78 154.69 69.69 158.67 69.24 158.67 69.15 154.69 69.78 154.69"/><path d="M1854.23,360.86c0,.66-.1,1.33-.16,2h-.13c0-.67-.1-1.34-.14-2h.41c0,.66-.08,1.33-.14,2h-.13c-.06-.67-.1-1.34-.15-2Z" transform="translate(-1728.13 -198.16)"/><path d="M1853.6,357c-.07-1.29-.09-2.57-.13-3.86h1.1c0,1.28-.07,2.57-.14,3.85Z" transform="translate(-1728.13 -198.16)"/><path d="M1853.39,349.29c0-1.29,0-2.57,0-3.86h1.33c0,1.29,0,2.57,0,3.86Z" transform="translate(-1728.13 -198.16)"/><polygon points="125.28 143.41 125.36 139.56 126.46 139.56 126.53 143.42 125.28 143.41"/><polygon points="125.49 135.7 125.58 133.7 126.26 133.71 126.18 135.71 125.65 135.7 125.58 133.7 126.26 133.71 126.35 135.71 125.49 135.7"/><path d="M1854.24,337.72c0,1.29,0,2.57.06,3.86h-.52c0-1.29.08-2.57.07-3.86Z" transform="translate(-1728.13 -198.16)"/><path d="M1854.47,345.43c.06,1.29.11,2.57.11,3.86h-1.11c0-1.29.06-2.57.13-3.86Z" transform="translate(-1728.13 -198.16)"/><path d="M1854.55,353.15c0,1.28,0,2.57-.12,3.85h-.83c-.06-1.29-.08-2.57-.11-3.86Z" transform="translate(-1728.13 -198.16)"/><path d="M1760.85,199.06h19.24c3.78,0,7.56.06,11.33.05,4.87,0,9.74,0,14.59-.06,8-.09,16-.05,24,.1,7.62.14,15.43.21,23,.06,14.92-.31,29.86-.27,44.78-.23,11.81,0,23.49-.19,35.21-.37.31,0,.64,0,.94,0,6,.18,11.9,0,17.82-.18l12.22-.26c1.15.47,1.15.47,1.69,1.16.29,1.74-.11,2.51-.54,4.24-.28,1.1-.53,3.73-.81,4.84-.52,2.12-1.43,4.24-1.13,6.36a12.71,12.71,0,0,1-.28,5c-.11.41-.68.81-1.09,1.27-1.79,0-3.19.07-4.54,0-16.66-.35-33.34,0-50-.05-14.79,0-29.59-.06-44.38-.15-9.9-.06-19.77-.24-29.67-.35q-17.19-.18-34.4-.33c-5.5-.06-11-.13-16.48-.17-4.55,0-9.11,0-13.66,0-1.42,0-2.85,0-4.23-.08-2-.07-2.9-.31-2.67-.71a11.86,11.86,0,0,0,1-2.35,6.11,6.11,0,0,0,.29-1.93c-.2-2.85-.35-5.69-.56-8.53-.13-1.83-.88-3.63-1.17-5.45A6.22,6.22,0,0,0,1760.85,199.06Zm6.42,20.17c2.44,0,4.73.08,7.1,0,5.93-.17,11.86-.18,17.79.09,5.49.26,11.23.28,16.9.34,9.41.09,18.85.13,28.25.24,11,.13,21.9.41,32.91.42,3.61,0,7.23-.09,10.83-.08,8.8,0,17.59.16,26.38.15,17.09,0,34.18-.07,51.55-.12.19-.24,2.85-.2,2.87-.43.16-1.71.11-2.62.29-4.32.2-1.89.46-4.86.84-6.75.51-2.57.54-4.59,1-7.17a5.87,5.87,0,0,0-.33-2.28c-8.89.07-19.25-.06-27.86,0-12.59.11-25.18.33-37.76.31-20.47,0-40.91.25-61.38.08-11.32-.09-22.67,0-34-.06q-16.07,0-32.13,0c-4.21,0-8.3-.52-8.19.27.22,1.47,1.25,5.75,1.08,5.6,0,.36-.36,1.65.11,2,.47,3.05.4,3.56.68,5.3.15,2.43-.53,4-.57,5.49S1764.45,218.93,1767.27,219.23Z" transform="translate(-1728.13 -198.16)"/><path d="M1797.58,227.84c5.46,0,10.07.89,15.11.9,3,0,6.1.06,9.15,0,3.92,0,7.86,0,11.77-.06,6.49-.09,12.92,0,19.4.1,6.16.14,12.47.21,18.59.06,12.05-.31,24.11-.27,36.16-.23,9.54,0,19-.19,28.44-.37.25,0,.51,0,.76,0,4.85.18,9.61,0,14.39-.18l10.91-.26c2.18.41,1.3,1,1.11,1.75-.46,1.72-.53,3.45-.88,5.18-.22,1.1.35,2.12.13,3.22a15.42,15.42,0,0,0-.17,5.54,13.25,13.25,0,0,1-.19,5.17,6.86,6.86,0,0,1-.48,2.08c-1.45,0-4.88,0-6,0-13.45-.35-26.92,0-40.38-.05-12,0-23.9-.06-35.84-.15-8-.06-16-.24-24-.35l-27.78-.33c-4.44-.06-8.87-.13-13.31-.17-3.67,0-7.35,0-11,0-1.14,0-2.29,0-3.41-.08-1.63-.07-2.35-.31-2.16-.71.46-1,.16-3.18.46-4.13a39.91,39.91,0,0,0,0-4.64c-.16-2.85.38-1.2.21-4a28.7,28.7,0,0,0-.25-3.33A38.16,38.16,0,0,0,1797.58,227.84Zm4.75,21.07c2,0,3.82.08,5.74,0,4.79-.17,9.58-.18,14.36.09,4.44.26,9.07.28,13.65.34,7.6.09,15.22.13,22.81.24,8.86.13,17.69.41,26.58.42,2.91,0,5.83-.09,8.75-.08,7.1,0,14.2.16,21.3.15,13.8,0,27.6-.07,41.62-.12.16-.24,3,.11,3.06-.12,1.88-1.37,1-3,1.17-4.7.16-1.89-.2-4.86.1-6.75.42-2.57.3-4.45.7-7a9.09,9.09,0,0,0,.24-2.68c-7.18.34-17,.26-24,.33-10.17.11-20.33.33-30.49.31-16.53,0-33,.25-49.57.08-9.14-.09-18.31,0-27.46-.06q-13,0-26,0c-3.4,0-6-.91-5.93-.13a44.61,44.61,0,0,1,.19,6,16.59,16.59,0,0,0,.5,4.59c.37,3-.56,2.9-.33,4.64a27.1,27.1,0,0,1,0,3.53C1799.38,249.44,1800.06,248.61,1802.33,248.91Z" transform="translate(-1728.13 -198.16)"/><path d="M1963.6,276.36c-5.46,0-10.07-.89-15.11-.9-3,0-6.1,0-9.15,0-3.93,0-7.86,0-11.78.06-6.48.09-12.91.06-19.4-.09-6.15-.14-12.46-.22-18.59-.06-12,.3-24.11.26-36.16.23-9.53,0-19,.18-28.43.36-.25,0-.52,0-.76,0-4.85-.19-9.61,0-14.39.17-3.12.09-7.53.17-10.92.26-2.18-.41-1.29-1-1.1-1.74.45-1.73.52-3.46.87-5.18.23-1.11-.34-2.12-.12-3.23a15.65,15.65,0,0,0,.17-5.54,13.36,13.36,0,0,1,.18-5.16,6.94,6.94,0,0,1,.49-2.09c1.44,0,4.88,0,6,0,13.46.35,26.93,0,40.38,0,12,0,23.9.06,35.84.15,8,.06,16,.24,24,.35l27.79.34c4.43.05,8.87.12,13.3.16,3.68,0,7.36,0,11,0,1.14,0,2.29,0,3.41.07,1.62.07,2.34.31,2.15.71-.45.95-.16,3.18-.46,4.14a42.27,42.27,0,0,0,0,4.64c.16,2.84-.38,1.19-.21,4a30.9,30.9,0,0,0,.25,3.32A39.91,39.91,0,0,0,1963.6,276.36Zm-4.76-21.06c-2,0-3.82-.09-5.73,0-4.79.18-9.58.18-14.37-.09-4.43-.25-9.07-.28-13.64-.33-7.61-.1-15.22-.14-22.82-.25-8.86-.13-17.68-.4-26.57-.42-2.92,0-5.84.09-8.75.08-7.1,0-14.2-.15-21.3-.15-13.8,0-27.6.08-41.63.12-.15.24-3-.11-3,.12-1.88,1.37-1,3-1.18,4.7-.16,1.89.2,4.86-.1,6.75-.41,2.57-.29,4.45-.7,7a9.5,9.5,0,0,0-.24,2.68c7.18-.34,17-.26,24-.33,10.16-.11,20.33-.33,30.49-.3,16.52,0,33-.25,49.57-.09,9.14.09,18.3.06,27.46.07h25.94c3.4,0,6,.92,5.94.13a46.93,46.93,0,0,1-.2-6,16.82,16.82,0,0,0-.49-4.59c-.38-3,.56-2.9.33-4.64a25.4,25.4,0,0,1,0-3.53C1961.79,254.77,1961.12,255.59,1958.84,255.3Z" transform="translate(-1728.13 -198.16)"/><path d="M1853.75,311.44c3.6,0,6.64.89,10,.9,2,0,4,.05,6,.05,2.59,0,5.19,0,7.77-.06,4.28-.09,8.52-.05,12.8.09,4.06.15,8.22.22,12.26.06,8-.3,15.91-.26,23.86-.23,6.29,0,12.51-.18,18.76-.36a4.18,4.18,0,0,1,.5,0,90.83,90.83,0,0,0,9.49-.17c2.06-.09,5-.17,7.2-.26,1.44.41.86,1,.73,1.75-.3,1.72-.34,3.45-.58,5.17-.14,1.11.23,2.12.08,3.23a23.89,23.89,0,0,0-.11,5.54,19.57,19.57,0,0,1-.12,5.17,9.93,9.93,0,0,1-.32,2.08c-1,0-3.22,0-3.94,0-8.88-.35-17.76,0-26.64-.05-7.88,0-15.77-.06-23.64-.15-5.28-.06-10.54-.24-15.81-.35l-18.33-.34c-2.92-.05-5.85-.12-8.78-.16-2.42,0-4.85,0-7.28,0-.75,0-1.51,0-2.25-.07-1.07-.07-1.54-.31-1.42-.71.3-.95.11-3.18.31-4.13.09-.48,0-4.17,0-4.64-.11-2.85.25-1.2.14-4.05-.07-1.82,0-1.5-.17-3.32C1854.18,315.8,1854,312.41,1853.75,311.44Zm3.13,21.06c1.31,0,2.53.09,3.79,0a68,68,0,0,1,9.47.09c2.93.25,6,.28,9,.34,5,.09,10,.13,15,.24,5.84.13,11.66.4,17.53.42,1.92,0,3.85-.09,5.77-.08,4.69,0,9.37.15,14,.15,9.11,0,18.21-.08,27.46-.12.11-.24,2,.11,2-.12,1.24-1.37.68-3,.77-4.7.11-1.89-.13-4.86.07-6.75.27-2.57.2-4.45.46-7a13.85,13.85,0,0,0,.16-2.68c-4.74.34-11.22.26-15.81.33-6.7.11-13.41.33-20.11.31-10.91-.05-21.8.24-32.7.08-6-.09-12.08-.06-18.12-.07h-17.12c-2.24,0-4-.92-3.91-.13.11,1.48.22,6.15.13,6a24.93,24.93,0,0,0,.32,4.59c.25,3.05-.37,2.9-.21,4.64.08,2.43,0,2,0,3.53S1855.38,332.21,1856.88,332.5Z" transform="translate(-1728.13 -198.16)"/><path d="M1962.7,307.93c-3.6,0-6.65-.89-10-.9-2,0-4,0-6,0-2.59,0-5.18,0-7.77.06-4.28.09-8.52.06-12.79-.09-4.06-.15-8.23-.22-12.27-.06-7.95.3-15.9.26-23.85.23-6.3,0-12.52.18-18.76.36a4.26,4.26,0,0,1-.5,0,91.07,91.07,0,0,0-9.5.17c-2,.09-5,.17-7.2.26-1.43-.41-.85-1-.73-1.74.3-1.73.35-3.46.58-5.18.15-1.11-.23-2.12-.08-3.23a23.35,23.35,0,0,0,.11-5.54,20,20,0,0,1,.12-5.17,10.63,10.63,0,0,1,.32-2.08c1,0,3.22,0,3.94,0,8.88.35,17.77,0,26.64.05,7.89,0,15.77.06,23.65.15,5.27.06,10.53.24,15.8.35l18.33.34c2.93.05,5.85.12,8.78.16,2.43,0,4.85,0,7.28,0,.75,0,1.51,0,2.25.07,1.07.07,1.55.31,1.42.71-.3.95-.1,3.18-.3,4.14-.1.47,0,4.16,0,4.63.1,2.85-.26,1.2-.14,4.05.07,1.82,0,1.5.16,3.32C1962.26,303.57,1962.47,307,1962.7,307.93Zm-3.14-21.06c-1.3,0-2.52-.09-3.78,0a68.18,68.18,0,0,1-9.48-.09c-2.93-.25-6-.28-9-.33-5-.1-10-.14-15-.25-5.85-.13-11.67-.4-17.53-.42-1.93,0-3.86.09-5.78.08-4.68,0-9.37-.15-14-.15-9.1,0-18.21.08-27.46.12-.1.24-2-.11-2,.12-1.24,1.37-.67,3-.77,4.7-.11,1.89.13,4.86-.07,6.75-.27,2.57-.19,4.45-.46,7a14.69,14.69,0,0,0-.16,2.68c4.74-.34,11.23-.26,15.81-.33,6.71-.11,13.42-.33,20.12-.3,10.9,0,21.79-.25,32.7-.09,6,.09,12.07.06,18.11.07h17.12c2.24,0,4,.92,3.92.13-.12-1.48-.22-6.15-.13-6a24.47,24.47,0,0,0-.33-4.59c-.25-3.05.37-2.9.22-4.64-.08-2.43,0-2,0-3.53S1961.06,287.16,1959.56,286.87Z" transform="translate(-1728.13 -198.16)"/><polygon class="cls-2" points="21.93 83.71 21.93 63.22 21.93 42.73 21.91 22.24 21.92 42.73 22.04 63.22 21.93 83.71"/><path d="M1750.06,354.1l0,2.07v.68s-.11,0-.06,0v-.32l0-1-.17-4.14q-.24-4.14-.39-8.28V326.5l0-33.12v-2.76c-.28,0,2.36,0,1.25,0v13.78c0,5.52,0,11,0,16.55s.1,11,.06,16.57C1750.57,343.07,1750,348.58,1750.06,354.1Zm0,0c0-5.52-.39-11-.53-16.56,0-5.52,0-11-.06-16.55s0-11,0-16.56V290.65c-1.12,0,1.52,0,1.25,0v2.74l0,33.12v16.56c-.11,2.76-.23,5.52-.39,8.28l-.18,4.14,0,1v.32c.06,0-.07,0,0,0V354.1Z" transform="translate(-1728.13 -198.16)"/><path d="M1750.93,221c.46-.1.83-.19,1.21-.26,1.45-.28,1.72-.83.91-1.91-.13-.18-.29-.33-.41-.52-.6-1-1.18-2-1.79-3.05a7.17,7.17,0,0,0-.65-.73c-.41.54-.77,1-1.06,1.41-.72,1.16-1.44,2.32-2.09,3.51-.18.32-.32.82-.15,1.07a1.37,1.37,0,0,0,1.5.54c.46-.09.93-.13,1.45-.2" transform="translate(-1728.13 -198.16)"/><text class="cls-3" transform="translate(0 89.49)">Changements</text><text class="cls-3" transform="translate(140.62 154.69)">Temps</text><text class="cls-4" transform="translate(39.51 7.94)">1. Changement culturel de l’équipe</text><text class="cls-4" transform="translate(76.12 37.84)">2. Mise en oeuvre de nouvelles p<tspan class="cls-5" x="70.63" y="0">r</tspan><tspan x="72.31" y="0">atiques</tspan></text><text class="cls-4" transform="translate(76.51 62.88)">3. Améloi<tspan class="cls-5" x="20.58" y="0">r</tspan><tspan class="cls-6" x="22.26" y="0">ation de la qualité du code</tspan></text><text class="cls-4" transform="translate(131.03 94.2)">4. Pe<tspan class="cls-7" x="11.04" y="0">r</tspan><tspan x="12.83" y="0">fo</tspan><tspan class="cls-8" x="17.27" y="0">r</tspan><tspan class="cls-6" x="19.11" y="0">mance du delivery de l’équipe</tspan></text><text class="cls-4" transform="translate(131.42 121.4)">5. Rayonnement de l<tspan class="cls-9" x="44.1" y="0">’</tspan><tspan x="44.86" y="0">organisation</tspan></text><text class="cls-10" transform="translate(39.9 13.36)">Confiance et engagement des équipes dans l<tspan class="cls-11" x="78.19" y="0">’</tspan><tspan x="78.89" y="0">apprentissage, </tspan><tspan class="cls-12" x="0" y="4.8">v</tspan><tspan x="1.87" y="4.8">olonté de s</tspan><tspan class="cls-11" x="21.08" y="4.8">’</tspan><tspan x="21.78" y="4.8">améliorer</tspan></text><text class="cls-10" transform="translate(76.29 43.4)">Découve<tspan class="cls-13" x="15.05" y="0">r</tspan><tspan x="16.48" y="0">te et montée en compétence sur les nouvelles</tspan><tspan x="0" y="4.8">p</tspan><tspan class="cls-14" x="2.2" y="4.8">r</tspan><tspan x="3.45" y="4.8">atiques de développement </tspan></text><text class="cls-10" transform="translate(76.29 68.61)">Cla<tspan class="cls-13" x="5.64" y="0">r</tspan><tspan x="7.07" y="0">té du code, maintenabilité accrue, plus de stabilité et </tspan><tspan x="0" y="4.8">moins de bugs, meilleure couve</tspan><tspan class="cls-13" x="54.78" y="4.8">r</tspan><tspan x="56.21" y="4.8">ture de tests</tspan></text><text class="cls-10" transform="translate(131.16 100.34)">Plus g<tspan class="cls-14" x="10.78" y="0">r</tspan><tspan x="12.04" y="0">ande capacité à livre</tspan><tspan class="cls-15" x="47.79" y="0">r</tspan><tspan x="48.88" y="0">, liv</tspan><tspan class="cls-14" x="54.46" y="0">r</tspan><tspan x="55.72" y="0">aisons plus fréquentes et</tspan><tspan x="0" y="4.8">régulières, moins d’échecs de liv</tspan><tspan class="cls-14" x="56.21" y="4.8">r</tspan><tspan x="57.46" y="4.8">aison</tspan></text><text class="cls-10" transform="translate(131.16 126.76)">Visibilité interne (nouveau budget gagné) et externe<tspan x="0" y="4.8">(nouveaux talents attirés)</tspan></text><text class="cls-16" transform="translate(34.23 162.85)">1-2 mois</text><text class="cls-16" transform="translate(70.91 162.85)">3-4 mois</text><text class="cls-16" transform="translate(127.56 162.85)">5-6 mois</text><path d="M1746.82,351.3l-1.93,0h-1.2s0,.05,0-.05h.66l3.86,0,7.72-.17q7.71-.24,15.43-.39h30.87l15.44,0q3.87,0,7.74.1l7.71.24c5.13.12,10.27.09,15.41,0s10.3-.18,15.44-.16H1867c0,.55.08-1.23,0,1.23.13,0,0,0,0,0h-.58l-3.86,0-7.71-.06-15.44-.05L1824,352c-5.15,0-10.29,0-15.43.06-10.29.27-20.59.17-30.88.2-5.15-.13-10.29-.26-15.44-.51-2.57-.1-5.14-.23-7.71-.3Zm0,0,15.44-.05,15.43-.28c10.29,0,20.58.07,30.86-.2,5.16-.08,10.3,0,15.45-.06l15.43,0,15.44.05,7.72.06,3.87,0h.62l.15,0c-.13,2.47-.11.69-.15,1.24h-3.16c-5.14,0-10.27.08-15.42.16s-10.3.09-15.46,0c-10.29-.46-20.55-.32-30.85-.32l-30.88,0q-7.71-.15-15.43-.39l-7.72-.18-3.86,0h-.66c0-.11,0,0,0-.05h3.13Z" transform="translate(-1728.13 -198.16)"/><polygon class="cls-2" points="157.52 153.19 184.66 153.44 211.81 153.27 238.96 153.28 211.81 153.18 184.67 153.22 157.52 153.19"/></svg>