<svg xmlns="http://www.w3.org/2000/svg" viewBox="0 0 103.76 64.06"><title>Fichier 1</title><g id="Calque_2" data-name="Calque 2"><g id="Calque_1-2" data-name="Calque 1"><path d="M10.89,60.34c.94-1.22,1.86-2.45,2.83-3.65a5,5,0,0,1,1.39-1.33,1.49,1.49,0,0,1,1.28.26c.19.14.19.81,0,1.1A14.15,14.15,0,0,1,15,58.56c-1.3,1.55-2.66,3.05-3.92,4.63-.83,1-1.23,1.14-2.37.34-2-1.36-3.92-2.74-5.94-4A18.15,18.15,0,0,0,0,58.35c.25-1.83,1-2.24,2.45-1.3,1.59,1,3.17,2.12,4.77,3.15a10.15,10.15,0,0,0,1.31.58c0-1.12,0-2,0-3-.23-4.49-.36-9-.75-13.46-.3-3.45-.15-6.93-.95-10.35a25.82,25.82,0,0,1-.34-4.29c-.2-3.34-.39-6.68-.6-10a9.59,9.59,0,0,1-.23-2.63,17.1,17.1,0,0,1,1.6-4.33,12,12,0,0,1,4.43-4.58,4.72,4.72,0,0,1,2.21-.54c3-.05,6.08,0,9.13,0,2.81,0,5.62-.07,8.43-.06,4.13,0,8.26,0,12.39.06,3.35,0,6.7,0,10,0,1.8,0,3.59-.13,5.39-.17,4.61-.12,9.22-.22,13.83-.35.9,0,1.79-.19,2.68-.21,3-.07,6-.09,9-.17,4.65-.12,9.3-.26,14.29-.41a24.87,24.87,0,0,0-3.33-3.05A19.33,19.33,0,0,1,94.23,2c-.76-.81-.67-1.1.49-2l9,6.66a5.81,5.81,0,0,1-2.44,2.84A43,43,0,0,0,97,12.94c-.75.6-1.51,1.18-2.29,1.74-.58.42-1.22.59-1.77,0s-.1-1.18.72-1.76c1.7-1.21,3.4-2.42,5.09-3.65a7.6,7.6,0,0,0,.88-.9c-.8-.76-1.66-.48-2.45-.46-1.85.05-3.71.14-5.56.23-2.8.14-5.6.31-8.39.46-1.43.08-2.85.15-4.27.25-2.8.2-5.59.52-8.4.59-3,.07-5.92-.1-8.88-.16-1.36,0-2.72-.05-4.09,0-2.32,0-4.63.11-7,.11S46.19,9.21,44,9.22c-4.49,0-9,.13-13.47.19-1.25,0-2.51,0-3.76,0-3.71.14-7.42.2-11.12.48C10.26,10.33,7,15.7,7.49,20.17c.5,4.64.91,9.3,1.21,14,.27,4.18.22,8.38.51,12.55s.13,8.5,1,12.69a8.05,8.05,0,0,0,.25.81Z"/></g></g></svg>