<svg xmlns="http://www.w3.org/2000/svg" viewBox="0 0 567.1 573.37"><title>Fichier 2</title><g id="Calque_2" data-name="Calque 2"><g id="Calque_1-2" data-name="Calque 1"><g id="XUTYUH"><path d="M417.47,421.44a40.36,40.36,0,0,1-6.91.4,6.2,6.2,0,0,1-4-2.15c-.45-.62.39-2.8,1.26-3.67,2.82-2.79,5.69-4.5,10.4-4.27a32.51,32.51,0,0,0,16.34-3.47,24.22,24.22,0,0,0,11-11.6c1-2.37-2.64-8.1-5.52-8.13-4.76-.06-9.68-.43-14.24.62-3.25.75-6.25,3.34-8.89,5.65-1.94,1.7-2.94,4.44-4.71,6.4a10.17,10.17,0,0,1-4.8,3.27,7.11,7.11,0,0,1-5.48-1.17c-1-.83-1.16-3.48-.63-4.94,1.81-5,4.25-9.74,9.17-12.62a9,9,0,0,0,3.26-2.86c.65-1.11.5-2.68.7-4l-2.86-.17c-1.8-.12-3.73.13-5.36-.45-3-1.06-4-.18-5,2.75a56.46,56.46,0,0,1-5.66,12.62c-3,4.69-6.88,5.52-10.54,3.29a9,9,0,0,1-2.51-12.2c2.41-3.49,5.07-7.44,8.6-9.39,5.56-3.06,5.42-8,5.74-12.66.23-3.35-.26-7.82-3.79-9.08-2.82-1-4.84,2.57-7.06,4.55-5,4.48-6.79,10-6.89,16.42,0,1.19-1.14,2.35-1.76,3.53-.82-1.07-2.1-2-2.37-3.22-1.81-8,.34-15,6.06-20.95.81-.83,1.5-1.78,2.31-2.61,3.29-3.35,7.14-5.61,12-4.43s6.35,5.46,7.94,9.46a49.23,49.23,0,0,1,1.61,6.12c1.59-1,3.07-2.35,4.8-3a98.22,98.22,0,0,1,11.84-3.38c4.12-.87,6.23-3.11,6.35-7.42.16-5.64-1.95-9.72-7-12.69-11.93-7-23.46-5.56-34.87,1a98.27,98.27,0,0,0-11.22,7.35c-5.53,4.26-9.1,10.08-11.62,16.5-2.64,6.73-1.13,12.12,4.32,16.95,1,.88,2.61,2.6,2.36,3.07-1.19,2.18-2.71.63-4.14-.15a16.36,16.36,0,0,1-8.57-17c2.16-12.09,8.92-21.33,18.74-28.4,10.65-7.66,22.48-11.36,35.69-10.14a12.3,12.3,0,0,0,2.78-.38,16.46,16.46,0,0,0-2.15-2.39c-12.37-9.36-26.33-12.46-41.39-9.47-6.35,1.26-11.83,5-16.83,9.2-6.28,5.31-11.87,11.18-15.81,18.46-1.36,2.51-1.59,4.14,2.17,5.11,7.16,1.86,9.79,6.28,8,11.92-2.1,6.56-9.22,8.65-14.2,3.84a20.89,20.89,0,0,1-4.69-7.49c-.84-2.21-2-2.45-3.72-2a28.81,28.81,0,0,0-5.56,2.16,48.75,48.75,0,0,0-4.9,3.39c1.16,1.38,2.3,2.77,3.48,4.12,3.86,4.41,6.25,9.42,6.09,15.39-.08,3.31.15,6.09,2.49,9.08,4.54,5.81,3.21,9.4-3.88,11.78-2.66.9-4.07,1.87-4.69,4.74-.36,1.69-2.52,2.92-3.44,4.59-2.94,5.34-6.2,10.61-8.29,16.29-1.1,3-.09,6.79.1,10.22.26,4.52.59,9.05-4.06,11.82a12.1,12.1,0,0,1-3,.86c-.22-1.08-.91-2.36-.57-3.21,1.89-4.64.58-9.08-.56-13.52a13.29,13.29,0,0,1,1.11-10.05c2.28-4.37,3.67-9.2,5.87-13.62,1.17-2.36,3.25-4.27,4.9-6.39,2.16-2.79,1.88-3.8-1.12-5.52-5.21-3-8.49-7.54-8.66-13.55a79.36,79.36,0,0,1,1.21-14.77c.39-2.43,0-2.5-2.1-2.09-12,2.36-19.67,10-24.33,20.73a38.85,38.85,0,0,0-3.11,20.48c1.12,8.57,4.76,16.08,11.68,21.73a10.06,10.06,0,0,1,2.44,3.42c-1.8,1.65-3.19.18-4.72-.88-14.48-10.13-17-27.4-13.08-41.75a43.76,43.76,0,0,1,14.22-22.86,30.19,30.19,0,0,1,19.6-7.52,8,8,0,0,0,6.32-3.06c4.8-5.22,10.5-8.95,17.88-9.59a4.19,4.19,0,0,0,2.76-2.44c4.55-12.72,13.26-22,24.13-29.49A48.37,48.37,0,0,1,385,304.1,60.08,60.08,0,0,1,419.9,318c5.78,4.78,9.32,11.14,13.07,17.39.43.71.7,1.51,1.1,2.23,3.16,5.64,5.24,6.54,11.13,4.1,9.58-4,19.55-3.23,29.39-2.28,9.08.88,17.5,4,25.6,8.65,10.32,5.87,15.86,14.5,17.29,25.75,1.36,10.67.72,21.26-5.61,30.68-2,2.91.77,2.8,2.27,3.16a30.91,30.91,0,0,1,20.71,15.7c7,12.62,4,30.45-7.09,39.58-2.72,2.25-4.62,4.06-3.33,8.18,1.62,5.17-.26,10.27-2.62,14.9-3.47,6.79-7.32,13.39-10.93,20.12-.78,1.46-2.25,2.79-.33,4.81,11.75,12.42,6.41,28.87-4.22,38.28s-23.66,13.74-37.5,15.81c-14.06,2.11-27.66-.3-40.34-6.06-6.53-3-13.62-6.3-17.76-12.85-2-3.14-3.15-6.83-4.48-10.34-1.14-3,1.25-2.36,2.41-1.71,2.26,1.27,4.21,3.08,6.39,4.52,7.54,5,15,10,22.75,14.71,1.93,1.17,4.63,1.13,7,1.52,19.4,3.19,37.64.2,54-11,7.93-5.43,10.63-13.78,7.86-21.57a27.47,27.47,0,0,0-1.53-3.1c-1.54-3-3.12-2.86-5.72-.76-9.22,7.47-19.91,11.47-31.63,13.31-10.1,1.59-19.9-.19-29.54-2.22-4.89-1-10.23-3.08-13.24-8.13a7.54,7.54,0,0,0-3-2.37c-3.18-1.68-6.6-3-9.61-4.92-1.43-.92-2.12-3-3.14-4.53,1.33-.8,2.59-2.08,4-2.29,3.22-.49,6.71-1.19,9.45,1.39,1.47,1.38,2,.67,3.12-.42,2.32-2.27,4.91-4.27,7.35-6.41a9.18,9.18,0,0,0,1.08-1.38c-.63.09-1.27.2-1.91.27-7,.82-10.57-1.65-10.24-7.39.18-3.21,1.26-6.18,4.19-8.13,7.39-4.92,14.81-9.66,24.35-8.23a2.39,2.39,0,0,0,2-.77c1.24-2.3-1.61-9.57-4.1-10.45-2.82-1-5.24-1.29-7,2.31s-4.74,6.38-9.49,5.87c-5.89-.63-8.18-5.19-4.44-9.82a19.37,19.37,0,0,1,7.12-5c4.14-1.85,6.22-4.91,5.34-9.24-1.62-8-7.58-12-15.74-11-7.76,1-15,2.8-20,9.49-.59.78-2.48.58-3.77.84.2-1.19.09-2.56.66-3.54,4.41-7.51,11-12,19.69-12.59a80,80,0,0,1,13.77.25c2,.2,2.2-.22,2.37-1.83.39-3.78,3-6,6.17-7.21a77.65,77.65,0,0,1,13.83-4c3.44-.58,4.91-2.45,5.62-5.3,2.28-9.18,2.89-18.34-1-27.28-3.12-7.09-7.38-13.28-14.24-17.34-2.17-1.29-3.24-1-3.69,1.67s-2.25,5.39-1.62,7.57c.46,1.59,4.08,2.07,6,3.47,5.2,3.81,8.6,9.31,5.42,16.86-5.49,13-15.77,19-29.07,21-2.29.34-4.64.28-7,.41Zm16.19,69.42c1.33.26,3,1.13,3.93.65a35.85,35.85,0,0,0,6.47-4.47c.62-.5.78-1.56,1.16-2.37a6.63,6.63,0,0,0-2.44.39c-3,1.89-6,3.93-9,5.91l-2.4.65c.18.22.51.65.52.64C432.49,491.8,433.08,491.33,433.66,490.85Zm30.79-144.54-18.73,3.23c-2,.34-2.46,1.14-2.09,3.4.67,4.1,1.93,6.9,6,9.2,18,10.22,27.39,31.46,21.94,50.46-2.05,7.16-1.83,7.15,5.6,8,2,.24,2.83,0,2-2.2-1.34-3.64.7-5.85,3.68-7.07,3.21-1.31,6.66-3,10-2.89,6.81.14,9.34-4.56,12.43-9,5.05-7.34,4.6-15.75,4.54-24a17.85,17.85,0,0,0-2.33-8.91c-5.86-9.44-15-14.7-25.38-17.61C476.88,347.46,471.32,347.28,464.45,346.31Zm4.7,81.45c-2.72-.85-5.89,1-8.77,4.71-3.19,4.07-7.28,7.49-12.48,8.49-3.5.67-3.14,2.16-2,4.38,1.56,3,2.51,6.09,1.36,9.58-.17.53,1.18,2.11,2.06,2.34,8.21,2.16,12.25,11.89,11.59,18.26-.25,2.46.07,3.86,2.53,5,5.49,2.65,9.41,7,10.29,13.15.58,4.11,2.79,4.89,6.12,4,9.94-2.59,19.88-5.17,29-10.14,3.86-2.11,5.13-5.42,5-9.51-.12-3.43-.69-3.73-3.83-2.37a68.93,68.93,0,0,1-31.46,5.91c-4.65-.25-9.44-1.56-12.12-5.71-3.44-5.31-2.22-13.93,2.86-17.77a39.41,39.41,0,0,1,13.18-6.42,39.92,39.92,0,0,1,23.52.94c.78.26,1.78-.16,2.68-.26a7.63,7.63,0,0,0-.71-2.25C498.84,437.51,487.34,428.87,469.15,427.76Zm61.34,15.31c.6-7.88-1.92-14.48-6.88-20.52-2.92-3.56-5.95-6.27-10.7-6.65s-9.1-1.19-12.72,3.17c-1.62,2-4.33,3-6.56,4.46-.65.42-1.37.74-2.06,1.1a8.55,8.55,0,0,0,1.93,1.32c6.2,2.08,10.8,6.34,15.16,10.95,4.89,5.17,8,11.38,10.2,18,1,3,2.69,3.43,4.37,1.11C526.14,452,530.51,448.72,530.49,443.08Zm-49.7,64.51c-5.79.59-10.45.77-13.91,4.59a7.9,7.9,0,0,1-2.94,1.74c-5.34,2.13-10.72,4.17-16.07,6.29a7.14,7.14,0,0,0-1.51,1.14c.3.26.58.7.91.74,5.19.68,10.55,2.42,15.54,1.68,7.88-1.17,15.56-3.84,23.21-6.26,2.76-.88,5.22-2.81,7.68-4.46.34-.23.11-2.25-.16-2.32C489,509.49,484.32,508.42,480.79,507.59Zm29.62-42.32c-.64-.79-.87-1.37-1.25-1.5-5.23-1.79-9.63-6.18-16-4.47-5,1.35-10.21,2.17-15.36,3a6.19,6.19,0,0,0-5.08,6c-.24,3,1.87,3.32,4,4,6,1.92,11.91.33,17.79-.73a89.27,89.27,0,0,0,11.93-2.91C508,468.15,509.09,466.45,510.41,465.26ZM307,376c.81,3,1.32,5.9,2.48,8.55.55,1.26,2.6,2.93,3.56,2.7a7.26,7.26,0,0,0,4.38-3.35c2.42-4.87.28-14.15-3.7-18-1.95-1.89-3.46-1.87-4.26,1S307.85,372.86,307,376Zm118.87-3.94a15.94,15.94,0,0,0,.6,3.07c.81,1.59,1.41,4,2.69,4.48,2.56.92,4.78-.5,5.7-3.29.72-2.17,1.47-4.34,2-6.55.42-1.67,1.24-3.57-1.48-4.33-2.08-.58-4.19-2.61-6,.36C428,368.11,426.78,370.47,425.87,372.07Zm33.19,124,0,.25c1.48,0,3,.08,4.43,0a3.38,3.38,0,0,0,1.6-.79c-.51-1.5-.8-3.32-1.84-4.34a34.28,34.28,0,0,0-5.91-4.11c-.13-.08-.73.57-1.11.89-3,2.53-6.11,5-9.12,7.61a5.86,5.86,0,0,0-.95,1.58,17.39,17.39,0,0,0,2.06,0C451.86,496.78,455.46,496.4,459.07,496ZM439,513.66l4.41-1.68c-.28-.67-.4-1.74-.87-1.93a23.78,23.78,0,0,0-4.2-.95c-.11,0-.29.16-.39.28-1.16,1.59-4.69-1.53-4.35,1.83C433.72,512.23,437.21,512.89,439,513.66Zm65.82-12.72c-1.23-.2-1.7-.44-1.93-.29-1.26.79-2.47,1.66-3.69,2.51.57.28,1.37,1,1.67.78A39.51,39.51,0,0,0,504.83,500.94ZM338,351.7c-.51.81-1,1.37-.9,1.45,1,1.15,2.15,2.23,3.25,3.33a9.21,9.21,0,0,0,.93-1C340.32,354.3,339.28,353.14,338,351.7Zm76.8,15.58,2.42-1.93c-.34-.2-.8-.66-1-.56a8.87,8.87,0,0,0-1.95,1.31C414.2,366.15,414.54,366.69,414.81,367.28Z"/><path d="M259.63,194.72c8.47-1.62,17-3,25.4-4.94,8.59-2,17.07-4.4,25.6-6.62a10,10,0,0,1,2-.29c7.75-.42,15.54-1.41,23.26-1.08,9.71.41,18.35,4.73,26.15,10.23,6,4.25,7,10.14,3.56,15.16-3.81,5.52-10.7,6.82-16.74,2.85-2-1.32-2.73-1.57-4.47.57-1.5,1.85-4.38,2.58-6.67,3.78-.64.33-1.32.57-2,.85a19.41,19.41,0,0,0,1.4,1.91,2.75,2.75,0,0,0,1.27.77c3.65.94,4.25,2.92,2.6,6.24-1.24,2.51,0,4.7,2.39,5.77a105.76,105.76,0,0,0,10.23,3.88c4.58,1.51,9.27,2.68,13.82,4.27,7.68,2.67,12.26,8.15,14.32,16,2.84,10.86,4.78,11.88,15.91,9.25,11.33-2.67,22.64-5.44,34-7.79,3.86-.8,8-.51,11.94-.57.63,0,1.27.71,1.91,1.09-.34.54-.55,1.3-1,1.59a17.89,17.89,0,0,1-4.4,2.18c-13,3.44-26,6.89-39.13,10.07a48.39,48.39,0,0,1-11.37,1.25c-6.2,0-10.17-3.53-12.49-9.1a5.5,5.5,0,0,1-.42-1.44c-1.42-11.94-8.79-17.5-20.09-19.38a54.34,54.34,0,0,1-12.83-4c-5.77-2.54-11.5-5-10.36-13.61.69-5.2-8.26-10-13.14-7.85a5.52,5.52,0,0,1-1.35.63c-1.47.19-3.61.95-4.31.27-4.22-4.11-10.66-.13-14.66-4.21-3.47-3.52-3.35-7.72-1.78-12.09.62-1.74,1.06-3.55,1.59-5.33-1.8.82-3.66,1.53-5.38,2.49a77.32,77.32,0,0,1-31.14,9.88c-18.17,1.64-38.44-11-43.66-28.45-3.55-11.89.51-22.28,8.79-31.14,10.34-11.06,23.1-18.41,37-23.89A157.58,157.58,0,0,1,317,113.23a10.8,10.8,0,0,1,2.58.53A13.77,13.77,0,0,1,317,115c-13,3.31-26.26,6.08-39.13,10-16.46,5-31.24,13.28-43.42,25.64-6,6.06-10,13.32-7.45,22.08,3.28,11.14,11.22,17.85,22.52,20.37a97.67,97.67,0,0,0,9.9,1.21Z"/><path d="M189.61,353.58c-13.11-.37-25.72-2.21-36-11-2.19-1.87-3.3-5.13-4.56-7.9-.28-.61.83-2.64,1.49-2.74,2.4-.35,2.07-1.41,1.44-3.07-5-13.14-1.4-24.45,7.55-34.53,8-9,17.77-14.88,29.78-16.83a32.09,32.09,0,0,1,25,6.06c9.94,7.3,11,17.71,8.93,28.71a54.75,54.75,0,0,1-12.75,26.15,20.46,20.46,0,0,0-1.37,2,7.26,7.26,0,0,0,2.65.24q14.49-4.53,28.92-9.25c2.08-.68,3.52-1.1,4.48,1.82,1.68,5.07,1.94,5-3.2,6.75-14,4.79-27.91,9.74-42.51,12.33C196.16,352.91,192.84,353.18,189.61,353.58Zm27.07-46a18.86,18.86,0,0,0-23.42-19c-12.6,3.21-22.34,10.85-28.84,22.17-1.76,3.06-2.48,6.74-3.54,10.18-.21.68.2,1.56.32,2.34a7,7,0,0,0,1.92-1.22c6.51-8.32,15.36-8.32,24.49-6.73,4.72.82,8,5.23,8.2,10,.25,7.67-2.75,13.54-9.64,17.24a12,12,0,0,0-1.83,1.49,9.3,9.3,0,0,0,2.59.52A24.79,24.79,0,0,0,201,338.72,43.12,43.12,0,0,0,216.68,307.54ZM180.28,332l-3.57-4.21c-1,1.21-2.91,2.71-2.66,3.55.48,1.63,2.21,2.89,3.43,4.31Zm-6.65,16.64-1.33.83c1,.4,2,.87,3.06,1.18.39.12.89-.14,1.34-.22ZM190,327.19l-.61-2.27a6.48,6.48,0,0,0-.47,1.68,15.32,15.32,0,0,0,.33,2.36Zm-22.91,5.28-.78-2.64a7.65,7.65,0,0,0-.69,2.19,13.05,13.05,0,0,0,.54,2.74Zm-6.37,12a5.13,5.13,0,0,0-1-.8,4.56,4.56,0,0,0-1.22-.15,12.15,12.15,0,0,0,1.33,1.12C159.92,344.75,160.27,344.57,160.68,344.49Z"/><path d="M440.43,147.07c3.57.19,6.45-1.44,9.2-3.46,1.55-1.14,3.29-2,4.8-3.22,3.83-3,8.41-1.45,9.32,3.39a2.59,2.59,0,0,1-.68,2.13c-1.55,1.22-3.16,2.71-5,3.19C447,152,436,155.68,424.74,157.24c-15.59,2.16-30.87-1-45.14-7.59-4.18-1.93-7.49-5.85-11-9.1-1.24-1.16-2.36-3,.47-4.26.59-.27.93-2.25.62-3.17-4.64-13.55-.41-24.77,8.88-34.72,7.85-8.41,17.26-14,28.72-15.82A32.85,32.85,0,0,1,431.54,88a21.86,21.86,0,0,1,10.23,16.88c1.45,16.16-4.57,29.56-15.65,41-.69.71-1.58,1.23-2.28,1.94a8.07,8.07,0,0,0-1,1.57,6.32,6.32,0,0,0,1.81.33c4.75-.55,9.48-1.16,14.23-1.76l2.16.59Zm-5.64-33.22c.3-13.53-10.65-23.29-22.54-20.44-15.3,3.66-26.14,13.31-32.47,27.79a15.22,15.22,0,0,0-.87,4.89c-.05.67.51,1.39.8,2.09a6.38,6.38,0,0,0,1.52-1.08c6.29-8.24,15-8.26,24-6.93a10.28,10.28,0,0,1,8.8,10.54c0,6.12-1.87,11.45-7.12,15.19a7.08,7.08,0,0,0-1.31,1.81c.64.15,1.27.31,1.92.44,4.19.83,7.53-1.22,10.54-3.56A42.2,42.2,0,0,0,434.79,113.85Zm-36.19,23-3.8-4.06c-.93,1.23-2.85,2.78-2.58,3.63.52,1.63,2.28,2.85,3.53,4.25Zm42,15.82c-.81-.51-1.18-.92-1.43-.86-1.39.34-2.75.78-4.09,1.26-.12,0,0,.61-.07.93ZM407.62,130l-.52.08a18.49,18.49,0,0,0,0,2,19.72,19.72,0,0,0,.43,2,6.39,6.39,0,0,0,.76-2A6.81,6.81,0,0,0,407.62,130Zm-23.86,4.36c0,2.09-.06,3,0,3.92,0,.31.45.57.69.86.15-.91.36-1.82.43-2.74C384.93,136.13,384.57,135.8,383.75,134.4Z"/><path d="M43.57,389.77c11.21-1.38,22.41-2.89,33.64-4.11,10-1.09,20-3.58,30.26-2.07s14.87,8,11.65,18q-.23.71-.49,1.41c-2.75,7.41-2.79,7.5,4.53,9.86,1.94.63,1.24,1.4.79,2.49-1.27,3.07-2.72,6.09-3.7,9.25-1.87,6-.38,8.5,5.88,9.16s12.62.82,18.94,1.1c11,.48,15.91,4.39,18.66,15.12.29,1.13.56,2.27.92,3.37,1.68,5.05,4.16,6.93,9.36,5.87,9.94-2,19.73-4.72,29.68-6.65,6.82-1.33,13.8-1.88,20.72-2.63.95-.1,2,.72,3,1.11a10.92,10.92,0,0,1-2.24,2.46A16.84,16.84,0,0,1,221,455c-12.22,3.22-24.42,6.49-36.68,9.54A54.65,54.65,0,0,1,173,466.2c-7.46.24-11.81-3-14.28-10a42.47,42.47,0,0,1-1.1-4.34c-1.8-7.67-5.83-10.77-13.77-11-6.64-.18-13.35-.15-19.9-1.09-10.39-1.5-13.89-7.89-9.91-17.6,1.22-3,1.38-4.86-1.24-7.18-3.08-2.73-2.82-6.61-1.71-10.26a48.69,48.69,0,0,1,2.79-6.93c1.42-3,.47-5.14-1.9-7-3.06-2.36-6.59-3.54-10.31-2.44-8.59,2.54-17.19,5.13-25.6,8.19-12.86,4.69-26,7.38-39.64,5.43-15-2.14-26.32-10.25-33.21-23.66a26.43,26.43,0,0,1,1.43-27.62,70,70,0,0,1,14.27-15.8c13.83-11.11,29.87-18.15,47.17-21.81,10.7-2.26,21.65-3.33,32.5-4.87a11.28,11.28,0,0,1,2.8.3A9.57,9.57,0,0,1,99,309.89c-6,1.38-12,2.63-18,4-22.18,4.92-43.12,12.56-60.57,27.76a46.3,46.3,0,0,0-7.19,7.6C4.67,361,6.84,372,19,382.37a28.28,28.28,0,0,0,18,6.51c2.16.05,4.33,0,6.49,0Z"/><path d="M286.21,447.8c4.15.2,8.31.23,12.43.69,1.15.13,2.17,1.5,3.24,2.3-1.12.65-2.2,1.77-3.38,1.89-5.94.6-11.9,1-17.86,1.37a55.49,55.49,0,0,0-25.74,8.21c-11.3,6.9-15.37,21.06-10.9,33.44,5,13.8,18.81,20.82,33.12,17.69A96.33,96.33,0,0,0,295,507.81c4.84-2.11,9.75-2.93,14.83-3.65,3.64-.51,5.75,1.12,6.93,4.27,1.77,4.74,2.88,9.55,1.42,14.64a38.36,38.36,0,0,0-.61,3.92c-1.54,8.7,1.68,10.13,11,8.13a10.34,10.34,0,0,1,4,0c1.89.36,2.57,1.55,2.2,3.61a11,11,0,0,0,.34,4.44c1.07,4.31,2.62,5.11,6.75,3.73,8.7-2.89,14.36.09,18.25,8.56,4.12,9,5.65,11.63,15.23,4.12,4.64-3.65,8.4-8.41,12.78-12.42a12.52,12.52,0,0,1,5.41-2.6c2.49-.6,2.76.88,2.53,3.16-.69,6.7-5.45,10.58-9.59,15a34.42,34.42,0,0,1-19.27,10.41c-4.7.94-7.61-2-10.32-4.72a14,14,0,0,1-3.88-7.31c-.59-4-3.53-5.15-6.2-6.74-.68-.41-2.07.07-3,.44-8.43,3.4-13.7,1.3-16.57-7.13-1.06-3.11-2.44-4.53-5.74-3.61-.66.18-1.81.23-2.09-.15-2.69-3.52-8.94-2.51-10-8.33-.81-4.61-1.6-8.85.44-13.49,1-2.27.6-5.63-.3-8.09-.75-2.05-3.36-1.94-5.51-1-4.82,2.07-9.51,4.71-14.55,5.93-8.58,2.08-17.23,5.08-26.28,2.69-13.46-3.55-23-10.65-26.92-25.21-2.54-9.5-2.3-18.22,1.9-26.48a34,34,0,0,1,19.36-17C266.83,449.7,276.11,446.49,286.21,447.8Z"/><path d="M343.44,410.65a3.29,3.29,0,0,1,1.74,0c7.43,3.27,12.21-.94,16.84-5.77a6.27,6.27,0,0,1,1.49-.87c-.21.53-.74,1.23-.57,1.55,1.94,3.62-.08,5.69-2.69,7.76-.49.39-.61,2.29-.27,2.51,1.4.89,3.38,2.31,4.54,1.88,3-1.11,5.73-3.19,8.66-4.66a14.81,14.81,0,0,1,3.8-.79c-.28,1.08-.23,2.5-.91,3.19-2.17,2.2-4.68,4.08-6.93,6.21a8.94,8.94,0,0,0-1.33,2.54,20.66,20.66,0,0,0,2.45,0c3.22-.33,6.43-.87,9.66-1,.86,0,1.82,1.15,2.56,1.93a3.06,3.06,0,0,1-1.2,1.68c-2.09.93-4.24,2.15-6.44,2.32-3.18.24-4,.77-3.53,4.4,1.26,9.94.46,19.81-6.79,27.65-8,8.67-17.24,14.22-29.66,8.88-1.78-.77-3.91-.72-5.87-1.11-4.79-1-8-4.19-9.9-8.27a47.71,47.71,0,0,1-4.15-28.45A22.59,22.59,0,0,1,328.14,415C332.82,412.8,337.3,410.27,343.44,410.65Zm20.88,30.71c-.18-2-.28-3.94-.55-5.89-1.06-7.46-5.73-12.57-12.22-15.15-7.79-3.09-15.66-2.16-22.35,3.64a2.19,2.19,0,0,0-.23,1.64c3.87,1.51,1.12,2.75-.1,4.1a34.32,34.32,0,0,0-2.47,3.12,3.67,3.67,0,0,0-.3,1.31,4.9,4.9,0,0,0,1.28-.07c1.57-.51,3.09-1.48,4.67-1.56,3.57-.18,7.77-1.09,10.63.39,5.25,2.72,7.38,8.12,7.67,14.13a20.71,20.71,0,0,1-5.56,15.13,11.57,11.57,0,0,0-1.28,2.44,12.46,12.46,0,0,0,2.86.23C354,463.66,365.72,451.88,364.31,441.35ZM331,448.19c-.52,1-1,1.48-.94,1.83a5.47,5.47,0,0,0,1.11,1.55c.44-.37,1.29-.82,1.23-1.11C332.29,449.84,331.73,449.29,331,448.19Z"/><path d="M390.34,40.76c1.19.31,3.57.39,5.22,1.53,1.09.76,1.12,3,1.63,4.62a11.77,11.77,0,0,1-3.46-.1c-5.46-1.87-10,1.17-14.79,2.7-1.88.6-3.54,1.84-5.38,2.58-20.16,8.17-34.69,22.42-44.33,41.68-2.35,4.7-3.41,10-5.18,15a11.39,11.39,0,0,1-1.88,2.6c-.71-1-2.08-2-2-2.88.23-3.46.4-7.07,1.52-10.3,5.54-16,13.65-30.33,27.86-40.37,10.93-7.73,22.75-13.6,35.87-16.63A42,42,0,0,1,390.34,40.76Z"/><path d="M160.26,233.87c3.43,1.08,6.16,2.15,7.39,5.33.94,2.43-.18,3.52-2.76,3.11a12.37,12.37,0,0,0-4.86-.22,100.58,100.58,0,0,0-39.93,20.44c-6.65,5.59-11.35,12.35-16.06,19.35-1.21,1.8-2,5.64-5.21,3.92-2.85-1.53-1.12-4.62,0-6.58,5.28-9.16,10.62-18.21,20.13-24,6.9-4.19,13-9.81,20.11-13.55C145.68,238.23,153.16,236.42,160.26,233.87Z"/><path d="M444.9,324.66c1.17-.84.17-4.31,3.68-2.72a2.67,2.67,0,0,0,2.27,0c5.42-4.71,12.64-5.28,18.94-7.61,6.75-2.5,14.56-2.21,21.93-2.9,2.25-.21,4.58.35,6.87.6,7.53.82,13.75,4.34,19.1,9.52,1.19,1.15,2.42,2.51.66,4.23s-2.94.69-4.27-.54c-10.22-9.43-22.63-9.83-35.07-7.28-10.21,2.1-20.11,5.74-30,9C446.44,327.81,445.64,327.08,444.9,324.66Z"/><path d="M557.79,400.1c3-1.51,4.66.32,5.15,2.73a101.22,101.22,0,0,1,1.2,11.24c.14,1.59.25,3.19.27,4.79a98.2,98.2,0,0,0,2.4,22,21.51,21.51,0,0,1,.11,6.38c0,.69-.88,1.32-1.36,2a17.18,17.18,0,0,1-1.81-1.47,2.83,2.83,0,0,1-.65-1.33q-1.75-8.36-3.43-16.73c-.06-.31.13-.71,0-1-2.57-5.09-.52-10.49-.73-15.71-.14-3.34-1.23-6.24-1.63-9.37-.15-1.22.48-2.53.76-3.81Z"/><path d="M465.88,36.94c-8.12,1.47-16.25,2.91-24.37,4.41-1.65.31-3.83,2-4.44-.74-.26-1.16,1.25-3.58,2.47-4.05,7.22-2.74,14.24-6.3,22.48-5.23,3.88.5,7.91-.37,11.87-.34a6.72,6.72,0,0,1,4,1.42c1.45,1.23.61,4.07-1.15,4.29-3.58.44-7.18.66-10.77,1Z"/><path d="M241.48,225.93c5,0,9.44-.09,13.89.05a7.83,7.83,0,0,1,4.08,1.17,3.28,3.28,0,0,1,.62,3c-.25.69-1.63,1.24-2.57,1.35-9.79,1.2-19.59,2.26-29.38,3.48-1.78.22-3.47,1.19-5.25,1.43a15.53,15.53,0,0,1-4-.48c.71-1.48,1.07-3.79,2.2-4.28a125.35,125.35,0,0,1,14-4.87A38.87,38.87,0,0,1,241.48,225.93Z"/><path d="M174.31,226.68c2.86-6.4,5.23-12.93,8.61-18.89,2.3-4.05,5.91-7.38,9.12-10.87a6.61,6.61,0,0,1,3.72-2c.78-.1,2,1,2.52,1.92.27.47-.4,1.65-.87,2.37-5.13,8-10.35,16-15.43,24-.86,1.36-1,3.18-1.81,4.58a13.89,13.89,0,0,1-2.78,2.66Z"/><path d="M392.5,31.52c2.87-6.39,5.19-12.78,8.52-18.58,2.33-4.05,6-7.36,9.17-10.9a6.15,6.15,0,0,1,3.21-2,3.41,3.41,0,0,1,2.78,1.48c.37.63-.14,2.05-.65,2.87-5,7.92-10.2,15.76-15.22,23.69-.87,1.37-1.05,3.15-1.86,4.57a18,18,0,0,1-2.66,3Z"/><path d="M428.71,19.87c-.44.37-1.2,1.05-2,1.68-4.68,3.63-9.43,7.17-14,10.92-1.37,1.12-2.15,3-3.46,4.18-.79.74-2.08,1-3.14,1.41-.45-1.26-1.63-2.91-1.21-3.71,1.84-3.49,3.56-7.43,6.44-9.9,3.94-3.37,8.81-5.69,13.44-8.15C426.87,15.18,428.74,16.76,428.71,19.87Z"/><path d="M210.62,214.73c-.35.33-1,1-1.63,1.52-6.34,5.13-14,8.77-18.46,16.09-.35.58-2.42.9-2.82.49-.74-.76-1.48-2.53-1.08-3.21,2.23-3.82,4.24-8.06,7.41-11,3.43-3.12,8-5.06,12.19-7.23C208.68,210.18,210.68,211.61,210.62,214.73Z"/><path d="M545.51,474.1c-1.56-1.27-2.87-1.92-3.45-3-.31-.56.37-2.22,1.07-2.69,4-2.66,8-5.16,12.12-7.59.54-.32,1.52,0,2.26.24a1.59,1.59,0,0,1,0,1.28C553.61,466.26,549.63,470.11,545.51,474.1Z"/><path d="M95.48,299a21.1,21.1,0,0,1-1.44,4,26.25,26.25,0,0,1-2.94,3.39c.1-1.4.15-2.8.31-4.19a11.4,11.4,0,0,1,.65-3.36,2.49,2.49,0,0,1,1.9-1.18C94.49,297.71,95,298.59,95.48,299Z"/><path d="M412.48,289.06l2.54.79a27.39,27.39,0,0,1-3.31.72A4.71,4.71,0,0,1,410,290Z"/><path d="M523.16,332.49l-1.91,1.43c-.28-.48-.88-1.08-.76-1.41a12.76,12.76,0,0,1,1.44-2.38Z"/><path d="M557.79,400.1l.27-.26-2-1.19,1.49-.92Z"/></g></g></g></svg>