<svg xmlns="http://www.w3.org/2000/svg" viewBox="0 0 119.17 115.93"><defs><style>.cls-1{fill:#fff;}</style></defs><title>Fichier 14</title><g id="Calque_2" data-name="Calque 2"><g id="Calque_1-2" data-name="Calque 1"><path class="cls-1" d="M118.23,44.31,105.51,4.57l-18,14.73L87.41,0,51,15.36V2l-1.54.31C48.21,2.55,19,8.47,5.36,23.5A16.19,16.19,0,0,0,0,35.5c.17,6.63,0,33.57,0,33.84v.78L51,97.65v-.06l36.2,18.35S114,64.18,117.41,57.57A17.49,17.49,0,0,0,118.23,44.31Zm-98,33.77L2.6,68.58c0-4.49.15-27.11,0-33.14S7,25.51,7.15,25.36a50.27,50.27,0,0,1,13-9.77ZM48.41,93.32,22.78,79.47V41.78L48.41,20.1Zm0-76.53L22.78,38.4V14.23a123,123,0,0,1,25.63-9ZM51,18.17,84.84,3.89l0,17.52L51,49.08Zm0,76.52V52.42L84.9,24.74,85.14,112Zm64.1-38.31L87.72,109.3l-.24-86.67L104.18,9l.95,2.95,10.67,33.25A15.11,15.11,0,0,1,115.1,56.38Z"/></g></g></svg>