<svg xmlns="http://www.w3.org/2000/svg" viewBox="0 0 491.8 115.93"><title>Fichier 11</title><g id="Calque_2" data-name="Calque 2"><g id="Calque_1-2" data-name="Calque 1"><path d="M148.43,79.7V41h4l7.1,14.93c.65,1.58,1.42,3.12,2,4.73.69-1.68,1.38-3.35,2.1-5L170.56,41h3.92V79.7h-2.6V56.38q0-2.7.05-5.38t.11-5q.05-2.28.11-3.71l-9.26,20.14h-2.81l-9.37-20.14q.1,1.43.16,3.71c.08,3.44.16,6.89.16,10.34V79.7Z"/><path d="M193.61,80.23a10.5,10.5,0,0,1-7.21-2.38,8,8,0,0,1-2.7-6.31,7.71,7.71,0,0,1,2.49-6,9.42,9.42,0,0,1,6.57-2.25h10V59.83a7.41,7.41,0,0,0-1.91-5.43,7.26,7.26,0,0,0-5.41-1.93A8.46,8.46,0,0,0,190.22,54a6.14,6.14,0,0,0-2.44,4.21h-2.65a8.94,8.94,0,0,1,3.37-6,10.85,10.85,0,0,1,7-2.25,9.84,9.84,0,0,1,7.23,2.7,9.55,9.55,0,0,1,2.73,7.1V79.7h-2.65V75a6.81,6.81,0,0,1-3.23,3.79A11.72,11.72,0,0,1,193.61,80.23Zm.74-2.33a9.15,9.15,0,0,0,6.09-2,6.33,6.33,0,0,0,2.33-5.09V65.61H192.71a6.66,6.66,0,0,0-4.61,1.56,5.31,5.31,0,0,0-1.75,4.16,5.88,5.88,0,0,0,2.2,4.74A8.78,8.78,0,0,0,194.35,77.9Z"/><path d="M217,79.7V50.55h2.65v5a7.25,7.25,0,0,1,2.86-4A8.93,8.93,0,0,1,227.74,50a9,9,0,0,1,6.89,2.76,10.46,10.46,0,0,1,2.6,7.47V79.7h-2.65V60.62a8.81,8.81,0,0,0-2-6.12,6.89,6.89,0,0,0-5.38-2.2,7.14,7.14,0,0,0-5.54,2.23,8.68,8.68,0,0,0-2,6.1V79.7Z"/><path d="M258.8,80.23a9.67,9.67,0,0,1-7.42-2.89,11.14,11.14,0,0,1-2.7-7.92V50.55h2.65V69.42a9,9,0,0,0,2,6.2,7,7,0,0,0,5.49,2.23,7.12,7.12,0,0,0,5.56-2.23,8.91,8.91,0,0,0,2-6.2V50.55H269V69.42a11.09,11.09,0,0,1-2.73,7.9A9.77,9.77,0,0,1,258.8,80.23Z"/><path d="M287.47,79.7V55.91h-9V53.52h9V47.64a6.44,6.44,0,0,1,1.83-4.88A7,7,0,0,1,294.37,41h8.11V43.4h-8.11a3.87,3.87,0,0,0-4.24,4.24v5.88h12.35v2.39H290.13V79.7Z"/><path d="M320.81,80.23a10.5,10.5,0,0,1-7.21-2.38,8,8,0,0,1-2.7-6.31,7.71,7.71,0,0,1,2.49-6A9.43,9.43,0,0,1,320,63.27h10V59.83a7.41,7.41,0,0,0-1.91-5.43,7.26,7.26,0,0,0-5.41-1.93A8.46,8.46,0,0,0,317.42,54,6.14,6.14,0,0,0,315,58.24h-2.65a9,9,0,0,1,3.36-6,10.86,10.86,0,0,1,7-2.25,9.84,9.84,0,0,1,7.24,2.7,9.56,9.56,0,0,1,2.73,7.1V79.7H330V75a6.8,6.8,0,0,1-3.23,3.79A11.72,11.72,0,0,1,320.81,80.23Zm.74-2.33a9.15,9.15,0,0,0,6.1-2A6.34,6.34,0,0,0,330,70.85V65.61H319.91a6.67,6.67,0,0,0-4.61,1.56,5.31,5.31,0,0,0-1.75,4.16,5.88,5.88,0,0,0,2.2,4.74A8.78,8.78,0,0,0,321.56,77.9Z"/><path d="M354.36,80.23a10.15,10.15,0,0,1-7.63-2.89,10.59,10.59,0,0,1-2.81-7.71v-9a10.53,10.53,0,0,1,2.84-7.71A10.17,10.17,0,0,1,354.36,50,10.58,10.58,0,0,1,362,52.75a9.72,9.72,0,0,1,2.83,7.34h-2.65a7.43,7.43,0,0,0-2.1-5.62,8,8,0,0,0-5.75-2,7.59,7.59,0,0,0-5.7,2.15,8.26,8.26,0,0,0-2.09,6v9a8.27,8.27,0,0,0,2.09,6,7.53,7.53,0,0,0,5.7,2.17,7.88,7.88,0,0,0,5.75-2,7.45,7.45,0,0,0,2.1-5.59h2.65A9.72,9.72,0,0,1,362,77.51,10.58,10.58,0,0,1,354.36,80.23Z"/><path d="M389.24,79.7a7.12,7.12,0,0,1-5.11-1.7,6.5,6.5,0,0,1-1.77-4.93V52.94h-8.48V50.55h8.48V42.34H385v8.21h11.93v2.39H385V73.08q0,4.24,4.24,4.24h7.15V79.7Z"/><path d="M417.81,80.23a9.67,9.67,0,0,1-7.42-2.89,11.15,11.15,0,0,1-2.7-7.92V50.55h2.65V69.42a9,9,0,0,0,2,6.2,7,7,0,0,0,5.49,2.23,7.13,7.13,0,0,0,5.56-2.23,8.91,8.91,0,0,0,2-6.2V50.55H428V69.42a11.09,11.09,0,0,1-2.73,7.9A9.77,9.77,0,0,1,417.81,80.23Z"/><path d="M440.49,79.7V50.55h2.65v4.72a7.77,7.77,0,0,1,3-3.84,8.76,8.76,0,0,1,5-1.4,9.65,9.65,0,0,1,7.37,2.86,10.82,10.82,0,0,1,2.7,7.74v1.59H458.3V60.62a8.81,8.81,0,0,0-2-6.12,8.17,8.17,0,0,0-11.16,0,8.73,8.73,0,0,0-2,6.12V79.7Z"/><path d="M481.52,80.23a10,10,0,0,1-7.63-2.89,10.71,10.71,0,0,1-2.76-7.71v-9a10.65,10.65,0,0,1,2.78-7.71A10.07,10.07,0,0,1,481.52,50a9.89,9.89,0,0,1,7.55,2.89,10.77,10.77,0,0,1,2.73,7.71v5h-18v4a8.67,8.67,0,0,0,2,6,7.33,7.33,0,0,0,5.73,2.23,8,8,0,0,0,4.9-1.43,7.33,7.33,0,0,0,2.68-3.92h2.65a9.45,9.45,0,0,1-3.47,5.62A10.73,10.73,0,0,1,481.52,80.23Zm-7.74-16.85h15.37V60.62a8.75,8.75,0,0,0-2-6,7.17,7.17,0,0,0-5.64-2.23,7.37,7.37,0,0,0-5.73,2.2,8.65,8.65,0,0,0-2,6.07Z"/><path d="M118.23,44.31,105.51,4.57l-18,14.73L87.41,0,51,15.36V2l-1.54.31C48.21,2.55,19,8.47,5.36,23.5A16.19,16.19,0,0,0,0,35.5c.17,6.63,0,33.57,0,33.84v.78L51,97.65v-.06l36.2,18.35S114,64.18,117.41,57.57A17.49,17.49,0,0,0,118.23,44.31Zm-98,33.77L2.6,68.58c0-4.49.15-27.11,0-33.14S7,25.51,7.15,25.36a50.27,50.27,0,0,1,13-9.77ZM48.41,93.32,22.78,79.47V41.78L48.41,20.1Zm0-76.53L22.78,38.4V14.23a123,123,0,0,1,25.63-9ZM51,18.17,84.84,3.89l0,17.52L51,49.08Zm0,76.52V52.42L84.9,24.74,85.14,112Zm64.1-38.31L87.72,109.3l-.24-86.67L104.18,9l.95,2.95,10.67,33.25A15.11,15.11,0,0,1,115.1,56.38Z"/></g></g></svg>