<svg version="1.1" viewBox="0.0 0.0 347.501312335958 100.0" fill="none" stroke="none" stroke-linecap="square" stroke-miterlimit="10" xmlns:xlink="http://www.w3.org/1999/xlink" xmlns="http://www.w3.org/2000/svg"><clipPath id="p.0"><path d="m0 0l347.5013 0l0 100.0l-347.5013 0l0 -100.0z" clip-rule="nonzero"/></clipPath><g clip-path="url(#p.0)"><path fill="#000000" fill-opacity="0.0" d="m0 0l347.5013 0l0 100.0l-347.5013 0z" fill-rule="evenodd"/><path fill="#000000" fill-opacity="0.0" d="m72.93569 9.606299l274.33072 0l0 80.7874l-274.33072 0z" fill-rule="evenodd"/><path fill="#000000" d="m85.923325 68.49q-0.671875 0 -1.078125 -0.125q-0.390625 -0.125 -0.390625 -0.421875q0 -0.359375 0.390625 -0.5625q0.40625 -0.203125 1.28125 -0.359375q1.265625 -0.25 2.0625 -1.203125q0.8125 -0.96875 1.078125 -2.7499962q0.59375 -4.546875 1.046875 -8.671875q0.46875 -4.140625 0.75 -7.453125q0.28125 -3.328125 0.28125 -5.453125q0 -0.40625 0 -0.859375q0 -0.453125 -0.0625 -0.8125q-0.046875 -0.40625 -0.15625 -0.828125q-0.09375 -0.4375 -0.59375 -0.84375q-0.921875 -0.75 -1.78125 -1.03125q-0.859375 -0.28125 -2.03125 -0.484375q-0.5 -0.09375 -0.8125 -0.375q-0.296875 -0.28125 -0.296875 -0.640625q0 -0.40625 0.484375 -0.484375q0.484375 -0.078125 1.234375 -0.078125q0.515625 0 1.546875 0.0625q1.046875 0.046875 2.25 0.15625q1.21875 0.09375 2.25 0.140625q1.046875 0.046875 1.5625 0.046875q0.34375 0 0.59375 0.203125q0.265625 0.203125 0.359375 0.609375q0.265625 0.921875 0.515625 1.9375q0.25 1.0 0.609375 1.96875l8.0 20.3125q0.15625 0.359375 0.546875 0.4375q0.40625 0.0625 0.609375 -0.28125l9.984375 -20.78125q0.25 -0.859375 0.5 -1.921875q0.265625 -1.0625 0.40625 -1.875q0.15625 -0.65625 0.515625 -0.65625l1.828125 0q1.515625 0 3.203125 -0.203125q1.703125 -0.203125 2.5625 -0.203125q0.25 0 0.65625 0.078125q0.40625 0.078125 0.40625 0.4375q0 0.34375 -0.28125 0.546875q-0.265625 0.203125 -1.03125 0.515625q-0.65625 0.25 -1.46875 0.5625q-0.8125 0.296875 -1.515625 0.59375q-0.515625 0.203125 -0.875 0.6875q-0.34375 0.484375 -0.34375 1.046875q0 3.53125 0.125 6.65625q0.125 3.109375 0.28125 5.984375q0.15625 2.859375 0.34375 5.640625q0.203125 2.78125 0.359375 5.671875q0.109375 1.5781212 1.015625 2.4062462q0.90625 0.828125 2.78125 1.1875q0.859375 0.15625 1.265625 0.359375q0.40625 0.203125 0.40625 0.5625q0 0.296875 -0.40625 0.421875q-0.40625 0.125 -1.0625 0.125q-1.359375 0 -2.25 -0.078125q-0.890625 -0.078125 -1.703125 -0.125q-0.796875 -0.046875 -1.96875 -0.046875q-1.015625 0 -1.703125 0.046875q-0.671875 0.046875 -1.46875 0.125q-0.78125 0.078125 -2.140625 0.078125q-0.671875 0 -1.078125 -0.125q-0.390625 -0.125 -0.390625 -0.421875q0 -0.359375 0.390625 -0.578125q0.40625 -0.234375 1.28125 -0.34375q1.46875 -0.203125 2.015625 -1.03125q0.5625 -0.84375 0.5625 -2.6093712q0 -3.65625 -0.078125 -6.59375q-0.078125 -2.9375 -0.234375 -5.796875q-0.140625 -2.859375 -0.296875 -6.25q-0.046875 -0.5625 -0.3125 -0.53125q-0.25 0.015625 -0.5 0.53125l-11.65625 23.749996q-0.09375 0.25 -0.453125 0.28125q-0.34375 0.03125 -0.453125 -0.328125q-1.96875 -5.921871 -4.234375 -11.671871q-2.25 -5.75 -5.078125 -12.390625q-0.109375 -0.25 -0.359375 -0.25q-0.25 0 -0.3125 0.25q-0.453125 3.546875 -0.828125 6.515625q-0.375 2.953125 -0.578125 5.84375q-0.203125 2.890625 -0.203125 6.328125q0 1.3749962 0.859375 2.5156212q0.859375 1.140625 2.421875 1.4375q0.875 0.15625 1.265625 0.359375q0.40625 0.203125 0.40625 0.5625q0 0.296875 -0.40625 0.421875q-0.390625 0.125 -1.0625 0.125q-1.359375 0 -2.046875 -0.078125q-0.6875 -0.078125 -1.21875 -0.125q-0.53125 -0.046875 -1.484375 -0.046875q-0.921875 0 -1.4375 0.046875q-0.5 0.046875 -1.15625 0.125q-0.65625 0.078125 -2.015625 0.078125zm48.11238 0.453125q-0.90625 0 -1.84375 -0.703125q-0.9375 -0.703125 -1.578125 -1.71875q-0.625 -1.015625 -0.625 -1.921875q0 -1.6249962 0.859375 -2.5312462q0.859375 -0.921875 2.734375 -1.6875l5.171875 -2.125q1.015625 -0.40625 1.1875 -0.703125q0.171875 -0.3125 0.234375 -1.3125l0.09375 -3.25q0.046875 -1.3125 -0.734375 -2.265625q-0.78125 -0.96875 -2.25 -0.96875q-0.765625 0 -1.53125 0.25q-0.75 0.25 -1.265625 0.65625q-0.296875 0.203125 -0.40625 0.609375q-0.09375 0.40625 -0.09375 0.859375q0 0.203125 0.015625 0.453125q0.03125 0.25 0.03125 0.453125q0 0.265625 -0.640625 0.703125q-0.625 0.421875 -1.40625 0.75q-0.78125 0.328125 -1.296875 0.328125q-0.25 0 -0.40625 -0.125q-0.140625 -0.125 -0.140625 -0.328125q0 -0.8125 0.53125 -1.75q0.53125 -0.9375 1.484375 -1.75q1.171875 -1.0625 2.53125 -1.875q1.375 -0.8125 2.6875 -1.265625q1.328125 -0.453125 2.328125 -0.453125q1.828125 0 3.015625 1.296875q1.203125 1.28125 1.140625 3.203125l-0.25 12.15625q-0.046875 1.0781212 0.484375 1.7343712q0.53125 0.65625 1.34375 0.65625q1.265625 0 1.875 -0.5625q0.25 -0.25 0.40625 -0.25q0.25 0 0.390625 0.15625q0.15625 0.140625 0.15625 0.40625q0 0.546875 -0.546875 1.109375q-0.8125 0.8125 -1.75 1.28125q-0.9375 0.484375 -1.75 0.484375q-2.328125 0 -3.703125 -2.625l-0.140625 0q-1.671875 1.359375 -3.203125 1.984375q-1.515625 0.640625 -3.140625 0.640625zm2.390625 -2.421875q1.015625 0 1.71875 -0.328125q0.703125 -0.328125 1.265625 -0.890625q0.25 -0.25 0.421875 -0.671875q0.1875 -0.4375 0.234375 -1.4062462l0.109375 -2.484375q0.046875 -0.546875 -0.0625 -0.796875q-0.09375 -0.265625 -0.40625 -0.265625q-0.09375 0 -0.34375 0.0625q-0.25 0.046875 -0.65625 0.1875q-2.6875 0.96875 -3.734375 2.015625q-1.03125 1.03125 -1.03125 1.890625q0 1.3124962 0.78125 1.9999962q0.78125 0.6875 1.703125 0.6875zm14.133743 1.875q-0.46875 0 -0.75 -0.125q-0.265625 -0.125 -0.265625 -0.4375q0 -0.40625 0.296875 -0.53125q0.3125 -0.125 0.859375 -0.28125q0.765625 -0.203125 1.46875 -0.546875q0.71875 -0.359375 0.71875 -1.375l0 -10.890621q0 -1.375 -0.28125 -2.328125q-0.28125 -0.96875 -1.59375 -1.3125q-0.203125 -0.109375 -0.359375 -0.234375q-0.15625 -0.125 -0.15625 -0.4375q0 -0.546875 0.46875 -0.609375q1.765625 -0.453125 2.875 -1.109375q1.125 -0.65625 2.1875 -1.46875q0.15625 -0.09375 0.28125 -0.171875q0.125 -0.078125 0.265625 -0.078125q0.109375 0 0.1875 0.109375q0.078125 0.09375 0.078125 0.25q0 0.34375 -0.140625 1.4375q-0.125 1.09375 -0.125 1.796875q0 0.203125 0.03125 0.390625q0.03125 0.171875 0.078125 0.21875q1.765625 -1.671875 3.765625 -2.53125q2.015625 -0.859375 4.390625 -0.859375q2.484375 0 4.09375 2.03125q1.625 2.015625 1.625 5.0l0 10.796871q0 1.015625 0.703125 1.34375q0.71875 0.328125 1.484375 0.578125q0.40625 0.15625 0.78125 0.34375q0.375 0.171875 0.375 0.578125q0 0.296875 -0.359375 0.375q-0.34375 0.078125 -0.65625 0.078125q-1.0 0 -1.5625 -0.078125q-0.5625 -0.078125 -1.078125 -0.125q-0.5 -0.046875 -1.40625 -0.046875q-0.859375 0 -1.421875 0.046875q-0.546875 0.046875 -1.140625 0.125q-0.578125 0.078125 -1.59375 0.078125q-0.25 0 -0.640625 -0.078125q-0.375 -0.078125 -0.375 -0.375q0 -0.40625 0.375 -0.578125q0.390625 -0.1875 0.796875 -0.34375q0.765625 -0.25 1.46875 -0.578125q0.703125 -0.328125 0.703125 -1.34375l0 -10.640621q0 -2.21875 -1.25 -3.453125q-1.234375 -1.25 -3.296875 -1.3125q-1.828125 0 -3.203125 0.59375q-1.359375 0.578125 -2.421875 1.4375q-0.203125 0.203125 -0.3125 0.53125q-0.09375 0.328125 -0.09375 0.640625l0 12.203121q0 1.015625 0.703125 1.375q0.703125 0.34375 1.46875 0.546875q1.171875 0.3125 1.171875 0.8125q0 0.3125 -0.265625 0.4375q-0.25 0.125 -0.75 0.125q-1.015625 0 -1.609375 -0.078125q-0.578125 -0.078125 -1.078125 -0.125q-0.5 -0.046875 -1.421875 -0.046875q-0.859375 0 -1.390625 0.046875q-0.53125 0.046875 -1.125 0.125q-0.578125 0.078125 -1.578125 0.078125zm43.059036 0.8125q-0.359375 0 -0.359375 -0.40625q0 -0.515625 0.125 -1.5q0.125 -0.984375 0.125 -1.640625q0 -0.109375 0 -0.1875q0 -0.078125 0 -0.125q-1.96875 1.921875 -3.96875 2.765625q-2.0 0.828125 -4.390625 0.828125q-1.625 0 -2.9375 -0.6875q-1.3125 -0.671875 -2.078125 -2.015625q-0.75 -1.34375 -0.75 -3.3124962l0 -10.296875q0 -1.109375 -0.515625 -1.765625q-0.5 -0.65625 -1.671875 -1.109375q-0.25 -0.109375 -0.453125 -0.25q-0.203125 -0.15625 -0.203125 -0.5625q0 -0.453125 0.21875 -0.609375q0.234375 -0.15625 0.546875 -0.203125q1.71875 -0.109375 2.65625 -0.28125q0.9375 -0.171875 2.359375 -0.53125q0.140625 -0.046875 0.21875 -0.046875q0.078125 0 0.1875 0q0.546875 0 0.5 0.703125q-0.15625 1.171875 -0.234375 1.953125q-0.0625 0.78125 -0.0625 1.953125l0 9.875q0 1.21875 0.59375 2.2656212q0.609375 1.03125 1.59375 1.6875q1.0 0.65625 2.0625 0.65625q1.3125 0 2.296875 -0.140625q1.0 -0.15625 1.953125 -0.875q0.5625 -0.40625 1.421875 -1.3125q0.859375 -0.9062462 0.859375 -2.4843712l0 -9.265625q0 -1.0625 -0.640625 -1.59375q-0.625 -0.53125 -1.4375 -0.734375q-0.8125 -0.203125 -1.3125 -0.203125q-0.453125 0 -0.765625 -0.171875q-0.296875 -0.1875 -0.296875 -0.6875q0 -0.46875 0.328125 -0.609375q0.328125 -0.15625 0.734375 -0.15625q1.5625 -0.046875 2.59375 -0.125q1.046875 -0.078125 1.875 -0.25q0.84375 -0.1875 1.765625 -0.4375q0.09375 -0.046875 0.25 -0.0625q0.15625 -0.03125 0.25 -0.03125q0.65625 0 0.65625 0.546875q0 0.046875 -0.03125 0.1875q-0.015625 0.125 -0.0625 0.265625q-0.0625 0.15625 -0.140625 0.875q-0.0625 0.703125 -0.140625 1.46875q-0.078125 0.75 -0.078125 1.15625l0 11.703125q0 1.3749962 0.28125 1.9531212q0.28125 0.578125 0.625 0.578125q0.40625 0 1.1875 -0.078125q0.796875 -0.078125 1.140625 -0.078125q0.265625 0 0.515625 0.109375q0.25 0.09375 0.25 0.5625q0 0.390625 -0.203125 0.53125q-0.203125 0.125 -0.5 0.171875q-1.984375 0.25 -3.40625 0.765625q-1.40625 0.5 -2.53125 0.953125q-0.140625 0.046875 -0.453125 0.171875q-0.296875 0.140625 -0.546875 0.140625zm10.383392 -0.8125q-0.515625 0 -0.765625 -0.125q-0.25 -0.125 -0.25 -0.4375q0 -0.40625 0.328125 -0.546875q0.328125 -0.15625 0.828125 -0.265625q1.171875 -0.25 1.671875 -0.734375q0.515625 -0.484375 0.515625 -1.484375l0 -14.296871q-0.515625 0 -1.171875 -0.015625q-0.65625 -0.03125 -1.46875 -0.078125q-0.15625 -0.046875 -0.4375 -0.34375q-0.265625 -0.3125 -0.265625 -0.578125q0 -0.09375 0.140625 -0.171875q0.15625 -0.078125 0.21875 -0.125q0.90625 -0.453125 1.5625 -0.8125q0.65625 -0.359375 1.421875 -0.703125q0 -4.40625 1.078125 -7.34375q1.09375 -2.9375 2.8125 -4.65625q1.734375 -1.734375 3.65625 -2.46875q1.921875 -0.734375 3.59375 -0.734375q2.84375 0 4.203125 0.859375q1.375 0.859375 1.375 2.1875q0 1.015625 -0.515625 1.515625q-0.5 0.5 -1.21875 0.5q-0.453125 0 -0.828125 -0.34375q-0.375 -0.359375 -0.890625 -0.8125q-0.65625 -0.65625 -1.625 -1.234375q-0.953125 -0.59375 -2.625 -0.59375q-2.390625 0 -3.9375 2.078125q-1.53125 2.078125 -1.53125 6.375l0 4.46875q0 0.296875 0.171875 0.40625q0.171875 0.09375 0.375 0.09375l6.34375 0q0.25 0 0.453125 0.15625q0.203125 0.15625 0.203125 0.40625q0 0.359375 -0.078125 0.765625q-0.078125 0.390625 -0.234375 0.703125q-0.140625 0.40625 -0.453125 0.40625l-5.828125 0q-0.609375 0 -0.78125 0.1875q-0.171875 0.171875 -0.171875 0.46875l0 13.734371q0 1.0 0.65625 1.484375q0.65625 0.484375 2.6875 0.734375q1.15625 0.15625 1.15625 0.8125q0 0.3125 -0.25 0.4375q-0.25 0.125 -0.765625 0.125q-1.515625 0 -2.6875 -0.125q-1.15625 -0.125 -2.46875 -0.125q-0.859375 0 -1.421875 0.046875q-0.5625 0.046875 -1.171875 0.125q-0.609375 0.078125 -1.609375 0.078125zm18.529541 0.546875q-0.90625 0 -1.84375 -0.703125q-0.9375 -0.703125 -1.578125 -1.71875q-0.625 -1.015625 -0.625 -1.921875q0 -1.6249962 0.859375 -2.5312462q0.859375 -0.921875 2.734375 -1.6875l5.171875 -2.125q1.015625 -0.40625 1.1875 -0.703125q0.171875 -0.3125 0.234375 -1.3125l0.09375 -3.25q0.046875 -1.3125 -0.734375 -2.265625q-0.78125 -0.96875 -2.25 -0.96875q-0.765625 0 -1.53125 0.25q-0.75 0.25 -1.265625 0.65625q-0.296875 0.203125 -0.40625 0.609375q-0.09375 0.40625 -0.09375 0.859375q0 0.203125 0.015625 0.453125q0.03125 0.25 0.03125 0.453125q0 0.265625 -0.640625 0.703125q-0.625 0.421875 -1.40625 0.75q-0.78125 0.328125 -1.296875 0.328125q-0.25 0 -0.40625 -0.125q-0.140625 -0.125 -0.140625 -0.328125q0 -0.8125 0.53125 -1.75q0.53125 -0.9375 1.484375 -1.75q1.171875 -1.0625 2.53125 -1.875q1.375 -0.8125 2.6875 -1.265625q1.328125 -0.453125 2.328125 -0.453125q1.828125 0 3.015625 1.296875q1.203125 1.28125 1.140625 3.203125l-0.25 12.15625q-0.046875 1.0781212 0.484375 1.7343712q0.53125 0.65625 1.34375 0.65625q1.265625 0 1.875 -0.5625q0.25 -0.25 0.40625 -0.25q0.25 0 0.390625 0.15625q0.15625 0.140625 0.15625 0.40625q0 0.546875 -0.546875 1.109375q-0.8125 0.8125 -1.75 1.28125q-0.9375 0.484375 -1.75 0.484375q-2.328125 0 -3.703125 -2.625l-0.140625 0q-1.671875 1.359375 -3.203125 1.984375q-1.515625 0.640625 -3.140625 0.640625zm2.390625 -2.421875q1.015625 0 1.71875 -0.328125q0.703125 -0.328125 1.265625 -0.890625q0.25 -0.25 0.421875 -0.671875q0.1875 -0.4375 0.234375 -1.4062462l0.109375 -2.484375q0.046875 -0.546875 -0.0625 -0.796875q-0.09375 -0.265625 -0.40625 -0.265625q-0.09375 0 -0.34375 0.0625q-0.25 0.046875 -0.65625 0.1875q-2.6875 0.96875 -3.734375 2.015625q-1.03125 1.03125 -1.03125 1.890625q0 1.3124962 0.78125 1.9999962q0.78125 0.6875 1.703125 0.6875zm22.696228 2.484375q-2.546875 0 -4.59375 -1.296875q-2.046875 -1.296875 -3.25 -3.546875q-1.1875 -2.2499962 -1.1875 -5.046871q0 -3.28125 1.4375 -5.96875q1.453125 -2.6875 3.875 -4.28125q2.4375 -1.59375 5.390625 -1.59375q3.28125 0 5.765625 1.765625q0.609375 0.453125 0.609375 0.96875q0 0.40625 -0.359375 0.921875q-0.34375 0.5 -0.859375 0.828125q-0.5 0.328125 -0.953125 0.328125q-0.265625 0 -0.515625 -0.171875q-0.25 -0.1875 -0.546875 -0.390625q-1.125 -0.859375 -2.5 -1.609375q-1.359375 -0.765625 -2.265625 -0.765625q-2.484375 0 -4.03125 2.3125q-1.546875 2.296875 -1.546875 6.046875q0 2.375 1.03125 4.296875q1.046875 1.921875 2.796875 3.0468712q1.75 1.109375 3.875 1.109375q1.46875 0 2.53125 -0.46875q1.0625 -0.484375 2.28125 -1.7031212q0.09375 -0.109375 0.25 -0.1875q0.15625 -0.078125 0.25 -0.078125q0.5625 0 0.5625 0.7187462q0 0.296875 -0.1875 0.6875q-0.171875 0.375 -0.578125 0.875q-0.796875 1.015625 -1.921875 1.75q-1.109375 0.734375 -2.453125 1.09375q-1.34375 0.359375 -2.90625 0.359375zm19.398376 -0.0625q-2.484375 0 -3.875 -1.515625q-1.390625 -1.515625 -1.390625 -4.499996l0 -11.765625q0 -0.390625 -0.3125 -0.5625q-0.296875 -0.1875 -1.3125 -0.1875l-0.3125 0q-0.25 0 -0.4375 -0.328125q-0.171875 -0.328125 -0.171875 -0.6875q0 -0.109375 0.15625 -0.296875q0.15625 -0.203125 0.203125 -0.265625q1.015625 -0.703125 1.84375 -1.40625q0.84375 -0.71875 1.53125 -1.390625q0.6875 -0.6875 1.140625 -1.25q0.25 -0.25 0.421875 -0.421875q0.1875 -0.1875 0.4375 -0.1875q0.25 0 0.46875 0.109375q0.234375 0.09375 0.1875 0.453125l-0.25 2.28125q-0.046875 0.546875 0.25 0.75q0.296875 0.203125 0.96875 0.203125l5.765625 0q0.203125 0 0.359375 0.328125q0.15625 0.328125 0.15625 0.796875q0 0.453125 -0.15625 0.890625q-0.15625 0.421875 -0.359375 0.421875l-5.015625 0q-1.265625 0 -1.640625 0.203125q-0.375 0.203125 -0.375 1.21875l0 9.96875q0 2.03125 0.859375 3.2031212q0.859375 1.15625 2.46875 1.15625q1.484375 0 2.28125 -0.21875q0.8125 -0.234375 1.46875 -0.6875q0.109375 -0.109375 0.203125 -0.109375q0.203125 0 0.28125 0.234375q0.078125 0.21875 0.078125 0.484375q0 0.25 -0.84375 1.015625q-0.828125 0.75 -2.171875 1.40625q-1.34375 0.65625 -2.90625 0.65625zm24.874847 0.265625q-0.359375 0 -0.359375 -0.40625q0 -0.515625 0.125 -1.5q0.125 -0.984375 0.125 -1.640625q0 -0.109375 0 -0.1875q0 -0.078125 0 -0.125q-1.96875 1.921875 -3.96875 2.765625q-2.0 0.828125 -4.390625 0.828125q-1.625 0 -2.9375 -0.6875q-1.3125 -0.671875 -2.078125 -2.015625q-0.75 -1.34375 -0.75 -3.3124962l0 -10.296875q0 -1.109375 -0.515625 -1.765625q-0.5 -0.65625 -1.671875 -1.109375q-0.25 -0.109375 -0.453125 -0.25q-0.203125 -0.15625 -0.203125 -0.5625q0 -0.453125 0.21875 -0.609375q0.234375 -0.15625 0.546875 -0.203125q1.71875 -0.109375 2.65625 -0.28125q0.9375 -0.171875 2.359375 -0.53125q0.140625 -0.046875 0.21875 -0.046875q0.078125 0 0.1875 0q0.546875 0 0.5 0.703125q-0.15625 1.171875 -0.234375 1.953125q-0.0625 0.78125 -0.0625 1.953125l0 9.875q0 1.21875 0.59375 2.2656212q0.609375 1.03125 1.59375 1.6875q1.0 0.65625 2.0625 0.65625q1.3125 0 2.296875 -0.140625q1.0 -0.15625 1.953125 -0.875q0.5625 -0.40625 1.421875 -1.3125q0.859375 -0.9062462 0.859375 -2.4843712l0 -9.265625q0 -1.0625 -0.640625 -1.59375q-0.625 -0.53125 -1.4375 -0.734375q-0.8125 -0.203125 -1.3125 -0.203125q-0.453125 0 -0.765625 -0.171875q-0.296875 -0.1875 -0.296875 -0.6875q0 -0.46875 0.328125 -0.609375q0.328125 -0.15625 0.734375 -0.15625q1.5625 -0.046875 2.59375 -0.125q1.046875 -0.078125 1.875 -0.25q0.84375 -0.1875 1.765625 -0.4375q0.09375 -0.046875 0.25 -0.0625q0.15625 -0.03125 0.25 -0.03125q0.65625 0 0.65625 0.546875q0 0.046875 -0.03125 0.1875q-0.015625 0.125 -0.0625 0.265625q-0.0625 0.15625 -0.140625 0.875q-0.0625 0.703125 -0.140625 1.46875q-0.078125 0.75 -0.078125 1.15625l0 11.703125q0 1.3749962 0.28125 1.9531212q0.28125 0.578125 0.625 0.578125q0.40625 0 1.1875 -0.078125q0.796875 -0.078125 1.140625 -0.078125q0.265625 0 0.515625 0.109375q0.25 0.09375 0.25 0.5625q0 0.390625 -0.203125 0.53125q-0.203125 0.125 -0.5 0.171875q-1.984375 0.25 -3.40625 0.765625q-1.40625 0.5 -2.53125 0.953125q-0.140625 0.046875 -0.453125 0.171875q-0.296875 0.140625 -0.546875 0.140625zm10.633362 -0.8125q-0.515625 0 -0.765625 -0.125q-0.25 -0.125 -0.25 -0.4375q0 -0.40625 0.296875 -0.53125q0.3125 -0.125 0.875 -0.28125q0.953125 -0.25 1.4375 -0.734375q0.484375 -0.484375 0.484375 -1.1875l0 -10.890621q0 -1.375 -0.40625 -2.375q-0.40625 -1.015625 -1.671875 -1.265625q-0.203125 -0.0625 -0.359375 -0.265625q-0.15625 -0.203125 -0.15625 -0.40625q0 -0.5 0.46875 -0.609375q1.3125 -0.390625 2.75 -1.171875q1.453125 -0.796875 2.265625 -1.296875q0.296875 -0.203125 0.46875 -0.28125q0.1875 -0.078125 0.28125 -0.078125q0.25 0 0.25 0.359375q0 0.140625 -0.03125 0.75q-0.015625 0.609375 -0.046875 1.421875q-0.015625 0.8125 -0.0625 1.625q0 0.09375 0.09375 0.09375q0.8125 -1.015625 1.796875 -1.765625q0.984375 -0.765625 2.015625 -1.21875q1.046875 -0.453125 2.015625 -0.453125q1.0625 0 1.75 0.453125q0.6875 0.453125 0.6875 1.171875q0 0.5 -0.28125 1.109375q-0.28125 0.609375 -0.734375 1.0625q-0.453125 0.453125 -0.96875 0.453125q-0.296875 0 -0.65625 -0.125q-0.359375 -0.125 -0.765625 -0.328125q-0.40625 -0.15625 -0.8125 -0.296875q-0.390625 -0.15625 -0.796875 -0.15625q-1.21875 0 -2.359375 0.859375q-1.140625 0.859375 -1.140625 3.390625l0 10.234371q0 0.65625 0.703125 1.09375q0.71875 0.421875 1.984375 0.828125q0.546875 0.15625 0.84375 0.3125q0.3125 0.140625 0.3125 0.5q0 0.5625 -1.0 0.5625q-1.53125 0 -2.3125 -0.125q-0.78125 -0.125 -2.109375 -0.125q-0.859375 0 -1.390625 0.046875q-0.53125 0.046875 -1.109375 0.125q-0.578125 0.078125 -1.59375 0.078125zm25.23172 0.609375q-2.796875 0 -4.875 -1.359375q-2.078125 -1.375 -3.25 -3.8749962q-1.15625 -2.515625 -1.15625 -5.8125q0 -2.9375 1.34375 -5.34375q1.34375 -2.40625 3.5625 -3.875q2.234375 -1.46875 4.875 -1.46875q2.03125 0 3.59375 0.8125q1.578125 0.8125 2.453125 2.25q0.890625 1.4375 0.890625 3.3125q0 1.578125 -1.515625 1.578125l-10.6875 0q-0.71875 0 -1.0 0.375q-0.265625 0.375 -0.265625 1.5q0 2.421875 1.0625 4.421875q1.0625 2.0 2.828125 3.2031212q1.78125 1.1875 3.90625 1.1875q1.515625 0 2.75 -0.578125q1.25 -0.59375 2.21875 -1.7031212q0.203125 -0.25 0.296875 -0.328125q0.109375 -0.078125 0.25 -0.078125q0.40625 0 0.40625 0.5q0 0.9687462 -0.90625 2.1406212q-0.765625 0.953125 -1.828125 1.671875q-1.0625 0.703125 -2.328125 1.078125q-1.265625 0.390625 -2.625 0.390625zm-4.671875 -15.359371l4.609375 0q1.21875 0 2.078125 -0.046875q0.859375 -0.046875 1.671875 -0.203125q0.25 -0.046875 0.328125 -0.328125q0.078125 -0.28125 0.078125 -0.78125q0 -1.46875 -1.296875 -2.5q-1.28125 -1.046875 -3.0625 -1.046875q-1.15625 0 -2.328125 0.6875q-1.15625 0.671875 -1.921875 1.6875q-0.765625 1.015625 -0.765625 2.03125q0 0.5 0.609375 0.5z" fill-rule="nonzero"/><path fill="#000000" fill-opacity="0.0" d="m4.5 53.8937l36.593174 -24.395012l36.593174 24.395012l-36.593174 24.395012z" fill-rule="evenodd"/><path stroke="#000000" stroke-width="3.0" stroke-linejoin="round" stroke-linecap="butt" d="m4.5 53.8937l36.593174 -24.395012l36.593174 24.395012l-36.593174 24.395012z" fill-rule="evenodd"/><path fill="#000000" fill-opacity="0.0" d="m4.749344 28.106298l73.19685 0l0 48.7874l-73.19685 0z" fill-rule="evenodd"/><path fill="#000000" d="m25.249662 67.10313q-0.515625 0 -0.84375 -0.109375q-0.3125 -0.09375 -0.3125 -0.328125q0 -0.28125 0.3125 -0.4375q0.328125 -0.171875 1.0 -0.28125q1.0 -0.203125 1.640625 -0.96875q0.640625 -0.765625 0.84375 -2.15625q0.484375 -3.609375 0.84375 -6.859375q0.359375 -3.265625 0.578125 -5.875q0.21875 -2.625 0.21875 -4.3125q0 -0.3125 0 -0.671875q0 -0.359375 -0.046875 -0.640625q-0.03125 -0.328125 -0.125 -0.65625q-0.078125 -0.34375 -0.46875 -0.671875q-0.71875 -0.59375 -1.40625 -0.8125q-0.671875 -0.21875 -1.59375 -0.375q-0.40625 -0.09375 -0.640625 -0.3125q-0.234375 -0.21875 -0.234375 -0.5q0 -0.3125 0.375 -0.375q0.375 -0.0625 0.984375 -0.0625q0.390625 0 1.203125 0.046875q0.828125 0.03125 1.78125 0.125q0.96875 0.078125 1.78125 0.125q0.828125 0.03125 1.2343731 0.03125q0.265625 0 0.46875 0.15625q0.203125 0.15625 0.28125 0.484375q0.203125 0.71875 0.40625 1.515625q0.203125 0.796875 0.484375 1.5625l6.312504 16.03125q0.125 0.28125 0.4375 0.34375q0.328125 0.0625 0.484375 -0.21875l7.875 -16.40625q0.203125 -0.671875 0.40625 -1.515625q0.203125 -0.84375 0.3125 -1.484375q0.125 -0.515625 0.40625 -0.515625l1.4375 0q1.203125 0 2.53125 -0.15625q1.34375 -0.15625 2.03125 -0.15625q0.203125 0 0.515625 0.0625q0.328125 0.046875 0.328125 0.328125q0 0.28125 -0.234375 0.453125q-0.21875 0.15625 -0.8125 0.390625q-0.515625 0.203125 -1.15625 0.453125q-0.640625 0.234375 -1.203125 0.46875q-0.40625 0.15625 -0.6875 0.546875q-0.265625 0.375 -0.265625 0.8125q0 2.796875 0.09375 5.265625q0.09375 2.453125 0.21875 4.71875q0.125 2.25 0.28125 4.453125q0.15625 2.203125 0.28125 4.484375q0.078125 1.234375 0.796875 1.90625q0.71875 0.65625 2.203125 0.9375q0.671875 0.109375 0.984375 0.28125q0.328125 0.15625 0.328125 0.4375q0 0.234375 -0.328125 0.328125q-0.3125 0.109375 -0.828125 0.109375q-1.078125 0 -1.78125 -0.0625q-0.703125 -0.0625 -1.34375 -0.109375q-0.625 -0.03125 -1.546875 -0.03125q-0.8125 0 -1.359375 0.03125q-0.53125 0.046875 -1.15625 0.109375q-0.609375 0.0625 -1.6875 0.0625q-0.515625 0 -0.84375 -0.109375q-0.3125 -0.09375 -0.3125 -0.328125q0 -0.28125 0.3125 -0.453125q0.328125 -0.1875 1.0 -0.265625q1.15625 -0.171875 1.59375 -0.828125q0.453125 -0.65625 0.453125 -2.0625q0 -2.875 -0.0625 -5.1875q-0.0625 -2.328125 -0.1875 -4.578125q-0.109375 -2.265625 -0.234375 -4.953125q-0.046875 -0.4375 -0.25 -0.40625q-0.1875 0.015625 -0.390625 0.40625l-9.203125 18.765625q-0.078125 0.203125 -0.359375 0.21875q-0.28125 0.015625 -0.359375 -0.265625q-1.5625 -4.671875 -3.3437538 -9.203125q-1.78125 -4.546875 -4.015623 -9.796875q-0.078125 -0.203125 -0.28125 -0.203125q-0.203125 0 -0.234375 0.203125q-0.359375 2.796875 -0.671875 5.140625q-0.296875 2.34375 -0.453125 4.625q-0.15625 2.28125 -0.15625 5.0q0 1.078125 0.671875 1.984375q0.6875 0.890625 1.9218731 1.140625q0.6875 0.109375 1.0 0.28125q0.328125 0.15625 0.328125 0.4375q0 0.234375 -0.328125 0.328125q-0.3125 0.109375 -0.84375 0.109375q-1.0781231 0 -1.6249981 -0.0625q-0.53125 -0.0625 -0.953125 -0.109375q-0.421875 -0.03125 -1.171875 -0.03125q-0.71875 0 -1.125 0.03125q-0.390625 0.046875 -0.921875 0.109375q-0.515625 0.0625 -1.59375 0.0625z" fill-rule="nonzero"/></g></svg>