<svg xmlns="http://www.w3.org/2000/svg" viewBox="0 0 518.15 288.4"><title>Fichier 7</title><g id="Calque_2" data-name="Calque 2"><g id="Calque_1-2" data-name="Calque 1"><path d="M383.09,107.3c-.46-.94-1.41-.74-2.16-.2s-1.57,1.22-2.55,2c-2.13-2.06-4.27-4-6.27-6.12-5.06-5.3-10-10.71-15.09-16-4.39-4.56-8.91-9-13.34-13.52a3.75,3.75,0,0,1-1.15-2c-.46-5.38-.68-10.77-1.22-16.14-.68-6.87-1.81-13.69-1.4-20.65a61.94,61.94,0,0,0-.3-8.73c-.21-2.56-.71-2.94-3.31-2.89-4.5.09-9,.38-13.49.38-14,0-28-.09-42-.15a16.19,16.19,0,0,1-1.95-.25c.2-.7.35-1.16.46-1.64,2.47-10.57-.45-14.94-7.62-18.86-.51-.28-1-.56-1.55-.81-6.36-3-12-2.07-16.79,3.12a48.62,48.62,0,0,0-5.49,7.7c-2.06,3.4-3.36,7.07-2.3,11.32-.88.06-1.62.14-2.35.16q-20.48.58-41,1.13c-6.49.17-13,.23-19.49.38-3.2.08-3.42.53-2.94,3.56a50.67,50.67,0,0,1,.71,7.9c0,4.83-.24,9.66-.35,14.49-.15,6.62-.14,13.26-1.24,20h2.52c19.32-.15,38.65-.35,58-.42,6.33,0,12.65.3,19,.4q31.6.5,63.21,1c2.58,0,5.16.26,7.73.41a98.58,98.58,0,0,0,10.22.51,4.22,4.22,0,0,1,3.62,1.43c6.1,6.27,12.25,12.49,18.32,18.79C366.8,99,372,104.53,377.17,110a4.3,4.3,0,0,1,.44.74c-.48.54-1,1.07-1.45,1.64-1.52,1.86-1.13,3.28,1.21,3.8s4.58.83,6.89,1.14a29.28,29.28,0,0,0,3.42,0C386,113.74,384.63,110.49,383.09,107.3ZM260.7,8.26l3.45-.3v8.53h-1.71v-7H260.7Zm78.46,61c-.11,2-.27,2.09-2.28,2q-11.62-.23-23.23-.52c-7.66-.18-15.32-.46-23-.54-9.83-.09-19.66,0-29.49,0v-.09H187.95c-4.81,0-4.77,0-4.82-4.82,0-2.57-.22-5.14-.34-7.72a3.07,3.07,0,0,1,0-.74c1.54-7.46,1.47-15,1.32-22.56,0-1.75-.22-3.49-.3-5.24-.1-2-.08-2.09,2-2.11,4.08,0,8.17.09,12.25,0,13.9-.44,27.8-.95,41.7-1.44,4.66-.17,9.32-.5,14-.52q39.35-.2,78.7-.25c4.36,0,4.54-1,4.61,4.41.15,11.75.92,23.46,2,35.16A33.49,33.49,0,0,1,339.16,69.31Z"/><path d="M336.9,270.23a141.51,141.51,0,0,1-1.35-19.17c.08-3.32-.09-6.66-.33-10-.21-2.91-.48-3.1-3.34-3.05-5.75.1-11.49.37-17.24.38-11.83,0-23.66-.08-35.49-.14-.78,0-1.56-.11-2.42-.18.19-.78.32-1.26.43-1.74,1.91-8.71-.38-13.72-8.23-18l-.66-.36c-6.86-3.47-13-2.44-18,3.41-4.25,5-7.87,10.35-7.63,17.47-.66.06-1.23.15-1.79.17q-27.48.74-55,1.49a3.88,3.88,0,0,1-3-1.33q-14.57-14.06-29.17-28.07c-1.77-1.71-3.38-3.59-5.08-5.41.61-.75,1-1.26,1.44-1.78,1.48-1.91,1.32-2.55-.88-3.53-2-.88-3.93-1.81-5.91-2.66-.88-.37-1.83-.59-3-1a40.07,40.07,0,0,0,1.43,10.62c.41,1.64,1.7,2,3.11,1,.79-.55,1.48-1.24,2.54-2.13a19.8,19.8,0,0,0,1.45,1.9c2.09,2.14,4.18,4.29,6.36,6.36q13.32,12.65,26.67,25.26a3.48,3.48,0,0,1,1.17,1.55,46.14,46.14,0,0,1,1.14,8.13c0,7.24-.29,14.49-.55,21.73-.18,5-.52,9.95-.81,15.27H185c18.41-.15,36.82-.35,55.23-.43,6.24,0,12.49.34,18.73.41,9.58.11,19.17-.06,28.75.21,15.48.44,31,1.13,46.44,1.73,2.73.11,4.14-1,4-3.48C337.82,280,337.44,275.11,336.9,270.23Zm-76.78-39.4h1.66a1,1,0,0,0,.35.81,1.28,1.28,0,0,0,.89.32,1.3,1.3,0,0,0,.93-.33,1.17,1.17,0,0,0,.34-.89,1.29,1.29,0,0,0-.34-1,1.41,1.41,0,0,0-1-.31h-1v-1.28h1a1.17,1.17,0,0,0,.9-.32,1.26,1.26,0,0,0,.29-.89,1.15,1.15,0,0,0-.29-.83,1.11,1.11,0,0,0-.85-.31,1.2,1.2,0,0,0-.81.28.93.93,0,0,0-.33.74h-1.66v0a1.94,1.94,0,0,1,.77-1.65,3.06,3.06,0,0,1,2-.65,3.28,3.28,0,0,1,2.11.63,2.18,2.18,0,0,1,.79,1.8,1.81,1.81,0,0,1-.35,1.06,2.34,2.34,0,0,1-1,.78,2.18,2.18,0,0,1,1.08.77,2,2,0,0,1,.37,1.21,2.22,2.22,0,0,1-.85,1.84,3.42,3.42,0,0,1-2.18.67,3.34,3.34,0,0,1-2-.63,2,2,0,0,1-.82-1.78ZM330,286.25c-14.33-.37-28.65-.73-43-1-8.75-.14-17.5,0-26.24,0v-.08H191.05c-4.72,0-4.7,0-4.71-4.7,0-2.42-.12-4.83-.13-7.25a17.32,17.32,0,0,1,.27-2.44c.15-1.07.43-2.13.48-3.2a214.47,214.47,0,0,0,.2-23.19c-.14-2.35,0-2.36,2.23-2.42h1c6.41-.17,12.82-.31,19.22-.5,11.08-.32,22.15-.73,33.23-1q15.86-.38,31.73-.53,26.74-.21,53.48-.22c5.35,0,4.47-.46,4.75,4.73q1,18.34,2.06,36.67C335.18,286.48,335.25,286.39,330,286.25Z"/><path d="M517.37,167.5c-.9-8.78-2-17.55-1.58-26.41a52.62,52.62,0,0,0-.15-5.75c-.21-3.16-.47-3.39-3.61-3.32-5.16.11-10.33.36-15.49.36-7.66,0-15.33-.15-23-.25a14.83,14.83,0,0,1-1.72-.22c.14-.7.25-1.27.37-1.84,1.76-8.44-.41-13.28-7.85-17.5-.51-.29-1-.56-1.55-.81-6.43-3.09-12.22-2.18-17,3.11-4.52,5-8.21,10.52-8.17,18-5.22.21-10.21.47-15.19.61-12.91.37-25.82.69-38.73,1a11.22,11.22,0,0,0-1.5.08c-1.59.26-1.88.7-1.66,2.38a44.87,44.87,0,0,1,.8,6.43c-.15,10.25-.44,20.49-.73,30.74a20.24,20.24,0,0,1-.56,4.7,7.73,7.73,0,0,1-1.78,3.14c-1.94,2.06-4,4-6.09,5.92q-11.44,11-22.88,22a6.09,6.09,0,0,1-.91.59c-.56-.51-1.09-1-1.67-1.5-1.85-1.5-3.28-1.08-3.78,1.27s-.84,4.92-1.19,7.39a24.81,24.81,0,0,0,0,2.91c3.65-1.63,6.83-3,10-4.48,1.06-.5,1-1.46.35-2.33s-1.22-1.56-2-2.51c2-2,3.79-4.08,5.77-6,8.05-7.74,16.17-15.4,24.19-23.16a5.16,5.16,0,0,1,3.94-1.61q18.87.09,37.75,0c6.33,0,12.66-.41,19-.37,9.16.06,18.32.39,27.48.54,15.32.25,30.64.52,45.93,1.72,2.88.23,4.11-.82,4-3.64C518,175,517.76,171.23,517.37,167.5Zm-63.14-49.22a2.85,2.85,0,0,1,2.12-.8,3,3,0,0,1,2.07.69,2.35,2.35,0,0,1,.75,1.83,2.57,2.57,0,0,1-.42,1.43,14.09,14.09,0,0,1-1.4,1.71l-1.52,1.65v0h3.59v1.32h-5.82V125l2.76-3a6.68,6.68,0,0,0,.85-1.16,1.88,1.88,0,0,0,.25-.88,1.32,1.32,0,0,0-.29-.88,1,1,0,0,0-.82-.34,1.06,1.06,0,0,0-.9.4,1.71,1.71,0,0,0-.31,1.07h-1.66v0A2.58,2.58,0,0,1,454.23,118.28Zm61,59.82c-.07,2.23-.16,2.29-2.29,2.24-6-.14-12-.31-18-.45l-45.22-1v.33H388c-5.54,0-4.62-.15-4.56-4.56,0-1.33-.08-2.67,0-4,.1-2.47.28-4.95.39-7.42.2-4.57.47-9.14.54-13.71.06-3.83-.14-7.66-.2-11.49,0-1.93,0-2,1.9-2,8.74-.32,17.47-.65,26.21-.93q21.11-.67,42.21-1.25c3.58-.1,7.16,0,10.74,0,14.66,0,29.32-.12,44-.09,4.64,0,4-.47,4.25,4.19.57,11.56,1.17,23.12,1.73,34.68C515.22,174.44,515.27,176.28,515.21,178.11Z"/><polygon points="76.97 119.89 76.93 119.88 76.8 120.12 75 122.97 76.97 122.97 76.97 119.89"/><path d="M145.37,167.58c-1.05-9.27-2-18.54-1.69-27.9a30.74,30.74,0,0,0-.3-5.48c-.37-2.61-.56-2.73-3.18-2.68-4,.09-8,.38-12,.38-10.91,0-21.83-.14-32.74-.24a11.93,11.93,0,0,1-1.74-.29,20.67,20.67,0,0,0,.52-10.28,9.51,9.51,0,0,0-3.07-5.57,25.78,25.78,0,0,0-8.74-5.21A12.1,12.1,0,0,0,70.6,112,29.41,29.41,0,0,0,59.92,128.4a22.9,22.9,0,0,0-.34,3.95c-.57.06-1,.12-1.38.13L5.49,134c-.92,0-1.84,0-2.75.08-2.08.19-2.39.61-2.08,2.69a45.68,45.68,0,0,1,.87,6.17c0,4.08-.2,8.15-.35,12.23-.3,8.22-.05,16.46-1.18,24.72.44,0,.93.12,1.42.12,13.58,0,27.16.09,40.74,0,7.33,0,14.66-.43,22-.4,9.58,0,19.15.4,28.73.54,16.41.24,32.81.52,49.18,1.73,3,.22,4.24-.88,4.08-3.82C145.95,174.55,145.77,171.06,145.37,167.58Zm-68.43-50h1.72V123h1v1.32h-1v1.85H77v-1.85H73.48l-.08-1Zm66.11,60.31c0,1.37-.57,2-2.15,2-6.91-.26-13.82-.41-20.73-.56q-23.36-.5-46.72-1v.31H8.23c-4.58,0-4.54,0-4.58-4.54,0-2.66-.19-5.31-.29-8,0-.17-.08-.36,0-.49,1.29-3.13.74-6.42.84-9.64.16-5.31.28-10.64.18-15.95s-.73-4.47,4.22-4.62c13.23-.4,26.46-.84,39.7-1.21,11.82-.33,23.64-.66,35.46-.83,14.07-.21,28.15-.27,42.23-.34,4.25,0,8.5.09,12.74.19,2.21.05,2.36.22,2.44,2.48.18,5.08.21,10.16.48,15.23.41,7.65,1,15.29,1.45,22.93C143.16,175.25,143.1,176.58,143.06,177.91Z"/></g></g></svg>